  0
SECTION
  2
HEADER
  9
$ACADVER
  1
AC1009
  9
$FILLMODE
 70
 0
  9
$SPLFRAME
 70
 1
  9
$EXTMIN
 10
0
 20
0
 30
0.0
  9
$EXTMAX
 10
1058.33
 20
1058.33
 30
0.0
  0
ENDSEC
  0
SECTION
  2
TABLES
  0
TABLE
  2
LAYER
 70
1
  0
LAYER
  2
0
 70
     0
 62
     7
  6
CONTINUOUS
  0
ENDTAB
  0
ENDSEC
  0
SECTION
  2
ENTITIES
  0
LINE
  8
0
 62
     0
 10
0.0950846
 20
124.083
 30
0.0
 11
433.483
 21
124.083
 31
0.0
  0
LINE
  8
0
 62
     0
 10
433.483
 20
124.083
 30
0.0
 11
433.483
 21
0.257693
 31
0.0
  0
LINE
  8
0
 62
     0
 10
433.483
 20
0.257693
 30
0.0
 11
0.0950846
 21
0.257693
 31
0.0
  0
LINE
  8
0
 62
     0
 10
0.0950846
 20
0.257693
 30
0.0
 11
0.0950846
 21
124.083
 31
0.0
  0
LINE
  8
0
 62
     0
 10
71.676
 20
16.7831
 30
0.0
 11
85.6753
 21
16.7831
 31
0.0
  0
LINE
  8
0
 62
     0
 10
85.6753
 20
16.7831
 30
0.0
 11
85.6753
 21
2.78364
 31
0.0
  0
LINE
  8
0
 62
     0
 10
85.6753
 20
2.78364
 30
0.0
 11
71.676
 21
2.78364
 31
0.0
  0
LINE
  8
0
 62
     0
 10
71.676
 20
2.78364
 30
0.0
 11
71.676
 21
16.7831
 31
0.0
  0
LINE
  8
0
 62
     0
 10
90.726
 20
16.7831
 30
0.0
 11
104.725
 21
16.7831
 31
0.0
  0
LINE
  8
0
 62
     0
 10
104.725
 20
16.7831
 30
0.0
 11
104.725
 21
2.78364
 31
0.0
  0
LINE
  8
0
 62
     0
 10
104.725
 20
2.78364
 30
0.0
 11
90.726
 21
2.78364
 31
0.0
  0
LINE
  8
0
 62
     0
 10
90.726
 20
2.78364
 30
0.0
 11
90.726
 21
16.7831
 31
0.0
  0
LINE
  8
0
 62
     0
 10
109.776
 20
16.7831
 30
0.0
 11
123.775
 21
16.7831
 31
0.0
  0
LINE
  8
0
 62
     0
 10
123.775
 20
16.7831
 30
0.0
 11
123.775
 21
2.78364
 31
0.0
  0
LINE
  8
0
 62
     0
 10
123.775
 20
2.78364
 30
0.0
 11
109.776
 21
2.78364
 31
0.0
  0
LINE
  8
0
 62
     0
 10
109.776
 20
2.78364
 30
0.0
 11
109.776
 21
16.7831
 31
0.0
  0
LINE
  8
0
 62
     0
 10
374.096
 20
16.7831
 30
0.0
 11
388.094
 21
16.7831
 31
0.0
  0
LINE
  8
0
 62
     0
 10
388.094
 20
16.7831
 30
0.0
 11
388.094
 21
2.78364
 31
0.0
  0
LINE
  8
0
 62
     0
 10
388.094
 20
2.78364
 30
0.0
 11
374.096
 21
2.78364
 31
0.0
  0
LINE
  8
0
 62
     0
 10
374.096
 20
2.78364
 30
0.0
 11
374.096
 21
16.7831
 31
0.0
  0
LINE
  8
0
 62
     0
 10
393.146
 20
16.7831
 30
0.0
 11
407.144
 21
16.7831
 31
0.0
  0
LINE
  8
0
 62
     0
 10
407.144
 20
16.7831
 30
0.0
 11
407.144
 21
2.78364
 31
0.0
  0
LINE
  8
0
 62
     0
 10
407.144
 20
2.78364
 30
0.0
 11
393.146
 21
2.78364
 31
0.0
  0
LINE
  8
0
 62
     0
 10
393.146
 20
2.78364
 30
0.0
 11
393.146
 21
16.7831
 31
0.0
  0
LINE
  8
0
 62
     0
 10
412.196
 20
16.7831
 30
0.0
 11
426.194
 21
16.7831
 31
0.0
  0
LINE
  8
0
 62
     0
 10
426.194
 20
16.7831
 30
0.0
 11
426.194
 21
2.78364
 31
0.0
  0
LINE
  8
0
 62
     0
 10
426.194
 20
2.78364
 30
0.0
 11
412.196
 21
2.78364
 31
0.0
  0
LINE
  8
0
 62
     0
 10
412.196
 20
2.78364
 30
0.0
 11
412.196
 21
16.7831
 31
0.0
  0
LINE
  8
0
 62
     0
 10
209.787
 20
21.5456
 30
0.0
 11
209.787
 21
16.8465
 31
0.0
  0
LINE
  8
0
 62
     0
 10
209.787
 20
16.8465
 30
0.0
 11
208.263
 21
16.8465
 31
0.0
  0
LINE
  8
0
 62
     0
 10
208.263
 20
16.8465
 30
0.0
 11
208.263
 21
20.0767
 31
0.0
  0
LINE
  8
0
 62
     0
 10
208.263
 20
20.0767
 30
0.0
 11
206.538
 21
20.0767
 31
0.0
  0
LINE
  8
0
 62
     0
 10
206.538
 20
20.0767
 30
0.0
 11
206.538
 21
20.9958
 31
0.0
  0
LINE
  8
0
 62
     0
 10
206.538
 20
20.9958
 30
0.0
 11
203.237
 21
20.9958
 31
0.0
  0
LINE
  8
0
 62
     0
 10
203.237
 20
20.9958
 30
0.0
 11
203.237
 21
20.0767
 31
0.0
  0
LINE
  8
0
 62
     0
 10
203.237
 20
20.0767
 30
0.0
 11
201.512
 21
20.0767
 31
0.0
  0
LINE
  8
0
 62
     0
 10
201.512
 20
20.0767
 30
0.0
 11
201.512
 21
16.8465
 31
0.0
  0
LINE
  8
0
 62
     0
 10
201.512
 20
16.8465
 30
0.0
 11
200.688
 21
16.8465
 31
0.0
  0
LINE
  8
0
 62
     0
 10
200.688
 20
16.8465
 30
0.0
 11
200.688
 21
14.0463
 31
0.0
  0
LINE
  8
0
 62
     0
 10
200.688
 20
14.0463
 30
0.0
 11
201.512
 21
14.0463
 31
0.0
  0
LINE
  8
0
 62
     0
 10
201.512
 20
14.0463
 30
0.0
 11
201.512
 21
7.77628
 31
0.0
  0
LINE
  8
0
 62
     0
 10
201.512
 20
7.77628
 30
0.0
 11
203.237
 21
7.77628
 31
0.0
  0
LINE
  8
0
 62
     0
 10
203.237
 20
7.77628
 30
0.0
 11
203.237
 21
6.79648
 31
0.0
  0
LINE
  8
0
 62
     0
 10
203.237
 20
6.79648
 30
0.0
 11
206.538
 21
6.79648
 31
0.0
  0
LINE
  8
0
 62
     0
 10
206.538
 20
6.79648
 30
0.0
 11
206.538
 21
7.77628
 31
0.0
  0
LINE
  8
0
 62
     0
 10
206.538
 20
7.77628
 30
0.0
 11
208.263
 21
7.77628
 31
0.0
  0
LINE
  8
0
 62
     0
 10
208.263
 20
7.77628
 30
0.0
 11
208.263
 21
12.2466
 31
0.0
  0
LINE
  8
0
 62
     0
 10
208.263
 20
12.2466
 30
0.0
 11
209.787
 21
12.2466
 31
0.0
  0
LINE
  8
0
 62
     0
 10
209.787
 20
12.2466
 30
0.0
 11
209.787
 21
7.54613
 31
0.0
  0
LINE
  8
0
 62
     0
 10
209.787
 20
7.54613
 30
0.0
 11
223.788
 21
7.54613
 31
0.0
  0
LINE
  8
0
 62
     0
 10
223.788
 20
7.54613
 30
0.0
 11
223.788
 21
12.2466
 31
0.0
  0
LINE
  8
0
 62
     0
 10
223.788
 20
12.2466
 30
0.0
 11
225.312
 21
12.2466
 31
0.0
  0
LINE
  8
0
 62
     0
 10
225.312
 20
12.2466
 30
0.0
 11
225.312
 21
7.77628
 31
0.0
  0
LINE
  8
0
 62
     0
 10
225.312
 20
7.77628
 30
0.0
 11
227.037
 21
7.77628
 31
0.0
  0
LINE
  8
0
 62
     0
 10
227.037
 20
7.77628
 30
0.0
 11
227.037
 21
6.79648
 31
0.0
  0
LINE
  8
0
 62
     0
 10
227.037
 20
6.79648
 30
0.0
 11
230.338
 21
6.79648
 31
0.0
  0
LINE
  8
0
 62
     0
 10
230.338
 20
6.79648
 30
0.0
 11
230.338
 21
7.77628
 31
0.0
  0
LINE
  8
0
 62
     0
 10
230.338
 20
7.77628
 30
0.0
 11
232.063
 21
7.77628
 31
0.0
  0
LINE
  8
0
 62
     0
 10
232.063
 20
7.77628
 30
0.0
 11
232.063
 21
14.0463
 31
0.0
  0
LINE
  8
0
 62
     0
 10
232.063
 20
14.0463
 30
0.0
 11
232.887
 21
14.0463
 31
0.0
  0
LINE
  8
0
 62
     0
 10
232.887
 20
14.0463
 30
0.0
 11
232.887
 21
16.8465
 31
0.0
  0
LINE
  8
0
 62
     0
 10
232.887
 20
16.8465
 30
0.0
 11
232.063
 21
16.8465
 31
0.0
  0
LINE
  8
0
 62
     0
 10
232.063
 20
16.8465
 30
0.0
 11
232.063
 21
20.0767
 31
0.0
  0
LINE
  8
0
 62
     0
 10
232.063
 20
20.0767
 30
0.0
 11
230.338
 21
20.0767
 31
0.0
  0
LINE
  8
0
 62
     0
 10
230.338
 20
20.0767
 30
0.0
 11
230.338
 21
20.9958
 31
0.0
  0
LINE
  8
0
 62
     0
 10
230.338
 20
20.9958
 30
0.0
 11
227.037
 21
20.9958
 31
0.0
  0
LINE
  8
0
 62
     0
 10
227.037
 20
20.9958
 30
0.0
 11
227.037
 21
20.0767
 31
0.0
  0
LINE
  8
0
 62
     0
 10
227.037
 20
20.0767
 30
0.0
 11
225.312
 21
20.0767
 31
0.0
  0
LINE
  8
0
 62
     0
 10
225.312
 20
20.0767
 30
0.0
 11
225.312
 21
16.8465
 31
0.0
  0
LINE
  8
0
 62
     0
 10
225.312
 20
16.8465
 30
0.0
 11
223.788
 21
16.8465
 31
0.0
  0
LINE
  8
0
 62
     0
 10
223.788
 20
16.8465
 30
0.0
 11
223.788
 21
21.5456
 31
0.0
  0
LINE
  8
0
 62
     0
 10
223.788
 20
21.5456
 30
0.0
 11
209.787
 21
21.5456
 31
0.0
  0
LINE
  8
0
 62
     0
 10
281.226
 20
21.5456
 30
0.0
 11
281.226
 21
16.8465
 31
0.0
  0
LINE
  8
0
 62
     0
 10
281.226
 20
16.8465
 30
0.0
 11
279.701
 21
16.8465
 31
0.0
  0
LINE
  8
0
 62
     0
 10
279.701
 20
16.8465
 30
0.0
 11
279.701
 21
20.0767
 31
0.0
  0
LINE
  8
0
 62
     0
 10
279.701
 20
20.0767
 30
0.0
 11
277.975
 21
20.0767
 31
0.0
  0
LINE
  8
0
 62
     0
 10
277.975
 20
20.0767
 30
0.0
 11
277.975
 21
20.9958
 31
0.0
  0
LINE
  8
0
 62
     0
 10
277.975
 20
20.9958
 30
0.0
 11
274.676
 21
20.9958
 31
0.0
  0
LINE
  8
0
 62
     0
 10
274.676
 20
20.9958
 30
0.0
 11
274.676
 21
20.0767
 31
0.0
  0
LINE
  8
0
 62
     0
 10
274.676
 20
20.0767
 30
0.0
 11
272.951
 21
20.0767
 31
0.0
  0
LINE
  8
0
 62
     0
 10
272.951
 20
20.0767
 30
0.0
 11
272.951
 21
16.8465
 31
0.0
  0
LINE
  8
0
 62
     0
 10
272.951
 20
16.8465
 30
0.0
 11
272.125
 21
16.8465
 31
0.0
  0
LINE
  8
0
 62
     0
 10
272.125
 20
16.8465
 30
0.0
 11
272.125
 21
14.0463
 31
0.0
  0
LINE
  8
0
 62
     0
 10
272.125
 20
14.0463
 30
0.0
 11
272.951
 21
14.0463
 31
0.0
  0
LINE
  8
0
 62
     0
 10
272.951
 20
14.0463
 30
0.0
 11
272.951
 21
7.77628
 31
0.0
  0
LINE
  8
0
 62
     0
 10
272.951
 20
7.77628
 30
0.0
 11
274.676
 21
7.77628
 31
0.0
  0
LINE
  8
0
 62
     0
 10
274.676
 20
7.77628
 30
0.0
 11
274.676
 21
6.79648
 31
0.0
  0
LINE
  8
0
 62
     0
 10
274.676
 20
6.79648
 30
0.0
 11
277.975
 21
6.79648
 31
0.0
  0
LINE
  8
0
 62
     0
 10
277.975
 20
6.79648
 30
0.0
 11
277.975
 21
7.77628
 31
0.0
  0
LINE
  8
0
 62
     0
 10
277.975
 20
7.77628
 30
0.0
 11
279.701
 21
7.77628
 31
0.0
  0
LINE
  8
0
 62
     0
 10
279.701
 20
7.77628
 30
0.0
 11
279.701
 21
12.2466
 31
0.0
  0
LINE
  8
0
 62
     0
 10
279.701
 20
12.2466
 30
0.0
 11
281.226
 21
12.2466
 31
0.0
  0
LINE
  8
0
 62
     0
 10
281.226
 20
12.2466
 30
0.0
 11
281.226
 21
7.54613
 31
0.0
  0
LINE
  8
0
 62
     0
 10
281.226
 20
7.54613
 30
0.0
 11
295.225
 21
7.54613
 31
0.0
  0
LINE
  8
0
 62
     0
 10
295.225
 20
7.54613
 30
0.0
 11
295.225
 21
12.2466
 31
0.0
  0
LINE
  8
0
 62
     0
 10
295.225
 20
12.2466
 30
0.0
 11
296.751
 21
12.2466
 31
0.0
  0
LINE
  8
0
 62
     0
 10
296.751
 20
12.2466
 30
0.0
 11
296.751
 21
7.77628
 31
0.0
  0
LINE
  8
0
 62
     0
 10
296.751
 20
7.77628
 30
0.0
 11
298.475
 21
7.77628
 31
0.0
  0
LINE
  8
0
 62
     0
 10
298.475
 20
7.77628
 30
0.0
 11
298.475
 21
6.79648
 31
0.0
  0
LINE
  8
0
 62
     0
 10
298.475
 20
6.79648
 30
0.0
 11
301.775
 21
6.79648
 31
0.0
  0
LINE
  8
0
 62
     0
 10
301.775
 20
6.79648
 30
0.0
 11
301.775
 21
7.77628
 31
0.0
  0
LINE
  8
0
 62
     0
 10
301.775
 20
7.77628
 30
0.0
 11
303.5
 21
7.77628
 31
0.0
  0
LINE
  8
0
 62
     0
 10
303.5
 20
7.77628
 30
0.0
 11
303.5
 21
14.0463
 31
0.0
  0
LINE
  8
0
 62
     0
 10
303.5
 20
14.0463
 30
0.0
 11
304.326
 21
14.0463
 31
0.0
  0
LINE
  8
0
 62
     0
 10
304.326
 20
14.0463
 30
0.0
 11
304.326
 21
16.8465
 31
0.0
  0
LINE
  8
0
 62
     0
 10
304.326
 20
16.8465
 30
0.0
 11
303.5
 21
16.8465
 31
0.0
  0
LINE
  8
0
 62
     0
 10
303.5
 20
16.8465
 30
0.0
 11
303.5
 21
20.0767
 31
0.0
  0
LINE
  8
0
 62
     0
 10
303.5
 20
20.0767
 30
0.0
 11
301.775
 21
20.0767
 31
0.0
  0
LINE
  8
0
 62
     0
 10
301.775
 20
20.0767
 30
0.0
 11
301.775
 21
20.9958
 31
0.0
  0
LINE
  8
0
 62
     0
 10
301.775
 20
20.9958
 30
0.0
 11
298.475
 21
20.9958
 31
0.0
  0
LINE
  8
0
 62
     0
 10
298.475
 20
20.9958
 30
0.0
 11
298.475
 21
20.0767
 31
0.0
  0
LINE
  8
0
 62
     0
 10
298.475
 20
20.0767
 30
0.0
 11
296.751
 21
20.0767
 31
0.0
  0
LINE
  8
0
 62
     0
 10
296.751
 20
20.0767
 30
0.0
 11
296.751
 21
16.8465
 31
0.0
  0
LINE
  8
0
 62
     0
 10
296.751
 20
16.8465
 30
0.0
 11
295.225
 21
16.8465
 31
0.0
  0
LINE
  8
0
 62
     0
 10
295.225
 20
16.8465
 30
0.0
 11
295.225
 21
21.5456
 31
0.0
  0
LINE
  8
0
 62
     0
 10
295.225
 20
21.5456
 30
0.0
 11
281.226
 21
21.5456
 31
0.0
  0
LINE
  8
0
 62
     0
 10
21.6697
 20
21.5456
 30
0.0
 11
35.669
 21
21.5456
 31
0.0
  0
LINE
  8
0
 62
     0
 10
35.669
 20
21.5456
 30
0.0
 11
35.669
 21
7.54613
 31
0.0
  0
LINE
  8
0
 62
     0
 10
35.669
 20
7.54613
 30
0.0
 11
21.6697
 21
7.54613
 31
0.0
  0
LINE
  8
0
 62
     0
 10
21.6697
 20
7.54613
 30
0.0
 11
21.6697
 21
21.5456
 31
0.0
  0
LINE
  8
0
 62
     0
 10
40.7197
 20
21.5456
 30
0.0
 11
54.719
 21
21.5456
 31
0.0
  0
LINE
  8
0
 62
     0
 10
54.719
 20
21.5456
 30
0.0
 11
54.719
 21
7.54613
 31
0.0
  0
LINE
  8
0
 62
     0
 10
54.719
 20
7.54613
 30
0.0
 11
40.7197
 21
7.54613
 31
0.0
  0
LINE
  8
0
 62
     0
 10
40.7197
 20
7.54613
 30
0.0
 11
40.7197
 21
21.5456
 31
0.0
  0
LINE
  8
0
 62
     0
 10
140.732
 20
21.5456
 30
0.0
 11
154.732
 21
21.5456
 31
0.0
  0
LINE
  8
0
 62
     0
 10
154.732
 20
21.5456
 30
0.0
 11
154.732
 21
7.54613
 31
0.0
  0
LINE
  8
0
 62
     0
 10
154.732
 20
7.54613
 30
0.0
 11
140.732
 21
7.54613
 31
0.0
  0
LINE
  8
0
 62
     0
 10
140.732
 20
7.54613
 30
0.0
 11
140.732
 21
21.5456
 31
0.0
  0
LINE
  8
0
 62
     0
 10
169.307
 20
21.5456
 30
0.0
 11
183.307
 21
21.5456
 31
0.0
  0
LINE
  8
0
 62
     0
 10
183.307
 20
21.5456
 30
0.0
 11
183.307
 21
7.54613
 31
0.0
  0
LINE
  8
0
 62
     0
 10
183.307
 20
7.54613
 30
0.0
 11
169.307
 21
7.54613
 31
0.0
  0
LINE
  8
0
 62
     0
 10
169.307
 20
7.54613
 30
0.0
 11
169.307
 21
21.5456
 31
0.0
  0
LINE
  8
0
 62
     0
 10
247.887
 20
21.5456
 30
0.0
 11
261.888
 21
21.5456
 31
0.0
  0
LINE
  8
0
 62
     0
 10
261.888
 20
21.5456
 30
0.0
 11
261.888
 21
7.54613
 31
0.0
  0
LINE
  8
0
 62
     0
 10
261.888
 20
7.54613
 30
0.0
 11
247.887
 21
7.54613
 31
0.0
  0
LINE
  8
0
 62
     0
 10
247.887
 20
7.54613
 30
0.0
 11
247.887
 21
21.5456
 31
0.0
  0
LINE
  8
0
 62
     0
 10
312.182
 20
21.5456
 30
0.0
 11
326.182
 21
21.5456
 31
0.0
  0
LINE
  8
0
 62
     0
 10
326.182
 20
21.5456
 30
0.0
 11
326.182
 21
7.54613
 31
0.0
  0
LINE
  8
0
 62
     0
 10
326.182
 20
7.54613
 30
0.0
 11
312.182
 21
7.54613
 31
0.0
  0
LINE
  8
0
 62
     0
 10
312.182
 20
7.54613
 30
0.0
 11
312.182
 21
21.5456
 31
0.0
  0
LINE
  8
0
 62
     0
 10
331.232
 20
21.5456
 30
0.0
 11
345.232
 21
21.5456
 31
0.0
  0
LINE
  8
0
 62
     0
 10
345.232
 20
21.5456
 30
0.0
 11
345.232
 21
7.54613
 31
0.0
  0
LINE
  8
0
 62
     0
 10
345.232
 20
7.54613
 30
0.0
 11
331.232
 21
7.54613
 31
0.0
  0
LINE
  8
0
 62
     0
 10
331.232
 20
7.54613
 30
0.0
 11
331.232
 21
21.5456
 31
0.0
  0
LINE
  8
0
 62
     0
 10
350.282
 20
21.5456
 30
0.0
 11
364.282
 21
21.5456
 31
0.0
  0
LINE
  8
0
 62
     0
 10
364.282
 20
21.5456
 30
0.0
 11
364.282
 21
7.54613
 31
0.0
  0
LINE
  8
0
 62
     0
 10
364.282
 20
7.54613
 30
0.0
 11
350.282
 21
7.54613
 31
0.0
  0
LINE
  8
0
 62
     0
 10
350.282
 20
7.54613
 30
0.0
 11
350.282
 21
21.5456
 31
0.0
  0
LINE
  8
0
 62
     0
 10
9.11849
 20
40.1712
 30
0.0
 11
9.11849
 21
39.3457
 31
0.0
  0
LINE
  8
0
 62
     0
 10
9.11849
 20
39.3457
 30
0.0
 11
2.84978
 21
39.3457
 31
0.0
  0
LINE
  8
0
 62
     0
 10
2.84978
 20
39.3457
 30
0.0
 11
2.84978
 21
37.622
 31
0.0
  0
LINE
  8
0
 62
     0
 10
2.84978
 20
37.622
 30
0.0
 11
1.86862
 21
37.622
 31
0.0
  0
LINE
  8
0
 62
     0
 10
1.86862
 20
37.622
 30
0.0
 11
1.86862
 21
34.3214
 31
0.0
  0
LINE
  8
0
 62
     0
 10
1.86862
 20
34.3214
 30
0.0
 11
2.84978
 21
34.3214
 31
0.0
  0
LINE
  8
0
 62
     0
 10
2.84978
 20
34.3214
 30
0.0
 11
2.84978
 21
32.5961
 31
0.0
  0
LINE
  8
0
 62
     0
 10
2.84978
 20
32.5961
 30
0.0
 11
7.32014
 21
32.5961
 31
0.0
  0
LINE
  8
0
 62
     0
 10
7.32014
 20
32.5961
 30
0.0
 11
7.32014
 21
31.0706
 31
0.0
  0
LINE
  8
0
 62
     0
 10
7.32014
 20
31.0706
 30
0.0
 11
2.61965
 21
31.0706
 31
0.0
  0
LINE
  8
0
 62
     0
 10
2.61965
 20
31.0706
 30
0.0
 11
2.61965
 21
17.0711
 31
0.0
  0
LINE
  8
0
 62
     0
 10
2.61965
 20
17.0711
 30
0.0
 11
7.32014
 21
17.0711
 31
0.0
  0
LINE
  8
0
 62
     0
 10
7.32014
 20
17.0711
 30
0.0
 11
7.32014
 21
15.5456
 31
0.0
  0
LINE
  8
0
 62
     0
 10
7.32014
 20
15.5456
 30
0.0
 11
2.84978
 21
15.5456
 31
0.0
  0
LINE
  8
0
 62
     0
 10
2.84978
 20
15.5456
 30
0.0
 11
2.84978
 21
13.8217
 31
0.0
  0
LINE
  8
0
 62
     0
 10
2.84978
 20
13.8217
 30
0.0
 11
1.87
 21
13.8217
 31
0.0
  0
LINE
  8
0
 62
     0
 10
1.87
 20
13.8217
 30
0.0
 11
1.87
 21
10.5213
 31
0.0
  0
LINE
  8
0
 62
     0
 10
1.87
 20
10.5213
 30
0.0
 11
2.84978
 21
10.5213
 31
0.0
  0
LINE
  8
0
 62
     0
 10
2.84978
 20
10.5213
 30
0.0
 11
2.84978
 21
8.79602
 31
0.0
  0
LINE
  8
0
 62
     0
 10
2.84978
 20
8.79602
 30
0.0
 11
9.11987
 21
8.79602
 31
0.0
  0
LINE
  8
0
 62
     0
 10
9.11987
 20
8.79602
 30
0.0
 11
9.11987
 21
7.97197
 31
0.0
  0
LINE
  8
0
 62
     0
 10
9.11987
 20
7.97197
 30
0.0
 11
11.92
 21
7.97197
 31
0.0
  0
LINE
  8
0
 62
     0
 10
11.92
 20
7.97197
 30
0.0
 11
11.92
 21
8.79602
 31
0.0
  0
LINE
  8
0
 62
     0
 10
11.92
 20
8.79602
 30
0.0
 11
15.1501
 21
8.79602
 31
0.0
  0
LINE
  8
0
 62
     0
 10
15.1501
 20
8.79602
 30
0.0
 11
15.1501
 21
10.5213
 31
0.0
  0
LINE
  8
0
 62
     0
 10
15.1501
 20
10.5213
 30
0.0
 11
16.0693
 21
10.5213
 31
0.0
  0
LINE
  8
0
 62
     0
 10
16.0693
 20
10.5213
 30
0.0
 11
16.0693
 21
13.8217
 31
0.0
  0
LINE
  8
0
 62
     0
 10
16.0693
 20
13.8217
 30
0.0
 11
15.1501
 21
13.8217
 31
0.0
  0
LINE
  8
0
 62
     0
 10
15.1501
 20
13.8217
 30
0.0
 11
15.1501
 21
15.5456
 31
0.0
  0
LINE
  8
0
 62
     0
 10
15.1501
 20
15.5456
 30
0.0
 11
11.92
 21
15.5456
 31
0.0
  0
LINE
  8
0
 62
     0
 10
11.92
 20
15.5456
 30
0.0
 11
11.92
 21
17.0711
 31
0.0
  0
LINE
  8
0
 62
     0
 10
11.92
 20
17.0711
 30
0.0
 11
16.6192
 21
17.0711
 31
0.0
  0
LINE
  8
0
 62
     0
 10
16.6192
 20
17.0711
 30
0.0
 11
16.6192
 21
31.0706
 31
0.0
  0
LINE
  8
0
 62
     0
 10
16.6192
 20
31.0706
 30
0.0
 11
11.92
 21
31.0706
 31
0.0
  0
LINE
  8
0
 62
     0
 10
11.92
 20
31.0706
 30
0.0
 11
11.92
 21
32.5961
 31
0.0
  0
LINE
  8
0
 62
     0
 10
11.92
 20
32.5961
 30
0.0
 11
15.1501
 21
32.5961
 31
0.0
  0
LINE
  8
0
 62
     0
 10
15.1501
 20
32.5961
 30
0.0
 11
15.1501
 21
34.3214
 31
0.0
  0
LINE
  8
0
 62
     0
 10
15.1501
 20
34.3214
 30
0.0
 11
16.0693
 21
34.3214
 31
0.0
  0
LINE
  8
0
 62
     0
 10
16.0693
 20
34.3214
 30
0.0
 11
16.0693
 21
37.622
 31
0.0
  0
LINE
  8
0
 62
     0
 10
16.0693
 20
37.622
 30
0.0
 11
15.1501
 21
37.622
 31
0.0
  0
LINE
  8
0
 62
     0
 10
15.1501
 20
37.622
 30
0.0
 11
15.1501
 21
39.3457
 31
0.0
  0
LINE
  8
0
 62
     0
 10
15.1501
 20
39.3457
 30
0.0
 11
11.92
 21
39.3457
 31
0.0
  0
LINE
  8
0
 62
     0
 10
11.92
 20
39.3457
 30
0.0
 11
11.92
 21
40.1712
 31
0.0
  0
LINE
  8
0
 62
     0
 10
11.92
 20
40.1712
 30
0.0
 11
9.11849
 21
40.1712
 31
0.0
  0
LINE
  8
0
 62
     0
 10
90.726
 20
35.833
 30
0.0
 11
104.725
 21
35.833
 31
0.0
  0
LINE
  8
0
 62
     0
 10
104.725
 20
35.833
 30
0.0
 11
104.725
 21
21.8336
 31
0.0
  0
LINE
  8
0
 62
     0
 10
104.725
 20
21.8336
 30
0.0
 11
90.726
 21
21.8336
 31
0.0
  0
LINE
  8
0
 62
     0
 10
90.726
 20
21.8336
 30
0.0
 11
90.726
 21
35.833
 31
0.0
  0
LINE
  8
0
 62
     0
 10
393.146
 20
35.833
 30
0.0
 11
407.144
 21
35.833
 31
0.0
  0
LINE
  8
0
 62
     0
 10
407.144
 20
35.833
 30
0.0
 11
407.144
 21
21.8336
 31
0.0
  0
LINE
  8
0
 62
     0
 10
407.144
 20
21.8336
 30
0.0
 11
393.146
 21
21.8336
 31
0.0
  0
LINE
  8
0
 62
     0
 10
393.146
 20
21.8336
 30
0.0
 11
393.146
 21
35.833
 31
0.0
  0
LINE
  8
0
 62
     0
 10
133.587
 20
40.5955
 30
0.0
 11
133.587
 21
35.8965
 31
0.0
  0
LINE
  8
0
 62
     0
 10
133.587
 20
35.8965
 30
0.0
 11
132.063
 21
35.8965
 31
0.0
  0
LINE
  8
0
 62
     0
 10
132.063
 20
35.8965
 30
0.0
 11
132.063
 21
39.1266
 31
0.0
  0
LINE
  8
0
 62
     0
 10
132.063
 20
39.1266
 30
0.0
 11
130.338
 21
39.1266
 31
0.0
  0
LINE
  8
0
 62
     0
 10
130.338
 20
39.1266
 30
0.0
 11
130.338
 21
40.0459
 31
0.0
  0
LINE
  8
0
 62
     0
 10
130.338
 20
40.0459
 30
0.0
 11
127.037
 21
40.0459
 31
0.0
  0
LINE
  8
0
 62
     0
 10
127.037
 20
40.0459
 30
0.0
 11
127.037
 21
39.1266
 31
0.0
  0
LINE
  8
0
 62
     0
 10
127.037
 20
39.1266
 30
0.0
 11
125.312
 21
39.1266
 31
0.0
  0
LINE
  8
0
 62
     0
 10
125.312
 20
39.1266
 30
0.0
 11
125.312
 21
35.8965
 31
0.0
  0
LINE
  8
0
 62
     0
 10
125.312
 20
35.8965
 30
0.0
 11
124.488
 21
35.8965
 31
0.0
  0
LINE
  8
0
 62
     0
 10
124.488
 20
35.8965
 30
0.0
 11
124.488
 21
33.0963
 31
0.0
  0
LINE
  8
0
 62
     0
 10
124.488
 20
33.0963
 30
0.0
 11
125.312
 21
33.0963
 31
0.0
  0
LINE
  8
0
 62
     0
 10
125.312
 20
33.0963
 30
0.0
 11
125.312
 21
26.8263
 31
0.0
  0
LINE
  8
0
 62
     0
 10
125.312
 20
26.8263
 30
0.0
 11
127.037
 21
26.8263
 31
0.0
  0
LINE
  8
0
 62
     0
 10
127.037
 20
26.8263
 30
0.0
 11
127.037
 21
25.8465
 31
0.0
  0
LINE
  8
0
 62
     0
 10
127.037
 20
25.8465
 30
0.0
 11
130.338
 21
25.8465
 31
0.0
  0
LINE
  8
0
 62
     0
 10
130.338
 20
25.8465
 30
0.0
 11
130.338
 21
26.8263
 31
0.0
  0
LINE
  8
0
 62
     0
 10
130.338
 20
26.8263
 30
0.0
 11
132.063
 21
26.8263
 31
0.0
  0
LINE
  8
0
 62
     0
 10
132.063
 20
26.8263
 30
0.0
 11
132.063
 21
31.2966
 31
0.0
  0
LINE
  8
0
 62
     0
 10
132.063
 20
31.2966
 30
0.0
 11
133.587
 21
31.2966
 31
0.0
  0
LINE
  8
0
 62
     0
 10
133.587
 20
31.2966
 30
0.0
 11
133.587
 21
26.5961
 31
0.0
  0
LINE
  8
0
 62
     0
 10
133.587
 20
26.5961
 30
0.0
 11
147.588
 21
26.5961
 31
0.0
  0
LINE
  8
0
 62
     0
 10
147.588
 20
26.5961
 30
0.0
 11
147.588
 21
31.2966
 31
0.0
  0
LINE
  8
0
 62
     0
 10
147.588
 20
31.2966
 30
0.0
 11
149.112
 21
31.2966
 31
0.0
  0
LINE
  8
0
 62
     0
 10
149.112
 20
31.2966
 30
0.0
 11
149.112
 21
26.8263
 31
0.0
  0
LINE
  8
0
 62
     0
 10
149.112
 20
26.8263
 30
0.0
 11
150.837
 21
26.8263
 31
0.0
  0
LINE
  8
0
 62
     0
 10
150.837
 20
26.8263
 30
0.0
 11
150.837
 21
25.8465
 31
0.0
  0
LINE
  8
0
 62
     0
 10
150.837
 20
25.8465
 30
0.0
 11
154.138
 21
25.8465
 31
0.0
  0
LINE
  8
0
 62
     0
 10
154.138
 20
25.8465
 30
0.0
 11
154.138
 21
26.8263
 31
0.0
  0
LINE
  8
0
 62
     0
 10
154.138
 20
26.8263
 30
0.0
 11
155.863
 21
26.8263
 31
0.0
  0
LINE
  8
0
 62
     0
 10
155.863
 20
26.8263
 30
0.0
 11
155.863
 21
33.0963
 31
0.0
  0
LINE
  8
0
 62
     0
 10
155.863
 20
33.0963
 30
0.0
 11
156.687
 21
33.0963
 31
0.0
  0
LINE
  8
0
 62
     0
 10
156.687
 20
33.0963
 30
0.0
 11
156.687
 21
35.8965
 31
0.0
  0
LINE
  8
0
 62
     0
 10
156.687
 20
35.8965
 30
0.0
 11
155.863
 21
35.8965
 31
0.0
  0
LINE
  8
0
 62
     0
 10
155.863
 20
35.8965
 30
0.0
 11
155.863
 21
39.1266
 31
0.0
  0
LINE
  8
0
 62
     0
 10
155.863
 20
39.1266
 30
0.0
 11
154.138
 21
39.1266
 31
0.0
  0
LINE
  8
0
 62
     0
 10
154.138
 20
39.1266
 30
0.0
 11
154.138
 21
40.0459
 31
0.0
  0
LINE
  8
0
 62
     0
 10
154.138
 20
40.0459
 30
0.0
 11
150.837
 21
40.0459
 31
0.0
  0
LINE
  8
0
 62
     0
 10
150.837
 20
40.0459
 30
0.0
 11
150.837
 21
39.1266
 31
0.0
  0
LINE
  8
0
 62
     0
 10
150.837
 20
39.1266
 30
0.0
 11
149.112
 21
39.1266
 31
0.0
  0
LINE
  8
0
 62
     0
 10
149.112
 20
39.1266
 30
0.0
 11
149.112
 21
35.8965
 31
0.0
  0
LINE
  8
0
 62
     0
 10
149.112
 20
35.8965
 30
0.0
 11
147.588
 21
35.8965
 31
0.0
  0
LINE
  8
0
 62
     0
 10
147.588
 20
35.8965
 30
0.0
 11
147.588
 21
40.5955
 31
0.0
  0
LINE
  8
0
 62
     0
 10
147.588
 20
40.5955
 30
0.0
 11
133.587
 21
40.5955
 31
0.0
  0
LINE
  8
0
 62
     0
 10
21.6697
 20
40.5955
 30
0.0
 11
35.669
 21
40.5955
 31
0.0
  0
LINE
  8
0
 62
     0
 10
35.669
 20
40.5955
 30
0.0
 11
35.669
 21
26.5961
 31
0.0
  0
LINE
  8
0
 62
     0
 10
35.669
 20
26.5961
 30
0.0
 11
21.6697
 21
26.5961
 31
0.0
  0
LINE
  8
0
 62
     0
 10
21.6697
 20
26.5961
 30
0.0
 11
21.6697
 21
40.5955
 31
0.0
  0
LINE
  8
0
 62
     0
 10
40.7197
 20
40.5955
 30
0.0
 11
54.719
 21
40.5955
 31
0.0
  0
LINE
  8
0
 62
     0
 10
54.719
 20
40.5955
 30
0.0
 11
54.719
 21
26.5961
 31
0.0
  0
LINE
  8
0
 62
     0
 10
54.719
 20
26.5961
 30
0.0
 11
40.7197
 21
26.5961
 31
0.0
  0
LINE
  8
0
 62
     0
 10
40.7197
 20
26.5961
 30
0.0
 11
40.7197
 21
40.5955
 31
0.0
  0
LINE
  8
0
 62
     0
 10
59.7697
 20
40.5955
 30
0.0
 11
73.769
 21
40.5955
 31
0.0
  0
LINE
  8
0
 62
     0
 10
73.769
 20
40.5955
 30
0.0
 11
73.769
 21
26.5961
 31
0.0
  0
LINE
  8
0
 62
     0
 10
73.769
 20
26.5961
 30
0.0
 11
59.7697
 21
26.5961
 31
0.0
  0
LINE
  8
0
 62
     0
 10
59.7697
 20
26.5961
 30
0.0
 11
59.7697
 21
40.5955
 31
0.0
  0
LINE
  8
0
 62
     0
 10
164.545
 20
40.5955
 30
0.0
 11
178.544
 21
40.5955
 31
0.0
  0
LINE
  8
0
 62
     0
 10
178.544
 20
40.5955
 30
0.0
 11
178.544
 21
26.5961
 31
0.0
  0
LINE
  8
0
 62
     0
 10
178.544
 20
26.5961
 30
0.0
 11
164.545
 21
26.5961
 31
0.0
  0
LINE
  8
0
 62
     0
 10
164.545
 20
26.5961
 30
0.0
 11
164.545
 21
40.5955
 31
0.0
  0
LINE
  8
0
 62
     0
 10
183.595
 20
40.5955
 30
0.0
 11
197.594
 21
40.5955
 31
0.0
  0
LINE
  8
0
 62
     0
 10
197.594
 20
40.5955
 30
0.0
 11
197.594
 21
26.5961
 31
0.0
  0
LINE
  8
0
 62
     0
 10
197.594
 20
26.5961
 30
0.0
 11
183.595
 21
26.5961
 31
0.0
  0
LINE
  8
0
 62
     0
 10
183.595
 20
26.5961
 30
0.0
 11
183.595
 21
40.5955
 31
0.0
  0
LINE
  8
0
 62
     0
 10
202.645
 20
40.5955
 30
0.0
 11
216.644
 21
40.5955
 31
0.0
  0
LINE
  8
0
 62
     0
 10
216.644
 20
40.5955
 30
0.0
 11
216.644
 21
26.5961
 31
0.0
  0
LINE
  8
0
 62
     0
 10
216.644
 20
26.5961
 30
0.0
 11
202.645
 21
26.5961
 31
0.0
  0
LINE
  8
0
 62
     0
 10
202.645
 20
26.5961
 30
0.0
 11
202.645
 21
40.5955
 31
0.0
  0
LINE
  8
0
 62
     0
 10
221.695
 20
40.5955
 30
0.0
 11
235.694
 21
40.5955
 31
0.0
  0
LINE
  8
0
 62
     0
 10
235.694
 20
40.5955
 30
0.0
 11
235.694
 21
26.5961
 31
0.0
  0
LINE
  8
0
 62
     0
 10
235.694
 20
26.5961
 30
0.0
 11
221.695
 21
26.5961
 31
0.0
  0
LINE
  8
0
 62
     0
 10
221.695
 20
26.5961
 30
0.0
 11
221.695
 21
40.5955
 31
0.0
  0
LINE
  8
0
 62
     0
 10
240.745
 20
40.5955
 30
0.0
 11
254.744
 21
40.5955
 31
0.0
  0
LINE
  8
0
 62
     0
 10
254.744
 20
40.5955
 30
0.0
 11
254.744
 21
26.5961
 31
0.0
  0
LINE
  8
0
 62
     0
 10
254.744
 20
26.5961
 30
0.0
 11
240.745
 21
26.5961
 31
0.0
  0
LINE
  8
0
 62
     0
 10
240.745
 20
26.5961
 30
0.0
 11
240.745
 21
40.5955
 31
0.0
  0
LINE
  8
0
 62
     0
 10
259.795
 20
40.5955
 30
0.0
 11
273.794
 21
40.5955
 31
0.0
  0
LINE
  8
0
 62
     0
 10
273.794
 20
40.5955
 30
0.0
 11
273.794
 21
26.5961
 31
0.0
  0
LINE
  8
0
 62
     0
 10
273.794
 20
26.5961
 30
0.0
 11
259.795
 21
26.5961
 31
0.0
  0
LINE
  8
0
 62
     0
 10
259.795
 20
26.5961
 30
0.0
 11
259.795
 21
40.5955
 31
0.0
  0
LINE
  8
0
 62
     0
 10
278.845
 20
40.5955
 30
0.0
 11
292.844
 21
40.5955
 31
0.0
  0
LINE
  8
0
 62
     0
 10
292.844
 20
40.5955
 30
0.0
 11
292.844
 21
26.5961
 31
0.0
  0
LINE
  8
0
 62
     0
 10
292.844
 20
26.5961
 30
0.0
 11
278.845
 21
26.5961
 31
0.0
  0
LINE
  8
0
 62
     0
 10
278.845
 20
26.5961
 30
0.0
 11
278.845
 21
40.5955
 31
0.0
  0
LINE
  8
0
 62
     0
 10
297.895
 20
40.5955
 30
0.0
 11
311.894
 21
40.5955
 31
0.0
  0
LINE
  8
0
 62
     0
 10
311.894
 20
40.5955
 30
0.0
 11
311.894
 21
26.5961
 31
0.0
  0
LINE
  8
0
 62
     0
 10
311.894
 20
26.5961
 30
0.0
 11
297.895
 21
26.5961
 31
0.0
  0
LINE
  8
0
 62
     0
 10
297.895
 20
26.5961
 30
0.0
 11
297.895
 21
40.5955
 31
0.0
  0
LINE
  8
0
 62
     0
 10
316.945
 20
40.5955
 30
0.0
 11
330.944
 21
40.5955
 31
0.0
  0
LINE
  8
0
 62
     0
 10
330.944
 20
40.5955
 30
0.0
 11
330.944
 21
26.5961
 31
0.0
  0
LINE
  8
0
 62
     0
 10
330.944
 20
26.5961
 30
0.0
 11
316.945
 21
26.5961
 31
0.0
  0
LINE
  8
0
 62
     0
 10
316.945
 20
26.5961
 30
0.0
 11
316.945
 21
40.5955
 31
0.0
  0
LINE
  8
0
 62
     0
 10
335.995
 20
40.5955
 30
0.0
 11
349.994
 21
40.5955
 31
0.0
  0
LINE
  8
0
 62
     0
 10
349.994
 20
40.5955
 30
0.0
 11
349.994
 21
26.5961
 31
0.0
  0
LINE
  8
0
 62
     0
 10
349.994
 20
26.5961
 30
0.0
 11
335.995
 21
26.5961
 31
0.0
  0
LINE
  8
0
 62
     0
 10
335.995
 20
26.5961
 30
0.0
 11
335.995
 21
40.5955
 31
0.0
  0
LINE
  8
0
 62
     0
 10
362.186
 20
40.5955
 30
0.0
 11
376.188
 21
40.5955
 31
0.0
  0
LINE
  8
0
 62
     0
 10
376.188
 20
40.5955
 30
0.0
 11
376.188
 21
26.5961
 31
0.0
  0
LINE
  8
0
 62
     0
 10
376.188
 20
26.5961
 30
0.0
 11
362.186
 21
26.5961
 31
0.0
  0
LINE
  8
0
 62
     0
 10
362.186
 20
26.5961
 30
0.0
 11
362.186
 21
40.5955
 31
0.0
  0
LINE
  8
0
 62
     0
 10
416.959
 20
40.5955
 30
0.0
 11
430.957
 21
40.5955
 31
0.0
  0
LINE
  8
0
 62
     0
 10
430.957
 20
40.5955
 30
0.0
 11
430.957
 21
26.5961
 31
0.0
  0
LINE
  8
0
 62
     0
 10
430.957
 20
26.5961
 30
0.0
 11
416.959
 21
26.5961
 31
0.0
  0
LINE
  8
0
 62
     0
 10
416.959
 20
26.5961
 30
0.0
 11
416.959
 21
40.5955
 31
0.0
  0
LINE
  8
0
 62
     0
 10
376.477
 20
59.6456
 30
0.0
 11
376.477
 21
54.9465
 31
0.0
  0
LINE
  8
0
 62
     0
 10
376.477
 20
54.9465
 30
0.0
 11
374.95
 21
54.9465
 31
0.0
  0
LINE
  8
0
 62
     0
 10
374.95
 20
54.9465
 30
0.0
 11
374.95
 21
58.1766
 31
0.0
  0
LINE
  8
0
 62
     0
 10
374.95
 20
58.1766
 30
0.0
 11
373.225
 21
58.1766
 31
0.0
  0
LINE
  8
0
 62
     0
 10
373.225
 20
58.1766
 30
0.0
 11
373.225
 21
59.0959
 31
0.0
  0
LINE
  8
0
 62
     0
 10
373.225
 20
59.0959
 30
0.0
 11
369.926
 21
59.0959
 31
0.0
  0
LINE
  8
0
 62
     0
 10
369.926
 20
59.0959
 30
0.0
 11
369.926
 21
58.1766
 31
0.0
  0
LINE
  8
0
 62
     0
 10
369.926
 20
58.1766
 30
0.0
 11
368.201
 21
58.1766
 31
0.0
  0
LINE
  8
0
 62
     0
 10
368.201
 20
58.1766
 30
0.0
 11
368.201
 21
54.9465
 31
0.0
  0
LINE
  8
0
 62
     0
 10
368.201
 20
54.9465
 30
0.0
 11
367.376
 21
54.9465
 31
0.0
  0
LINE
  8
0
 62
     0
 10
367.376
 20
54.9465
 30
0.0
 11
367.376
 21
52.1462
 31
0.0
  0
LINE
  8
0
 62
     0
 10
367.376
 20
52.1462
 30
0.0
 11
368.201
 21
52.1462
 31
0.0
  0
LINE
  8
0
 62
     0
 10
368.201
 20
52.1462
 30
0.0
 11
368.201
 21
45.8763
 31
0.0
  0
LINE
  8
0
 62
     0
 10
368.201
 20
45.8763
 30
0.0
 11
369.926
 21
45.8763
 31
0.0
  0
LINE
  8
0
 62
     0
 10
369.926
 20
45.8763
 30
0.0
 11
369.926
 21
44.8966
 31
0.0
  0
LINE
  8
0
 62
     0
 10
369.926
 20
44.8966
 30
0.0
 11
373.225
 21
44.8966
 31
0.0
  0
LINE
  8
0
 62
     0
 10
373.225
 20
44.8966
 30
0.0
 11
373.225
 21
45.8763
 31
0.0
  0
LINE
  8
0
 62
     0
 10
373.225
 20
45.8763
 30
0.0
 11
374.95
 21
45.8763
 31
0.0
  0
LINE
  8
0
 62
     0
 10
374.95
 20
45.8763
 30
0.0
 11
374.95
 21
50.3467
 31
0.0
  0
LINE
  8
0
 62
     0
 10
374.95
 20
50.3467
 30
0.0
 11
376.477
 21
50.3467
 31
0.0
  0
LINE
  8
0
 62
     0
 10
376.477
 20
50.3467
 30
0.0
 11
376.477
 21
45.6463
 31
0.0
  0
LINE
  8
0
 62
     0
 10
376.477
 20
45.6463
 30
0.0
 11
390.476
 21
45.6463
 31
0.0
  0
LINE
  8
0
 62
     0
 10
390.476
 20
45.6463
 30
0.0
 11
390.476
 21
50.3467
 31
0.0
  0
LINE
  8
0
 62
     0
 10
390.476
 20
50.3467
 30
0.0
 11
392
 21
50.3467
 31
0.0
  0
LINE
  8
0
 62
     0
 10
392
 20
50.3467
 30
0.0
 11
392
 21
45.8763
 31
0.0
  0
LINE
  8
0
 62
     0
 10
392
 20
45.8763
 30
0.0
 11
393.725
 21
45.8763
 31
0.0
  0
LINE
  8
0
 62
     0
 10
393.725
 20
45.8763
 30
0.0
 11
393.725
 21
44.8966
 31
0.0
  0
LINE
  8
0
 62
     0
 10
393.725
 20
44.8966
 30
0.0
 11
397.027
 21
44.8966
 31
0.0
  0
LINE
  8
0
 62
     0
 10
397.027
 20
44.8966
 30
0.0
 11
397.027
 21
45.8763
 31
0.0
  0
LINE
  8
0
 62
     0
 10
397.027
 20
45.8763
 30
0.0
 11
398.752
 21
45.8763
 31
0.0
  0
LINE
  8
0
 62
     0
 10
398.752
 20
45.8763
 30
0.0
 11
398.752
 21
52.1462
 31
0.0
  0
LINE
  8
0
 62
     0
 10
398.752
 20
52.1462
 30
0.0
 11
399.577
 21
52.1462
 31
0.0
  0
LINE
  8
0
 62
     0
 10
399.577
 20
52.1462
 30
0.0
 11
399.577
 21
54.9465
 31
0.0
  0
LINE
  8
0
 62
     0
 10
399.577
 20
54.9465
 30
0.0
 11
398.752
 21
54.9465
 31
0.0
  0
LINE
  8
0
 62
     0
 10
398.752
 20
54.9465
 30
0.0
 11
398.752
 21
58.1766
 31
0.0
  0
LINE
  8
0
 62
     0
 10
398.752
 20
58.1766
 30
0.0
 11
397.027
 21
58.1766
 31
0.0
  0
LINE
  8
0
 62
     0
 10
397.027
 20
58.1766
 30
0.0
 11
397.027
 21
59.0959
 31
0.0
  0
LINE
  8
0
 62
     0
 10
397.027
 20
59.0959
 30
0.0
 11
393.725
 21
59.0959
 31
0.0
  0
LINE
  8
0
 62
     0
 10
393.725
 20
59.0959
 30
0.0
 11
393.725
 21
58.1766
 31
0.0
  0
LINE
  8
0
 62
     0
 10
393.725
 20
58.1766
 30
0.0
 11
392
 21
58.1766
 31
0.0
  0
LINE
  8
0
 62
     0
 10
392
 20
58.1766
 30
0.0
 11
392
 21
54.9465
 31
0.0
  0
LINE
  8
0
 62
     0
 10
392
 20
54.9465
 30
0.0
 11
390.476
 21
54.9465
 31
0.0
  0
LINE
  8
0
 62
     0
 10
390.476
 20
54.9465
 30
0.0
 11
390.476
 21
59.6456
 31
0.0
  0
LINE
  8
0
 62
     0
 10
390.476
 20
59.6456
 30
0.0
 11
376.477
 21
59.6456
 31
0.0
  0
LINE
  8
0
 62
     0
 10
21.6697
 20
59.6456
 30
0.0
 11
35.669
 21
59.6456
 31
0.0
  0
LINE
  8
0
 62
     0
 10
35.669
 20
59.6456
 30
0.0
 11
35.669
 21
45.6463
 31
0.0
  0
LINE
  8
0
 62
     0
 10
35.669
 20
45.6463
 30
0.0
 11
21.6697
 21
45.6463
 31
0.0
  0
LINE
  8
0
 62
     0
 10
21.6697
 20
45.6463
 30
0.0
 11
21.6697
 21
59.6456
 31
0.0
  0
LINE
  8
0
 62
     0
 10
40.7197
 20
59.6456
 30
0.0
 11
54.719
 21
59.6456
 31
0.0
  0
LINE
  8
0
 62
     0
 10
54.719
 20
59.6456
 30
0.0
 11
54.719
 21
45.6463
 31
0.0
  0
LINE
  8
0
 62
     0
 10
54.719
 20
45.6463
 30
0.0
 11
40.7197
 21
45.6463
 31
0.0
  0
LINE
  8
0
 62
     0
 10
40.7197
 20
45.6463
 30
0.0
 11
40.7197
 21
59.6456
 31
0.0
  0
LINE
  8
0
 62
     0
 10
59.7697
 20
59.6456
 30
0.0
 11
73.769
 21
59.6456
 31
0.0
  0
LINE
  8
0
 62
     0
 10
73.769
 20
59.6456
 30
0.0
 11
73.769
 21
45.6463
 31
0.0
  0
LINE
  8
0
 62
     0
 10
73.769
 20
45.6463
 30
0.0
 11
59.7697
 21
45.6463
 31
0.0
  0
LINE
  8
0
 62
     0
 10
59.7697
 20
45.6463
 30
0.0
 11
59.7697
 21
59.6456
 31
0.0
  0
LINE
  8
0
 62
     0
 10
90.726
 20
59.6456
 30
0.0
 11
104.725
 21
59.6456
 31
0.0
  0
LINE
  8
0
 62
     0
 10
104.725
 20
59.6456
 30
0.0
 11
104.725
 21
45.6463
 31
0.0
  0
LINE
  8
0
 62
     0
 10
104.725
 20
45.6463
 30
0.0
 11
90.726
 21
45.6463
 31
0.0
  0
LINE
  8
0
 62
     0
 10
90.726
 20
45.6463
 30
0.0
 11
90.726
 21
59.6456
 31
0.0
  0
LINE
  8
0
 62
     0
 10
128.826
 20
59.6456
 30
0.0
 11
142.825
 21
59.6456
 31
0.0
  0
LINE
  8
0
 62
     0
 10
142.825
 20
59.6456
 30
0.0
 11
142.825
 21
45.6463
 31
0.0
  0
LINE
  8
0
 62
     0
 10
142.825
 20
45.6463
 30
0.0
 11
128.826
 21
45.6463
 31
0.0
  0
LINE
  8
0
 62
     0
 10
128.826
 20
45.6463
 30
0.0
 11
128.826
 21
59.6456
 31
0.0
  0
LINE
  8
0
 62
     0
 10
155.018
 20
59.6456
 30
0.0
 11
169.019
 21
59.6456
 31
0.0
  0
LINE
  8
0
 62
     0
 10
169.019
 20
59.6456
 30
0.0
 11
169.019
 21
45.6463
 31
0.0
  0
LINE
  8
0
 62
     0
 10
169.019
 20
45.6463
 30
0.0
 11
155.018
 21
45.6463
 31
0.0
  0
LINE
  8
0
 62
     0
 10
155.018
 20
45.6463
 30
0.0
 11
155.018
 21
59.6456
 31
0.0
  0
LINE
  8
0
 62
     0
 10
174.07
 20
59.6456
 30
0.0
 11
188.069
 21
59.6456
 31
0.0
  0
LINE
  8
0
 62
     0
 10
188.069
 20
59.6456
 30
0.0
 11
188.069
 21
45.6463
 31
0.0
  0
LINE
  8
0
 62
     0
 10
188.069
 20
45.6463
 30
0.0
 11
174.07
 21
45.6463
 31
0.0
  0
LINE
  8
0
 62
     0
 10
174.07
 20
45.6463
 30
0.0
 11
174.07
 21
59.6456
 31
0.0
  0
LINE
  8
0
 62
     0
 10
193.12
 20
59.6456
 30
0.0
 11
207.119
 21
59.6456
 31
0.0
  0
LINE
  8
0
 62
     0
 10
207.119
 20
59.6456
 30
0.0
 11
207.119
 21
45.6463
 31
0.0
  0
LINE
  8
0
 62
     0
 10
207.119
 20
45.6463
 30
0.0
 11
193.12
 21
45.6463
 31
0.0
  0
LINE
  8
0
 62
     0
 10
193.12
 20
45.6463
 30
0.0
 11
193.12
 21
59.6456
 31
0.0
  0
LINE
  8
0
 62
     0
 10
212.17
 20
59.6456
 30
0.0
 11
226.169
 21
59.6456
 31
0.0
  0
LINE
  8
0
 62
     0
 10
226.169
 20
59.6456
 30
0.0
 11
226.169
 21
45.6463
 31
0.0
  0
LINE
  8
0
 62
     0
 10
226.169
 20
45.6463
 30
0.0
 11
212.17
 21
45.6463
 31
0.0
  0
LINE
  8
0
 62
     0
 10
212.17
 20
45.6463
 30
0.0
 11
212.17
 21
59.6456
 31
0.0
  0
LINE
  8
0
 62
     0
 10
231.22
 20
59.6456
 30
0.0
 11
245.219
 21
59.6456
 31
0.0
  0
LINE
  8
0
 62
     0
 10
245.219
 20
59.6456
 30
0.0
 11
245.219
 21
45.6463
 31
0.0
  0
LINE
  8
0
 62
     0
 10
245.219
 20
45.6463
 30
0.0
 11
231.22
 21
45.6463
 31
0.0
  0
LINE
  8
0
 62
     0
 10
231.22
 20
45.6463
 30
0.0
 11
231.22
 21
59.6456
 31
0.0
  0
LINE
  8
0
 62
     0
 10
250.27
 20
59.6456
 30
0.0
 11
264.269
 21
59.6456
 31
0.0
  0
LINE
  8
0
 62
     0
 10
264.269
 20
59.6456
 30
0.0
 11
264.269
 21
45.6463
 31
0.0
  0
LINE
  8
0
 62
     0
 10
264.269
 20
45.6463
 30
0.0
 11
250.27
 21
45.6463
 31
0.0
  0
LINE
  8
0
 62
     0
 10
250.27
 20
45.6463
 30
0.0
 11
250.27
 21
59.6456
 31
0.0
  0
LINE
  8
0
 62
     0
 10
269.32
 20
59.6456
 30
0.0
 11
283.319
 21
59.6456
 31
0.0
  0
LINE
  8
0
 62
     0
 10
283.319
 20
59.6456
 30
0.0
 11
283.319
 21
45.6463
 31
0.0
  0
LINE
  8
0
 62
     0
 10
283.319
 20
45.6463
 30
0.0
 11
269.32
 21
45.6463
 31
0.0
  0
LINE
  8
0
 62
     0
 10
269.32
 20
45.6463
 30
0.0
 11
269.32
 21
59.6456
 31
0.0
  0
LINE
  8
0
 62
     0
 10
288.37
 20
59.6456
 30
0.0
 11
302.369
 21
59.6456
 31
0.0
  0
LINE
  8
0
 62
     0
 10
302.369
 20
59.6456
 30
0.0
 11
302.369
 21
45.6463
 31
0.0
  0
LINE
  8
0
 62
     0
 10
302.369
 20
45.6463
 30
0.0
 11
288.37
 21
45.6463
 31
0.0
  0
LINE
  8
0
 62
     0
 10
288.37
 20
45.6463
 30
0.0
 11
288.37
 21
59.6456
 31
0.0
  0
LINE
  8
0
 62
     0
 10
307.42
 20
59.6456
 30
0.0
 11
321.419
 21
59.6456
 31
0.0
  0
LINE
  8
0
 62
     0
 10
321.419
 20
59.6456
 30
0.0
 11
321.419
 21
45.6463
 31
0.0
  0
LINE
  8
0
 62
     0
 10
321.419
 20
45.6463
 30
0.0
 11
307.42
 21
45.6463
 31
0.0
  0
LINE
  8
0
 62
     0
 10
307.42
 20
45.6463
 30
0.0
 11
307.42
 21
59.6456
 31
0.0
  0
LINE
  8
0
 62
     0
 10
326.47
 20
59.6456
 30
0.0
 11
340.469
 21
59.6456
 31
0.0
  0
LINE
  8
0
 62
     0
 10
340.469
 20
59.6456
 30
0.0
 11
340.469
 21
45.6463
 31
0.0
  0
LINE
  8
0
 62
     0
 10
340.469
 20
45.6463
 30
0.0
 11
326.47
 21
45.6463
 31
0.0
  0
LINE
  8
0
 62
     0
 10
326.47
 20
45.6463
 30
0.0
 11
326.47
 21
59.6456
 31
0.0
  0
LINE
  8
0
 62
     0
 10
345.52
 20
59.6456
 30
0.0
 11
359.519
 21
59.6456
 31
0.0
  0
LINE
  8
0
 62
     0
 10
359.519
 20
59.6456
 30
0.0
 11
359.519
 21
45.6463
 31
0.0
  0
LINE
  8
0
 62
     0
 10
359.519
 20
45.6463
 30
0.0
 11
345.52
 21
45.6463
 31
0.0
  0
LINE
  8
0
 62
     0
 10
345.52
 20
45.6463
 30
0.0
 11
345.52
 21
59.6456
 31
0.0
  0
LINE
  8
0
 62
     0
 10
416.959
 20
59.6456
 30
0.0
 11
430.957
 21
59.6456
 31
0.0
  0
LINE
  8
0
 62
     0
 10
430.957
 20
59.6456
 30
0.0
 11
430.957
 21
45.6463
 31
0.0
  0
LINE
  8
0
 62
     0
 10
430.957
 20
45.6463
 30
0.0
 11
416.959
 21
45.6463
 31
0.0
  0
LINE
  8
0
 62
     0
 10
416.959
 20
45.6463
 30
0.0
 11
416.959
 21
59.6456
 31
0.0
  0
LINE
  8
0
 62
     0
 10
9.11849
 20
78.2712
 30
0.0
 11
9.11849
 21
77.4457
 31
0.0
  0
LINE
  8
0
 62
     0
 10
9.11849
 20
77.4457
 30
0.0
 11
2.84978
 21
77.4457
 31
0.0
  0
LINE
  8
0
 62
     0
 10
2.84978
 20
77.4457
 30
0.0
 11
2.84978
 21
75.722
 31
0.0
  0
LINE
  8
0
 62
     0
 10
2.84978
 20
75.722
 30
0.0
 11
1.86862
 21
75.722
 31
0.0
  0
LINE
  8
0
 62
     0
 10
1.86862
 20
75.722
 30
0.0
 11
1.86862
 21
72.4214
 31
0.0
  0
LINE
  8
0
 62
     0
 10
1.86862
 20
72.4214
 30
0.0
 11
2.84978
 21
72.4214
 31
0.0
  0
LINE
  8
0
 62
     0
 10
2.84978
 20
72.4214
 30
0.0
 11
2.84978
 21
70.696
 31
0.0
  0
LINE
  8
0
 62
     0
 10
2.84978
 20
70.696
 30
0.0
 11
7.32014
 21
70.696
 31
0.0
  0
LINE
  8
0
 62
     0
 10
7.32014
 20
70.696
 30
0.0
 11
7.32014
 21
69.1706
 31
0.0
  0
LINE
  8
0
 62
     0
 10
7.32014
 20
69.1706
 30
0.0
 11
2.61965
 21
69.1706
 31
0.0
  0
LINE
  8
0
 62
     0
 10
2.61965
 20
69.1706
 30
0.0
 11
2.61965
 21
55.1713
 31
0.0
  0
LINE
  8
0
 62
     0
 10
2.61965
 20
55.1713
 30
0.0
 11
7.32014
 21
55.1713
 31
0.0
  0
LINE
  8
0
 62
     0
 10
7.32014
 20
55.1713
 30
0.0
 11
7.32014
 21
53.6455
 31
0.0
  0
LINE
  8
0
 62
     0
 10
7.32014
 20
53.6455
 30
0.0
 11
2.84978
 21
53.6455
 31
0.0
  0
LINE
  8
0
 62
     0
 10
2.84978
 20
53.6455
 30
0.0
 11
2.84978
 21
51.9218
 31
0.0
  0
LINE
  8
0
 62
     0
 10
2.84978
 20
51.9218
 30
0.0
 11
1.87
 21
51.9218
 31
0.0
  0
LINE
  8
0
 62
     0
 10
1.87
 20
51.9218
 30
0.0
 11
1.87
 21
48.6212
 31
0.0
  0
LINE
  8
0
 62
     0
 10
1.87
 20
48.6212
 30
0.0
 11
2.84978
 21
48.6212
 31
0.0
  0
LINE
  8
0
 62
     0
 10
2.84978
 20
48.6212
 30
0.0
 11
2.84978
 21
46.8962
 31
0.0
  0
LINE
  8
0
 62
     0
 10
2.84978
 20
46.8962
 30
0.0
 11
9.11987
 21
46.8962
 31
0.0
  0
LINE
  8
0
 62
     0
 10
9.11987
 20
46.8962
 30
0.0
 11
9.11987
 21
46.0721
 31
0.0
  0
LINE
  8
0
 62
     0
 10
9.11987
 20
46.0721
 30
0.0
 11
11.92
 21
46.0721
 31
0.0
  0
LINE
  8
0
 62
     0
 10
11.92
 20
46.0721
 30
0.0
 11
11.92
 21
46.8962
 31
0.0
  0
LINE
  8
0
 62
     0
 10
11.92
 20
46.8962
 30
0.0
 11
15.1501
 21
46.8962
 31
0.0
  0
LINE
  8
0
 62
     0
 10
15.1501
 20
46.8962
 30
0.0
 11
15.1501
 21
48.6212
 31
0.0
  0
LINE
  8
0
 62
     0
 10
15.1501
 20
48.6212
 30
0.0
 11
16.0693
 21
48.6212
 31
0.0
  0
LINE
  8
0
 62
     0
 10
16.0693
 20
48.6212
 30
0.0
 11
16.0693
 21
51.9218
 31
0.0
  0
LINE
  8
0
 62
     0
 10
16.0693
 20
51.9218
 30
0.0
 11
15.1501
 21
51.9218
 31
0.0
  0
LINE
  8
0
 62
     0
 10
15.1501
 20
51.9218
 30
0.0
 11
15.1501
 21
53.6455
 31
0.0
  0
LINE
  8
0
 62
     0
 10
15.1501
 20
53.6455
 30
0.0
 11
11.92
 21
53.6455
 31
0.0
  0
LINE
  8
0
 62
     0
 10
11.92
 20
53.6455
 30
0.0
 11
11.92
 21
55.1713
 31
0.0
  0
LINE
  8
0
 62
     0
 10
11.92
 20
55.1713
 30
0.0
 11
16.6192
 21
55.1713
 31
0.0
  0
LINE
  8
0
 62
     0
 10
16.6192
 20
55.1713
 30
0.0
 11
16.6192
 21
69.1706
 31
0.0
  0
LINE
  8
0
 62
     0
 10
16.6192
 20
69.1706
 30
0.0
 11
11.92
 21
69.1706
 31
0.0
  0
LINE
  8
0
 62
     0
 10
11.92
 20
69.1706
 30
0.0
 11
11.92
 21
70.696
 31
0.0
  0
LINE
  8
0
 62
     0
 10
11.92
 20
70.696
 30
0.0
 11
15.1501
 21
70.696
 31
0.0
  0
LINE
  8
0
 62
     0
 10
15.1501
 20
70.696
 30
0.0
 11
15.1501
 21
72.4214
 31
0.0
  0
LINE
  8
0
 62
     0
 10
15.1501
 20
72.4214
 30
0.0
 11
16.0693
 21
72.4214
 31
0.0
  0
LINE
  8
0
 62
     0
 10
16.0693
 20
72.4214
 30
0.0
 11
16.0693
 21
75.722
 31
0.0
  0
LINE
  8
0
 62
     0
 10
16.0693
 20
75.722
 30
0.0
 11
15.1501
 21
75.722
 31
0.0
  0
LINE
  8
0
 62
     0
 10
15.1501
 20
75.722
 30
0.0
 11
15.1501
 21
77.4457
 31
0.0
  0
LINE
  8
0
 62
     0
 10
15.1501
 20
77.4457
 30
0.0
 11
11.92
 21
77.4457
 31
0.0
  0
LINE
  8
0
 62
     0
 10
11.92
 20
77.4457
 30
0.0
 11
11.92
 21
78.2712
 31
0.0
  0
LINE
  8
0
 62
     0
 10
11.92
 20
78.2712
 30
0.0
 11
9.11849
 21
78.2712
 31
0.0
  0
LINE
  8
0
 62
     0
 10
21.6697
 20
78.6956
 30
0.0
 11
35.669
 21
78.6956
 31
0.0
  0
LINE
  8
0
 62
     0
 10
35.669
 20
78.6956
 30
0.0
 11
35.669
 21
64.6963
 31
0.0
  0
LINE
  8
0
 62
     0
 10
35.669
 20
64.6963
 30
0.0
 11
21.6697
 21
64.6963
 31
0.0
  0
LINE
  8
0
 62
     0
 10
21.6697
 20
64.6963
 30
0.0
 11
21.6697
 21
78.6956
 31
0.0
  0
LINE
  8
0
 62
     0
 10
40.7197
 20
78.6956
 30
0.0
 11
54.719
 21
78.6956
 31
0.0
  0
LINE
  8
0
 62
     0
 10
54.719
 20
78.6956
 30
0.0
 11
54.719
 21
64.6963
 31
0.0
  0
LINE
  8
0
 62
     0
 10
54.719
 20
64.6963
 30
0.0
 11
40.7197
 21
64.6963
 31
0.0
  0
LINE
  8
0
 62
     0
 10
40.7197
 20
64.6963
 30
0.0
 11
40.7197
 21
78.6956
 31
0.0
  0
LINE
  8
0
 62
     0
 10
59.7697
 20
78.6956
 30
0.0
 11
73.769
 21
78.6956
 31
0.0
  0
LINE
  8
0
 62
     0
 10
73.769
 20
78.6956
 30
0.0
 11
73.769
 21
64.6963
 31
0.0
  0
LINE
  8
0
 62
     0
 10
73.769
 20
64.6963
 30
0.0
 11
59.7697
 21
64.6963
 31
0.0
  0
LINE
  8
0
 62
     0
 10
59.7697
 20
64.6963
 30
0.0
 11
59.7697
 21
78.6956
 31
0.0
  0
LINE
  8
0
 62
     0
 10
126.445
 20
78.6956
 30
0.0
 11
140.444
 21
78.6956
 31
0.0
  0
LINE
  8
0
 62
     0
 10
140.444
 20
78.6956
 30
0.0
 11
140.444
 21
64.6963
 31
0.0
  0
LINE
  8
0
 62
     0
 10
140.444
 20
64.6963
 30
0.0
 11
126.445
 21
64.6963
 31
0.0
  0
LINE
  8
0
 62
     0
 10
126.445
 20
64.6963
 30
0.0
 11
126.445
 21
78.6956
 31
0.0
  0
LINE
  8
0
 62
     0
 10
150.257
 20
78.6956
 30
0.0
 11
164.257
 21
78.6956
 31
0.0
  0
LINE
  8
0
 62
     0
 10
164.257
 20
78.6956
 30
0.0
 11
164.257
 21
64.6963
 31
0.0
  0
LINE
  8
0
 62
     0
 10
164.257
 20
64.6963
 30
0.0
 11
150.257
 21
64.6963
 31
0.0
  0
LINE
  8
0
 62
     0
 10
150.257
 20
64.6963
 30
0.0
 11
150.257
 21
78.6956
 31
0.0
  0
LINE
  8
0
 62
     0
 10
169.307
 20
78.6956
 30
0.0
 11
183.307
 21
78.6956
 31
0.0
  0
LINE
  8
0
 62
     0
 10
183.307
 20
78.6956
 30
0.0
 11
183.307
 21
64.6963
 31
0.0
  0
LINE
  8
0
 62
     0
 10
183.307
 20
64.6963
 30
0.0
 11
169.307
 21
64.6963
 31
0.0
  0
LINE
  8
0
 62
     0
 10
169.307
 20
64.6963
 30
0.0
 11
169.307
 21
78.6956
 31
0.0
  0
LINE
  8
0
 62
     0
 10
188.357
 20
78.6956
 30
0.0
 11
202.357
 21
78.6956
 31
0.0
  0
LINE
  8
0
 62
     0
 10
202.357
 20
78.6956
 30
0.0
 11
202.357
 21
64.6963
 31
0.0
  0
LINE
  8
0
 62
     0
 10
202.357
 20
64.6963
 30
0.0
 11
188.357
 21
64.6963
 31
0.0
  0
LINE
  8
0
 62
     0
 10
188.357
 20
64.6963
 30
0.0
 11
188.357
 21
78.6956
 31
0.0
  0
LINE
  8
0
 62
     0
 10
207.407
 20
78.6956
 30
0.0
 11
221.407
 21
78.6956
 31
0.0
  0
LINE
  8
0
 62
     0
 10
221.407
 20
78.6956
 30
0.0
 11
221.407
 21
64.6963
 31
0.0
  0
LINE
  8
0
 62
     0
 10
221.407
 20
64.6963
 30
0.0
 11
207.407
 21
64.6963
 31
0.0
  0
LINE
  8
0
 62
     0
 10
207.407
 20
64.6963
 30
0.0
 11
207.407
 21
78.6956
 31
0.0
  0
LINE
  8
0
 62
     0
 10
226.457
 20
78.6956
 30
0.0
 11
240.457
 21
78.6956
 31
0.0
  0
LINE
  8
0
 62
     0
 10
240.457
 20
78.6956
 30
0.0
 11
240.457
 21
64.6963
 31
0.0
  0
LINE
  8
0
 62
     0
 10
240.457
 20
64.6963
 30
0.0
 11
226.457
 21
64.6963
 31
0.0
  0
LINE
  8
0
 62
     0
 10
226.457
 20
64.6963
 30
0.0
 11
226.457
 21
78.6956
 31
0.0
  0
LINE
  8
0
 62
     0
 10
245.507
 20
78.6956
 30
0.0
 11
259.507
 21
78.6956
 31
0.0
  0
LINE
  8
0
 62
     0
 10
259.507
 20
78.6956
 30
0.0
 11
259.507
 21
64.6963
 31
0.0
  0
LINE
  8
0
 62
     0
 10
259.507
 20
64.6963
 30
0.0
 11
245.507
 21
64.6963
 31
0.0
  0
LINE
  8
0
 62
     0
 10
245.507
 20
64.6963
 30
0.0
 11
245.507
 21
78.6956
 31
0.0
  0
LINE
  8
0
 62
     0
 10
264.557
 20
78.6956
 30
0.0
 11
278.557
 21
78.6956
 31
0.0
  0
LINE
  8
0
 62
     0
 10
278.557
 20
78.6956
 30
0.0
 11
278.557
 21
64.6963
 31
0.0
  0
LINE
  8
0
 62
     0
 10
278.557
 20
64.6963
 30
0.0
 11
264.557
 21
64.6963
 31
0.0
  0
LINE
  8
0
 62
     0
 10
264.557
 20
64.6963
 30
0.0
 11
264.557
 21
78.6956
 31
0.0
  0
LINE
  8
0
 62
     0
 10
283.607
 20
78.6956
 30
0.0
 11
297.607
 21
78.6956
 31
0.0
  0
LINE
  8
0
 62
     0
 10
297.607
 20
78.6956
 30
0.0
 11
297.607
 21
64.6963
 31
0.0
  0
LINE
  8
0
 62
     0
 10
297.607
 20
64.6963
 30
0.0
 11
283.607
 21
64.6963
 31
0.0
  0
LINE
  8
0
 62
     0
 10
283.607
 20
64.6963
 30
0.0
 11
283.607
 21
78.6956
 31
0.0
  0
LINE
  8
0
 62
     0
 10
302.657
 20
78.6956
 30
0.0
 11
316.657
 21
78.6956
 31
0.0
  0
LINE
  8
0
 62
     0
 10
316.657
 20
78.6956
 30
0.0
 11
316.657
 21
64.6963
 31
0.0
  0
LINE
  8
0
 62
     0
 10
316.657
 20
64.6963
 30
0.0
 11
302.657
 21
64.6963
 31
0.0
  0
LINE
  8
0
 62
     0
 10
302.657
 20
64.6963
 30
0.0
 11
302.657
 21
78.6956
 31
0.0
  0
LINE
  8
0
 62
     0
 10
321.707
 20
78.6956
 30
0.0
 11
335.707
 21
78.6956
 31
0.0
  0
LINE
  8
0
 62
     0
 10
335.707
 20
78.6956
 30
0.0
 11
335.707
 21
64.6963
 31
0.0
  0
LINE
  8
0
 62
     0
 10
335.707
 20
64.6963
 30
0.0
 11
321.707
 21
64.6963
 31
0.0
  0
LINE
  8
0
 62
     0
 10
321.707
 20
64.6963
 30
0.0
 11
321.707
 21
78.6956
 31
0.0
  0
LINE
  8
0
 62
     0
 10
340.757
 20
78.6956
 30
0.0
 11
354.757
 21
78.6956
 31
0.0
  0
LINE
  8
0
 62
     0
 10
354.757
 20
78.6956
 30
0.0
 11
354.757
 21
64.6963
 31
0.0
  0
LINE
  8
0
 62
     0
 10
354.757
 20
64.6963
 30
0.0
 11
340.757
 21
64.6963
 31
0.0
  0
LINE
  8
0
 62
     0
 10
340.757
 20
64.6963
 30
0.0
 11
340.757
 21
78.6956
 31
0.0
  0
LINE
  8
0
 62
     0
 10
359.809
 20
78.6956
 30
0.0
 11
373.807
 21
78.6956
 31
0.0
  0
LINE
  8
0
 62
     0
 10
373.807
 20
78.6956
 30
0.0
 11
373.807
 21
64.6963
 31
0.0
  0
LINE
  8
0
 62
     0
 10
373.807
 20
64.6963
 30
0.0
 11
359.809
 21
64.6963
 31
0.0
  0
LINE
  8
0
 62
     0
 10
359.809
 20
64.6963
 30
0.0
 11
359.809
 21
78.6956
 31
0.0
  0
LINE
  8
0
 62
     0
 10
383.621
 20
78.6956
 30
0.0
 11
397.619
 21
78.6956
 31
0.0
  0
LINE
  8
0
 62
     0
 10
397.619
 20
78.6956
 30
0.0
 11
397.619
 21
64.6963
 31
0.0
  0
LINE
  8
0
 62
     0
 10
397.619
 20
64.6963
 30
0.0
 11
383.621
 21
64.6963
 31
0.0
  0
LINE
  8
0
 62
     0
 10
383.621
 20
64.6963
 30
0.0
 11
383.621
 21
78.6956
 31
0.0
  0
LINE
  8
0
 62
     0
 10
416.959
 20
78.6956
 30
0.0
 11
430.957
 21
78.6956
 31
0.0
  0
LINE
  8
0
 62
     0
 10
430.957
 20
78.6956
 30
0.0
 11
430.957
 21
64.6963
 31
0.0
  0
LINE
  8
0
 62
     0
 10
430.957
 20
64.6963
 30
0.0
 11
416.959
 21
64.6963
 31
0.0
  0
LINE
  8
0
 62
     0
 10
416.959
 20
64.6963
 30
0.0
 11
416.959
 21
78.6956
 31
0.0
  0
LINE
  8
0
 62
     0
 10
378.859
 20
97.7456
 30
0.0
 11
378.859
 21
93.0465
 31
0.0
  0
LINE
  8
0
 62
     0
 10
378.859
 20
93.0465
 30
0.0
 11
377.331
 21
93.0465
 31
0.0
  0
LINE
  8
0
 62
     0
 10
377.331
 20
93.0465
 30
0.0
 11
377.331
 21
96.2766
 31
0.0
  0
LINE
  8
0
 62
     0
 10
377.331
 20
96.2766
 30
0.0
 11
375.606
 21
96.2766
 31
0.0
  0
LINE
  8
0
 62
     0
 10
375.606
 20
96.2766
 30
0.0
 11
375.606
 21
97.1959
 31
0.0
  0
LINE
  8
0
 62
     0
 10
375.606
 20
97.1959
 30
0.0
 11
372.308
 21
97.1959
 31
0.0
  0
LINE
  8
0
 62
     0
 10
372.308
 20
97.1959
 30
0.0
 11
372.308
 21
96.2766
 31
0.0
  0
LINE
  8
0
 62
     0
 10
372.308
 20
96.2766
 30
0.0
 11
370.582
 21
96.2766
 31
0.0
  0
LINE
  8
0
 62
     0
 10
370.582
 20
96.2766
 30
0.0
 11
370.582
 21
93.0465
 31
0.0
  0
LINE
  8
0
 62
     0
 10
370.582
 20
93.0465
 30
0.0
 11
369.757
 21
93.0465
 31
0.0
  0
LINE
  8
0
 62
     0
 10
369.757
 20
93.0465
 30
0.0
 11
369.757
 21
90.2462
 31
0.0
  0
LINE
  8
0
 62
     0
 10
369.757
 20
90.2462
 30
0.0
 11
370.582
 21
90.2462
 31
0.0
  0
LINE
  8
0
 62
     0
 10
370.582
 20
90.2462
 30
0.0
 11
370.582
 21
83.9763
 31
0.0
  0
LINE
  8
0
 62
     0
 10
370.582
 20
83.9763
 30
0.0
 11
372.308
 21
83.9763
 31
0.0
  0
LINE
  8
0
 62
     0
 10
372.308
 20
83.9763
 30
0.0
 11
372.308
 21
82.9966
 31
0.0
  0
LINE
  8
0
 62
     0
 10
372.308
 20
82.9966
 30
0.0
 11
375.606
 21
82.9966
 31
0.0
  0
LINE
  8
0
 62
     0
 10
375.606
 20
82.9966
 30
0.0
 11
375.606
 21
83.9763
 31
0.0
  0
LINE
  8
0
 62
     0
 10
375.606
 20
83.9763
 30
0.0
 11
377.331
 21
83.9763
 31
0.0
  0
LINE
  8
0
 62
     0
 10
377.331
 20
83.9763
 30
0.0
 11
377.331
 21
88.4467
 31
0.0
  0
LINE
  8
0
 62
     0
 10
377.331
 20
88.4467
 30
0.0
 11
378.859
 21
88.4467
 31
0.0
  0
LINE
  8
0
 62
     0
 10
378.859
 20
88.4467
 30
0.0
 11
378.859
 21
83.7463
 31
0.0
  0
LINE
  8
0
 62
     0
 10
378.859
 20
83.7463
 30
0.0
 11
392.857
 21
83.7463
 31
0.0
  0
LINE
  8
0
 62
     0
 10
392.857
 20
83.7463
 30
0.0
 11
392.857
 21
88.4467
 31
0.0
  0
LINE
  8
0
 62
     0
 10
392.857
 20
88.4467
 30
0.0
 11
394.381
 21
88.4467
 31
0.0
  0
LINE
  8
0
 62
     0
 10
394.381
 20
88.4467
 30
0.0
 11
394.381
 21
83.9763
 31
0.0
  0
LINE
  8
0
 62
     0
 10
394.381
 20
83.9763
 30
0.0
 11
396.106
 21
83.9763
 31
0.0
  0
LINE
  8
0
 62
     0
 10
396.106
 20
83.9763
 30
0.0
 11
396.106
 21
82.9966
 31
0.0
  0
LINE
  8
0
 62
     0
 10
396.106
 20
82.9966
 30
0.0
 11
399.408
 21
82.9966
 31
0.0
  0
LINE
  8
0
 62
     0
 10
399.408
 20
82.9966
 30
0.0
 11
399.408
 21
83.9763
 31
0.0
  0
LINE
  8
0
 62
     0
 10
399.408
 20
83.9763
 30
0.0
 11
401.133
 21
83.9763
 31
0.0
  0
LINE
  8
0
 62
     0
 10
401.133
 20
83.9763
 30
0.0
 11
401.133
 21
90.2462
 31
0.0
  0
LINE
  8
0
 62
     0
 10
401.133
 20
90.2462
 30
0.0
 11
401.955
 21
90.2462
 31
0.0
  0
LINE
  8
0
 62
     0
 10
401.955
 20
90.2462
 30
0.0
 11
401.955
 21
93.0465
 31
0.0
  0
LINE
  8
0
 62
     0
 10
401.955
 20
93.0465
 30
0.0
 11
401.133
 21
93.0465
 31
0.0
  0
LINE
  8
0
 62
     0
 10
401.133
 20
93.0465
 30
0.0
 11
401.133
 21
96.2766
 31
0.0
  0
LINE
  8
0
 62
     0
 10
401.133
 20
96.2766
 30
0.0
 11
399.408
 21
96.2766
 31
0.0
  0
LINE
  8
0
 62
     0
 10
399.408
 20
96.2766
 30
0.0
 11
399.408
 21
97.1959
 31
0.0
  0
LINE
  8
0
 62
     0
 10
399.408
 20
97.1959
 30
0.0
 11
396.106
 21
97.1959
 31
0.0
  0
LINE
  8
0
 62
     0
 10
396.106
 20
97.1959
 30
0.0
 11
396.106
 21
96.2766
 31
0.0
  0
LINE
  8
0
 62
     0
 10
396.106
 20
96.2766
 30
0.0
 11
394.381
 21
96.2766
 31
0.0
  0
LINE
  8
0
 62
     0
 10
394.381
 20
96.2766
 30
0.0
 11
394.381
 21
93.0465
 31
0.0
  0
LINE
  8
0
 62
     0
 10
394.381
 20
93.0465
 30
0.0
 11
392.857
 21
93.0465
 31
0.0
  0
LINE
  8
0
 62
     0
 10
392.857
 20
93.0465
 30
0.0
 11
392.857
 21
97.7456
 31
0.0
  0
LINE
  8
0
 62
     0
 10
392.857
 20
97.7456
 30
0.0
 11
378.859
 21
97.7456
 31
0.0
  0
LINE
  8
0
 62
     0
 10
2.61965
 20
97.7456
 30
0.0
 11
16.6192
 21
97.7456
 31
0.0
  0
LINE
  8
0
 62
     0
 10
16.6192
 20
97.7456
 30
0.0
 11
16.6192
 21
83.7463
 31
0.0
  0
LINE
  8
0
 62
     0
 10
16.6192
 20
83.7463
 30
0.0
 11
2.61965
 21
83.7463
 31
0.0
  0
LINE
  8
0
 62
     0
 10
2.61965
 20
83.7463
 30
0.0
 11
2.61965
 21
97.7456
 31
0.0
  0
LINE
  8
0
 62
     0
 10
21.6697
 20
97.7456
 30
0.0
 11
35.669
 21
97.7456
 31
0.0
  0
LINE
  8
0
 62
     0
 10
35.669
 20
97.7456
 30
0.0
 11
35.669
 21
83.7463
 31
0.0
  0
LINE
  8
0
 62
     0
 10
35.669
 20
83.7463
 30
0.0
 11
21.6697
 21
83.7463
 31
0.0
  0
LINE
  8
0
 62
     0
 10
21.6697
 20
83.7463
 30
0.0
 11
21.6697
 21
97.7456
 31
0.0
  0
LINE
  8
0
 62
     0
 10
40.7197
 20
97.7456
 30
0.0
 11
54.719
 21
97.7456
 31
0.0
  0
LINE
  8
0
 62
     0
 10
54.719
 20
97.7456
 30
0.0
 11
54.719
 21
83.7463
 31
0.0
  0
LINE
  8
0
 62
     0
 10
54.719
 20
83.7463
 30
0.0
 11
40.7197
 21
83.7463
 31
0.0
  0
LINE
  8
0
 62
     0
 10
40.7197
 20
83.7463
 30
0.0
 11
40.7197
 21
97.7456
 31
0.0
  0
LINE
  8
0
 62
     0
 10
59.7697
 20
97.7456
 30
0.0
 11
73.769
 21
97.7456
 31
0.0
  0
LINE
  8
0
 62
     0
 10
73.769
 20
97.7456
 30
0.0
 11
73.769
 21
83.7463
 31
0.0
  0
LINE
  8
0
 62
     0
 10
73.769
 20
83.7463
 30
0.0
 11
59.7697
 21
83.7463
 31
0.0
  0
LINE
  8
0
 62
     0
 10
59.7697
 20
83.7463
 30
0.0
 11
59.7697
 21
97.7456
 31
0.0
  0
LINE
  8
0
 62
     0
 10
121.682
 20
97.7456
 30
0.0
 11
135.682
 21
97.7456
 31
0.0
  0
LINE
  8
0
 62
     0
 10
135.682
 20
97.7456
 30
0.0
 11
135.682
 21
83.7463
 31
0.0
  0
LINE
  8
0
 62
     0
 10
135.682
 20
83.7463
 30
0.0
 11
121.682
 21
83.7463
 31
0.0
  0
LINE
  8
0
 62
     0
 10
121.682
 20
83.7463
 30
0.0
 11
121.682
 21
97.7456
 31
0.0
  0
LINE
  8
0
 62
     0
 10
140.732
 20
97.7456
 30
0.0
 11
154.732
 21
97.7456
 31
0.0
  0
LINE
  8
0
 62
     0
 10
154.732
 20
97.7456
 30
0.0
 11
154.732
 21
83.7463
 31
0.0
  0
LINE
  8
0
 62
     0
 10
154.732
 20
83.7463
 30
0.0
 11
140.732
 21
83.7463
 31
0.0
  0
LINE
  8
0
 62
     0
 10
140.732
 20
83.7463
 30
0.0
 11
140.732
 21
97.7456
 31
0.0
  0
LINE
  8
0
 62
     0
 10
159.782
 20
97.7456
 30
0.0
 11
173.782
 21
97.7456
 31
0.0
  0
LINE
  8
0
 62
     0
 10
173.782
 20
97.7456
 30
0.0
 11
173.782
 21
83.7463
 31
0.0
  0
LINE
  8
0
 62
     0
 10
173.782
 20
83.7463
 30
0.0
 11
159.782
 21
83.7463
 31
0.0
  0
LINE
  8
0
 62
     0
 10
159.782
 20
83.7463
 30
0.0
 11
159.782
 21
97.7456
 31
0.0
  0
LINE
  8
0
 62
     0
 10
178.832
 20
97.7456
 30
0.0
 11
192.832
 21
97.7456
 31
0.0
  0
LINE
  8
0
 62
     0
 10
192.832
 20
97.7456
 30
0.0
 11
192.832
 21
83.7463
 31
0.0
  0
LINE
  8
0
 62
     0
 10
192.832
 20
83.7463
 30
0.0
 11
178.832
 21
83.7463
 31
0.0
  0
LINE
  8
0
 62
     0
 10
178.832
 20
83.7463
 30
0.0
 11
178.832
 21
97.7456
 31
0.0
  0
LINE
  8
0
 62
     0
 10
197.882
 20
97.7456
 30
0.0
 11
211.882
 21
97.7456
 31
0.0
  0
LINE
  8
0
 62
     0
 10
211.882
 20
97.7456
 30
0.0
 11
211.882
 21
83.7463
 31
0.0
  0
LINE
  8
0
 62
     0
 10
211.882
 20
83.7463
 30
0.0
 11
197.882
 21
83.7463
 31
0.0
  0
LINE
  8
0
 62
     0
 10
197.882
 20
83.7463
 30
0.0
 11
197.882
 21
97.7456
 31
0.0
  0
LINE
  8
0
 62
     0
 10
216.932
 20
97.7456
 30
0.0
 11
230.932
 21
97.7456
 31
0.0
  0
LINE
  8
0
 62
     0
 10
230.932
 20
97.7456
 30
0.0
 11
230.932
 21
83.7463
 31
0.0
  0
LINE
  8
0
 62
     0
 10
230.932
 20
83.7463
 30
0.0
 11
216.932
 21
83.7463
 31
0.0
  0
LINE
  8
0
 62
     0
 10
216.932
 20
83.7463
 30
0.0
 11
216.932
 21
97.7456
 31
0.0
  0
LINE
  8
0
 62
     0
 10
235.982
 20
97.7456
 30
0.0
 11
249.982
 21
97.7456
 31
0.0
  0
LINE
  8
0
 62
     0
 10
249.982
 20
97.7456
 30
0.0
 11
249.982
 21
83.7463
 31
0.0
  0
LINE
  8
0
 62
     0
 10
249.982
 20
83.7463
 30
0.0
 11
235.982
 21
83.7463
 31
0.0
  0
LINE
  8
0
 62
     0
 10
235.982
 20
83.7463
 30
0.0
 11
235.982
 21
97.7456
 31
0.0
  0
LINE
  8
0
 62
     0
 10
255.032
 20
97.7456
 30
0.0
 11
269.032
 21
97.7456
 31
0.0
  0
LINE
  8
0
 62
     0
 10
269.032
 20
97.7456
 30
0.0
 11
269.032
 21
83.7463
 31
0.0
  0
LINE
  8
0
 62
     0
 10
269.032
 20
83.7463
 30
0.0
 11
255.032
 21
83.7463
 31
0.0
  0
LINE
  8
0
 62
     0
 10
255.032
 20
83.7463
 30
0.0
 11
255.032
 21
97.7456
 31
0.0
  0
LINE
  8
0
 62
     0
 10
274.082
 20
97.7456
 30
0.0
 11
288.082
 21
97.7456
 31
0.0
  0
LINE
  8
0
 62
     0
 10
288.082
 20
97.7456
 30
0.0
 11
288.082
 21
83.7463
 31
0.0
  0
LINE
  8
0
 62
     0
 10
288.082
 20
83.7463
 30
0.0
 11
274.082
 21
83.7463
 31
0.0
  0
LINE
  8
0
 62
     0
 10
274.082
 20
83.7463
 30
0.0
 11
274.082
 21
97.7456
 31
0.0
  0
LINE
  8
0
 62
     0
 10
293.132
 20
97.7456
 30
0.0
 11
307.132
 21
97.7456
 31
0.0
  0
LINE
  8
0
 62
     0
 10
307.132
 20
97.7456
 30
0.0
 11
307.132
 21
83.7463
 31
0.0
  0
LINE
  8
0
 62
     0
 10
307.132
 20
83.7463
 30
0.0
 11
293.132
 21
83.7463
 31
0.0
  0
LINE
  8
0
 62
     0
 10
293.132
 20
83.7463
 30
0.0
 11
293.132
 21
97.7456
 31
0.0
  0
LINE
  8
0
 62
     0
 10
312.182
 20
97.7456
 30
0.0
 11
326.182
 21
97.7456
 31
0.0
  0
LINE
  8
0
 62
     0
 10
326.182
 20
97.7456
 30
0.0
 11
326.182
 21
83.7463
 31
0.0
  0
LINE
  8
0
 62
     0
 10
326.182
 20
83.7463
 30
0.0
 11
312.182
 21
83.7463
 31
0.0
  0
LINE
  8
0
 62
     0
 10
312.182
 20
83.7463
 30
0.0
 11
312.182
 21
97.7456
 31
0.0
  0
LINE
  8
0
 62
     0
 10
331.232
 20
97.7456
 30
0.0
 11
345.232
 21
97.7456
 31
0.0
  0
LINE
  8
0
 62
     0
 10
345.232
 20
97.7456
 30
0.0
 11
345.232
 21
83.7463
 31
0.0
  0
LINE
  8
0
 62
     0
 10
345.232
 20
83.7463
 30
0.0
 11
331.232
 21
83.7463
 31
0.0
  0
LINE
  8
0
 62
     0
 10
331.232
 20
83.7463
 30
0.0
 11
331.232
 21
97.7456
 31
0.0
  0
LINE
  8
0
 62
     0
 10
350.282
 20
97.7456
 30
0.0
 11
364.282
 21
97.7456
 31
0.0
  0
LINE
  8
0
 62
     0
 10
364.282
 20
97.7456
 30
0.0
 11
364.282
 21
83.7463
 31
0.0
  0
LINE
  8
0
 62
     0
 10
364.282
 20
83.7463
 30
0.0
 11
350.282
 21
83.7463
 31
0.0
  0
LINE
  8
0
 62
     0
 10
350.282
 20
83.7463
 30
0.0
 11
350.282
 21
97.7456
 31
0.0
  0
LINE
  8
0
 62
     0
 10
416.959
 20
97.7456
 30
0.0
 11
430.957
 21
97.7456
 31
0.0
  0
LINE
  8
0
 62
     0
 10
430.957
 20
97.7456
 30
0.0
 11
430.957
 21
83.7463
 31
0.0
  0
LINE
  8
0
 62
     0
 10
430.957
 20
83.7463
 30
0.0
 11
416.959
 21
83.7463
 31
0.0
  0
LINE
  8
0
 62
     0
 10
416.959
 20
83.7463
 30
0.0
 11
416.959
 21
97.7456
 31
0.0
  0
LINE
  8
0
 62
     0
 10
2.61965
 20
121.558
 30
0.0
 11
16.6192
 21
121.558
 31
0.0
  0
LINE
  8
0
 62
     0
 10
16.6192
 20
121.558
 30
0.0
 11
16.6192
 21
107.559
 31
0.0
  0
LINE
  8
0
 62
     0
 10
16.6192
 20
107.559
 30
0.0
 11
2.61965
 21
107.559
 31
0.0
  0
LINE
  8
0
 62
     0
 10
2.61965
 20
107.559
 30
0.0
 11
2.61965
 21
121.558
 31
0.0
  0
LINE
  8
0
 62
     0
 10
21.6697
 20
121.558
 30
0.0
 11
35.669
 21
121.558
 31
0.0
  0
LINE
  8
0
 62
     0
 10
35.669
 20
121.558
 30
0.0
 11
35.669
 21
107.559
 31
0.0
  0
LINE
  8
0
 62
     0
 10
35.669
 20
107.559
 30
0.0
 11
21.6697
 21
107.559
 31
0.0
  0
LINE
  8
0
 62
     0
 10
21.6697
 20
107.559
 30
0.0
 11
21.6697
 21
121.558
 31
0.0
  0
LINE
  8
0
 62
     0
 10
40.7197
 20
121.558
 30
0.0
 11
54.719
 21
121.558
 31
0.0
  0
LINE
  8
0
 62
     0
 10
54.719
 20
121.558
 30
0.0
 11
54.719
 21
107.559
 31
0.0
  0
LINE
  8
0
 62
     0
 10
54.719
 20
107.559
 30
0.0
 11
40.7197
 21
107.559
 31
0.0
  0
LINE
  8
0
 62
     0
 10
40.7197
 20
107.559
 30
0.0
 11
40.7197
 21
121.558
 31
0.0
  0
LINE
  8
0
 62
     0
 10
59.7697
 20
121.558
 30
0.0
 11
73.769
 21
121.558
 31
0.0
  0
LINE
  8
0
 62
     0
 10
73.769
 20
121.558
 30
0.0
 11
73.769
 21
107.559
 31
0.0
  0
LINE
  8
0
 62
     0
 10
73.769
 20
107.559
 30
0.0
 11
59.7697
 21
107.559
 31
0.0
  0
LINE
  8
0
 62
     0
 10
59.7697
 20
107.559
 30
0.0
 11
59.7697
 21
121.558
 31
0.0
  0
LINE
  8
0
 62
     0
 10
121.682
 20
121.558
 30
0.0
 11
135.682
 21
121.558
 31
0.0
  0
LINE
  8
0
 62
     0
 10
135.682
 20
121.558
 30
0.0
 11
135.682
 21
107.559
 31
0.0
  0
LINE
  8
0
 62
     0
 10
135.682
 20
107.559
 30
0.0
 11
121.682
 21
107.559
 31
0.0
  0
LINE
  8
0
 62
     0
 10
121.682
 20
107.559
 30
0.0
 11
121.682
 21
121.558
 31
0.0
  0
LINE
  8
0
 62
     0
 10
145.495
 20
121.558
 30
0.0
 11
159.494
 21
121.558
 31
0.0
  0
LINE
  8
0
 62
     0
 10
159.494
 20
121.558
 30
0.0
 11
159.494
 21
107.559
 31
0.0
  0
LINE
  8
0
 62
     0
 10
159.494
 20
107.559
 30
0.0
 11
145.495
 21
107.559
 31
0.0
  0
LINE
  8
0
 62
     0
 10
145.495
 20
107.559
 30
0.0
 11
145.495
 21
121.558
 31
0.0
  0
LINE
  8
0
 62
     0
 10
164.545
 20
121.558
 30
0.0
 11
178.544
 21
121.558
 31
0.0
  0
LINE
  8
0
 62
     0
 10
178.544
 20
121.558
 30
0.0
 11
178.544
 21
107.559
 31
0.0
  0
LINE
  8
0
 62
     0
 10
178.544
 20
107.559
 30
0.0
 11
164.545
 21
107.559
 31
0.0
  0
LINE
  8
0
 62
     0
 10
164.545
 20
107.559
 30
0.0
 11
164.545
 21
121.558
 31
0.0
  0
LINE
  8
0
 62
     0
 10
183.595
 20
121.558
 30
0.0
 11
197.594
 21
121.558
 31
0.0
  0
LINE
  8
0
 62
     0
 10
197.594
 20
121.558
 30
0.0
 11
197.594
 21
107.559
 31
0.0
  0
LINE
  8
0
 62
     0
 10
197.594
 20
107.559
 30
0.0
 11
183.595
 21
107.559
 31
0.0
  0
LINE
  8
0
 62
     0
 10
183.595
 20
107.559
 30
0.0
 11
183.595
 21
121.558
 31
0.0
  0
LINE
  8
0
 62
     0
 10
202.645
 20
121.558
 30
0.0
 11
216.644
 21
121.558
 31
0.0
  0
LINE
  8
0
 62
     0
 10
216.644
 20
121.558
 30
0.0
 11
216.644
 21
107.559
 31
0.0
  0
LINE
  8
0
 62
     0
 10
216.644
 20
107.559
 30
0.0
 11
202.645
 21
107.559
 31
0.0
  0
LINE
  8
0
 62
     0
 10
202.645
 20
107.559
 30
0.0
 11
202.645
 21
121.558
 31
0.0
  0
LINE
  8
0
 62
     0
 10
226.457
 20
121.558
 30
0.0
 11
240.457
 21
121.558
 31
0.0
  0
LINE
  8
0
 62
     0
 10
240.457
 20
121.558
 30
0.0
 11
240.457
 21
107.559
 31
0.0
  0
LINE
  8
0
 62
     0
 10
240.457
 20
107.559
 30
0.0
 11
226.457
 21
107.559
 31
0.0
  0
LINE
  8
0
 62
     0
 10
226.457
 20
107.559
 30
0.0
 11
226.457
 21
121.558
 31
0.0
  0
LINE
  8
0
 62
     0
 10
245.507
 20
121.558
 30
0.0
 11
259.507
 21
121.558
 31
0.0
  0
LINE
  8
0
 62
     0
 10
259.507
 20
121.558
 30
0.0
 11
259.507
 21
107.559
 31
0.0
  0
LINE
  8
0
 62
     0
 10
259.507
 20
107.559
 30
0.0
 11
245.507
 21
107.559
 31
0.0
  0
LINE
  8
0
 62
     0
 10
245.507
 20
107.559
 30
0.0
 11
245.507
 21
121.558
 31
0.0
  0
LINE
  8
0
 62
     0
 10
264.557
 20
121.558
 30
0.0
 11
278.557
 21
121.558
 31
0.0
  0
LINE
  8
0
 62
     0
 10
278.557
 20
121.558
 30
0.0
 11
278.557
 21
107.559
 31
0.0
  0
LINE
  8
0
 62
     0
 10
278.557
 20
107.559
 30
0.0
 11
264.557
 21
107.559
 31
0.0
  0
LINE
  8
0
 62
     0
 10
264.557
 20
107.559
 30
0.0
 11
264.557
 21
121.558
 31
0.0
  0
LINE
  8
0
 62
     0
 10
283.607
 20
121.558
 30
0.0
 11
297.607
 21
121.558
 31
0.0
  0
LINE
  8
0
 62
     0
 10
297.607
 20
121.558
 30
0.0
 11
297.607
 21
107.559
 31
0.0
  0
LINE
  8
0
 62
     0
 10
297.607
 20
107.559
 30
0.0
 11
283.607
 21
107.559
 31
0.0
  0
LINE
  8
0
 62
     0
 10
283.607
 20
107.559
 30
0.0
 11
283.607
 21
121.558
 31
0.0
  0
LINE
  8
0
 62
     0
 10
307.42
 20
121.558
 30
0.0
 11
321.419
 21
121.558
 31
0.0
  0
LINE
  8
0
 62
     0
 10
321.419
 20
121.558
 30
0.0
 11
321.419
 21
107.559
 31
0.0
  0
LINE
  8
0
 62
     0
 10
321.419
 20
107.559
 30
0.0
 11
307.42
 21
107.559
 31
0.0
  0
LINE
  8
0
 62
     0
 10
307.42
 20
107.559
 30
0.0
 11
307.42
 21
121.558
 31
0.0
  0
LINE
  8
0
 62
     0
 10
326.47
 20
121.558
 30
0.0
 11
340.469
 21
121.558
 31
0.0
  0
LINE
  8
0
 62
     0
 10
340.469
 20
121.558
 30
0.0
 11
340.469
 21
107.559
 31
0.0
  0
LINE
  8
0
 62
     0
 10
340.469
 20
107.559
 30
0.0
 11
326.47
 21
107.559
 31
0.0
  0
LINE
  8
0
 62
     0
 10
326.47
 20
107.559
 30
0.0
 11
326.47
 21
121.558
 31
0.0
  0
LINE
  8
0
 62
     0
 10
345.52
 20
121.558
 30
0.0
 11
359.519
 21
121.558
 31
0.0
  0
LINE
  8
0
 62
     0
 10
359.519
 20
121.558
 30
0.0
 11
359.519
 21
107.559
 31
0.0
  0
LINE
  8
0
 62
     0
 10
359.519
 20
107.559
 30
0.0
 11
345.52
 21
107.559
 31
0.0
  0
LINE
  8
0
 62
     0
 10
345.52
 20
107.559
 30
0.0
 11
345.52
 21
121.558
 31
0.0
  0
LINE
  8
0
 62
     0
 10
364.571
 20
121.558
 30
0.0
 11
378.569
 21
121.558
 31
0.0
  0
LINE
  8
0
 62
     0
 10
378.569
 20
121.558
 30
0.0
 11
378.569
 21
107.559
 31
0.0
  0
LINE
  8
0
 62
     0
 10
378.569
 20
107.559
 30
0.0
 11
364.571
 21
107.559
 31
0.0
  0
LINE
  8
0
 62
     0
 10
364.571
 20
107.559
 30
0.0
 11
364.571
 21
121.558
 31
0.0
  0
LINE
  8
0
 62
     0
 10
388.384
 20
121.558
 30
0.0
 11
402.382
 21
121.558
 31
0.0
  0
LINE
  8
0
 62
     0
 10
402.382
 20
121.558
 30
0.0
 11
402.382
 21
107.559
 31
0.0
  0
LINE
  8
0
 62
     0
 10
402.382
 20
107.559
 30
0.0
 11
388.384
 21
107.559
 31
0.0
  0
LINE
  8
0
 62
     0
 10
388.384
 20
107.559
 30
0.0
 11
388.384
 21
121.558
 31
0.0
  0
LINE
  8
0
 62
     0
 10
416.959
 20
121.558
 30
0.0
 11
430.957
 21
121.558
 31
0.0
  0
LINE
  8
0
 62
     0
 10
430.957
 20
121.558
 30
0.0
 11
430.957
 21
107.559
 31
0.0
  0
LINE
  8
0
 62
     0
 10
430.957
 20
107.559
 30
0.0
 11
416.959
 21
107.559
 31
0.0
  0
LINE
  8
0
 62
     0
 10
416.959
 20
107.559
 30
0.0
 11
416.959
 21
121.558
 31
0.0
  0
ENDSEC
  0
EOF
