0
SECTION
2
HEADER
9
$INSUNITS
70
4
0
ENDSEC
0
SECTION
2
TABLES
0
TABLE
2
LTYPE
0
LTYPE
72
65
70
64
2
CONTINUOUS
3
______
73
0
40
0
0
ENDTAB
0
TABLE
2
LAYER
0
ENDTAB
0
ENDSEC
0
SECTION
2
ENTITIES
0
LINE
8
0
10
3.525
20
-2.525
11
15.525
21
-2.525
0
LINE
8
0
10
3.525
20
-16.525
11
15.525
21
-16.525
0
LINE
8
0
10
2.525
20
-3.525
11
2.525
21
-15.525
0
LINE
8
0
10
16.525
20
-3.525
11
16.525
21
-15.525
0
ARC
8
0
10
3.525
20
-3.525
40
1
50
90
51
180
0
ARC
8
0
10
15.525
20
-3.525
40
1
50
0
51
90
0
ARC
8
0
10
3.525
20
-15.525
40
1
50
180
51
270
0
ARC
8
0
10
15.525
20
-15.525
40
1
50
270
51
0
0
LINE
8
0
10
22.575
20
-2.525
11
34.575
21
-2.525
0
LINE
8
0
10
22.575
20
-16.525
11
34.575
21
-16.525
0
LINE
8
0
10
21.575
20
-3.525
11
21.575
21
-15.525
0
LINE
8
0
10
35.575
20
-3.525
11
35.575
21
-15.525
0
ARC
8
0
10
22.575
20
-3.525
40
1
50
90
51
180
0
ARC
8
0
10
34.575
20
-3.525
40
1
50
0
51
90
0
ARC
8
0
10
22.575
20
-15.525
40
1
50
180
51
270
0
ARC
8
0
10
34.575
20
-15.525
40
1
50
270
51
0
0
LINE
8
0
10
41.625
20
-2.525
11
53.625
21
-2.525
0
LINE
8
0
10
41.625
20
-16.525
11
53.625
21
-16.525
0
LINE
8
0
10
40.625
20
-3.525
11
40.625
21
-15.525
0
LINE
8
0
10
54.625
20
-3.525
11
54.625
21
-15.525
0
ARC
8
0
10
41.625
20
-3.525
40
1
50
90
51
180
0
ARC
8
0
10
53.625
20
-3.525
40
1
50
0
51
90
0
ARC
8
0
10
41.625
20
-15.525
40
1
50
180
51
270
0
ARC
8
0
10
53.625
20
-15.525
40
1
50
270
51
0
0
LINE
8
0
10
60.675
20
-2.525
11
72.675
21
-2.525
0
LINE
8
0
10
60.675
20
-16.525
11
72.675
21
-16.525
0
LINE
8
0
10
59.675
20
-3.525
11
59.675
21
-15.525
0
LINE
8
0
10
73.675
20
-3.525
11
73.675
21
-15.525
0
ARC
8
0
10
60.675
20
-3.525
40
1
50
90
51
180
0
ARC
8
0
10
72.675
20
-3.525
40
1
50
0
51
90
0
ARC
8
0
10
60.675
20
-15.525
40
1
50
180
51
270
0
ARC
8
0
10
72.675
20
-15.525
40
1
50
270
51
0
0
LINE
8
0
10
122.5875
20
-2.525
11
134.5875
21
-2.525
0
LINE
8
0
10
122.5875
20
-16.525
11
134.5875
21
-16.525
0
LINE
8
0
10
121.5875
20
-3.525
11
121.5875
21
-15.525
0
LINE
8
0
10
135.5875
20
-3.525
11
135.5875
21
-15.525
0
ARC
8
0
10
122.5875
20
-3.525
40
1
50
90
51
180
0
ARC
8
0
10
134.5875
20
-3.525
40
1
50
0
51
90
0
ARC
8
0
10
122.5875
20
-15.525
40
1
50
180
51
270
0
ARC
8
0
10
134.5875
20
-15.525
40
1
50
270
51
0
0
LINE
8
0
10
146.4
20
-2.525
11
158.4
21
-2.525
0
LINE
8
0
10
146.4
20
-16.525
11
158.4
21
-16.525
0
LINE
8
0
10
145.4
20
-3.525
11
145.4
21
-15.525
0
LINE
8
0
10
159.4
20
-3.525
11
159.4
21
-15.525
0
ARC
8
0
10
146.4
20
-3.525
40
1
50
90
51
180
0
ARC
8
0
10
158.4
20
-3.525
40
1
50
0
51
90
0
ARC
8
0
10
146.4
20
-15.525
40
1
50
180
51
270
0
ARC
8
0
10
158.4
20
-15.525
40
1
50
270
51
0
0
LINE
8
0
10
165.45
20
-2.525
11
177.45
21
-2.525
0
LINE
8
0
10
165.45
20
-16.525
11
177.45
21
-16.525
0
LINE
8
0
10
164.45
20
-3.525
11
164.45
21
-15.525
0
LINE
8
0
10
178.45
20
-3.525
11
178.45
21
-15.525
0
ARC
8
0
10
165.45
20
-3.525
40
1
50
90
51
180
0
ARC
8
0
10
177.45
20
-3.525
40
1
50
0
51
90
0
ARC
8
0
10
165.45
20
-15.525
40
1
50
180
51
270
0
ARC
8
0
10
177.45
20
-15.525
40
1
50
270
51
0
0
LINE
8
0
10
184.5
20
-2.525
11
196.5
21
-2.525
0
LINE
8
0
10
184.5
20
-16.525
11
196.5
21
-16.525
0
LINE
8
0
10
183.5
20
-3.525
11
183.5
21
-15.525
0
LINE
8
0
10
197.5
20
-3.525
11
197.5
21
-15.525
0
ARC
8
0
10
184.5
20
-3.525
40
1
50
90
51
180
0
ARC
8
0
10
196.5
20
-3.525
40
1
50
0
51
90
0
ARC
8
0
10
184.5
20
-15.525
40
1
50
180
51
270
0
ARC
8
0
10
196.5
20
-15.525
40
1
50
270
51
0
0
LINE
8
0
10
203.55
20
-2.525
11
215.55
21
-2.525
0
LINE
8
0
10
203.55
20
-16.525
11
215.55
21
-16.525
0
LINE
8
0
10
202.55
20
-3.525
11
202.55
21
-15.525
0
LINE
8
0
10
216.55
20
-3.525
11
216.55
21
-15.525
0
ARC
8
0
10
203.55
20
-3.525
40
1
50
90
51
180
0
ARC
8
0
10
215.55
20
-3.525
40
1
50
0
51
90
0
ARC
8
0
10
203.55
20
-15.525
40
1
50
180
51
270
0
ARC
8
0
10
215.55
20
-15.525
40
1
50
270
51
0
0
LINE
8
0
10
227.3625
20
-2.525
11
239.3625
21
-2.525
0
LINE
8
0
10
227.3625
20
-16.525
11
239.3625
21
-16.525
0
LINE
8
0
10
226.3625
20
-3.525
11
226.3625
21
-15.525
0
LINE
8
0
10
240.3625
20
-3.525
11
240.3625
21
-15.525
0
ARC
8
0
10
227.3625
20
-3.525
40
1
50
90
51
180
0
ARC
8
0
10
239.3625
20
-3.525
40
1
50
0
51
90
0
ARC
8
0
10
227.3625
20
-15.525
40
1
50
180
51
270
0
ARC
8
0
10
239.3625
20
-15.525
40
1
50
270
51
0
0
LINE
8
0
10
246.4125
20
-2.525
11
258.4125
21
-2.525
0
LINE
8
0
10
246.4125
20
-16.525
11
258.4125
21
-16.525
0
LINE
8
0
10
245.4125
20
-3.525
11
245.4125
21
-15.525
0
LINE
8
0
10
259.4125
20
-3.525
11
259.4125
21
-15.525
0
ARC
8
0
10
246.4125
20
-3.525
40
1
50
90
51
180
0
ARC
8
0
10
258.4125
20
-3.525
40
1
50
0
51
90
0
ARC
8
0
10
246.4125
20
-15.525
40
1
50
180
51
270
0
ARC
8
0
10
258.4125
20
-15.525
40
1
50
270
51
0
0
LINE
8
0
10
265.4625
20
-2.525
11
277.4625
21
-2.525
0
LINE
8
0
10
265.4625
20
-16.525
11
277.4625
21
-16.525
0
LINE
8
0
10
264.4625
20
-3.525
11
264.4625
21
-15.525
0
LINE
8
0
10
278.4625
20
-3.525
11
278.4625
21
-15.525
0
ARC
8
0
10
265.4625
20
-3.525
40
1
50
90
51
180
0
ARC
8
0
10
277.4625
20
-3.525
40
1
50
0
51
90
0
ARC
8
0
10
265.4625
20
-15.525
40
1
50
180
51
270
0
ARC
8
0
10
277.4625
20
-15.525
40
1
50
270
51
0
0
LINE
8
0
10
284.5125
20
-2.525
11
296.5125
21
-2.525
0
LINE
8
0
10
284.5125
20
-16.525
11
296.5125
21
-16.525
0
LINE
8
0
10
283.5125
20
-3.525
11
283.5125
21
-15.525
0
LINE
8
0
10
297.5125
20
-3.525
11
297.5125
21
-15.525
0
ARC
8
0
10
284.5125
20
-3.525
40
1
50
90
51
180
0
ARC
8
0
10
296.5125
20
-3.525
40
1
50
0
51
90
0
ARC
8
0
10
284.5125
20
-15.525
40
1
50
180
51
270
0
ARC
8
0
10
296.5125
20
-15.525
40
1
50
270
51
0
0
LINE
8
0
10
308.325
20
-2.525
11
320.325
21
-2.525
0
LINE
8
0
10
308.325
20
-16.525
11
320.325
21
-16.525
0
LINE
8
0
10
307.325
20
-3.525
11
307.325
21
-15.525
0
LINE
8
0
10
321.325
20
-3.525
11
321.325
21
-15.525
0
ARC
8
0
10
308.325
20
-3.525
40
1
50
90
51
180
0
ARC
8
0
10
320.325
20
-3.525
40
1
50
0
51
90
0
ARC
8
0
10
308.325
20
-15.525
40
1
50
180
51
270
0
ARC
8
0
10
320.325
20
-15.525
40
1
50
270
51
0
0
LINE
8
0
10
327.375
20
-2.525
11
339.375
21
-2.525
0
LINE
8
0
10
327.375
20
-16.525
11
339.375
21
-16.525
0
LINE
8
0
10
326.375
20
-3.525
11
326.375
21
-15.525
0
LINE
8
0
10
340.375
20
-3.525
11
340.375
21
-15.525
0
ARC
8
0
10
327.375
20
-3.525
40
1
50
90
51
180
0
ARC
8
0
10
339.375
20
-3.525
40
1
50
0
51
90
0
ARC
8
0
10
327.375
20
-15.525
40
1
50
180
51
270
0
ARC
8
0
10
339.375
20
-15.525
40
1
50
270
51
0
0
LINE
8
0
10
346.425
20
-2.525
11
358.425
21
-2.525
0
LINE
8
0
10
346.425
20
-16.525
11
358.425
21
-16.525
0
LINE
8
0
10
345.425
20
-3.525
11
345.425
21
-15.525
0
LINE
8
0
10
359.425
20
-3.525
11
359.425
21
-15.525
0
ARC
8
0
10
346.425
20
-3.525
40
1
50
90
51
180
0
ARC
8
0
10
358.425
20
-3.525
40
1
50
0
51
90
0
ARC
8
0
10
346.425
20
-15.525
40
1
50
180
51
270
0
ARC
8
0
10
358.425
20
-15.525
40
1
50
270
51
0
0
LINE
8
0
10
365.475
20
-2.525
11
377.475
21
-2.525
0
LINE
8
0
10
365.475
20
-16.525
11
377.475
21
-16.525
0
LINE
8
0
10
364.475
20
-3.525
11
364.475
21
-15.525
0
LINE
8
0
10
378.475
20
-3.525
11
378.475
21
-15.525
0
ARC
8
0
10
365.475
20
-3.525
40
1
50
90
51
180
0
ARC
8
0
10
377.475
20
-3.525
40
1
50
0
51
90
0
ARC
8
0
10
365.475
20
-15.525
40
1
50
180
51
270
0
ARC
8
0
10
377.475
20
-15.525
40
1
50
270
51
0
0
LINE
8
0
10
389.2875
20
-2.525
11
401.2875
21
-2.525
0
LINE
8
0
10
389.2875
20
-16.525
11
401.2875
21
-16.525
0
LINE
8
0
10
388.2875
20
-3.525
11
388.2875
21
-15.525
0
LINE
8
0
10
402.2875
20
-3.525
11
402.2875
21
-15.525
0
ARC
8
0
10
389.2875
20
-3.525
40
1
50
90
51
180
0
ARC
8
0
10
401.2875
20
-3.525
40
1
50
0
51
90
0
ARC
8
0
10
389.2875
20
-15.525
40
1
50
180
51
270
0
ARC
8
0
10
401.2875
20
-15.525
40
1
50
270
51
0
0
LINE
8
0
10
417.8625
20
-2.525
11
429.8625
21
-2.525
0
LINE
8
0
10
417.8625
20
-16.525
11
429.8625
21
-16.525
0
LINE
8
0
10
416.8625
20
-3.525
11
416.8625
21
-15.525
0
LINE
8
0
10
430.8625
20
-3.525
11
430.8625
21
-15.525
0
ARC
8
0
10
417.8625
20
-3.525
40
1
50
90
51
180
0
ARC
8
0
10
429.8625
20
-3.525
40
1
50
0
51
90
0
ARC
8
0
10
417.8625
20
-15.525
40
1
50
180
51
270
0
ARC
8
0
10
429.8625
20
-15.525
40
1
50
270
51
0
0
LINE
8
0
10
3.525
20
-26.3375
11
15.525
21
-26.3375
0
LINE
8
0
10
3.525
20
-40.3375
11
15.525
21
-40.3375
0
LINE
8
0
10
2.525
20
-27.3375
11
2.525
21
-39.3375
0
LINE
8
0
10
16.525
20
-27.3375
11
16.525
21
-39.3375
0
ARC
8
0
10
3.525
20
-27.3375
40
1
50
90
51
180
0
ARC
8
0
10
15.525
20
-27.3375
40
1
50
0
51
90
0
ARC
8
0
10
3.525
20
-39.3375
40
1
50
180
51
270
0
ARC
8
0
10
15.525
20
-39.3375
40
1
50
270
51
0
0
LINE
8
0
10
22.575
20
-26.3375
11
34.575
21
-26.3375
0
LINE
8
0
10
22.575
20
-40.3375
11
34.575
21
-40.3375
0
LINE
8
0
10
21.575
20
-27.3375
11
21.575
21
-39.3375
0
LINE
8
0
10
35.575
20
-27.3375
11
35.575
21
-39.3375
0
ARC
8
0
10
22.575
20
-27.3375
40
1
50
90
51
180
0
ARC
8
0
10
34.575
20
-27.3375
40
1
50
0
51
90
0
ARC
8
0
10
22.575
20
-39.3375
40
1
50
180
51
270
0
ARC
8
0
10
34.575
20
-39.3375
40
1
50
270
51
0
0
LINE
8
0
10
41.625
20
-26.3375
11
53.625
21
-26.3375
0
LINE
8
0
10
41.625
20
-40.3375
11
53.625
21
-40.3375
0
LINE
8
0
10
40.625
20
-27.3375
11
40.625
21
-39.3375
0
LINE
8
0
10
54.625
20
-27.3375
11
54.625
21
-39.3375
0
ARC
8
0
10
41.625
20
-27.3375
40
1
50
90
51
180
0
ARC
8
0
10
53.625
20
-27.3375
40
1
50
0
51
90
0
ARC
8
0
10
41.625
20
-39.3375
40
1
50
180
51
270
0
ARC
8
0
10
53.625
20
-39.3375
40
1
50
270
51
0
0
LINE
8
0
10
60.675
20
-26.3375
11
72.675
21
-26.3375
0
LINE
8
0
10
60.675
20
-40.3375
11
72.675
21
-40.3375
0
LINE
8
0
10
59.675
20
-27.3375
11
59.675
21
-39.3375
0
LINE
8
0
10
73.675
20
-27.3375
11
73.675
21
-39.3375
0
ARC
8
0
10
60.675
20
-27.3375
40
1
50
90
51
180
0
ARC
8
0
10
72.675
20
-27.3375
40
1
50
0
51
90
0
ARC
8
0
10
60.675
20
-39.3375
40
1
50
180
51
270
0
ARC
8
0
10
72.675
20
-39.3375
40
1
50
270
51
0
0
LINE
8
0
10
122.5875
20
-26.3375
11
134.5875
21
-26.3375
0
LINE
8
0
10
122.5875
20
-40.3375
11
134.5875
21
-40.3375
0
LINE
8
0
10
121.5875
20
-27.3375
11
121.5875
21
-39.3375
0
LINE
8
0
10
135.5875
20
-27.3375
11
135.5875
21
-39.3375
0
ARC
8
0
10
122.5875
20
-27.3375
40
1
50
90
51
180
0
ARC
8
0
10
134.5875
20
-27.3375
40
1
50
0
51
90
0
ARC
8
0
10
122.5875
20
-39.3375
40
1
50
180
51
270
0
ARC
8
0
10
134.5875
20
-39.3375
40
1
50
270
51
0
0
LINE
8
0
10
141.6375
20
-26.3375
11
153.6375
21
-26.3375
0
LINE
8
0
10
141.6375
20
-40.3375
11
153.6375
21
-40.3375
0
LINE
8
0
10
140.6375
20
-27.3375
11
140.6375
21
-39.3375
0
LINE
8
0
10
154.6375
20
-27.3375
11
154.6375
21
-39.3375
0
ARC
8
0
10
141.6375
20
-27.3375
40
1
50
90
51
180
0
ARC
8
0
10
153.6375
20
-27.3375
40
1
50
0
51
90
0
ARC
8
0
10
141.6375
20
-39.3375
40
1
50
180
51
270
0
ARC
8
0
10
153.6375
20
-39.3375
40
1
50
270
51
0
0
LINE
8
0
10
160.6875
20
-26.3375
11
172.6875
21
-26.3375
0
LINE
8
0
10
160.6875
20
-40.3375
11
172.6875
21
-40.3375
0
LINE
8
0
10
159.6875
20
-27.3375
11
159.6875
21
-39.3375
0
LINE
8
0
10
173.6875
20
-27.3375
11
173.6875
21
-39.3375
0
ARC
8
0
10
160.6875
20
-27.3375
40
1
50
90
51
180
0
ARC
8
0
10
172.6875
20
-27.3375
40
1
50
0
51
90
0
ARC
8
0
10
160.6875
20
-39.3375
40
1
50
180
51
270
0
ARC
8
0
10
172.6875
20
-39.3375
40
1
50
270
51
0
0
LINE
8
0
10
179.7375
20
-26.3375
11
191.7375
21
-26.3375
0
LINE
8
0
10
179.7375
20
-40.3375
11
191.7375
21
-40.3375
0
LINE
8
0
10
178.7375
20
-27.3375
11
178.7375
21
-39.3375
0
LINE
8
0
10
192.7375
20
-27.3375
11
192.7375
21
-39.3375
0
ARC
8
0
10
179.7375
20
-27.3375
40
1
50
90
51
180
0
ARC
8
0
10
191.7375
20
-27.3375
40
1
50
0
51
90
0
ARC
8
0
10
179.7375
20
-39.3375
40
1
50
180
51
270
0
ARC
8
0
10
191.7375
20
-39.3375
40
1
50
270
51
0
0
LINE
8
0
10
198.7875
20
-26.3375
11
210.7875
21
-26.3375
0
LINE
8
0
10
198.7875
20
-40.3375
11
210.7875
21
-40.3375
0
LINE
8
0
10
197.7875
20
-27.3375
11
197.7875
21
-39.3375
0
LINE
8
0
10
211.7875
20
-27.3375
11
211.7875
21
-39.3375
0
ARC
8
0
10
198.7875
20
-27.3375
40
1
50
90
51
180
0
ARC
8
0
10
210.7875
20
-27.3375
40
1
50
0
51
90
0
ARC
8
0
10
198.7875
20
-39.3375
40
1
50
180
51
270
0
ARC
8
0
10
210.7875
20
-39.3375
40
1
50
270
51
0
0
LINE
8
0
10
217.8375
20
-26.3375
11
229.8375
21
-26.3375
0
LINE
8
0
10
217.8375
20
-40.3375
11
229.8375
21
-40.3375
0
LINE
8
0
10
216.8375
20
-27.3375
11
216.8375
21
-39.3375
0
LINE
8
0
10
230.8375
20
-27.3375
11
230.8375
21
-39.3375
0
ARC
8
0
10
217.8375
20
-27.3375
40
1
50
90
51
180
0
ARC
8
0
10
229.8375
20
-27.3375
40
1
50
0
51
90
0
ARC
8
0
10
217.8375
20
-39.3375
40
1
50
180
51
270
0
ARC
8
0
10
229.8375
20
-39.3375
40
1
50
270
51
0
0
LINE
8
0
10
236.8875
20
-26.3375
11
248.8875
21
-26.3375
0
LINE
8
0
10
236.8875
20
-40.3375
11
248.8875
21
-40.3375
0
LINE
8
0
10
235.8875
20
-27.3375
11
235.8875
21
-39.3375
0
LINE
8
0
10
249.8875
20
-27.3375
11
249.8875
21
-39.3375
0
ARC
8
0
10
236.8875
20
-27.3375
40
1
50
90
51
180
0
ARC
8
0
10
248.8875
20
-27.3375
40
1
50
0
51
90
0
ARC
8
0
10
236.8875
20
-39.3375
40
1
50
180
51
270
0
ARC
8
0
10
248.8875
20
-39.3375
40
1
50
270
51
0
0
LINE
8
0
10
255.9375
20
-26.3375
11
267.9375
21
-26.3375
0
LINE
8
0
10
255.9375
20
-40.3375
11
267.9375
21
-40.3375
0
LINE
8
0
10
254.9375
20
-27.3375
11
254.9375
21
-39.3375
0
LINE
8
0
10
268.9375
20
-27.3375
11
268.9375
21
-39.3375
0
ARC
8
0
10
255.9375
20
-27.3375
40
1
50
90
51
180
0
ARC
8
0
10
267.9375
20
-27.3375
40
1
50
0
51
90
0
ARC
8
0
10
255.9375
20
-39.3375
40
1
50
180
51
270
0
ARC
8
0
10
267.9375
20
-39.3375
40
1
50
270
51
0
0
LINE
8
0
10
274.9875
20
-26.3375
11
286.9875
21
-26.3375
0
LINE
8
0
10
274.9875
20
-40.3375
11
286.9875
21
-40.3375
0
LINE
8
0
10
273.9875
20
-27.3375
11
273.9875
21
-39.3375
0
LINE
8
0
10
287.9875
20
-27.3375
11
287.9875
21
-39.3375
0
ARC
8
0
10
274.9875
20
-27.3375
40
1
50
90
51
180
0
ARC
8
0
10
286.9875
20
-27.3375
40
1
50
0
51
90
0
ARC
8
0
10
274.9875
20
-39.3375
40
1
50
180
51
270
0
ARC
8
0
10
286.9875
20
-39.3375
40
1
50
270
51
0
0
LINE
8
0
10
294.0375
20
-26.3375
11
306.0375
21
-26.3375
0
LINE
8
0
10
294.0375
20
-40.3375
11
306.0375
21
-40.3375
0
LINE
8
0
10
293.0375
20
-27.3375
11
293.0375
21
-39.3375
0
LINE
8
0
10
307.0375
20
-27.3375
11
307.0375
21
-39.3375
0
ARC
8
0
10
294.0375
20
-27.3375
40
1
50
90
51
180
0
ARC
8
0
10
306.0375
20
-27.3375
40
1
50
0
51
90
0
ARC
8
0
10
294.0375
20
-39.3375
40
1
50
180
51
270
0
ARC
8
0
10
306.0375
20
-39.3375
40
1
50
270
51
0
0
LINE
8
0
10
313.0875
20
-26.3375
11
325.0875
21
-26.3375
0
LINE
8
0
10
313.0875
20
-40.3375
11
325.0875
21
-40.3375
0
LINE
8
0
10
312.0875
20
-27.3375
11
312.0875
21
-39.3375
0
LINE
8
0
10
326.0875
20
-27.3375
11
326.0875
21
-39.3375
0
ARC
8
0
10
313.0875
20
-27.3375
40
1
50
90
51
180
0
ARC
8
0
10
325.0875
20
-27.3375
40
1
50
0
51
90
0
ARC
8
0
10
313.0875
20
-39.3375
40
1
50
180
51
270
0
ARC
8
0
10
325.0875
20
-39.3375
40
1
50
270
51
0
0
LINE
8
0
10
332.1375
20
-26.3375
11
344.1375
21
-26.3375
0
LINE
8
0
10
332.1375
20
-40.3375
11
344.1375
21
-40.3375
0
LINE
8
0
10
331.1375
20
-27.3375
11
331.1375
21
-39.3375
0
LINE
8
0
10
345.1375
20
-27.3375
11
345.1375
21
-39.3375
0
ARC
8
0
10
332.1375
20
-27.3375
40
1
50
90
51
180
0
ARC
8
0
10
344.1375
20
-27.3375
40
1
50
0
51
90
0
ARC
8
0
10
332.1375
20
-39.3375
40
1
50
180
51
270
0
ARC
8
0
10
344.1375
20
-39.3375
40
1
50
270
51
0
0
LINE
8
0
10
351.1875
20
-26.3375
11
363.1875
21
-26.3375
0
LINE
8
0
10
351.1875
20
-40.3375
11
363.1875
21
-40.3375
0
LINE
8
0
10
350.1875
20
-27.3375
11
350.1875
21
-39.3375
0
LINE
8
0
10
364.1875
20
-27.3375
11
364.1875
21
-39.3375
0
ARC
8
0
10
351.1875
20
-27.3375
40
1
50
90
51
180
0
ARC
8
0
10
363.1875
20
-27.3375
40
1
50
0
51
90
0
ARC
8
0
10
351.1875
20
-39.3375
40
1
50
180
51
270
0
ARC
8
0
10
363.1875
20
-39.3375
40
1
50
270
51
0
0
LINE
8
0
10
379.7625
20
-26.3375
11
391.7625
21
-26.3375
0
LINE
8
0
10
379.7625
20
-40.3375
11
391.7625
21
-40.3375
0
LINE
8
0
10
378.7625
20
-27.3375
11
378.7625
21
-39.3375
0
LINE
8
0
10
392.7625
20
-27.3375
11
392.7625
21
-39.3375
0
ARC
8
0
10
379.7625
20
-27.3375
40
1
50
90
51
180
0
ARC
8
0
10
391.7625
20
-27.3375
40
1
50
0
51
90
0
ARC
8
0
10
379.7625
20
-39.3375
40
1
50
180
51
270
0
ARC
8
0
10
391.7625
20
-39.3375
40
1
50
270
51
0
0
LINE
8
0
10
370.4971
20
-27.6479
11
377.1519
21
-27.6479
0
LINE
8
0
10
377.1519
20
-27.6479
11
377.1519
21
-28.4607
0
LINE
8
0
10
377.1519
20
-28.4607
11
385.7625
21
-28.4607
0
LINE
8
0
10
385.7625
20
-39.1541
11
377.1519
21
-39.1541
0
LINE
8
0
10
377.1519
20
-39.1541
11
377.1519
21
-39.9415
0
LINE
8
0
10
377.1519
20
-39.9415
11
375.3485
21
-39.9415
0
LINE
8
0
10
375.3485
20
-39.9415
11
375.3485
21
-41.1099
0
LINE
8
0
10
375.3485
20
-41.1099
11
372.3005
21
-41.1099
0
LINE
8
0
10
372.3005
20
-41.1099
11
372.3005
21
-39.9415
0
LINE
8
0
10
372.3005
20
-39.9415
11
370.4971
21
-39.9415
0
LINE
8
0
10
370.4971
20
-39.9415
11
370.4971
21
-33.8455
0
LINE
8
0
10
370.4971
20
-33.8455
11
369.6335
21
-33.8455
0
LINE
8
0
10
369.6335
20
-33.8455
11
369.6335
21
-31.0515
0
LINE
8
0
10
369.6335
20
-31.0515
11
370.4971
21
-31.0515
0
LINE
8
0
10
370.4971
20
-31.0515
11
370.4971
21
-27.6479
0
LINE
8
0
10
401.0279
20
-27.6479
11
394.3731
21
-27.6479
0
LINE
8
0
10
394.3731
20
-27.6479
11
394.3731
21
-28.4607
0
LINE
8
0
10
394.3731
20
-28.4607
11
385.7625
21
-28.4607
0
LINE
8
0
10
385.7625
20
-39.1541
11
394.3731
21
-39.1541
0
LINE
8
0
10
394.3731
20
-39.1541
11
394.3731
21
-39.9415
0
LINE
8
0
10
394.3731
20
-39.9415
11
396.1765
21
-39.9415
0
LINE
8
0
10
396.1765
20
-39.9415
11
396.1765
21
-41.1099
0
LINE
8
0
10
396.1765
20
-41.1099
11
399.2245
21
-41.1099
0
LINE
8
0
10
399.2245
20
-41.1099
11
399.2245
21
-39.9415
0
LINE
8
0
10
399.2245
20
-39.9415
11
401.0279
21
-39.9415
0
LINE
8
0
10
401.0279
20
-39.9415
11
401.0279
21
-33.8455
0
LINE
8
0
10
401.0279
20
-33.8455
11
401.8915
21
-33.8455
0
LINE
8
0
10
401.8915
20
-33.8455
11
401.8915
21
-31.0515
0
LINE
8
0
10
401.8915
20
-31.0515
11
401.0279
21
-31.0515
0
LINE
8
0
10
401.0279
20
-31.0515
11
401.0279
21
-27.6479
0
LINE
8
0
10
417.8625
20
-26.3375
11
429.8625
21
-26.3375
0
LINE
8
0
10
417.8625
20
-40.3375
11
429.8625
21
-40.3375
0
LINE
8
0
10
416.8625
20
-27.3375
11
416.8625
21
-39.3375
0
LINE
8
0
10
430.8625
20
-27.3375
11
430.8625
21
-39.3375
0
ARC
8
0
10
417.8625
20
-27.3375
40
1
50
90
51
180
0
ARC
8
0
10
429.8625
20
-27.3375
40
1
50
0
51
90
0
ARC
8
0
10
417.8625
20
-39.3375
40
1
50
180
51
270
0
ARC
8
0
10
429.8625
20
-39.3375
40
1
50
270
51
0
0
LINE
8
0
10
16.525
20
-55.9125
11
16.525
21
-67.9125
0
LINE
8
0
10
2.525
20
-55.9125
11
2.525
21
-67.9125
0
LINE
8
0
10
15.525
20
-54.9125
11
3.525
21
-54.9125
0
LINE
8
0
10
15.525
20
-68.9125
11
3.525
21
-68.9125
0
ARC
8
0
10
15.525
20
-55.9125
40
1
50
0
51
90
0
ARC
8
0
10
15.525
20
-67.9125
40
1
50
270
51
0
0
ARC
8
0
10
3.525
20
-55.9125
40
1
50
90
51
180
0
ARC
8
0
10
3.525
20
-67.9125
40
1
50
180
51
270
0
LINE
8
0
10
15.2146
20
-46.6471
11
15.2146
21
-53.3019
0
LINE
8
0
10
15.2146
20
-53.3019
11
14.4018
21
-53.3019
0
LINE
8
0
10
14.4018
20
-53.3019
11
14.4018
21
-61.9125
0
LINE
8
0
10
3.7084
20
-61.9125
11
3.7084
21
-53.3019
0
LINE
8
0
10
3.7084
20
-53.3019
11
2.921
21
-53.3019
0
LINE
8
0
10
2.921
20
-53.3019
11
2.921
21
-51.4985
0
LINE
8
0
10
2.921
20
-51.4985
11
1.7526
21
-51.4985
0
LINE
8
0
10
1.7526
20
-51.4985
11
1.7526
21
-48.4505
0
LINE
8
0
10
1.7526
20
-48.4505
11
2.921
21
-48.4505
0
LINE
8
0
10
2.921
20
-48.4505
11
2.921
21
-46.6471
0
LINE
8
0
10
2.921
20
-46.6471
11
9.017
21
-46.6471
0
LINE
8
0
10
9.017
20
-46.6471
11
9.017
21
-45.7835
0
LINE
8
0
10
9.017
20
-45.7835
11
11.811
21
-45.7835
0
LINE
8
0
10
11.811
20
-45.7835
11
11.811
21
-46.6471
0
LINE
8
0
10
11.811
20
-46.6471
11
15.2146
21
-46.6471
0
LINE
8
0
10
15.2146
20
-77.1779
11
15.2146
21
-70.5231
0
LINE
8
0
10
15.2146
20
-70.5231
11
14.4018
21
-70.5231
0
LINE
8
0
10
14.4018
20
-70.5231
11
14.4018
21
-61.9125
0
LINE
8
0
10
3.7084
20
-61.9125
11
3.7084
21
-70.5231
0
LINE
8
0
10
3.7084
20
-70.5231
11
2.921
21
-70.5231
0
LINE
8
0
10
2.921
20
-70.5231
11
2.921
21
-72.3265
0
LINE
8
0
10
2.921
20
-72.3265
11
1.7526
21
-72.3265
0
LINE
8
0
10
1.7526
20
-72.3265
11
1.7526
21
-75.3745
0
LINE
8
0
10
1.7526
20
-75.3745
11
2.921
21
-75.3745
0
LINE
8
0
10
2.921
20
-75.3745
11
2.921
21
-77.1779
0
LINE
8
0
10
2.921
20
-77.1779
11
9.017
21
-77.1779
0
LINE
8
0
10
9.017
20
-77.1779
11
9.017
21
-78.0415
0
LINE
8
0
10
9.017
20
-78.0415
11
11.811
21
-78.0415
0
LINE
8
0
10
11.811
20
-78.0415
11
11.811
21
-77.1779
0
LINE
8
0
10
11.811
20
-77.1779
11
15.2146
21
-77.1779
0
LINE
8
0
10
22.575
20
-45.3875
11
34.575
21
-45.3875
0
LINE
8
0
10
22.575
20
-59.3875
11
34.575
21
-59.3875
0
LINE
8
0
10
21.575
20
-46.3875
11
21.575
21
-58.3875
0
LINE
8
0
10
35.575
20
-46.3875
11
35.575
21
-58.3875
0
ARC
8
0
10
22.575
20
-46.3875
40
1
50
90
51
180
0
ARC
8
0
10
34.575
20
-46.3875
40
1
50
0
51
90
0
ARC
8
0
10
22.575
20
-58.3875
40
1
50
180
51
270
0
ARC
8
0
10
34.575
20
-58.3875
40
1
50
270
51
0
0
LINE
8
0
10
41.625
20
-45.3875
11
53.625
21
-45.3875
0
LINE
8
0
10
41.625
20
-59.3875
11
53.625
21
-59.3875
0
LINE
8
0
10
40.625
20
-46.3875
11
40.625
21
-58.3875
0
LINE
8
0
10
54.625
20
-46.3875
11
54.625
21
-58.3875
0
ARC
8
0
10
41.625
20
-46.3875
40
1
50
90
51
180
0
ARC
8
0
10
53.625
20
-46.3875
40
1
50
0
51
90
0
ARC
8
0
10
41.625
20
-58.3875
40
1
50
180
51
270
0
ARC
8
0
10
53.625
20
-58.3875
40
1
50
270
51
0
0
LINE
8
0
10
60.675
20
-45.3875
11
72.675
21
-45.3875
0
LINE
8
0
10
60.675
20
-59.3875
11
72.675
21
-59.3875
0
LINE
8
0
10
59.675
20
-46.3875
11
59.675
21
-58.3875
0
LINE
8
0
10
73.675
20
-46.3875
11
73.675
21
-58.3875
0
ARC
8
0
10
60.675
20
-46.3875
40
1
50
90
51
180
0
ARC
8
0
10
72.675
20
-46.3875
40
1
50
0
51
90
0
ARC
8
0
10
60.675
20
-58.3875
40
1
50
180
51
270
0
ARC
8
0
10
72.675
20
-58.3875
40
1
50
270
51
0
0
LINE
8
0
10
127.35
20
-45.3875
11
139.35
21
-45.3875
0
LINE
8
0
10
127.35
20
-59.3875
11
139.35
21
-59.3875
0
LINE
8
0
10
126.35
20
-46.3875
11
126.35
21
-58.3875
0
LINE
8
0
10
140.35
20
-46.3875
11
140.35
21
-58.3875
0
ARC
8
0
10
127.35
20
-46.3875
40
1
50
90
51
180
0
ARC
8
0
10
139.35
20
-46.3875
40
1
50
0
51
90
0
ARC
8
0
10
127.35
20
-58.3875
40
1
50
180
51
270
0
ARC
8
0
10
139.35
20
-58.3875
40
1
50
270
51
0
0
LINE
8
0
10
151.1625
20
-45.3875
11
163.1625
21
-45.3875
0
LINE
8
0
10
151.1625
20
-59.3875
11
163.1625
21
-59.3875
0
LINE
8
0
10
150.1625
20
-46.3875
11
150.1625
21
-58.3875
0
LINE
8
0
10
164.1625
20
-46.3875
11
164.1625
21
-58.3875
0
ARC
8
0
10
151.1625
20
-46.3875
40
1
50
90
51
180
0
ARC
8
0
10
163.1625
20
-46.3875
40
1
50
0
51
90
0
ARC
8
0
10
151.1625
20
-58.3875
40
1
50
180
51
270
0
ARC
8
0
10
163.1625
20
-58.3875
40
1
50
270
51
0
0
LINE
8
0
10
170.2125
20
-45.3875
11
182.2125
21
-45.3875
0
LINE
8
0
10
170.2125
20
-59.3875
11
182.2125
21
-59.3875
0
LINE
8
0
10
169.2125
20
-46.3875
11
169.2125
21
-58.3875
0
LINE
8
0
10
183.2125
20
-46.3875
11
183.2125
21
-58.3875
0
ARC
8
0
10
170.2125
20
-46.3875
40
1
50
90
51
180
0
ARC
8
0
10
182.2125
20
-46.3875
40
1
50
0
51
90
0
ARC
8
0
10
170.2125
20
-58.3875
40
1
50
180
51
270
0
ARC
8
0
10
182.2125
20
-58.3875
40
1
50
270
51
0
0
LINE
8
0
10
189.2625
20
-45.3875
11
201.2625
21
-45.3875
0
LINE
8
0
10
189.2625
20
-59.3875
11
201.2625
21
-59.3875
0
LINE
8
0
10
188.2625
20
-46.3875
11
188.2625
21
-58.3875
0
LINE
8
0
10
202.2625
20
-46.3875
11
202.2625
21
-58.3875
0
ARC
8
0
10
189.2625
20
-46.3875
40
1
50
90
51
180
0
ARC
8
0
10
201.2625
20
-46.3875
40
1
50
0
51
90
0
ARC
8
0
10
189.2625
20
-58.3875
40
1
50
180
51
270
0
ARC
8
0
10
201.2625
20
-58.3875
40
1
50
270
51
0
0
LINE
8
0
10
208.3125
20
-45.3875
11
220.3125
21
-45.3875
0
LINE
8
0
10
208.3125
20
-59.3875
11
220.3125
21
-59.3875
0
LINE
8
0
10
207.3125
20
-46.3875
11
207.3125
21
-58.3875
0
LINE
8
0
10
221.3125
20
-46.3875
11
221.3125
21
-58.3875
0
ARC
8
0
10
208.3125
20
-46.3875
40
1
50
90
51
180
0
ARC
8
0
10
220.3125
20
-46.3875
40
1
50
0
51
90
0
ARC
8
0
10
208.3125
20
-58.3875
40
1
50
180
51
270
0
ARC
8
0
10
220.3125
20
-58.3875
40
1
50
270
51
0
0
LINE
8
0
10
227.3625
20
-45.3875
11
239.3625
21
-45.3875
0
LINE
8
0
10
227.3625
20
-59.3875
11
239.3625
21
-59.3875
0
LINE
8
0
10
226.3625
20
-46.3875
11
226.3625
21
-58.3875
0
LINE
8
0
10
240.3625
20
-46.3875
11
240.3625
21
-58.3875
0
ARC
8
0
10
227.3625
20
-46.3875
40
1
50
90
51
180
0
ARC
8
0
10
239.3625
20
-46.3875
40
1
50
0
51
90
0
ARC
8
0
10
227.3625
20
-58.3875
40
1
50
180
51
270
0
ARC
8
0
10
239.3625
20
-58.3875
40
1
50
270
51
0
0
LINE
8
0
10
246.4125
20
-45.3875
11
258.4125
21
-45.3875
0
LINE
8
0
10
246.4125
20
-59.3875
11
258.4125
21
-59.3875
0
LINE
8
0
10
245.4125
20
-46.3875
11
245.4125
21
-58.3875
0
LINE
8
0
10
259.4125
20
-46.3875
11
259.4125
21
-58.3875
0
ARC
8
0
10
246.4125
20
-46.3875
40
1
50
90
51
180
0
ARC
8
0
10
258.4125
20
-46.3875
40
1
50
0
51
90
0
ARC
8
0
10
246.4125
20
-58.3875
40
1
50
180
51
270
0
ARC
8
0
10
258.4125
20
-58.3875
40
1
50
270
51
0
0
LINE
8
0
10
265.4625
20
-45.3875
11
277.4625
21
-45.3875
0
LINE
8
0
10
265.4625
20
-59.3875
11
277.4625
21
-59.3875
0
LINE
8
0
10
264.4625
20
-46.3875
11
264.4625
21
-58.3875
0
LINE
8
0
10
278.4625
20
-46.3875
11
278.4625
21
-58.3875
0
ARC
8
0
10
265.4625
20
-46.3875
40
1
50
90
51
180
0
ARC
8
0
10
277.4625
20
-46.3875
40
1
50
0
51
90
0
ARC
8
0
10
265.4625
20
-58.3875
40
1
50
180
51
270
0
ARC
8
0
10
277.4625
20
-58.3875
40
1
50
270
51
0
0
LINE
8
0
10
284.5125
20
-45.3875
11
296.5125
21
-45.3875
0
LINE
8
0
10
284.5125
20
-59.3875
11
296.5125
21
-59.3875
0
LINE
8
0
10
283.5125
20
-46.3875
11
283.5125
21
-58.3875
0
LINE
8
0
10
297.5125
20
-46.3875
11
297.5125
21
-58.3875
0
ARC
8
0
10
284.5125
20
-46.3875
40
1
50
90
51
180
0
ARC
8
0
10
296.5125
20
-46.3875
40
1
50
0
51
90
0
ARC
8
0
10
284.5125
20
-58.3875
40
1
50
180
51
270
0
ARC
8
0
10
296.5125
20
-58.3875
40
1
50
270
51
0
0
LINE
8
0
10
303.5625
20
-45.3875
11
315.5625
21
-45.3875
0
LINE
8
0
10
303.5625
20
-59.3875
11
315.5625
21
-59.3875
0
LINE
8
0
10
302.5625
20
-46.3875
11
302.5625
21
-58.3875
0
LINE
8
0
10
316.5625
20
-46.3875
11
316.5625
21
-58.3875
0
ARC
8
0
10
303.5625
20
-46.3875
40
1
50
90
51
180
0
ARC
8
0
10
315.5625
20
-46.3875
40
1
50
0
51
90
0
ARC
8
0
10
303.5625
20
-58.3875
40
1
50
180
51
270
0
ARC
8
0
10
315.5625
20
-58.3875
40
1
50
270
51
0
0
LINE
8
0
10
322.6125
20
-45.3875
11
334.6125
21
-45.3875
0
LINE
8
0
10
322.6125
20
-59.3875
11
334.6125
21
-59.3875
0
LINE
8
0
10
321.6125
20
-46.3875
11
321.6125
21
-58.3875
0
LINE
8
0
10
335.6125
20
-46.3875
11
335.6125
21
-58.3875
0
ARC
8
0
10
322.6125
20
-46.3875
40
1
50
90
51
180
0
ARC
8
0
10
334.6125
20
-46.3875
40
1
50
0
51
90
0
ARC
8
0
10
322.6125
20
-58.3875
40
1
50
180
51
270
0
ARC
8
0
10
334.6125
20
-58.3875
40
1
50
270
51
0
0
LINE
8
0
10
341.6625
20
-45.3875
11
353.6625
21
-45.3875
0
LINE
8
0
10
341.6625
20
-59.3875
11
353.6625
21
-59.3875
0
LINE
8
0
10
340.6625
20
-46.3875
11
340.6625
21
-58.3875
0
LINE
8
0
10
354.6625
20
-46.3875
11
354.6625
21
-58.3875
0
ARC
8
0
10
341.6625
20
-46.3875
40
1
50
90
51
180
0
ARC
8
0
10
353.6625
20
-46.3875
40
1
50
0
51
90
0
ARC
8
0
10
341.6625
20
-58.3875
40
1
50
180
51
270
0
ARC
8
0
10
353.6625
20
-58.3875
40
1
50
270
51
0
0
LINE
8
0
10
360.7125
20
-45.3875
11
372.7125
21
-45.3875
0
LINE
8
0
10
360.7125
20
-59.3875
11
372.7125
21
-59.3875
0
LINE
8
0
10
359.7125
20
-46.3875
11
359.7125
21
-58.3875
0
LINE
8
0
10
373.7125
20
-46.3875
11
373.7125
21
-58.3875
0
ARC
8
0
10
360.7125
20
-46.3875
40
1
50
90
51
180
0
ARC
8
0
10
372.7125
20
-46.3875
40
1
50
0
51
90
0
ARC
8
0
10
360.7125
20
-58.3875
40
1
50
180
51
270
0
ARC
8
0
10
372.7125
20
-58.3875
40
1
50
270
51
0
0
LINE
8
0
10
384.525
20
-45.3875
11
396.525
21
-45.3875
0
LINE
8
0
10
384.525
20
-59.3875
11
396.525
21
-59.3875
0
LINE
8
0
10
383.525
20
-46.3875
11
383.525
21
-58.3875
0
LINE
8
0
10
397.525
20
-46.3875
11
397.525
21
-58.3875
0
ARC
8
0
10
384.525
20
-46.3875
40
1
50
90
51
180
0
ARC
8
0
10
396.525
20
-46.3875
40
1
50
0
51
90
0
ARC
8
0
10
384.525
20
-58.3875
40
1
50
180
51
270
0
ARC
8
0
10
396.525
20
-58.3875
40
1
50
270
51
0
0
LINE
8
0
10
417.8625
20
-45.3875
11
429.8625
21
-45.3875
0
LINE
8
0
10
417.8625
20
-59.3875
11
429.8625
21
-59.3875
0
LINE
8
0
10
416.8625
20
-46.3875
11
416.8625
21
-58.3875
0
LINE
8
0
10
430.8625
20
-46.3875
11
430.8625
21
-58.3875
0
ARC
8
0
10
417.8625
20
-46.3875
40
1
50
90
51
180
0
ARC
8
0
10
429.8625
20
-46.3875
40
1
50
0
51
90
0
ARC
8
0
10
417.8625
20
-58.3875
40
1
50
180
51
270
0
ARC
8
0
10
429.8625
20
-58.3875
40
1
50
270
51
0
0
LINE
8
0
10
22.575
20
-64.4375
11
34.575
21
-64.4375
0
LINE
8
0
10
22.575
20
-78.4375
11
34.575
21
-78.4375
0
LINE
8
0
10
21.575
20
-65.4375
11
21.575
21
-77.4375
0
LINE
8
0
10
35.575
20
-65.4375
11
35.575
21
-77.4375
0
ARC
8
0
10
22.575
20
-65.4375
40
1
50
90
51
180
0
ARC
8
0
10
34.575
20
-65.4375
40
1
50
0
51
90
0
ARC
8
0
10
22.575
20
-77.4375
40
1
50
180
51
270
0
ARC
8
0
10
34.575
20
-77.4375
40
1
50
270
51
0
0
LINE
8
0
10
41.625
20
-64.4375
11
53.625
21
-64.4375
0
LINE
8
0
10
41.625
20
-78.4375
11
53.625
21
-78.4375
0
LINE
8
0
10
40.625
20
-65.4375
11
40.625
21
-77.4375
0
LINE
8
0
10
54.625
20
-65.4375
11
54.625
21
-77.4375
0
ARC
8
0
10
41.625
20
-65.4375
40
1
50
90
51
180
0
ARC
8
0
10
53.625
20
-65.4375
40
1
50
0
51
90
0
ARC
8
0
10
41.625
20
-77.4375
40
1
50
180
51
270
0
ARC
8
0
10
53.625
20
-77.4375
40
1
50
270
51
0
0
LINE
8
0
10
60.675
20
-64.4375
11
72.675
21
-64.4375
0
LINE
8
0
10
60.675
20
-78.4375
11
72.675
21
-78.4375
0
LINE
8
0
10
59.675
20
-65.4375
11
59.675
21
-77.4375
0
LINE
8
0
10
73.675
20
-65.4375
11
73.675
21
-77.4375
0
ARC
8
0
10
60.675
20
-65.4375
40
1
50
90
51
180
0
ARC
8
0
10
72.675
20
-65.4375
40
1
50
0
51
90
0
ARC
8
0
10
60.675
20
-77.4375
40
1
50
180
51
270
0
ARC
8
0
10
72.675
20
-77.4375
40
1
50
270
51
0
0
LINE
8
0
10
91.63125
20
-64.4375
11
103.63125
21
-64.4375
0
LINE
8
0
10
91.63125
20
-78.4375
11
103.63125
21
-78.4375
0
LINE
8
0
10
90.63125
20
-65.4375
11
90.63125
21
-77.4375
0
LINE
8
0
10
104.63125
20
-65.4375
11
104.63125
21
-77.4375
0
ARC
8
0
10
91.63125
20
-65.4375
40
1
50
90
51
180
0
ARC
8
0
10
103.63125
20
-65.4375
40
1
50
0
51
90
0
ARC
8
0
10
91.63125
20
-77.4375
40
1
50
180
51
270
0
ARC
8
0
10
103.63125
20
-77.4375
40
1
50
270
51
0
0
LINE
8
0
10
129.73125
20
-64.4375
11
141.73125
21
-64.4375
0
LINE
8
0
10
129.73125
20
-78.4375
11
141.73125
21
-78.4375
0
LINE
8
0
10
128.73125
20
-65.4375
11
128.73125
21
-77.4375
0
LINE
8
0
10
142.73125
20
-65.4375
11
142.73125
21
-77.4375
0
ARC
8
0
10
129.73125
20
-65.4375
40
1
50
90
51
180
0
ARC
8
0
10
141.73125
20
-65.4375
40
1
50
0
51
90
0
ARC
8
0
10
129.73125
20
-77.4375
40
1
50
180
51
270
0
ARC
8
0
10
141.73125
20
-77.4375
40
1
50
270
51
0
0
LINE
8
0
10
155.925
20
-64.4375
11
167.925
21
-64.4375
0
LINE
8
0
10
155.925
20
-78.4375
11
167.925
21
-78.4375
0
LINE
8
0
10
154.925
20
-65.4375
11
154.925
21
-77.4375
0
LINE
8
0
10
168.925
20
-65.4375
11
168.925
21
-77.4375
0
ARC
8
0
10
155.925
20
-65.4375
40
1
50
90
51
180
0
ARC
8
0
10
167.925
20
-65.4375
40
1
50
0
51
90
0
ARC
8
0
10
155.925
20
-77.4375
40
1
50
180
51
270
0
ARC
8
0
10
167.925
20
-77.4375
40
1
50
270
51
0
0
LINE
8
0
10
174.975
20
-64.4375
11
186.975
21
-64.4375
0
LINE
8
0
10
174.975
20
-78.4375
11
186.975
21
-78.4375
0
LINE
8
0
10
173.975
20
-65.4375
11
173.975
21
-77.4375
0
LINE
8
0
10
187.975
20
-65.4375
11
187.975
21
-77.4375
0
ARC
8
0
10
174.975
20
-65.4375
40
1
50
90
51
180
0
ARC
8
0
10
186.975
20
-65.4375
40
1
50
0
51
90
0
ARC
8
0
10
174.975
20
-77.4375
40
1
50
180
51
270
0
ARC
8
0
10
186.975
20
-77.4375
40
1
50
270
51
0
0
LINE
8
0
10
194.025
20
-64.4375
11
206.025
21
-64.4375
0
LINE
8
0
10
194.025
20
-78.4375
11
206.025
21
-78.4375
0
LINE
8
0
10
193.025
20
-65.4375
11
193.025
21
-77.4375
0
LINE
8
0
10
207.025
20
-65.4375
11
207.025
21
-77.4375
0
ARC
8
0
10
194.025
20
-65.4375
40
1
50
90
51
180
0
ARC
8
0
10
206.025
20
-65.4375
40
1
50
0
51
90
0
ARC
8
0
10
194.025
20
-77.4375
40
1
50
180
51
270
0
ARC
8
0
10
206.025
20
-77.4375
40
1
50
270
51
0
0
LINE
8
0
10
213.075
20
-64.4375
11
225.075
21
-64.4375
0
LINE
8
0
10
213.075
20
-78.4375
11
225.075
21
-78.4375
0
LINE
8
0
10
212.075
20
-65.4375
11
212.075
21
-77.4375
0
LINE
8
0
10
226.075
20
-65.4375
11
226.075
21
-77.4375
0
ARC
8
0
10
213.075
20
-65.4375
40
1
50
90
51
180
0
ARC
8
0
10
225.075
20
-65.4375
40
1
50
0
51
90
0
ARC
8
0
10
213.075
20
-77.4375
40
1
50
180
51
270
0
ARC
8
0
10
225.075
20
-77.4375
40
1
50
270
51
0
0
LINE
8
0
10
232.125
20
-64.4375
11
244.125
21
-64.4375
0
LINE
8
0
10
232.125
20
-78.4375
11
244.125
21
-78.4375
0
LINE
8
0
10
231.125
20
-65.4375
11
231.125
21
-77.4375
0
LINE
8
0
10
245.125
20
-65.4375
11
245.125
21
-77.4375
0
ARC
8
0
10
232.125
20
-65.4375
40
1
50
90
51
180
0
ARC
8
0
10
244.125
20
-65.4375
40
1
50
0
51
90
0
ARC
8
0
10
232.125
20
-77.4375
40
1
50
180
51
270
0
ARC
8
0
10
244.125
20
-77.4375
40
1
50
270
51
0
0
LINE
8
0
10
251.175
20
-64.4375
11
263.175
21
-64.4375
0
LINE
8
0
10
251.175
20
-78.4375
11
263.175
21
-78.4375
0
LINE
8
0
10
250.175
20
-65.4375
11
250.175
21
-77.4375
0
LINE
8
0
10
264.175
20
-65.4375
11
264.175
21
-77.4375
0
ARC
8
0
10
251.175
20
-65.4375
40
1
50
90
51
180
0
ARC
8
0
10
263.175
20
-65.4375
40
1
50
0
51
90
0
ARC
8
0
10
251.175
20
-77.4375
40
1
50
180
51
270
0
ARC
8
0
10
263.175
20
-77.4375
40
1
50
270
51
0
0
LINE
8
0
10
270.225
20
-64.4375
11
282.225
21
-64.4375
0
LINE
8
0
10
270.225
20
-78.4375
11
282.225
21
-78.4375
0
LINE
8
0
10
269.225
20
-65.4375
11
269.225
21
-77.4375
0
LINE
8
0
10
283.225
20
-65.4375
11
283.225
21
-77.4375
0
ARC
8
0
10
270.225
20
-65.4375
40
1
50
90
51
180
0
ARC
8
0
10
282.225
20
-65.4375
40
1
50
0
51
90
0
ARC
8
0
10
270.225
20
-77.4375
40
1
50
180
51
270
0
ARC
8
0
10
282.225
20
-77.4375
40
1
50
270
51
0
0
LINE
8
0
10
289.275
20
-64.4375
11
301.275
21
-64.4375
0
LINE
8
0
10
289.275
20
-78.4375
11
301.275
21
-78.4375
0
LINE
8
0
10
288.275
20
-65.4375
11
288.275
21
-77.4375
0
LINE
8
0
10
302.275
20
-65.4375
11
302.275
21
-77.4375
0
ARC
8
0
10
289.275
20
-65.4375
40
1
50
90
51
180
0
ARC
8
0
10
301.275
20
-65.4375
40
1
50
0
51
90
0
ARC
8
0
10
289.275
20
-77.4375
40
1
50
180
51
270
0
ARC
8
0
10
301.275
20
-77.4375
40
1
50
270
51
0
0
LINE
8
0
10
308.325
20
-64.4375
11
320.325
21
-64.4375
0
LINE
8
0
10
308.325
20
-78.4375
11
320.325
21
-78.4375
0
LINE
8
0
10
307.325
20
-65.4375
11
307.325
21
-77.4375
0
LINE
8
0
10
321.325
20
-65.4375
11
321.325
21
-77.4375
0
ARC
8
0
10
308.325
20
-65.4375
40
1
50
90
51
180
0
ARC
8
0
10
320.325
20
-65.4375
40
1
50
0
51
90
0
ARC
8
0
10
308.325
20
-77.4375
40
1
50
180
51
270
0
ARC
8
0
10
320.325
20
-77.4375
40
1
50
270
51
0
0
LINE
8
0
10
327.375
20
-64.4375
11
339.375
21
-64.4375
0
LINE
8
0
10
327.375
20
-78.4375
11
339.375
21
-78.4375
0
LINE
8
0
10
326.375
20
-65.4375
11
326.375
21
-77.4375
0
LINE
8
0
10
340.375
20
-65.4375
11
340.375
21
-77.4375
0
ARC
8
0
10
327.375
20
-65.4375
40
1
50
90
51
180
0
ARC
8
0
10
339.375
20
-65.4375
40
1
50
0
51
90
0
ARC
8
0
10
327.375
20
-77.4375
40
1
50
180
51
270
0
ARC
8
0
10
339.375
20
-77.4375
40
1
50
270
51
0
0
LINE
8
0
10
346.425
20
-64.4375
11
358.425
21
-64.4375
0
LINE
8
0
10
346.425
20
-78.4375
11
358.425
21
-78.4375
0
LINE
8
0
10
345.425
20
-65.4375
11
345.425
21
-77.4375
0
LINE
8
0
10
359.425
20
-65.4375
11
359.425
21
-77.4375
0
ARC
8
0
10
346.425
20
-65.4375
40
1
50
90
51
180
0
ARC
8
0
10
358.425
20
-65.4375
40
1
50
0
51
90
0
ARC
8
0
10
346.425
20
-77.4375
40
1
50
180
51
270
0
ARC
8
0
10
358.425
20
-77.4375
40
1
50
270
51
0
0
LINE
8
0
10
377.38125
20
-64.4375
11
389.38125
21
-64.4375
0
LINE
8
0
10
377.38125
20
-78.4375
11
389.38125
21
-78.4375
0
LINE
8
0
10
376.38125
20
-65.4375
11
376.38125
21
-77.4375
0
LINE
8
0
10
390.38125
20
-65.4375
11
390.38125
21
-77.4375
0
ARC
8
0
10
377.38125
20
-65.4375
40
1
50
90
51
180
0
ARC
8
0
10
389.38125
20
-65.4375
40
1
50
0
51
90
0
ARC
8
0
10
377.38125
20
-77.4375
40
1
50
180
51
270
0
ARC
8
0
10
389.38125
20
-77.4375
40
1
50
270
51
0
0
LINE
8
0
10
368.11585
20
-65.7479
11
374.77065
21
-65.7479
0
LINE
8
0
10
374.77065
20
-65.7479
11
374.77065
21
-66.5607
0
LINE
8
0
10
374.77065
20
-66.5607
11
383.38125
21
-66.5607
0
LINE
8
0
10
383.38125
20
-77.2541
11
374.77065
21
-77.2541
0
LINE
8
0
10
374.77065
20
-77.2541
11
374.77065
21
-78.0415
0
LINE
8
0
10
374.77065
20
-78.0415
11
372.96725
21
-78.0415
0
LINE
8
0
10
372.96725
20
-78.0415
11
372.96725
21
-79.2099
0
LINE
8
0
10
372.96725
20
-79.2099
11
369.91925
21
-79.2099
0
LINE
8
0
10
369.91925
20
-79.2099
11
369.91925
21
-78.0415
0
LINE
8
0
10
369.91925
20
-78.0415
11
368.11585
21
-78.0415
0
LINE
8
0
10
368.11585
20
-78.0415
11
368.11585
21
-71.9455
0
LINE
8
0
10
368.11585
20
-71.9455
11
367.25225
21
-71.9455
0
LINE
8
0
10
367.25225
20
-71.9455
11
367.25225
21
-69.1515
0
LINE
8
0
10
367.25225
20
-69.1515
11
368.11585
21
-69.1515
0
LINE
8
0
10
368.11585
20
-69.1515
11
368.11585
21
-65.7479
0
LINE
8
0
10
398.64665
20
-65.7479
11
391.99185
21
-65.7479
0
LINE
8
0
10
391.99185
20
-65.7479
11
391.99185
21
-66.5607
0
LINE
8
0
10
391.99185
20
-66.5607
11
383.38125
21
-66.5607
0
LINE
8
0
10
383.38125
20
-77.2541
11
391.99185
21
-77.2541
0
LINE
8
0
10
391.99185
20
-77.2541
11
391.99185
21
-78.0415
0
LINE
8
0
10
391.99185
20
-78.0415
11
393.79525
21
-78.0415
0
LINE
8
0
10
393.79525
20
-78.0415
11
393.79525
21
-79.2099
0
LINE
8
0
10
393.79525
20
-79.2099
11
396.84325
21
-79.2099
0
LINE
8
0
10
396.84325
20
-79.2099
11
396.84325
21
-78.0415
0
LINE
8
0
10
396.84325
20
-78.0415
11
398.64665
21
-78.0415
0
LINE
8
0
10
398.64665
20
-78.0415
11
398.64665
21
-71.9455
0
LINE
8
0
10
398.64665
20
-71.9455
11
399.51025
21
-71.9455
0
LINE
8
0
10
399.51025
20
-71.9455
11
399.51025
21
-69.1515
0
LINE
8
0
10
399.51025
20
-69.1515
11
398.64665
21
-69.1515
0
LINE
8
0
10
398.64665
20
-69.1515
11
398.64665
21
-65.7479
0
LINE
8
0
10
417.8625
20
-64.4375
11
429.8625
21
-64.4375
0
LINE
8
0
10
417.8625
20
-78.4375
11
429.8625
21
-78.4375
0
LINE
8
0
10
416.8625
20
-65.4375
11
416.8625
21
-77.4375
0
LINE
8
0
10
430.8625
20
-65.4375
11
430.8625
21
-77.4375
0
ARC
8
0
10
417.8625
20
-65.4375
40
1
50
90
51
180
0
ARC
8
0
10
429.8625
20
-65.4375
40
1
50
0
51
90
0
ARC
8
0
10
417.8625
20
-77.4375
40
1
50
180
51
270
0
ARC
8
0
10
429.8625
20
-77.4375
40
1
50
270
51
0
0
LINE
8
0
10
16.525
20
-94.0125
11
16.525
21
-106.0125
0
LINE
8
0
10
2.525
20
-94.0125
11
2.525
21
-106.0125
0
LINE
8
0
10
15.525
20
-93.0125
11
3.525
21
-93.0125
0
LINE
8
0
10
15.525
20
-107.0125
11
3.525
21
-107.0125
0
ARC
8
0
10
15.525
20
-94.0125
40
1
50
0
51
90
0
ARC
8
0
10
15.525
20
-106.0125
40
1
50
270
51
0
0
ARC
8
0
10
3.525
20
-94.0125
40
1
50
90
51
180
0
ARC
8
0
10
3.525
20
-106.0125
40
1
50
180
51
270
0
LINE
8
0
10
15.2146
20
-84.7471
11
15.2146
21
-91.4019
0
LINE
8
0
10
15.2146
20
-91.4019
11
14.4018
21
-91.4019
0
LINE
8
0
10
14.4018
20
-91.4019
11
14.4018
21
-100.0125
0
LINE
8
0
10
3.7084
20
-100.0125
11
3.7084
21
-91.4019
0
LINE
8
0
10
3.7084
20
-91.4019
11
2.921
21
-91.4019
0
LINE
8
0
10
2.921
20
-91.4019
11
2.921
21
-89.5985
0
LINE
8
0
10
2.921
20
-89.5985
11
1.7526
21
-89.5985
0
LINE
8
0
10
1.7526
20
-89.5985
11
1.7526
21
-86.5505
0
LINE
8
0
10
1.7526
20
-86.5505
11
2.921
21
-86.5505
0
LINE
8
0
10
2.921
20
-86.5505
11
2.921
21
-84.7471
0
LINE
8
0
10
2.921
20
-84.7471
11
9.017
21
-84.7471
0
LINE
8
0
10
9.017
20
-84.7471
11
9.017
21
-83.8835
0
LINE
8
0
10
9.017
20
-83.8835
11
11.811
21
-83.8835
0
LINE
8
0
10
11.811
20
-83.8835
11
11.811
21
-84.7471
0
LINE
8
0
10
11.811
20
-84.7471
11
15.2146
21
-84.7471
0
LINE
8
0
10
15.2146
20
-115.2779
11
15.2146
21
-108.6231
0
LINE
8
0
10
15.2146
20
-108.6231
11
14.4018
21
-108.6231
0
LINE
8
0
10
14.4018
20
-108.6231
11
14.4018
21
-100.0125
0
LINE
8
0
10
3.7084
20
-100.0125
11
3.7084
21
-108.6231
0
LINE
8
0
10
3.7084
20
-108.6231
11
2.921
21
-108.6231
0
LINE
8
0
10
2.921
20
-108.6231
11
2.921
21
-110.4265
0
LINE
8
0
10
2.921
20
-110.4265
11
1.7526
21
-110.4265
0
LINE
8
0
10
1.7526
20
-110.4265
11
1.7526
21
-113.4745
0
LINE
8
0
10
1.7526
20
-113.4745
11
2.921
21
-113.4745
0
LINE
8
0
10
2.921
20
-113.4745
11
2.921
21
-115.2779
0
LINE
8
0
10
2.921
20
-115.2779
11
9.017
21
-115.2779
0
LINE
8
0
10
9.017
20
-115.2779
11
9.017
21
-116.1415
0
LINE
8
0
10
9.017
20
-116.1415
11
11.811
21
-116.1415
0
LINE
8
0
10
11.811
20
-116.1415
11
11.811
21
-115.2779
0
LINE
8
0
10
11.811
20
-115.2779
11
15.2146
21
-115.2779
0
LINE
8
0
10
22.575
20
-83.4875
11
34.575
21
-83.4875
0
LINE
8
0
10
22.575
20
-97.4875
11
34.575
21
-97.4875
0
LINE
8
0
10
21.575
20
-84.4875
11
21.575
21
-96.4875
0
LINE
8
0
10
35.575
20
-84.4875
11
35.575
21
-96.4875
0
ARC
8
0
10
22.575
20
-84.4875
40
1
50
90
51
180
0
ARC
8
0
10
34.575
20
-84.4875
40
1
50
0
51
90
0
ARC
8
0
10
22.575
20
-96.4875
40
1
50
180
51
270
0
ARC
8
0
10
34.575
20
-96.4875
40
1
50
270
51
0
0
LINE
8
0
10
41.625
20
-83.4875
11
53.625
21
-83.4875
0
LINE
8
0
10
41.625
20
-97.4875
11
53.625
21
-97.4875
0
LINE
8
0
10
40.625
20
-84.4875
11
40.625
21
-96.4875
0
LINE
8
0
10
54.625
20
-84.4875
11
54.625
21
-96.4875
0
ARC
8
0
10
41.625
20
-84.4875
40
1
50
90
51
180
0
ARC
8
0
10
53.625
20
-84.4875
40
1
50
0
51
90
0
ARC
8
0
10
41.625
20
-96.4875
40
1
50
180
51
270
0
ARC
8
0
10
53.625
20
-96.4875
40
1
50
270
51
0
0
LINE
8
0
10
60.675
20
-83.4875
11
72.675
21
-83.4875
0
LINE
8
0
10
60.675
20
-97.4875
11
72.675
21
-97.4875
0
LINE
8
0
10
59.675
20
-84.4875
11
59.675
21
-96.4875
0
LINE
8
0
10
73.675
20
-84.4875
11
73.675
21
-96.4875
0
ARC
8
0
10
60.675
20
-84.4875
40
1
50
90
51
180
0
ARC
8
0
10
72.675
20
-84.4875
40
1
50
0
51
90
0
ARC
8
0
10
60.675
20
-96.4875
40
1
50
180
51
270
0
ARC
8
0
10
72.675
20
-96.4875
40
1
50
270
51
0
0
LINE
8
0
10
134.49375
20
-83.4875
11
146.49375
21
-83.4875
0
LINE
8
0
10
134.49375
20
-97.4875
11
146.49375
21
-97.4875
0
LINE
8
0
10
133.49375
20
-84.4875
11
133.49375
21
-96.4875
0
LINE
8
0
10
147.49375
20
-84.4875
11
147.49375
21
-96.4875
0
ARC
8
0
10
134.49375
20
-84.4875
40
1
50
90
51
180
0
ARC
8
0
10
146.49375
20
-84.4875
40
1
50
0
51
90
0
ARC
8
0
10
134.49375
20
-96.4875
40
1
50
180
51
270
0
ARC
8
0
10
146.49375
20
-96.4875
40
1
50
270
51
0
0
LINE
8
0
10
125.22835
20
-84.7979
11
131.88315
21
-84.7979
0
LINE
8
0
10
131.88315
20
-84.7979
11
131.88315
21
-85.6107
0
LINE
8
0
10
131.88315
20
-85.6107
11
140.49375
21
-85.6107
0
LINE
8
0
10
140.49375
20
-96.3041
11
131.88315
21
-96.3041
0
LINE
8
0
10
131.88315
20
-96.3041
11
131.88315
21
-97.0915
0
LINE
8
0
10
131.88315
20
-97.0915
11
130.07975
21
-97.0915
0
LINE
8
0
10
130.07975
20
-97.0915
11
130.07975
21
-98.2599
0
LINE
8
0
10
130.07975
20
-98.2599
11
127.03175
21
-98.2599
0
LINE
8
0
10
127.03175
20
-98.2599
11
127.03175
21
-97.0915
0
LINE
8
0
10
127.03175
20
-97.0915
11
125.22835
21
-97.0915
0
LINE
8
0
10
125.22835
20
-97.0915
11
125.22835
21
-90.9955
0
LINE
8
0
10
125.22835
20
-90.9955
11
124.36475
21
-90.9955
0
LINE
8
0
10
124.36475
20
-90.9955
11
124.36475
21
-88.2015
0
LINE
8
0
10
124.36475
20
-88.2015
11
125.22835
21
-88.2015
0
LINE
8
0
10
125.22835
20
-88.2015
11
125.22835
21
-84.7979
0
LINE
8
0
10
155.75915
20
-84.7979
11
149.10435
21
-84.7979
0
LINE
8
0
10
149.10435
20
-84.7979
11
149.10435
21
-85.6107
0
LINE
8
0
10
149.10435
20
-85.6107
11
140.49375
21
-85.6107
0
LINE
8
0
10
140.49375
20
-96.3041
11
149.10435
21
-96.3041
0
LINE
8
0
10
149.10435
20
-96.3041
11
149.10435
21
-97.0915
0
LINE
8
0
10
149.10435
20
-97.0915
11
150.90775
21
-97.0915
0
LINE
8
0
10
150.90775
20
-97.0915
11
150.90775
21
-98.2599
0
LINE
8
0
10
150.90775
20
-98.2599
11
153.95575
21
-98.2599
0
LINE
8
0
10
153.95575
20
-98.2599
11
153.95575
21
-97.0915
0
LINE
8
0
10
153.95575
20
-97.0915
11
155.75915
21
-97.0915
0
LINE
8
0
10
155.75915
20
-97.0915
11
155.75915
21
-90.9955
0
LINE
8
0
10
155.75915
20
-90.9955
11
156.62275
21
-90.9955
0
LINE
8
0
10
156.62275
20
-90.9955
11
156.62275
21
-88.2015
0
LINE
8
0
10
156.62275
20
-88.2015
11
155.75915
21
-88.2015
0
LINE
8
0
10
155.75915
20
-88.2015
11
155.75915
21
-84.7979
0
LINE
8
0
10
165.45
20
-83.4875
11
177.45
21
-83.4875
0
LINE
8
0
10
165.45
20
-97.4875
11
177.45
21
-97.4875
0
LINE
8
0
10
164.45
20
-84.4875
11
164.45
21
-96.4875
0
LINE
8
0
10
178.45
20
-84.4875
11
178.45
21
-96.4875
0
ARC
8
0
10
165.45
20
-84.4875
40
1
50
90
51
180
0
ARC
8
0
10
177.45
20
-84.4875
40
1
50
0
51
90
0
ARC
8
0
10
165.45
20
-96.4875
40
1
50
180
51
270
0
ARC
8
0
10
177.45
20
-96.4875
40
1
50
270
51
0
0
LINE
8
0
10
184.5
20
-83.4875
11
196.5
21
-83.4875
0
LINE
8
0
10
184.5
20
-97.4875
11
196.5
21
-97.4875
0
LINE
8
0
10
183.5
20
-84.4875
11
183.5
21
-96.4875
0
LINE
8
0
10
197.5
20
-84.4875
11
197.5
21
-96.4875
0
ARC
8
0
10
184.5
20
-84.4875
40
1
50
90
51
180
0
ARC
8
0
10
196.5
20
-84.4875
40
1
50
0
51
90
0
ARC
8
0
10
184.5
20
-96.4875
40
1
50
180
51
270
0
ARC
8
0
10
196.5
20
-96.4875
40
1
50
270
51
0
0
LINE
8
0
10
203.55
20
-83.4875
11
215.55
21
-83.4875
0
LINE
8
0
10
203.55
20
-97.4875
11
215.55
21
-97.4875
0
LINE
8
0
10
202.55
20
-84.4875
11
202.55
21
-96.4875
0
LINE
8
0
10
216.55
20
-84.4875
11
216.55
21
-96.4875
0
ARC
8
0
10
203.55
20
-84.4875
40
1
50
90
51
180
0
ARC
8
0
10
215.55
20
-84.4875
40
1
50
0
51
90
0
ARC
8
0
10
203.55
20
-96.4875
40
1
50
180
51
270
0
ARC
8
0
10
215.55
20
-96.4875
40
1
50
270
51
0
0
LINE
8
0
10
222.6
20
-83.4875
11
234.6
21
-83.4875
0
LINE
8
0
10
222.6
20
-97.4875
11
234.6
21
-97.4875
0
LINE
8
0
10
221.6
20
-84.4875
11
221.6
21
-96.4875
0
LINE
8
0
10
235.6
20
-84.4875
11
235.6
21
-96.4875
0
ARC
8
0
10
222.6
20
-84.4875
40
1
50
90
51
180
0
ARC
8
0
10
234.6
20
-84.4875
40
1
50
0
51
90
0
ARC
8
0
10
222.6
20
-96.4875
40
1
50
180
51
270
0
ARC
8
0
10
234.6
20
-96.4875
40
1
50
270
51
0
0
LINE
8
0
10
241.65
20
-83.4875
11
253.65
21
-83.4875
0
LINE
8
0
10
241.65
20
-97.4875
11
253.65
21
-97.4875
0
LINE
8
0
10
240.65
20
-84.4875
11
240.65
21
-96.4875
0
LINE
8
0
10
254.65
20
-84.4875
11
254.65
21
-96.4875
0
ARC
8
0
10
241.65
20
-84.4875
40
1
50
90
51
180
0
ARC
8
0
10
253.65
20
-84.4875
40
1
50
0
51
90
0
ARC
8
0
10
241.65
20
-96.4875
40
1
50
180
51
270
0
ARC
8
0
10
253.65
20
-96.4875
40
1
50
270
51
0
0
LINE
8
0
10
260.7
20
-83.4875
11
272.7
21
-83.4875
0
LINE
8
0
10
260.7
20
-97.4875
11
272.7
21
-97.4875
0
LINE
8
0
10
259.7
20
-84.4875
11
259.7
21
-96.4875
0
LINE
8
0
10
273.7
20
-84.4875
11
273.7
21
-96.4875
0
ARC
8
0
10
260.7
20
-84.4875
40
1
50
90
51
180
0
ARC
8
0
10
272.7
20
-84.4875
40
1
50
0
51
90
0
ARC
8
0
10
260.7
20
-96.4875
40
1
50
180
51
270
0
ARC
8
0
10
272.7
20
-96.4875
40
1
50
270
51
0
0
LINE
8
0
10
279.75
20
-83.4875
11
291.75
21
-83.4875
0
LINE
8
0
10
279.75
20
-97.4875
11
291.75
21
-97.4875
0
LINE
8
0
10
278.75
20
-84.4875
11
278.75
21
-96.4875
0
LINE
8
0
10
292.75
20
-84.4875
11
292.75
21
-96.4875
0
ARC
8
0
10
279.75
20
-84.4875
40
1
50
90
51
180
0
ARC
8
0
10
291.75
20
-84.4875
40
1
50
0
51
90
0
ARC
8
0
10
279.75
20
-96.4875
40
1
50
180
51
270
0
ARC
8
0
10
291.75
20
-96.4875
40
1
50
270
51
0
0
LINE
8
0
10
298.8
20
-83.4875
11
310.8
21
-83.4875
0
LINE
8
0
10
298.8
20
-97.4875
11
310.8
21
-97.4875
0
LINE
8
0
10
297.8
20
-84.4875
11
297.8
21
-96.4875
0
LINE
8
0
10
311.8
20
-84.4875
11
311.8
21
-96.4875
0
ARC
8
0
10
298.8
20
-84.4875
40
1
50
90
51
180
0
ARC
8
0
10
310.8
20
-84.4875
40
1
50
0
51
90
0
ARC
8
0
10
298.8
20
-96.4875
40
1
50
180
51
270
0
ARC
8
0
10
310.8
20
-96.4875
40
1
50
270
51
0
0
LINE
8
0
10
317.85
20
-83.4875
11
329.85
21
-83.4875
0
LINE
8
0
10
317.85
20
-97.4875
11
329.85
21
-97.4875
0
LINE
8
0
10
316.85
20
-84.4875
11
316.85
21
-96.4875
0
LINE
8
0
10
330.85
20
-84.4875
11
330.85
21
-96.4875
0
ARC
8
0
10
317.85
20
-84.4875
40
1
50
90
51
180
0
ARC
8
0
10
329.85
20
-84.4875
40
1
50
0
51
90
0
ARC
8
0
10
317.85
20
-96.4875
40
1
50
180
51
270
0
ARC
8
0
10
329.85
20
-96.4875
40
1
50
270
51
0
0
LINE
8
0
10
336.9
20
-83.4875
11
348.9
21
-83.4875
0
LINE
8
0
10
336.9
20
-97.4875
11
348.9
21
-97.4875
0
LINE
8
0
10
335.9
20
-84.4875
11
335.9
21
-96.4875
0
LINE
8
0
10
349.9
20
-84.4875
11
349.9
21
-96.4875
0
ARC
8
0
10
336.9
20
-84.4875
40
1
50
90
51
180
0
ARC
8
0
10
348.9
20
-84.4875
40
1
50
0
51
90
0
ARC
8
0
10
336.9
20
-96.4875
40
1
50
180
51
270
0
ARC
8
0
10
348.9
20
-96.4875
40
1
50
270
51
0
0
LINE
8
0
10
363.09375
20
-83.4875
11
375.09375
21
-83.4875
0
LINE
8
0
10
363.09375
20
-97.4875
11
375.09375
21
-97.4875
0
LINE
8
0
10
362.09375
20
-84.4875
11
362.09375
21
-96.4875
0
LINE
8
0
10
376.09375
20
-84.4875
11
376.09375
21
-96.4875
0
ARC
8
0
10
363.09375
20
-84.4875
40
1
50
90
51
180
0
ARC
8
0
10
375.09375
20
-84.4875
40
1
50
0
51
90
0
ARC
8
0
10
363.09375
20
-96.4875
40
1
50
180
51
270
0
ARC
8
0
10
375.09375
20
-96.4875
40
1
50
270
51
0
0
LINE
8
0
10
417.8625
20
-83.4875
11
429.8625
21
-83.4875
0
LINE
8
0
10
417.8625
20
-97.4875
11
429.8625
21
-97.4875
0
LINE
8
0
10
416.8625
20
-84.4875
11
416.8625
21
-96.4875
0
LINE
8
0
10
430.8625
20
-84.4875
11
430.8625
21
-96.4875
0
ARC
8
0
10
417.8625
20
-84.4875
40
1
50
90
51
180
0
ARC
8
0
10
429.8625
20
-84.4875
40
1
50
0
51
90
0
ARC
8
0
10
417.8625
20
-96.4875
40
1
50
180
51
270
0
ARC
8
0
10
429.8625
20
-96.4875
40
1
50
270
51
0
0
LINE
8
0
10
91.63125
20
-88.25
11
103.63125
21
-88.25
0
LINE
8
0
10
91.63125
20
-102.25
11
103.63125
21
-102.25
0
LINE
8
0
10
90.63125
20
-89.25
11
90.63125
21
-101.25
0
LINE
8
0
10
104.63125
20
-89.25
11
104.63125
21
-101.25
0
ARC
8
0
10
91.63125
20
-89.25
40
1
50
90
51
180
0
ARC
8
0
10
103.63125
20
-89.25
40
1
50
0
51
90
0
ARC
8
0
10
91.63125
20
-101.25
40
1
50
180
51
270
0
ARC
8
0
10
103.63125
20
-101.25
40
1
50
270
51
0
0
LINE
8
0
10
394.05
20
-88.25
11
406.05
21
-88.25
0
LINE
8
0
10
394.05
20
-102.25
11
406.05
21
-102.25
0
LINE
8
0
10
393.05
20
-89.25
11
393.05
21
-101.25
0
LINE
8
0
10
407.05
20
-89.25
11
407.05
21
-101.25
0
ARC
8
0
10
394.05
20
-89.25
40
1
50
90
51
180
0
ARC
8
0
10
406.05
20
-89.25
40
1
50
0
51
90
0
ARC
8
0
10
394.05
20
-101.25
40
1
50
180
51
270
0
ARC
8
0
10
406.05
20
-101.25
40
1
50
270
51
0
0
LINE
8
0
10
22.575
20
-102.5375
11
34.575
21
-102.5375
0
LINE
8
0
10
22.575
20
-116.5375
11
34.575
21
-116.5375
0
LINE
8
0
10
21.575
20
-103.5375
11
21.575
21
-115.5375
0
LINE
8
0
10
35.575
20
-103.5375
11
35.575
21
-115.5375
0
ARC
8
0
10
22.575
20
-103.5375
40
1
50
90
51
180
0
ARC
8
0
10
34.575
20
-103.5375
40
1
50
0
51
90
0
ARC
8
0
10
22.575
20
-115.5375
40
1
50
180
51
270
0
ARC
8
0
10
34.575
20
-115.5375
40
1
50
270
51
0
0
LINE
8
0
10
41.625
20
-102.5375
11
53.625
21
-102.5375
0
LINE
8
0
10
41.625
20
-116.5375
11
53.625
21
-116.5375
0
LINE
8
0
10
40.625
20
-103.5375
11
40.625
21
-115.5375
0
LINE
8
0
10
54.625
20
-103.5375
11
54.625
21
-115.5375
0
ARC
8
0
10
41.625
20
-103.5375
40
1
50
90
51
180
0
ARC
8
0
10
53.625
20
-103.5375
40
1
50
0
51
90
0
ARC
8
0
10
41.625
20
-115.5375
40
1
50
180
51
270
0
ARC
8
0
10
53.625
20
-115.5375
40
1
50
270
51
0
0
LINE
8
0
10
141.6375
20
-102.5375
11
153.6375
21
-102.5375
0
LINE
8
0
10
141.6375
20
-116.5375
11
153.6375
21
-116.5375
0
LINE
8
0
10
140.6375
20
-103.5375
11
140.6375
21
-115.5375
0
LINE
8
0
10
154.6375
20
-103.5375
11
154.6375
21
-115.5375
0
ARC
8
0
10
141.6375
20
-103.5375
40
1
50
90
51
180
0
ARC
8
0
10
153.6375
20
-103.5375
40
1
50
0
51
90
0
ARC
8
0
10
141.6375
20
-115.5375
40
1
50
180
51
270
0
ARC
8
0
10
153.6375
20
-115.5375
40
1
50
270
51
0
0
LINE
8
0
10
170.2125
20
-102.5375
11
182.2125
21
-102.5375
0
LINE
8
0
10
170.2125
20
-116.5375
11
182.2125
21
-116.5375
0
LINE
8
0
10
169.2125
20
-103.5375
11
169.2125
21
-115.5375
0
LINE
8
0
10
183.2125
20
-103.5375
11
183.2125
21
-115.5375
0
ARC
8
0
10
170.2125
20
-103.5375
40
1
50
90
51
180
0
ARC
8
0
10
182.2125
20
-103.5375
40
1
50
0
51
90
0
ARC
8
0
10
170.2125
20
-115.5375
40
1
50
180
51
270
0
ARC
8
0
10
182.2125
20
-115.5375
40
1
50
270
51
0
0
LINE
8
0
10
210.69375
20
-102.5375
11
222.69375
21
-102.5375
0
LINE
8
0
10
210.69375
20
-116.5375
11
222.69375
21
-116.5375
0
LINE
8
0
10
209.69375
20
-103.5375
11
209.69375
21
-115.5375
0
LINE
8
0
10
223.69375
20
-103.5375
11
223.69375
21
-115.5375
0
ARC
8
0
10
210.69375
20
-103.5375
40
1
50
90
51
180
0
ARC
8
0
10
222.69375
20
-103.5375
40
1
50
0
51
90
0
ARC
8
0
10
210.69375
20
-115.5375
40
1
50
180
51
270
0
ARC
8
0
10
222.69375
20
-115.5375
40
1
50
270
51
0
0
LINE
8
0
10
201.42835
20
-103.8479
11
208.08315
21
-103.8479
0
LINE
8
0
10
208.08315
20
-103.8479
11
208.08315
21
-104.6607
0
LINE
8
0
10
208.08315
20
-104.6607
11
216.69375
21
-104.6607
0
LINE
8
0
10
216.69375
20
-115.3541
11
208.08315
21
-115.3541
0
LINE
8
0
10
208.08315
20
-115.3541
11
208.08315
21
-116.1415
0
LINE
8
0
10
208.08315
20
-116.1415
11
206.27975
21
-116.1415
0
LINE
8
0
10
206.27975
20
-116.1415
11
206.27975
21
-117.3099
0
LINE
8
0
10
206.27975
20
-117.3099
11
203.23175
21
-117.3099
0
LINE
8
0
10
203.23175
20
-117.3099
11
203.23175
21
-116.1415
0
LINE
8
0
10
203.23175
20
-116.1415
11
201.42835
21
-116.1415
0
LINE
8
0
10
201.42835
20
-116.1415
11
201.42835
21
-110.0455
0
LINE
8
0
10
201.42835
20
-110.0455
11
200.56475
21
-110.0455
0
LINE
8
0
10
200.56475
20
-110.0455
11
200.56475
21
-107.2515
0
LINE
8
0
10
200.56475
20
-107.2515
11
201.42835
21
-107.2515
0
LINE
8
0
10
201.42835
20
-107.2515
11
201.42835
21
-103.8479
0
LINE
8
0
10
231.95915
20
-103.8479
11
225.30435
21
-103.8479
0
LINE
8
0
10
225.30435
20
-103.8479
11
225.30435
21
-104.6607
0
LINE
8
0
10
225.30435
20
-104.6607
11
216.69375
21
-104.6607
0
LINE
8
0
10
216.69375
20
-115.3541
11
225.30435
21
-115.3541
0
LINE
8
0
10
225.30435
20
-115.3541
11
225.30435
21
-116.1415
0
LINE
8
0
10
225.30435
20
-116.1415
11
227.10775
21
-116.1415
0
LINE
8
0
10
227.10775
20
-116.1415
11
227.10775
21
-117.3099
0
LINE
8
0
10
227.10775
20
-117.3099
11
230.15575
21
-117.3099
0
LINE
8
0
10
230.15575
20
-117.3099
11
230.15575
21
-116.1415
0
LINE
8
0
10
230.15575
20
-116.1415
11
231.95915
21
-116.1415
0
LINE
8
0
10
231.95915
20
-116.1415
11
231.95915
21
-110.0455
0
LINE
8
0
10
231.95915
20
-110.0455
11
232.82275
21
-110.0455
0
LINE
8
0
10
232.82275
20
-110.0455
11
232.82275
21
-107.2515
0
LINE
8
0
10
232.82275
20
-107.2515
11
231.95915
21
-107.2515
0
LINE
8
0
10
231.95915
20
-107.2515
11
231.95915
21
-103.8479
0
LINE
8
0
10
248.79375
20
-102.5375
11
260.79375
21
-102.5375
0
LINE
8
0
10
248.79375
20
-116.5375
11
260.79375
21
-116.5375
0
LINE
8
0
10
247.79375
20
-103.5375
11
247.79375
21
-115.5375
0
LINE
8
0
10
261.79375
20
-103.5375
11
261.79375
21
-115.5375
0
ARC
8
0
10
248.79375
20
-103.5375
40
1
50
90
51
180
0
ARC
8
0
10
260.79375
20
-103.5375
40
1
50
0
51
90
0
ARC
8
0
10
248.79375
20
-115.5375
40
1
50
180
51
270
0
ARC
8
0
10
260.79375
20
-115.5375
40
1
50
270
51
0
0
LINE
8
0
10
282.13125
20
-102.5375
11
294.13125
21
-102.5375
0
LINE
8
0
10
282.13125
20
-116.5375
11
294.13125
21
-116.5375
0
LINE
8
0
10
281.13125
20
-103.5375
11
281.13125
21
-115.5375
0
LINE
8
0
10
295.13125
20
-103.5375
11
295.13125
21
-115.5375
0
ARC
8
0
10
282.13125
20
-103.5375
40
1
50
90
51
180
0
ARC
8
0
10
294.13125
20
-103.5375
40
1
50
0
51
90
0
ARC
8
0
10
282.13125
20
-115.5375
40
1
50
180
51
270
0
ARC
8
0
10
294.13125
20
-115.5375
40
1
50
270
51
0
0
LINE
8
0
10
272.86585
20
-103.8479
11
279.52065
21
-103.8479
0
LINE
8
0
10
279.52065
20
-103.8479
11
279.52065
21
-104.6607
0
LINE
8
0
10
279.52065
20
-104.6607
11
288.13125
21
-104.6607
0
LINE
8
0
10
288.13125
20
-115.3541
11
279.52065
21
-115.3541
0
LINE
8
0
10
279.52065
20
-115.3541
11
279.52065
21
-116.1415
0
LINE
8
0
10
279.52065
20
-116.1415
11
277.71725
21
-116.1415
0
LINE
8
0
10
277.71725
20
-116.1415
11
277.71725
21
-117.3099
0
LINE
8
0
10
277.71725
20
-117.3099
11
274.66925
21
-117.3099
0
LINE
8
0
10
274.66925
20
-117.3099
11
274.66925
21
-116.1415
0
LINE
8
0
10
274.66925
20
-116.1415
11
272.86585
21
-116.1415
0
LINE
8
0
10
272.86585
20
-116.1415
11
272.86585
21
-110.0455
0
LINE
8
0
10
272.86585
20
-110.0455
11
272.00225
21
-110.0455
0
LINE
8
0
10
272.00225
20
-110.0455
11
272.00225
21
-107.2515
0
LINE
8
0
10
272.00225
20
-107.2515
11
272.86585
21
-107.2515
0
LINE
8
0
10
272.86585
20
-107.2515
11
272.86585
21
-103.8479
0
LINE
8
0
10
303.39665
20
-103.8479
11
296.74185
21
-103.8479
0
LINE
8
0
10
296.74185
20
-103.8479
11
296.74185
21
-104.6607
0
LINE
8
0
10
296.74185
20
-104.6607
11
288.13125
21
-104.6607
0
LINE
8
0
10
288.13125
20
-115.3541
11
296.74185
21
-115.3541
0
LINE
8
0
10
296.74185
20
-115.3541
11
296.74185
21
-116.1415
0
LINE
8
0
10
296.74185
20
-116.1415
11
298.54525
21
-116.1415
0
LINE
8
0
10
298.54525
20
-116.1415
11
298.54525
21
-117.3099
0
LINE
8
0
10
298.54525
20
-117.3099
11
301.59325
21
-117.3099
0
LINE
8
0
10
301.59325
20
-117.3099
11
301.59325
21
-116.1415
0
LINE
8
0
10
301.59325
20
-116.1415
11
303.39665
21
-116.1415
0
LINE
8
0
10
303.39665
20
-116.1415
11
303.39665
21
-110.0455
0
LINE
8
0
10
303.39665
20
-110.0455
11
304.26025
21
-110.0455
0
LINE
8
0
10
304.26025
20
-110.0455
11
304.26025
21
-107.2515
0
LINE
8
0
10
304.26025
20
-107.2515
11
303.39665
21
-107.2515
0
LINE
8
0
10
303.39665
20
-107.2515
11
303.39665
21
-103.8479
0
LINE
8
0
10
313.0875
20
-102.5375
11
325.0875
21
-102.5375
0
LINE
8
0
10
313.0875
20
-116.5375
11
325.0875
21
-116.5375
0
LINE
8
0
10
312.0875
20
-103.5375
11
312.0875
21
-115.5375
0
LINE
8
0
10
326.0875
20
-103.5375
11
326.0875
21
-115.5375
0
ARC
8
0
10
313.0875
20
-103.5375
40
1
50
90
51
180
0
ARC
8
0
10
325.0875
20
-103.5375
40
1
50
0
51
90
0
ARC
8
0
10
313.0875
20
-115.5375
40
1
50
180
51
270
0
ARC
8
0
10
325.0875
20
-115.5375
40
1
50
270
51
0
0
LINE
8
0
10
332.1375
20
-102.5375
11
344.1375
21
-102.5375
0
LINE
8
0
10
332.1375
20
-116.5375
11
344.1375
21
-116.5375
0
LINE
8
0
10
331.1375
20
-103.5375
11
331.1375
21
-115.5375
0
LINE
8
0
10
345.1375
20
-103.5375
11
345.1375
21
-115.5375
0
ARC
8
0
10
332.1375
20
-103.5375
40
1
50
90
51
180
0
ARC
8
0
10
344.1375
20
-103.5375
40
1
50
0
51
90
0
ARC
8
0
10
332.1375
20
-115.5375
40
1
50
180
51
270
0
ARC
8
0
10
344.1375
20
-115.5375
40
1
50
270
51
0
0
LINE
8
0
10
351.1875
20
-102.5375
11
363.1875
21
-102.5375
0
LINE
8
0
10
351.1875
20
-116.5375
11
363.1875
21
-116.5375
0
LINE
8
0
10
350.1875
20
-103.5375
11
350.1875
21
-115.5375
0
LINE
8
0
10
364.1875
20
-103.5375
11
364.1875
21
-115.5375
0
ARC
8
0
10
351.1875
20
-103.5375
40
1
50
90
51
180
0
ARC
8
0
10
363.1875
20
-103.5375
40
1
50
0
51
90
0
ARC
8
0
10
351.1875
20
-115.5375
40
1
50
180
51
270
0
ARC
8
0
10
363.1875
20
-115.5375
40
1
50
270
51
0
0
LINE
8
0
10
72.58125
20
-107.3
11
84.58125
21
-107.3
0
LINE
8
0
10
72.58125
20
-121.3
11
84.58125
21
-121.3
0
LINE
8
0
10
71.58125
20
-108.3
11
71.58125
21
-120.3
0
LINE
8
0
10
85.58125
20
-108.3
11
85.58125
21
-120.3
0
ARC
8
0
10
72.58125
20
-108.3
40
1
50
90
51
180
0
ARC
8
0
10
84.58125
20
-108.3
40
1
50
0
51
90
0
ARC
8
0
10
72.58125
20
-120.3
40
1
50
180
51
270
0
ARC
8
0
10
84.58125
20
-120.3
40
1
50
270
51
0
0
LINE
8
0
10
91.63125
20
-107.3
11
103.63125
21
-107.3
0
LINE
8
0
10
91.63125
20
-121.3
11
103.63125
21
-121.3
0
LINE
8
0
10
90.63125
20
-108.3
11
90.63125
21
-120.3
0
LINE
8
0
10
104.63125
20
-108.3
11
104.63125
21
-120.3
0
ARC
8
0
10
91.63125
20
-108.3
40
1
50
90
51
180
0
ARC
8
0
10
103.63125
20
-108.3
40
1
50
0
51
90
0
ARC
8
0
10
91.63125
20
-120.3
40
1
50
180
51
270
0
ARC
8
0
10
103.63125
20
-120.3
40
1
50
270
51
0
0
LINE
8
0
10
110.68125
20
-107.3
11
122.68125
21
-107.3
0
LINE
8
0
10
110.68125
20
-121.3
11
122.68125
21
-121.3
0
LINE
8
0
10
109.68125
20
-108.3
11
109.68125
21
-120.3
0
LINE
8
0
10
123.68125
20
-108.3
11
123.68125
21
-120.3
0
ARC
8
0
10
110.68125
20
-108.3
40
1
50
90
51
180
0
ARC
8
0
10
122.68125
20
-108.3
40
1
50
0
51
90
0
ARC
8
0
10
110.68125
20
-120.3
40
1
50
180
51
270
0
ARC
8
0
10
122.68125
20
-120.3
40
1
50
270
51
0
0
LINE
8
0
10
375
20
-107.3
11
387
21
-107.3
0
LINE
8
0
10
375
20
-121.3
11
387
21
-121.3
0
LINE
8
0
10
374
20
-108.3
11
374
21
-120.3
0
LINE
8
0
10
388
20
-108.3
11
388
21
-120.3
0
ARC
8
0
10
375
20
-108.3
40
1
50
90
51
180
0
ARC
8
0
10
387
20
-108.3
40
1
50
0
51
90
0
ARC
8
0
10
375
20
-120.3
40
1
50
180
51
270
0
ARC
8
0
10
387
20
-120.3
40
1
50
270
51
0
0
LINE
8
0
10
394.05
20
-107.3
11
406.05
21
-107.3
0
LINE
8
0
10
394.05
20
-121.3
11
406.05
21
-121.3
0
LINE
8
0
10
393.05
20
-108.3
11
393.05
21
-120.3
0
LINE
8
0
10
407.05
20
-108.3
11
407.05
21
-120.3
0
ARC
8
0
10
394.05
20
-108.3
40
1
50
90
51
180
0
ARC
8
0
10
406.05
20
-108.3
40
1
50
0
51
90
0
ARC
8
0
10
394.05
20
-120.3
40
1
50
180
51
270
0
ARC
8
0
10
406.05
20
-120.3
40
1
50
270
51
0
0
LINE
8
0
10
413.1
20
-107.3
11
425.1
21
-107.3
0
LINE
8
0
10
413.1
20
-121.3
11
425.1
21
-121.3
0
LINE
8
0
10
412.1
20
-108.3
11
412.1
21
-120.3
0
LINE
8
0
10
426.1
20
-108.3
11
426.1
21
-120.3
0
ARC
8
0
10
413.1
20
-108.3
40
1
50
90
51
180
0
ARC
8
0
10
425.1
20
-108.3
40
1
50
0
51
90
0
ARC
8
0
10
413.1
20
-120.3
40
1
50
180
51
270
0
ARC
8
0
10
425.1
20
-120.3
40
1
50
270
51
0
0
LINE
8
0
10
0
20
-123.825
11
433.3875
21
-123.825
0
LINE
8
0
10
0
20
0
11
433.3875
21
0
0
LINE
8
0
10
0
20
-123.825
11
0
21
0
0
LINE
8
0
10
433.3875
20
-123.825
11
433.3875
21
0
0
ENDSEC
0
EOF