  0
SECTION
  2
HEADER
  9
$ACADVER
  1
AC1009
  9
$FILLMODE
 70
 0
  9
$SPLFRAME
 70
 1
  9
$EXTMIN
 10
0
 20
0
 30
0.0
  9
$EXTMAX
 10
1058.33
 20
1058.33
 30
0.0
  0
ENDSEC
  0
SECTION
  2
TABLES
  0
TABLE
  2
LAYER
 70
1
  0
LAYER
  2
0
 70
     0
 62
     7
  6
CONTINUOUS
  0
ENDTAB
  0
ENDSEC
  0
SECTION
  2
ENTITIES
  0
LINE
  8
0
 62
     0
 10
0.0950846
 20
124.083
 30
0.0
 11
428.72
 21
124.083
 31
0.0
  0
LINE
  8
0
 62
     0
 10
428.72
 20
124.083
 30
0.0
 11
428.72
 21
0.257693
 31
0.0
  0
LINE
  8
0
 62
     0
 10
428.72
 20
0.257693
 30
0.0
 11
0.0950846
 21
0.257693
 31
0.0
  0
LINE
  8
0
 62
     0
 10
0.0950846
 20
0.257693
 30
0.0
 11
0.0950846
 21
124.083
 31
0.0
  0
LINE
  8
0
 62
     0
 10
69.2947
 20
16.7831
 30
0.0
 11
83.294
 21
16.7831
 31
0.0
  0
LINE
  8
0
 62
     0
 10
83.294
 20
16.7831
 30
0.0
 11
83.294
 21
2.78364
 31
0.0
  0
LINE
  8
0
 62
     0
 10
83.294
 20
2.78364
 30
0.0
 11
69.2947
 21
2.78364
 31
0.0
  0
LINE
  8
0
 62
     0
 10
69.2947
 20
2.78364
 30
0.0
 11
69.2947
 21
16.7831
 31
0.0
  0
LINE
  8
0
 62
     0
 10
88.3447
 20
16.7831
 30
0.0
 11
102.344
 21
16.7831
 31
0.0
  0
LINE
  8
0
 62
     0
 10
102.344
 20
16.7831
 30
0.0
 11
102.344
 21
2.78364
 31
0.0
  0
LINE
  8
0
 62
     0
 10
102.344
 20
2.78364
 30
0.0
 11
88.3447
 21
2.78364
 31
0.0
  0
LINE
  8
0
 62
     0
 10
88.3447
 20
2.78364
 30
0.0
 11
88.3447
 21
16.7831
 31
0.0
  0
LINE
  8
0
 62
     0
 10
107.395
 20
16.7831
 30
0.0
 11
121.394
 21
16.7831
 31
0.0
  0
LINE
  8
0
 62
     0
 10
121.394
 20
16.7831
 30
0.0
 11
121.394
 21
2.78364
 31
0.0
  0
LINE
  8
0
 62
     0
 10
121.394
 20
2.78364
 30
0.0
 11
107.395
 21
2.78364
 31
0.0
  0
LINE
  8
0
 62
     0
 10
107.395
 20
2.78364
 30
0.0
 11
107.395
 21
16.7831
 31
0.0
  0
LINE
  8
0
 62
     0
 10
369.334
 20
16.7831
 30
0.0
 11
383.332
 21
16.7831
 31
0.0
  0
LINE
  8
0
 62
     0
 10
383.332
 20
16.7831
 30
0.0
 11
383.332
 21
2.78364
 31
0.0
  0
LINE
  8
0
 62
     0
 10
383.332
 20
2.78364
 30
0.0
 11
369.334
 21
2.78364
 31
0.0
  0
LINE
  8
0
 62
     0
 10
369.334
 20
2.78364
 30
0.0
 11
369.334
 21
16.7831
 31
0.0
  0
LINE
  8
0
 62
     0
 10
388.384
 20
16.7831
 30
0.0
 11
402.382
 21
16.7831
 31
0.0
  0
LINE
  8
0
 62
     0
 10
402.382
 20
16.7831
 30
0.0
 11
402.382
 21
2.78364
 31
0.0
  0
LINE
  8
0
 62
     0
 10
402.382
 20
2.78364
 30
0.0
 11
388.384
 21
2.78364
 31
0.0
  0
LINE
  8
0
 62
     0
 10
388.384
 20
2.78364
 30
0.0
 11
388.384
 21
16.7831
 31
0.0
  0
LINE
  8
0
 62
     0
 10
407.434
 20
16.7831
 30
0.0
 11
421.432
 21
16.7831
 31
0.0
  0
LINE
  8
0
 62
     0
 10
421.432
 20
16.7831
 30
0.0
 11
421.432
 21
2.78364
 31
0.0
  0
LINE
  8
0
 62
     0
 10
421.432
 20
2.78364
 30
0.0
 11
407.434
 21
2.78364
 31
0.0
  0
LINE
  8
0
 62
     0
 10
407.434
 20
2.78364
 30
0.0
 11
407.434
 21
16.7831
 31
0.0
  0
LINE
  8
0
 62
     0
 10
205.026
 20
21.5456
 30
0.0
 11
205.026
 21
16.8465
 31
0.0
  0
LINE
  8
0
 62
     0
 10
205.026
 20
16.8465
 30
0.0
 11
203.501
 21
16.8465
 31
0.0
  0
LINE
  8
0
 62
     0
 10
203.501
 20
16.8465
 30
0.0
 11
203.501
 21
20.0767
 31
0.0
  0
LINE
  8
0
 62
     0
 10
203.501
 20
20.0767
 30
0.0
 11
196.751
 21
20.0767
 31
0.0
  0
LINE
  8
0
 62
     0
 10
196.751
 20
20.0767
 30
0.0
 11
196.751
 21
16.8465
 31
0.0
  0
LINE
  8
0
 62
     0
 10
196.751
 20
16.8465
 30
0.0
 11
195.925
 21
16.8465
 31
0.0
  0
LINE
  8
0
 62
     0
 10
195.925
 20
16.8465
 30
0.0
 11
195.925
 21
14.0463
 31
0.0
  0
LINE
  8
0
 62
     0
 10
195.925
 20
14.0463
 30
0.0
 11
196.751
 21
14.0463
 31
0.0
  0
LINE
  8
0
 62
     0
 10
196.751
 20
14.0463
 30
0.0
 11
196.751
 21
7.77628
 31
0.0
  0
LINE
  8
0
 62
     0
 10
196.751
 20
7.77628
 30
0.0
 11
198.476
 21
7.77628
 31
0.0
  0
LINE
  8
0
 62
     0
 10
198.476
 20
7.77628
 30
0.0
 11
198.476
 21
6.57599
 31
0.0
  0
LINE
  8
0
 62
     0
 10
198.476
 20
6.57599
 30
0.0
 11
201.775
 21
6.57599
 31
0.0
  0
LINE
  8
0
 62
     0
 10
201.775
 20
6.57599
 30
0.0
 11
201.775
 21
7.77628
 31
0.0
  0
LINE
  8
0
 62
     0
 10
201.775
 20
7.77628
 30
0.0
 11
203.501
 21
7.77628
 31
0.0
  0
LINE
  8
0
 62
     0
 10
203.501
 20
7.77628
 30
0.0
 11
203.501
 21
12.2466
 31
0.0
  0
LINE
  8
0
 62
     0
 10
203.501
 20
12.2466
 30
0.0
 11
205.026
 21
12.2466
 31
0.0
  0
LINE
  8
0
 62
     0
 10
205.026
 20
12.2466
 30
0.0
 11
205.026
 21
7.54613
 31
0.0
  0
LINE
  8
0
 62
     0
 10
205.026
 20
7.54613
 30
0.0
 11
219.025
 21
7.54613
 31
0.0
  0
LINE
  8
0
 62
     0
 10
219.025
 20
7.54613
 30
0.0
 11
219.025
 21
12.2466
 31
0.0
  0
LINE
  8
0
 62
     0
 10
219.025
 20
12.2466
 30
0.0
 11
220.551
 21
12.2466
 31
0.0
  0
LINE
  8
0
 62
     0
 10
220.551
 20
12.2466
 30
0.0
 11
220.551
 21
7.77628
 31
0.0
  0
LINE
  8
0
 62
     0
 10
220.551
 20
7.77628
 30
0.0
 11
222.275
 21
7.77628
 31
0.0
  0
LINE
  8
0
 62
     0
 10
222.275
 20
7.77628
 30
0.0
 11
222.275
 21
6.57599
 31
0.0
  0
LINE
  8
0
 62
     0
 10
222.275
 20
6.57599
 30
0.0
 11
225.575
 21
6.57599
 31
0.0
  0
LINE
  8
0
 62
     0
 10
225.575
 20
6.57599
 30
0.0
 11
225.575
 21
7.77628
 31
0.0
  0
LINE
  8
0
 62
     0
 10
225.575
 20
7.77628
 30
0.0
 11
227.3
 21
7.77628
 31
0.0
  0
LINE
  8
0
 62
     0
 10
227.3
 20
7.77628
 30
0.0
 11
227.3
 21
14.0463
 31
0.0
  0
LINE
  8
0
 62
     0
 10
227.3
 20
14.0463
 30
0.0
 11
228.126
 21
14.0463
 31
0.0
  0
LINE
  8
0
 62
     0
 10
228.126
 20
14.0463
 30
0.0
 11
228.126
 21
16.8465
 31
0.0
  0
LINE
  8
0
 62
     0
 10
228.126
 20
16.8465
 30
0.0
 11
227.3
 21
16.8465
 31
0.0
  0
LINE
  8
0
 62
     0
 10
227.3
 20
16.8465
 30
0.0
 11
227.3
 21
20.0767
 31
0.0
  0
LINE
  8
0
 62
     0
 10
227.3
 20
20.0767
 30
0.0
 11
220.551
 21
20.0767
 31
0.0
  0
LINE
  8
0
 62
     0
 10
220.551
 20
20.0767
 30
0.0
 11
220.551
 21
16.8465
 31
0.0
  0
LINE
  8
0
 62
     0
 10
220.551
 20
16.8465
 30
0.0
 11
219.025
 21
16.8465
 31
0.0
  0
LINE
  8
0
 62
     0
 10
219.025
 20
16.8465
 30
0.0
 11
219.025
 21
21.5456
 31
0.0
  0
LINE
  8
0
 62
     0
 10
219.025
 20
21.5456
 30
0.0
 11
205.026
 21
21.5456
 31
0.0
  0
LINE
  8
0
 62
     0
 10
276.462
 20
21.5456
 30
0.0
 11
276.462
 21
16.8465
 31
0.0
  0
LINE
  8
0
 62
     0
 10
276.462
 20
16.8465
 30
0.0
 11
274.938
 21
16.8465
 31
0.0
  0
LINE
  8
0
 62
     0
 10
274.938
 20
16.8465
 30
0.0
 11
274.938
 21
20.0767
 31
0.0
  0
LINE
  8
0
 62
     0
 10
274.938
 20
20.0767
 30
0.0
 11
268.187
 21
20.0767
 31
0.0
  0
LINE
  8
0
 62
     0
 10
268.187
 20
20.0767
 30
0.0
 11
268.187
 21
16.8465
 31
0.0
  0
LINE
  8
0
 62
     0
 10
268.187
 20
16.8465
 30
0.0
 11
267.363
 21
16.8465
 31
0.0
  0
LINE
  8
0
 62
     0
 10
267.363
 20
16.8465
 30
0.0
 11
267.363
 21
14.0463
 31
0.0
  0
LINE
  8
0
 62
     0
 10
267.363
 20
14.0463
 30
0.0
 11
268.187
 21
14.0463
 31
0.0
  0
LINE
  8
0
 62
     0
 10
268.187
 20
14.0463
 30
0.0
 11
268.187
 21
7.77628
 31
0.0
  0
LINE
  8
0
 62
     0
 10
268.187
 20
7.77628
 30
0.0
 11
269.912
 21
7.77628
 31
0.0
  0
LINE
  8
0
 62
     0
 10
269.912
 20
7.77628
 30
0.0
 11
269.912
 21
6.57599
 31
0.0
  0
LINE
  8
0
 62
     0
 10
269.912
 20
6.57599
 30
0.0
 11
273.213
 21
6.57599
 31
0.0
  0
LINE
  8
0
 62
     0
 10
273.213
 20
6.57599
 30
0.0
 11
273.213
 21
7.77628
 31
0.0
  0
LINE
  8
0
 62
     0
 10
273.213
 20
7.77628
 30
0.0
 11
274.938
 21
7.77628
 31
0.0
  0
LINE
  8
0
 62
     0
 10
274.938
 20
7.77628
 30
0.0
 11
274.938
 21
12.2466
 31
0.0
  0
LINE
  8
0
 62
     0
 10
274.938
 20
12.2466
 30
0.0
 11
276.462
 21
12.2466
 31
0.0
  0
LINE
  8
0
 62
     0
 10
276.462
 20
12.2466
 30
0.0
 11
276.462
 21
7.54613
 31
0.0
  0
LINE
  8
0
 62
     0
 10
276.462
 20
7.54613
 30
0.0
 11
290.463
 21
7.54613
 31
0.0
  0
LINE
  8
0
 62
     0
 10
290.463
 20
7.54613
 30
0.0
 11
290.463
 21
12.2466
 31
0.0
  0
LINE
  8
0
 62
     0
 10
290.463
 20
12.2466
 30
0.0
 11
291.987
 21
12.2466
 31
0.0
  0
LINE
  8
0
 62
     0
 10
291.987
 20
12.2466
 30
0.0
 11
291.987
 21
7.77628
 31
0.0
  0
LINE
  8
0
 62
     0
 10
291.987
 20
7.77628
 30
0.0
 11
293.712
 21
7.77628
 31
0.0
  0
LINE
  8
0
 62
     0
 10
293.712
 20
7.77628
 30
0.0
 11
293.712
 21
6.57599
 31
0.0
  0
LINE
  8
0
 62
     0
 10
293.712
 20
6.57599
 30
0.0
 11
297.013
 21
6.57599
 31
0.0
  0
LINE
  8
0
 62
     0
 10
297.013
 20
6.57599
 30
0.0
 11
297.013
 21
7.77628
 31
0.0
  0
LINE
  8
0
 62
     0
 10
297.013
 20
7.77628
 30
0.0
 11
298.738
 21
7.77628
 31
0.0
  0
LINE
  8
0
 62
     0
 10
298.738
 20
7.77628
 30
0.0
 11
298.738
 21
14.0463
 31
0.0
  0
LINE
  8
0
 62
     0
 10
298.738
 20
14.0463
 30
0.0
 11
299.562
 21
14.0463
 31
0.0
  0
LINE
  8
0
 62
     0
 10
299.562
 20
14.0463
 30
0.0
 11
299.562
 21
16.8465
 31
0.0
  0
LINE
  8
0
 62
     0
 10
299.562
 20
16.8465
 30
0.0
 11
298.738
 21
16.8465
 31
0.0
  0
LINE
  8
0
 62
     0
 10
298.738
 20
16.8465
 30
0.0
 11
298.738
 21
20.0767
 31
0.0
  0
LINE
  8
0
 62
     0
 10
298.738
 20
20.0767
 30
0.0
 11
291.987
 21
20.0767
 31
0.0
  0
LINE
  8
0
 62
     0
 10
291.987
 20
20.0767
 30
0.0
 11
291.987
 21
16.8465
 31
0.0
  0
LINE
  8
0
 62
     0
 10
291.987
 20
16.8465
 30
0.0
 11
290.463
 21
16.8465
 31
0.0
  0
LINE
  8
0
 62
     0
 10
290.463
 20
16.8465
 30
0.0
 11
290.463
 21
21.5456
 31
0.0
  0
LINE
  8
0
 62
     0
 10
290.463
 20
21.5456
 30
0.0
 11
276.462
 21
21.5456
 31
0.0
  0
LINE
  8
0
 62
     0
 10
21.6697
 20
21.5456
 30
0.0
 11
35.669
 21
21.5456
 31
0.0
  0
LINE
  8
0
 62
     0
 10
35.669
 20
21.5456
 30
0.0
 11
35.669
 21
7.54613
 31
0.0
  0
LINE
  8
0
 62
     0
 10
35.669
 20
7.54613
 30
0.0
 11
21.6697
 21
7.54613
 31
0.0
  0
LINE
  8
0
 62
     0
 10
21.6697
 20
7.54613
 30
0.0
 11
21.6697
 21
21.5456
 31
0.0
  0
LINE
  8
0
 62
     0
 10
40.7197
 20
21.5456
 30
0.0
 11
54.719
 21
21.5456
 31
0.0
  0
LINE
  8
0
 62
     0
 10
54.719
 20
21.5456
 30
0.0
 11
54.719
 21
7.54613
 31
0.0
  0
LINE
  8
0
 62
     0
 10
54.719
 20
7.54613
 30
0.0
 11
40.7197
 21
7.54613
 31
0.0
  0
LINE
  8
0
 62
     0
 10
40.7197
 20
7.54613
 30
0.0
 11
40.7197
 21
21.5456
 31
0.0
  0
LINE
  8
0
 62
     0
 10
135.97
 20
21.5456
 30
0.0
 11
149.969
 21
21.5456
 31
0.0
  0
LINE
  8
0
 62
     0
 10
149.969
 20
21.5456
 30
0.0
 11
149.969
 21
7.54613
 31
0.0
  0
LINE
  8
0
 62
     0
 10
149.969
 20
7.54613
 30
0.0
 11
135.97
 21
7.54613
 31
0.0
  0
LINE
  8
0
 62
     0
 10
135.97
 20
7.54613
 30
0.0
 11
135.97
 21
21.5456
 31
0.0
  0
LINE
  8
0
 62
     0
 10
164.545
 20
21.5456
 30
0.0
 11
178.544
 21
21.5456
 31
0.0
  0
LINE
  8
0
 62
     0
 10
178.544
 20
21.5456
 30
0.0
 11
178.544
 21
7.54613
 31
0.0
  0
LINE
  8
0
 62
     0
 10
178.544
 20
7.54613
 30
0.0
 11
164.545
 21
7.54613
 31
0.0
  0
LINE
  8
0
 62
     0
 10
164.545
 20
7.54613
 30
0.0
 11
164.545
 21
21.5456
 31
0.0
  0
LINE
  8
0
 62
     0
 10
243.126
 20
21.5456
 30
0.0
 11
257.125
 21
21.5456
 31
0.0
  0
LINE
  8
0
 62
     0
 10
257.125
 20
21.5456
 30
0.0
 11
257.125
 21
7.54613
 31
0.0
  0
LINE
  8
0
 62
     0
 10
257.125
 20
7.54613
 30
0.0
 11
243.126
 21
7.54613
 31
0.0
  0
LINE
  8
0
 62
     0
 10
243.126
 20
7.54613
 30
0.0
 11
243.126
 21
21.5456
 31
0.0
  0
LINE
  8
0
 62
     0
 10
312.182
 20
21.5456
 30
0.0
 11
326.182
 21
21.5456
 31
0.0
  0
LINE
  8
0
 62
     0
 10
326.182
 20
21.5456
 30
0.0
 11
326.182
 21
7.54613
 31
0.0
  0
LINE
  8
0
 62
     0
 10
326.182
 20
7.54613
 30
0.0
 11
312.182
 21
7.54613
 31
0.0
  0
LINE
  8
0
 62
     0
 10
312.182
 20
7.54613
 30
0.0
 11
312.182
 21
21.5456
 31
0.0
  0
LINE
  8
0
 62
     0
 10
340.757
 20
21.5456
 30
0.0
 11
354.757
 21
21.5456
 31
0.0
  0
LINE
  8
0
 62
     0
 10
354.757
 20
21.5456
 30
0.0
 11
354.757
 21
7.54613
 31
0.0
  0
LINE
  8
0
 62
     0
 10
354.757
 20
7.54613
 30
0.0
 11
340.757
 21
7.54613
 31
0.0
  0
LINE
  8
0
 62
     0
 10
340.757
 20
7.54613
 30
0.0
 11
340.757
 21
21.5456
 31
0.0
  0
LINE
  8
0
 62
     0
 10
9.11849
 20
40.1712
 30
0.0
 11
9.11849
 21
39.3457
 31
0.0
  0
LINE
  8
0
 62
     0
 10
9.11849
 20
39.3457
 30
0.0
 11
2.84978
 21
39.3457
 31
0.0
  0
LINE
  8
0
 62
     0
 10
2.84978
 20
39.3457
 30
0.0
 11
2.84978
 21
37.622
 31
0.0
  0
LINE
  8
0
 62
     0
 10
2.84978
 20
37.622
 30
0.0
 11
1.64951
 21
37.622
 31
0.0
  0
LINE
  8
0
 62
     0
 10
1.64951
 20
37.622
 30
0.0
 11
1.64951
 21
34.3214
 31
0.0
  0
LINE
  8
0
 62
     0
 10
1.64951
 20
34.3214
 30
0.0
 11
2.84978
 21
34.3214
 31
0.0
  0
LINE
  8
0
 62
     0
 10
2.84978
 20
34.3214
 30
0.0
 11
2.84978
 21
32.5961
 31
0.0
  0
LINE
  8
0
 62
     0
 10
2.84978
 20
32.5961
 30
0.0
 11
7.32014
 21
32.5961
 31
0.0
  0
LINE
  8
0
 62
     0
 10
7.32014
 20
32.5961
 30
0.0
 11
7.32014
 21
31.0706
 31
0.0
  0
LINE
  8
0
 62
     0
 10
7.32014
 20
31.0706
 30
0.0
 11
2.61965
 21
31.0706
 31
0.0
  0
LINE
  8
0
 62
     0
 10
2.61965
 20
31.0706
 30
0.0
 11
2.61965
 21
17.0711
 31
0.0
  0
LINE
  8
0
 62
     0
 10
2.61965
 20
17.0711
 30
0.0
 11
7.32014
 21
17.0711
 31
0.0
  0
LINE
  8
0
 62
     0
 10
7.32014
 20
17.0711
 30
0.0
 11
7.32014
 21
15.5456
 31
0.0
  0
LINE
  8
0
 62
     0
 10
7.32014
 20
15.5456
 30
0.0
 11
2.84978
 21
15.5456
 31
0.0
  0
LINE
  8
0
 62
     0
 10
2.84978
 20
15.5456
 30
0.0
 11
2.84978
 21
13.8217
 31
0.0
  0
LINE
  8
0
 62
     0
 10
2.84978
 20
13.8217
 30
0.0
 11
1.64951
 21
13.8217
 31
0.0
  0
LINE
  8
0
 62
     0
 10
1.64951
 20
13.8217
 30
0.0
 11
1.64951
 21
10.5213
 31
0.0
  0
LINE
  8
0
 62
     0
 10
1.64951
 20
10.5213
 30
0.0
 11
2.84978
 21
10.5213
 31
0.0
  0
LINE
  8
0
 62
     0
 10
2.84978
 20
10.5213
 30
0.0
 11
2.84978
 21
8.79602
 31
0.0
  0
LINE
  8
0
 62
     0
 10
2.84978
 20
8.79602
 30
0.0
 11
9.11987
 21
8.79602
 31
0.0
  0
LINE
  8
0
 62
     0
 10
9.11987
 20
8.79602
 30
0.0
 11
9.11987
 21
7.97197
 31
0.0
  0
LINE
  8
0
 62
     0
 10
9.11987
 20
7.97197
 30
0.0
 11
11.92
 21
7.97197
 31
0.0
  0
LINE
  8
0
 62
     0
 10
11.92
 20
7.97197
 30
0.0
 11
11.92
 21
8.79602
 31
0.0
  0
LINE
  8
0
 62
     0
 10
11.92
 20
8.79602
 30
0.0
 11
15.1501
 21
8.79602
 31
0.0
  0
LINE
  8
0
 62
     0
 10
15.1501
 20
8.79602
 30
0.0
 11
15.1501
 21
15.5456
 31
0.0
  0
LINE
  8
0
 62
     0
 10
15.1501
 20
15.5456
 30
0.0
 11
11.92
 21
15.5456
 31
0.0
  0
LINE
  8
0
 62
     0
 10
11.92
 20
15.5456
 30
0.0
 11
11.92
 21
17.0711
 31
0.0
  0
LINE
  8
0
 62
     0
 10
11.92
 20
17.0711
 30
0.0
 11
16.6192
 21
17.0711
 31
0.0
  0
LINE
  8
0
 62
     0
 10
16.6192
 20
17.0711
 30
0.0
 11
16.6192
 21
31.0706
 31
0.0
  0
LINE
  8
0
 62
     0
 10
16.6192
 20
31.0706
 30
0.0
 11
11.92
 21
31.0706
 31
0.0
  0
LINE
  8
0
 62
     0
 10
11.92
 20
31.0706
 30
0.0
 11
11.92
 21
32.5961
 31
0.0
  0
LINE
  8
0
 62
     0
 10
11.92
 20
32.5961
 30
0.0
 11
15.1501
 21
32.5961
 31
0.0
  0
LINE
  8
0
 62
     0
 10
15.1501
 20
32.5961
 30
0.0
 11
15.1501
 21
39.3457
 31
0.0
  0
LINE
  8
0
 62
     0
 10
15.1501
 20
39.3457
 30
0.0
 11
11.92
 21
39.3457
 31
0.0
  0
LINE
  8
0
 62
     0
 10
11.92
 20
39.3457
 30
0.0
 11
11.92
 21
40.1712
 31
0.0
  0
LINE
  8
0
 62
     0
 10
11.92
 20
40.1712
 30
0.0
 11
9.11849
 21
40.1712
 31
0.0
  0
LINE
  8
0
 62
     0
 10
88.3447
 20
35.833
 30
0.0
 11
102.344
 21
35.833
 31
0.0
  0
LINE
  8
0
 62
     0
 10
102.344
 20
35.833
 30
0.0
 11
102.344
 21
21.8336
 31
0.0
  0
LINE
  8
0
 62
     0
 10
102.344
 20
21.8336
 30
0.0
 11
88.3447
 21
21.8336
 31
0.0
  0
LINE
  8
0
 62
     0
 10
88.3447
 20
21.8336
 30
0.0
 11
88.3447
 21
35.833
 31
0.0
  0
LINE
  8
0
 62
     0
 10
388.384
 20
35.833
 30
0.0
 11
402.382
 21
35.833
 31
0.0
  0
LINE
  8
0
 62
     0
 10
402.382
 20
35.833
 30
0.0
 11
402.382
 21
21.8336
 31
0.0
  0
LINE
  8
0
 62
     0
 10
402.382
 20
21.8336
 30
0.0
 11
388.384
 21
21.8336
 31
0.0
  0
LINE
  8
0
 62
     0
 10
388.384
 20
21.8336
 30
0.0
 11
388.384
 21
35.833
 31
0.0
  0
LINE
  8
0
 62
     0
 10
128.826
 20
40.5955
 30
0.0
 11
128.826
 21
35.8965
 31
0.0
  0
LINE
  8
0
 62
     0
 10
128.826
 20
35.8965
 30
0.0
 11
127.301
 21
35.8965
 31
0.0
  0
LINE
  8
0
 62
     0
 10
127.301
 20
35.8965
 30
0.0
 11
127.301
 21
39.1266
 31
0.0
  0
LINE
  8
0
 62
     0
 10
127.301
 20
39.1266
 30
0.0
 11
120.551
 21
39.1266
 31
0.0
  0
LINE
  8
0
 62
     0
 10
120.551
 20
39.1266
 30
0.0
 11
120.551
 21
35.8965
 31
0.0
  0
LINE
  8
0
 62
     0
 10
120.551
 20
35.8965
 30
0.0
 11
119.725
 21
35.8965
 31
0.0
  0
LINE
  8
0
 62
     0
 10
119.725
 20
35.8965
 30
0.0
 11
119.725
 21
33.0963
 31
0.0
  0
LINE
  8
0
 62
     0
 10
119.725
 20
33.0963
 30
0.0
 11
120.551
 21
33.0963
 31
0.0
  0
LINE
  8
0
 62
     0
 10
120.551
 20
33.0963
 30
0.0
 11
120.551
 21
26.8263
 31
0.0
  0
LINE
  8
0
 62
     0
 10
120.551
 20
26.8263
 30
0.0
 11
122.276
 21
26.8263
 31
0.0
  0
LINE
  8
0
 62
     0
 10
122.276
 20
26.8263
 30
0.0
 11
122.276
 21
25.626
 31
0.0
  0
LINE
  8
0
 62
     0
 10
122.276
 20
25.626
 30
0.0
 11
125.575
 21
25.626
 31
0.0
  0
LINE
  8
0
 62
     0
 10
125.575
 20
25.626
 30
0.0
 11
125.575
 21
26.8263
 31
0.0
  0
LINE
  8
0
 62
     0
 10
125.575
 20
26.8263
 30
0.0
 11
127.301
 21
26.8263
 31
0.0
  0
LINE
  8
0
 62
     0
 10
127.301
 20
26.8263
 30
0.0
 11
127.301
 21
31.2966
 31
0.0
  0
LINE
  8
0
 62
     0
 10
127.301
 20
31.2966
 30
0.0
 11
128.826
 21
31.2966
 31
0.0
  0
LINE
  8
0
 62
     0
 10
128.826
 20
31.2966
 30
0.0
 11
128.826
 21
26.5961
 31
0.0
  0
LINE
  8
0
 62
     0
 10
128.826
 20
26.5961
 30
0.0
 11
142.825
 21
26.5961
 31
0.0
  0
LINE
  8
0
 62
     0
 10
142.825
 20
26.5961
 30
0.0
 11
142.825
 21
31.2966
 31
0.0
  0
LINE
  8
0
 62
     0
 10
142.825
 20
31.2966
 30
0.0
 11
144.351
 21
31.2966
 31
0.0
  0
LINE
  8
0
 62
     0
 10
144.351
 20
31.2966
 30
0.0
 11
144.351
 21
26.8263
 31
0.0
  0
LINE
  8
0
 62
     0
 10
144.351
 20
26.8263
 30
0.0
 11
146.075
 21
26.8263
 31
0.0
  0
LINE
  8
0
 62
     0
 10
146.075
 20
26.8263
 30
0.0
 11
146.075
 21
25.626
 31
0.0
  0
LINE
  8
0
 62
     0
 10
146.075
 20
25.626
 30
0.0
 11
149.375
 21
25.626
 31
0.0
  0
LINE
  8
0
 62
     0
 10
149.375
 20
25.626
 30
0.0
 11
149.375
 21
26.8263
 31
0.0
  0
LINE
  8
0
 62
     0
 10
149.375
 20
26.8263
 30
0.0
 11
151.1
 21
26.8263
 31
0.0
  0
LINE
  8
0
 62
     0
 10
151.1
 20
26.8263
 30
0.0
 11
151.1
 21
33.0963
 31
0.0
  0
LINE
  8
0
 62
     0
 10
151.1
 20
33.0963
 30
0.0
 11
151.926
 21
33.0963
 31
0.0
  0
LINE
  8
0
 62
     0
 10
151.926
 20
33.0963
 30
0.0
 11
151.926
 21
35.8965
 31
0.0
  0
LINE
  8
0
 62
     0
 10
151.926
 20
35.8965
 30
0.0
 11
151.1
 21
35.8965
 31
0.0
  0
LINE
  8
0
 62
     0
 10
151.1
 20
35.8965
 30
0.0
 11
151.1
 21
39.1266
 31
0.0
  0
LINE
  8
0
 62
     0
 10
151.1
 20
39.1266
 30
0.0
 11
144.351
 21
39.1266
 31
0.0
  0
LINE
  8
0
 62
     0
 10
144.351
 20
39.1266
 30
0.0
 11
144.351
 21
35.8965
 31
0.0
  0
LINE
  8
0
 62
     0
 10
144.351
 20
35.8965
 30
0.0
 11
142.825
 21
35.8965
 31
0.0
  0
LINE
  8
0
 62
     0
 10
142.825
 20
35.8965
 30
0.0
 11
142.825
 21
40.5955
 31
0.0
  0
LINE
  8
0
 62
     0
 10
142.825
 20
40.5955
 30
0.0
 11
128.826
 21
40.5955
 31
0.0
  0
LINE
  8
0
 62
     0
 10
21.6697
 20
40.5955
 30
0.0
 11
35.669
 21
40.5955
 31
0.0
  0
LINE
  8
0
 62
     0
 10
35.669
 20
40.5955
 30
0.0
 11
35.669
 21
26.5961
 31
0.0
  0
LINE
  8
0
 62
     0
 10
35.669
 20
26.5961
 30
0.0
 11
21.6697
 21
26.5961
 31
0.0
  0
LINE
  8
0
 62
     0
 10
21.6697
 20
26.5961
 30
0.0
 11
21.6697
 21
40.5955
 31
0.0
  0
LINE
  8
0
 62
     0
 10
40.7197
 20
40.5955
 30
0.0
 11
54.719
 21
40.5955
 31
0.0
  0
LINE
  8
0
 62
     0
 10
54.719
 20
40.5955
 30
0.0
 11
54.719
 21
26.5961
 31
0.0
  0
LINE
  8
0
 62
     0
 10
54.719
 20
26.5961
 30
0.0
 11
40.7197
 21
26.5961
 31
0.0
  0
LINE
  8
0
 62
     0
 10
40.7197
 20
26.5961
 30
0.0
 11
40.7197
 21
40.5955
 31
0.0
  0
LINE
  8
0
 62
     0
 10
59.7697
 20
40.5955
 30
0.0
 11
73.769
 21
40.5955
 31
0.0
  0
LINE
  8
0
 62
     0
 10
73.769
 20
40.5955
 30
0.0
 11
73.769
 21
26.5961
 31
0.0
  0
LINE
  8
0
 62
     0
 10
73.769
 20
26.5961
 30
0.0
 11
59.7697
 21
26.5961
 31
0.0
  0
LINE
  8
0
 62
     0
 10
59.7697
 20
26.5961
 30
0.0
 11
59.7697
 21
40.5955
 31
0.0
  0
LINE
  8
0
 62
     0
 10
159.782
 20
40.5955
 30
0.0
 11
173.782
 21
40.5955
 31
0.0
  0
LINE
  8
0
 62
     0
 10
173.782
 20
40.5955
 30
0.0
 11
173.782
 21
26.5961
 31
0.0
  0
LINE
  8
0
 62
     0
 10
173.782
 20
26.5961
 30
0.0
 11
159.782
 21
26.5961
 31
0.0
  0
LINE
  8
0
 62
     0
 10
159.782
 20
26.5961
 30
0.0
 11
159.782
 21
40.5955
 31
0.0
  0
LINE
  8
0
 62
     0
 10
178.832
 20
40.5955
 30
0.0
 11
192.832
 21
40.5955
 31
0.0
  0
LINE
  8
0
 62
     0
 10
192.832
 20
40.5955
 30
0.0
 11
192.832
 21
26.5961
 31
0.0
  0
LINE
  8
0
 62
     0
 10
192.832
 20
26.5961
 30
0.0
 11
178.832
 21
26.5961
 31
0.0
  0
LINE
  8
0
 62
     0
 10
178.832
 20
26.5961
 30
0.0
 11
178.832
 21
40.5955
 31
0.0
  0
LINE
  8
0
 62
     0
 10
197.882
 20
40.5955
 30
0.0
 11
211.882
 21
40.5955
 31
0.0
  0
LINE
  8
0
 62
     0
 10
211.882
 20
40.5955
 30
0.0
 11
211.882
 21
26.5961
 31
0.0
  0
LINE
  8
0
 62
     0
 10
211.882
 20
26.5961
 30
0.0
 11
197.882
 21
26.5961
 31
0.0
  0
LINE
  8
0
 62
     0
 10
197.882
 20
26.5961
 30
0.0
 11
197.882
 21
40.5955
 31
0.0
  0
LINE
  8
0
 62
     0
 10
216.932
 20
40.5955
 30
0.0
 11
230.932
 21
40.5955
 31
0.0
  0
LINE
  8
0
 62
     0
 10
230.932
 20
40.5955
 30
0.0
 11
230.932
 21
26.5961
 31
0.0
  0
LINE
  8
0
 62
     0
 10
230.932
 20
26.5961
 30
0.0
 11
216.932
 21
26.5961
 31
0.0
  0
LINE
  8
0
 62
     0
 10
216.932
 20
26.5961
 30
0.0
 11
216.932
 21
40.5955
 31
0.0
  0
LINE
  8
0
 62
     0
 10
235.982
 20
40.5955
 30
0.0
 11
249.982
 21
40.5955
 31
0.0
  0
LINE
  8
0
 62
     0
 10
249.982
 20
40.5955
 30
0.0
 11
249.982
 21
26.5961
 31
0.0
  0
LINE
  8
0
 62
     0
 10
249.982
 20
26.5961
 30
0.0
 11
235.982
 21
26.5961
 31
0.0
  0
LINE
  8
0
 62
     0
 10
235.982
 20
26.5961
 30
0.0
 11
235.982
 21
40.5955
 31
0.0
  0
LINE
  8
0
 62
     0
 10
255.032
 20
40.5955
 30
0.0
 11
269.032
 21
40.5955
 31
0.0
  0
LINE
  8
0
 62
     0
 10
269.032
 20
40.5955
 30
0.0
 11
269.032
 21
26.5961
 31
0.0
  0
LINE
  8
0
 62
     0
 10
269.032
 20
26.5961
 30
0.0
 11
255.032
 21
26.5961
 31
0.0
  0
LINE
  8
0
 62
     0
 10
255.032
 20
26.5961
 30
0.0
 11
255.032
 21
40.5955
 31
0.0
  0
LINE
  8
0
 62
     0
 10
274.082
 20
40.5955
 30
0.0
 11
288.082
 21
40.5955
 31
0.0
  0
LINE
  8
0
 62
     0
 10
288.082
 20
40.5955
 30
0.0
 11
288.082
 21
26.5961
 31
0.0
  0
LINE
  8
0
 62
     0
 10
288.082
 20
26.5961
 30
0.0
 11
274.082
 21
26.5961
 31
0.0
  0
LINE
  8
0
 62
     0
 10
274.082
 20
26.5961
 30
0.0
 11
274.082
 21
40.5955
 31
0.0
  0
LINE
  8
0
 62
     0
 10
293.132
 20
40.5955
 30
0.0
 11
307.132
 21
40.5955
 31
0.0
  0
LINE
  8
0
 62
     0
 10
307.132
 20
40.5955
 30
0.0
 11
307.132
 21
26.5961
 31
0.0
  0
LINE
  8
0
 62
     0
 10
307.132
 20
26.5961
 30
0.0
 11
293.132
 21
26.5961
 31
0.0
  0
LINE
  8
0
 62
     0
 10
293.132
 20
26.5961
 30
0.0
 11
293.132
 21
40.5955
 31
0.0
  0
LINE
  8
0
 62
     0
 10
312.182
 20
40.5955
 30
0.0
 11
326.182
 21
40.5955
 31
0.0
  0
LINE
  8
0
 62
     0
 10
326.182
 20
40.5955
 30
0.0
 11
326.182
 21
26.5961
 31
0.0
  0
LINE
  8
0
 62
     0
 10
326.182
 20
26.5961
 30
0.0
 11
312.182
 21
26.5961
 31
0.0
  0
LINE
  8
0
 62
     0
 10
312.182
 20
26.5961
 30
0.0
 11
312.182
 21
40.5955
 31
0.0
  0
LINE
  8
0
 62
     0
 10
331.232
 20
40.5955
 30
0.0
 11
345.232
 21
40.5955
 31
0.0
  0
LINE
  8
0
 62
     0
 10
345.232
 20
40.5955
 30
0.0
 11
345.232
 21
26.5961
 31
0.0
  0
LINE
  8
0
 62
     0
 10
345.232
 20
26.5961
 30
0.0
 11
331.232
 21
26.5961
 31
0.0
  0
LINE
  8
0
 62
     0
 10
331.232
 20
26.5961
 30
0.0
 11
331.232
 21
40.5955
 31
0.0
  0
LINE
  8
0
 62
     0
 10
357.427
 20
40.5955
 30
0.0
 11
371.426
 21
40.5955
 31
0.0
  0
LINE
  8
0
 62
     0
 10
371.426
 20
40.5955
 30
0.0
 11
371.426
 21
26.5961
 31
0.0
  0
LINE
  8
0
 62
     0
 10
371.426
 20
26.5961
 30
0.0
 11
357.427
 21
26.5961
 31
0.0
  0
LINE
  8
0
 62
     0
 10
357.427
 20
26.5961
 30
0.0
 11
357.427
 21
40.5955
 31
0.0
  0
LINE
  8
0
 62
     0
 10
412.196
 20
40.5955
 30
0.0
 11
426.194
 21
40.5955
 31
0.0
  0
LINE
  8
0
 62
     0
 10
426.194
 20
40.5955
 30
0.0
 11
426.194
 21
26.5961
 31
0.0
  0
LINE
  8
0
 62
     0
 10
426.194
 20
26.5961
 30
0.0
 11
412.196
 21
26.5961
 31
0.0
  0
LINE
  8
0
 62
     0
 10
412.196
 20
26.5961
 30
0.0
 11
412.196
 21
40.5955
 31
0.0
  0
LINE
  8
0
 62
     0
 10
371.711
 20
59.6456
 30
0.0
 11
371.711
 21
54.9465
 31
0.0
  0
LINE
  8
0
 62
     0
 10
371.711
 20
54.9465
 30
0.0
 11
370.187
 21
54.9465
 31
0.0
  0
LINE
  8
0
 62
     0
 10
370.187
 20
54.9465
 30
0.0
 11
370.187
 21
58.1766
 31
0.0
  0
LINE
  8
0
 62
     0
 10
370.187
 20
58.1766
 30
0.0
 11
363.435
 21
58.1766
 31
0.0
  0
LINE
  8
0
 62
     0
 10
363.435
 20
58.1766
 30
0.0
 11
363.435
 21
54.9465
 31
0.0
  0
LINE
  8
0
 62
     0
 10
363.435
 20
54.9465
 30
0.0
 11
362.613
 21
54.9465
 31
0.0
  0
LINE
  8
0
 62
     0
 10
362.613
 20
54.9465
 30
0.0
 11
362.613
 21
52.1462
 31
0.0
  0
LINE
  8
0
 62
     0
 10
362.613
 20
52.1462
 30
0.0
 11
363.435
 21
52.1462
 31
0.0
  0
LINE
  8
0
 62
     0
 10
363.435
 20
52.1462
 30
0.0
 11
363.435
 21
45.8763
 31
0.0
  0
LINE
  8
0
 62
     0
 10
363.435
 20
45.8763
 30
0.0
 11
365.164
 21
45.8763
 31
0.0
  0
LINE
  8
0
 62
     0
 10
365.164
 20
45.8763
 30
0.0
 11
365.164
 21
44.6761
 31
0.0
  0
LINE
  8
0
 62
     0
 10
365.164
 20
44.6761
 30
0.0
 11
368.462
 21
44.6761
 31
0.0
  0
LINE
  8
0
 62
     0
 10
368.462
 20
44.6761
 30
0.0
 11
368.462
 21
45.8763
 31
0.0
  0
LINE
  8
0
 62
     0
 10
368.462
 20
45.8763
 30
0.0
 11
370.187
 21
45.8763
 31
0.0
  0
LINE
  8
0
 62
     0
 10
370.187
 20
45.8763
 30
0.0
 11
370.187
 21
50.3467
 31
0.0
  0
LINE
  8
0
 62
     0
 10
370.187
 20
50.3467
 30
0.0
 11
371.711
 21
50.3467
 31
0.0
  0
LINE
  8
0
 62
     0
 10
371.711
 20
50.3467
 30
0.0
 11
371.711
 21
45.6463
 31
0.0
  0
LINE
  8
0
 62
     0
 10
371.711
 20
45.6463
 30
0.0
 11
385.713
 21
45.6463
 31
0.0
  0
LINE
  8
0
 62
     0
 10
385.713
 20
45.6463
 30
0.0
 11
385.713
 21
50.3467
 31
0.0
  0
LINE
  8
0
 62
     0
 10
385.713
 20
50.3467
 30
0.0
 11
387.237
 21
50.3467
 31
0.0
  0
LINE
  8
0
 62
     0
 10
387.237
 20
50.3467
 30
0.0
 11
387.237
 21
45.8763
 31
0.0
  0
LINE
  8
0
 62
     0
 10
387.237
 20
45.8763
 30
0.0
 11
388.962
 21
45.8763
 31
0.0
  0
LINE
  8
0
 62
     0
 10
388.962
 20
45.8763
 30
0.0
 11
388.962
 21
44.6761
 31
0.0
  0
LINE
  8
0
 62
     0
 10
388.962
 20
44.6761
 30
0.0
 11
392.264
 21
44.6761
 31
0.0
  0
LINE
  8
0
 62
     0
 10
392.264
 20
44.6761
 30
0.0
 11
392.264
 21
45.8763
 31
0.0
  0
LINE
  8
0
 62
     0
 10
392.264
 20
45.8763
 30
0.0
 11
393.989
 21
45.8763
 31
0.0
  0
LINE
  8
0
 62
     0
 10
393.989
 20
45.8763
 30
0.0
 11
393.989
 21
52.1462
 31
0.0
  0
LINE
  8
0
 62
     0
 10
393.989
 20
52.1462
 30
0.0
 11
394.811
 21
52.1462
 31
0.0
  0
LINE
  8
0
 62
     0
 10
394.811
 20
52.1462
 30
0.0
 11
394.811
 21
54.9465
 31
0.0
  0
LINE
  8
0
 62
     0
 10
394.811
 20
54.9465
 30
0.0
 11
393.989
 21
54.9465
 31
0.0
  0
LINE
  8
0
 62
     0
 10
393.989
 20
54.9465
 30
0.0
 11
393.989
 21
58.1766
 31
0.0
  0
LINE
  8
0
 62
     0
 10
393.989
 20
58.1766
 30
0.0
 11
387.237
 21
58.1766
 31
0.0
  0
LINE
  8
0
 62
     0
 10
387.237
 20
58.1766
 30
0.0
 11
387.237
 21
54.9465
 31
0.0
  0
LINE
  8
0
 62
     0
 10
387.237
 20
54.9465
 30
0.0
 11
385.713
 21
54.9465
 31
0.0
  0
LINE
  8
0
 62
     0
 10
385.713
 20
54.9465
 30
0.0
 11
385.713
 21
59.6456
 31
0.0
  0
LINE
  8
0
 62
     0
 10
385.713
 20
59.6456
 30
0.0
 11
371.711
 21
59.6456
 31
0.0
  0
LINE
  8
0
 62
     0
 10
21.6697
 20
59.6456
 30
0.0
 11
35.669
 21
59.6456
 31
0.0
  0
LINE
  8
0
 62
     0
 10
35.669
 20
59.6456
 30
0.0
 11
35.669
 21
45.6463
 31
0.0
  0
LINE
  8
0
 62
     0
 10
35.669
 20
45.6463
 30
0.0
 11
21.6697
 21
45.6463
 31
0.0
  0
LINE
  8
0
 62
     0
 10
21.6697
 20
45.6463
 30
0.0
 11
21.6697
 21
59.6456
 31
0.0
  0
LINE
  8
0
 62
     0
 10
40.7197
 20
59.6456
 30
0.0
 11
54.719
 21
59.6456
 31
0.0
  0
LINE
  8
0
 62
     0
 10
54.719
 20
59.6456
 30
0.0
 11
54.719
 21
45.6463
 31
0.0
  0
LINE
  8
0
 62
     0
 10
54.719
 20
45.6463
 30
0.0
 11
40.7197
 21
45.6463
 31
0.0
  0
LINE
  8
0
 62
     0
 10
40.7197
 20
45.6463
 30
0.0
 11
40.7197
 21
59.6456
 31
0.0
  0
LINE
  8
0
 62
     0
 10
59.7697
 20
59.6456
 30
0.0
 11
73.769
 21
59.6456
 31
0.0
  0
LINE
  8
0
 62
     0
 10
73.769
 20
59.6456
 30
0.0
 11
73.769
 21
45.6463
 31
0.0
  0
LINE
  8
0
 62
     0
 10
73.769
 20
45.6463
 30
0.0
 11
59.7697
 21
45.6463
 31
0.0
  0
LINE
  8
0
 62
     0
 10
59.7697
 20
45.6463
 30
0.0
 11
59.7697
 21
59.6456
 31
0.0
  0
LINE
  8
0
 62
     0
 10
88.3447
 20
59.6456
 30
0.0
 11
102.344
 21
59.6456
 31
0.0
  0
LINE
  8
0
 62
     0
 10
102.344
 20
59.6456
 30
0.0
 11
102.344
 21
45.6463
 31
0.0
  0
LINE
  8
0
 62
     0
 10
102.344
 20
45.6463
 30
0.0
 11
88.3447
 21
45.6463
 31
0.0
  0
LINE
  8
0
 62
     0
 10
88.3447
 20
45.6463
 30
0.0
 11
88.3447
 21
59.6456
 31
0.0
  0
LINE
  8
0
 62
     0
 10
124.062
 20
59.6456
 30
0.0
 11
138.063
 21
59.6456
 31
0.0
  0
LINE
  8
0
 62
     0
 10
138.063
 20
59.6456
 30
0.0
 11
138.063
 21
45.6463
 31
0.0
  0
LINE
  8
0
 62
     0
 10
138.063
 20
45.6463
 30
0.0
 11
124.062
 21
45.6463
 31
0.0
  0
LINE
  8
0
 62
     0
 10
124.062
 20
45.6463
 30
0.0
 11
124.062
 21
59.6456
 31
0.0
  0
LINE
  8
0
 62
     0
 10
150.257
 20
59.6456
 30
0.0
 11
164.257
 21
59.6456
 31
0.0
  0
LINE
  8
0
 62
     0
 10
164.257
 20
59.6456
 30
0.0
 11
164.257
 21
45.6463
 31
0.0
  0
LINE
  8
0
 62
     0
 10
164.257
 20
45.6463
 30
0.0
 11
150.257
 21
45.6463
 31
0.0
  0
LINE
  8
0
 62
     0
 10
150.257
 20
45.6463
 30
0.0
 11
150.257
 21
59.6456
 31
0.0
  0
LINE
  8
0
 62
     0
 10
169.307
 20
59.6456
 30
0.0
 11
183.307
 21
59.6456
 31
0.0
  0
LINE
  8
0
 62
     0
 10
183.307
 20
59.6456
 30
0.0
 11
183.307
 21
45.6463
 31
0.0
  0
LINE
  8
0
 62
     0
 10
183.307
 20
45.6463
 30
0.0
 11
169.307
 21
45.6463
 31
0.0
  0
LINE
  8
0
 62
     0
 10
169.307
 20
45.6463
 30
0.0
 11
169.307
 21
59.6456
 31
0.0
  0
LINE
  8
0
 62
     0
 10
188.357
 20
59.6456
 30
0.0
 11
202.357
 21
59.6456
 31
0.0
  0
LINE
  8
0
 62
     0
 10
202.357
 20
59.6456
 30
0.0
 11
202.357
 21
45.6463
 31
0.0
  0
LINE
  8
0
 62
     0
 10
202.357
 20
45.6463
 30
0.0
 11
188.357
 21
45.6463
 31
0.0
  0
LINE
  8
0
 62
     0
 10
188.357
 20
45.6463
 30
0.0
 11
188.357
 21
59.6456
 31
0.0
  0
LINE
  8
0
 62
     0
 10
207.407
 20
59.6456
 30
0.0
 11
221.407
 21
59.6456
 31
0.0
  0
LINE
  8
0
 62
     0
 10
221.407
 20
59.6456
 30
0.0
 11
221.407
 21
45.6463
 31
0.0
  0
LINE
  8
0
 62
     0
 10
221.407
 20
45.6463
 30
0.0
 11
207.407
 21
45.6463
 31
0.0
  0
LINE
  8
0
 62
     0
 10
207.407
 20
45.6463
 30
0.0
 11
207.407
 21
59.6456
 31
0.0
  0
LINE
  8
0
 62
     0
 10
226.457
 20
59.6456
 30
0.0
 11
240.457
 21
59.6456
 31
0.0
  0
LINE
  8
0
 62
     0
 10
240.457
 20
59.6456
 30
0.0
 11
240.457
 21
45.6463
 31
0.0
  0
LINE
  8
0
 62
     0
 10
240.457
 20
45.6463
 30
0.0
 11
226.457
 21
45.6463
 31
0.0
  0
LINE
  8
0
 62
     0
 10
226.457
 20
45.6463
 30
0.0
 11
226.457
 21
59.6456
 31
0.0
  0
LINE
  8
0
 62
     0
 10
245.507
 20
59.6456
 30
0.0
 11
259.507
 21
59.6456
 31
0.0
  0
LINE
  8
0
 62
     0
 10
259.507
 20
59.6456
 30
0.0
 11
259.507
 21
45.6463
 31
0.0
  0
LINE
  8
0
 62
     0
 10
259.507
 20
45.6463
 30
0.0
 11
245.507
 21
45.6463
 31
0.0
  0
LINE
  8
0
 62
     0
 10
245.507
 20
45.6463
 30
0.0
 11
245.507
 21
59.6456
 31
0.0
  0
LINE
  8
0
 62
     0
 10
264.557
 20
59.6456
 30
0.0
 11
278.557
 21
59.6456
 31
0.0
  0
LINE
  8
0
 62
     0
 10
278.557
 20
59.6456
 30
0.0
 11
278.557
 21
45.6463
 31
0.0
  0
LINE
  8
0
 62
     0
 10
278.557
 20
45.6463
 30
0.0
 11
264.557
 21
45.6463
 31
0.0
  0
LINE
  8
0
 62
     0
 10
264.557
 20
45.6463
 30
0.0
 11
264.557
 21
59.6456
 31
0.0
  0
LINE
  8
0
 62
     0
 10
283.607
 20
59.6456
 30
0.0
 11
297.607
 21
59.6456
 31
0.0
  0
LINE
  8
0
 62
     0
 10
297.607
 20
59.6456
 30
0.0
 11
297.607
 21
45.6463
 31
0.0
  0
LINE
  8
0
 62
     0
 10
297.607
 20
45.6463
 30
0.0
 11
283.607
 21
45.6463
 31
0.0
  0
LINE
  8
0
 62
     0
 10
283.607
 20
45.6463
 30
0.0
 11
283.607
 21
59.6456
 31
0.0
  0
LINE
  8
0
 62
     0
 10
302.657
 20
59.6456
 30
0.0
 11
316.657
 21
59.6456
 31
0.0
  0
LINE
  8
0
 62
     0
 10
316.657
 20
59.6456
 30
0.0
 11
316.657
 21
45.6463
 31
0.0
  0
LINE
  8
0
 62
     0
 10
316.657
 20
45.6463
 30
0.0
 11
302.657
 21
45.6463
 31
0.0
  0
LINE
  8
0
 62
     0
 10
302.657
 20
45.6463
 30
0.0
 11
302.657
 21
59.6456
 31
0.0
  0
LINE
  8
0
 62
     0
 10
321.707
 20
59.6456
 30
0.0
 11
335.707
 21
59.6456
 31
0.0
  0
LINE
  8
0
 62
     0
 10
335.707
 20
59.6456
 30
0.0
 11
335.707
 21
45.6463
 31
0.0
  0
LINE
  8
0
 62
     0
 10
335.707
 20
45.6463
 30
0.0
 11
321.707
 21
45.6463
 31
0.0
  0
LINE
  8
0
 62
     0
 10
321.707
 20
45.6463
 30
0.0
 11
321.707
 21
59.6456
 31
0.0
  0
LINE
  8
0
 62
     0
 10
340.757
 20
59.6456
 30
0.0
 11
354.757
 21
59.6456
 31
0.0
  0
LINE
  8
0
 62
     0
 10
354.757
 20
59.6456
 30
0.0
 11
354.757
 21
45.6463
 31
0.0
  0
LINE
  8
0
 62
     0
 10
354.757
 20
45.6463
 30
0.0
 11
340.757
 21
45.6463
 31
0.0
  0
LINE
  8
0
 62
     0
 10
340.757
 20
45.6463
 30
0.0
 11
340.757
 21
59.6456
 31
0.0
  0
LINE
  8
0
 62
     0
 10
412.196
 20
59.6456
 30
0.0
 11
426.194
 21
59.6456
 31
0.0
  0
LINE
  8
0
 62
     0
 10
426.194
 20
59.6456
 30
0.0
 11
426.194
 21
45.6463
 31
0.0
  0
LINE
  8
0
 62
     0
 10
426.194
 20
45.6463
 30
0.0
 11
412.196
 21
45.6463
 31
0.0
  0
LINE
  8
0
 62
     0
 10
412.196
 20
45.6463
 30
0.0
 11
412.196
 21
59.6456
 31
0.0
  0
LINE
  8
0
 62
     0
 10
9.11849
 20
78.2712
 30
0.0
 11
9.11849
 21
77.4457
 31
0.0
  0
LINE
  8
0
 62
     0
 10
9.11849
 20
77.4457
 30
0.0
 11
2.84978
 21
77.4457
 31
0.0
  0
LINE
  8
0
 62
     0
 10
2.84978
 20
77.4457
 30
0.0
 11
2.84978
 21
75.722
 31
0.0
  0
LINE
  8
0
 62
     0
 10
2.84978
 20
75.722
 30
0.0
 11
1.64951
 21
75.722
 31
0.0
  0
LINE
  8
0
 62
     0
 10
1.64951
 20
75.722
 30
0.0
 11
1.64951
 21
72.4214
 31
0.0
  0
LINE
  8
0
 62
     0
 10
1.64951
 20
72.4214
 30
0.0
 11
2.84978
 21
72.4214
 31
0.0
  0
LINE
  8
0
 62
     0
 10
2.84978
 20
72.4214
 30
0.0
 11
2.84978
 21
70.696
 31
0.0
  0
LINE
  8
0
 62
     0
 10
2.84978
 20
70.696
 30
0.0
 11
7.32014
 21
70.696
 31
0.0
  0
LINE
  8
0
 62
     0
 10
7.32014
 20
70.696
 30
0.0
 11
7.32014
 21
69.1706
 31
0.0
  0
LINE
  8
0
 62
     0
 10
7.32014
 20
69.1706
 30
0.0
 11
2.61965
 21
69.1706
 31
0.0
  0
LINE
  8
0
 62
     0
 10
2.61965
 20
69.1706
 30
0.0
 11
2.61965
 21
55.1713
 31
0.0
  0
LINE
  8
0
 62
     0
 10
2.61965
 20
55.1713
 30
0.0
 11
7.32014
 21
55.1713
 31
0.0
  0
LINE
  8
0
 62
     0
 10
7.32014
 20
55.1713
 30
0.0
 11
7.32014
 21
53.6455
 31
0.0
  0
LINE
  8
0
 62
     0
 10
7.32014
 20
53.6455
 30
0.0
 11
2.84978
 21
53.6455
 31
0.0
  0
LINE
  8
0
 62
     0
 10
2.84978
 20
53.6455
 30
0.0
 11
2.84978
 21
51.9218
 31
0.0
  0
LINE
  8
0
 62
     0
 10
2.84978
 20
51.9218
 30
0.0
 11
1.64951
 21
51.9218
 31
0.0
  0
LINE
  8
0
 62
     0
 10
1.64951
 20
51.9218
 30
0.0
 11
1.64951
 21
48.6212
 31
0.0
  0
LINE
  8
0
 62
     0
 10
1.64951
 20
48.6212
 30
0.0
 11
2.84978
 21
48.6212
 31
0.0
  0
LINE
  8
0
 62
     0
 10
2.84978
 20
48.6212
 30
0.0
 11
2.84978
 21
46.8962
 31
0.0
  0
LINE
  8
0
 62
     0
 10
2.84978
 20
46.8962
 30
0.0
 11
9.11987
 21
46.8962
 31
0.0
  0
LINE
  8
0
 62
     0
 10
9.11987
 20
46.8962
 30
0.0
 11
9.11987
 21
46.0721
 31
0.0
  0
LINE
  8
0
 62
     0
 10
9.11987
 20
46.0721
 30
0.0
 11
11.92
 21
46.0721
 31
0.0
  0
LINE
  8
0
 62
     0
 10
11.92
 20
46.0721
 30
0.0
 11
11.92
 21
46.8962
 31
0.0
  0
LINE
  8
0
 62
     0
 10
11.92
 20
46.8962
 30
0.0
 11
15.1501
 21
46.8962
 31
0.0
  0
LINE
  8
0
 62
     0
 10
15.1501
 20
46.8962
 30
0.0
 11
15.1501
 21
53.6455
 31
0.0
  0
LINE
  8
0
 62
     0
 10
15.1501
 20
53.6455
 30
0.0
 11
11.92
 21
53.6455
 31
0.0
  0
LINE
  8
0
 62
     0
 10
11.92
 20
53.6455
 30
0.0
 11
11.92
 21
55.1713
 31
0.0
  0
LINE
  8
0
 62
     0
 10
11.92
 20
55.1713
 30
0.0
 11
16.6192
 21
55.1713
 31
0.0
  0
LINE
  8
0
 62
     0
 10
16.6192
 20
55.1713
 30
0.0
 11
16.6192
 21
69.1706
 31
0.0
  0
LINE
  8
0
 62
     0
 10
16.6192
 20
69.1706
 30
0.0
 11
11.92
 21
69.1706
 31
0.0
  0
LINE
  8
0
 62
     0
 10
11.92
 20
69.1706
 30
0.0
 11
11.92
 21
70.696
 31
0.0
  0
LINE
  8
0
 62
     0
 10
11.92
 20
70.696
 30
0.0
 11
15.1501
 21
70.696
 31
0.0
  0
LINE
  8
0
 62
     0
 10
15.1501
 20
70.696
 30
0.0
 11
15.1501
 21
77.4457
 31
0.0
  0
LINE
  8
0
 62
     0
 10
15.1501
 20
77.4457
 30
0.0
 11
11.92
 21
77.4457
 31
0.0
  0
LINE
  8
0
 62
     0
 10
11.92
 20
77.4457
 30
0.0
 11
11.92
 21
78.2712
 31
0.0
  0
LINE
  8
0
 62
     0
 10
11.92
 20
78.2712
 30
0.0
 11
9.11849
 21
78.2712
 31
0.0
  0
LINE
  8
0
 62
     0
 10
21.6697
 20
78.6956
 30
0.0
 11
35.669
 21
78.6956
 31
0.0
  0
LINE
  8
0
 62
     0
 10
35.669
 20
78.6956
 30
0.0
 11
35.669
 21
64.6963
 31
0.0
  0
LINE
  8
0
 62
     0
 10
35.669
 20
64.6963
 30
0.0
 11
21.6697
 21
64.6963
 31
0.0
  0
LINE
  8
0
 62
     0
 10
21.6697
 20
64.6963
 30
0.0
 11
21.6697
 21
78.6956
 31
0.0
  0
LINE
  8
0
 62
     0
 10
40.7197
 20
78.6956
 30
0.0
 11
54.719
 21
78.6956
 31
0.0
  0
LINE
  8
0
 62
     0
 10
54.719
 20
78.6956
 30
0.0
 11
54.719
 21
64.6963
 31
0.0
  0
LINE
  8
0
 62
     0
 10
54.719
 20
64.6963
 30
0.0
 11
40.7197
 21
64.6963
 31
0.0
  0
LINE
  8
0
 62
     0
 10
40.7197
 20
64.6963
 30
0.0
 11
40.7197
 21
78.6956
 31
0.0
  0
LINE
  8
0
 62
     0
 10
59.7697
 20
78.6956
 30
0.0
 11
73.769
 21
78.6956
 31
0.0
  0
LINE
  8
0
 62
     0
 10
73.769
 20
78.6956
 30
0.0
 11
73.769
 21
64.6963
 31
0.0
  0
LINE
  8
0
 62
     0
 10
73.769
 20
64.6963
 30
0.0
 11
59.7697
 21
64.6963
 31
0.0
  0
LINE
  8
0
 62
     0
 10
59.7697
 20
64.6963
 30
0.0
 11
59.7697
 21
78.6956
 31
0.0
  0
LINE
  8
0
 62
     0
 10
121.682
 20
78.6956
 30
0.0
 11
135.682
 21
78.6956
 31
0.0
  0
LINE
  8
0
 62
     0
 10
135.682
 20
78.6956
 30
0.0
 11
135.682
 21
64.6963
 31
0.0
  0
LINE
  8
0
 62
     0
 10
135.682
 20
64.6963
 30
0.0
 11
121.682
 21
64.6963
 31
0.0
  0
LINE
  8
0
 62
     0
 10
121.682
 20
64.6963
 30
0.0
 11
121.682
 21
78.6956
 31
0.0
  0
LINE
  8
0
 62
     0
 10
145.495
 20
78.6956
 30
0.0
 11
159.494
 21
78.6956
 31
0.0
  0
LINE
  8
0
 62
     0
 10
159.494
 20
78.6956
 30
0.0
 11
159.494
 21
64.6963
 31
0.0
  0
LINE
  8
0
 62
     0
 10
159.494
 20
64.6963
 30
0.0
 11
145.495
 21
64.6963
 31
0.0
  0
LINE
  8
0
 62
     0
 10
145.495
 20
64.6963
 30
0.0
 11
145.495
 21
78.6956
 31
0.0
  0
LINE
  8
0
 62
     0
 10
164.545
 20
78.6956
 30
0.0
 11
178.544
 21
78.6956
 31
0.0
  0
LINE
  8
0
 62
     0
 10
178.544
 20
78.6956
 30
0.0
 11
178.544
 21
64.6963
 31
0.0
  0
LINE
  8
0
 62
     0
 10
178.544
 20
64.6963
 30
0.0
 11
164.545
 21
64.6963
 31
0.0
  0
LINE
  8
0
 62
     0
 10
164.545
 20
64.6963
 30
0.0
 11
164.545
 21
78.6956
 31
0.0
  0
LINE
  8
0
 62
     0
 10
183.595
 20
78.6956
 30
0.0
 11
197.594
 21
78.6956
 31
0.0
  0
LINE
  8
0
 62
     0
 10
197.594
 20
78.6956
 30
0.0
 11
197.594
 21
64.6963
 31
0.0
  0
LINE
  8
0
 62
     0
 10
197.594
 20
64.6963
 30
0.0
 11
183.595
 21
64.6963
 31
0.0
  0
LINE
  8
0
 62
     0
 10
183.595
 20
64.6963
 30
0.0
 11
183.595
 21
78.6956
 31
0.0
  0
LINE
  8
0
 62
     0
 10
202.645
 20
78.6956
 30
0.0
 11
216.644
 21
78.6956
 31
0.0
  0
LINE
  8
0
 62
     0
 10
216.644
 20
78.6956
 30
0.0
 11
216.644
 21
64.6963
 31
0.0
  0
LINE
  8
0
 62
     0
 10
216.644
 20
64.6963
 30
0.0
 11
202.645
 21
64.6963
 31
0.0
  0
LINE
  8
0
 62
     0
 10
202.645
 20
64.6963
 30
0.0
 11
202.645
 21
78.6956
 31
0.0
  0
LINE
  8
0
 62
     0
 10
221.695
 20
78.6956
 30
0.0
 11
235.694
 21
78.6956
 31
0.0
  0
LINE
  8
0
 62
     0
 10
235.694
 20
78.6956
 30
0.0
 11
235.694
 21
64.6963
 31
0.0
  0
LINE
  8
0
 62
     0
 10
235.694
 20
64.6963
 30
0.0
 11
221.695
 21
64.6963
 31
0.0
  0
LINE
  8
0
 62
     0
 10
221.695
 20
64.6963
 30
0.0
 11
221.695
 21
78.6956
 31
0.0
  0
LINE
  8
0
 62
     0
 10
240.745
 20
78.6956
 30
0.0
 11
254.744
 21
78.6956
 31
0.0
  0
LINE
  8
0
 62
     0
 10
254.744
 20
78.6956
 30
0.0
 11
254.744
 21
64.6963
 31
0.0
  0
LINE
  8
0
 62
     0
 10
254.744
 20
64.6963
 30
0.0
 11
240.745
 21
64.6963
 31
0.0
  0
LINE
  8
0
 62
     0
 10
240.745
 20
64.6963
 30
0.0
 11
240.745
 21
78.6956
 31
0.0
  0
LINE
  8
0
 62
     0
 10
259.795
 20
78.6956
 30
0.0
 11
273.794
 21
78.6956
 31
0.0
  0
LINE
  8
0
 62
     0
 10
273.794
 20
78.6956
 30
0.0
 11
273.794
 21
64.6963
 31
0.0
  0
LINE
  8
0
 62
     0
 10
273.794
 20
64.6963
 30
0.0
 11
259.795
 21
64.6963
 31
0.0
  0
LINE
  8
0
 62
     0
 10
259.795
 20
64.6963
 30
0.0
 11
259.795
 21
78.6956
 31
0.0
  0
LINE
  8
0
 62
     0
 10
278.845
 20
78.6956
 30
0.0
 11
292.844
 21
78.6956
 31
0.0
  0
LINE
  8
0
 62
     0
 10
292.844
 20
78.6956
 30
0.0
 11
292.844
 21
64.6963
 31
0.0
  0
LINE
  8
0
 62
     0
 10
292.844
 20
64.6963
 30
0.0
 11
278.845
 21
64.6963
 31
0.0
  0
LINE
  8
0
 62
     0
 10
278.845
 20
64.6963
 30
0.0
 11
278.845
 21
78.6956
 31
0.0
  0
LINE
  8
0
 62
     0
 10
297.895
 20
78.6956
 30
0.0
 11
311.894
 21
78.6956
 31
0.0
  0
LINE
  8
0
 62
     0
 10
311.894
 20
78.6956
 30
0.0
 11
311.894
 21
64.6963
 31
0.0
  0
LINE
  8
0
 62
     0
 10
311.894
 20
64.6963
 30
0.0
 11
297.895
 21
64.6963
 31
0.0
  0
LINE
  8
0
 62
     0
 10
297.895
 20
64.6963
 30
0.0
 11
297.895
 21
78.6956
 31
0.0
  0
LINE
  8
0
 62
     0
 10
316.945
 20
78.6956
 30
0.0
 11
330.944
 21
78.6956
 31
0.0
  0
LINE
  8
0
 62
     0
 10
330.944
 20
78.6956
 30
0.0
 11
330.944
 21
64.6963
 31
0.0
  0
LINE
  8
0
 62
     0
 10
330.944
 20
64.6963
 30
0.0
 11
316.945
 21
64.6963
 31
0.0
  0
LINE
  8
0
 62
     0
 10
316.945
 20
64.6963
 30
0.0
 11
316.945
 21
78.6956
 31
0.0
  0
LINE
  8
0
 62
     0
 10
335.995
 20
78.6956
 30
0.0
 11
349.994
 21
78.6956
 31
0.0
  0
LINE
  8
0
 62
     0
 10
349.994
 20
78.6956
 30
0.0
 11
349.994
 21
64.6963
 31
0.0
  0
LINE
  8
0
 62
     0
 10
349.994
 20
64.6963
 30
0.0
 11
335.995
 21
64.6963
 31
0.0
  0
LINE
  8
0
 62
     0
 10
335.995
 20
64.6963
 30
0.0
 11
335.995
 21
78.6956
 31
0.0
  0
LINE
  8
0
 62
     0
 10
355.046
 20
78.6956
 30
0.0
 11
369.044
 21
78.6956
 31
0.0
  0
LINE
  8
0
 62
     0
 10
369.044
 20
78.6956
 30
0.0
 11
369.044
 21
64.6963
 31
0.0
  0
LINE
  8
0
 62
     0
 10
369.044
 20
64.6963
 30
0.0
 11
355.046
 21
64.6963
 31
0.0
  0
LINE
  8
0
 62
     0
 10
355.046
 20
64.6963
 30
0.0
 11
355.046
 21
78.6956
 31
0.0
  0
LINE
  8
0
 62
     0
 10
378.859
 20
78.6956
 30
0.0
 11
392.857
 21
78.6956
 31
0.0
  0
LINE
  8
0
 62
     0
 10
392.857
 20
78.6956
 30
0.0
 11
392.857
 21
64.6963
 31
0.0
  0
LINE
  8
0
 62
     0
 10
392.857
 20
64.6963
 30
0.0
 11
378.859
 21
64.6963
 31
0.0
  0
LINE
  8
0
 62
     0
 10
378.859
 20
64.6963
 30
0.0
 11
378.859
 21
78.6956
 31
0.0
  0
LINE
  8
0
 62
     0
 10
412.196
 20
78.6956
 30
0.0
 11
426.194
 21
78.6956
 31
0.0
  0
LINE
  8
0
 62
     0
 10
426.194
 20
78.6956
 30
0.0
 11
426.194
 21
64.6963
 31
0.0
  0
LINE
  8
0
 62
     0
 10
426.194
 20
64.6963
 30
0.0
 11
412.196
 21
64.6963
 31
0.0
  0
LINE
  8
0
 62
     0
 10
412.196
 20
64.6963
 30
0.0
 11
412.196
 21
78.6956
 31
0.0
  0
LINE
  8
0
 62
     0
 10
374.096
 20
97.7456
 30
0.0
 11
374.096
 21
93.0465
 31
0.0
  0
LINE
  8
0
 62
     0
 10
374.096
 20
93.0465
 30
0.0
 11
372.569
 21
93.0465
 31
0.0
  0
LINE
  8
0
 62
     0
 10
372.569
 20
93.0465
 30
0.0
 11
372.569
 21
96.2766
 31
0.0
  0
LINE
  8
0
 62
     0
 10
372.569
 20
96.2766
 30
0.0
 11
365.82
 21
96.2766
 31
0.0
  0
LINE
  8
0
 62
     0
 10
365.82
 20
96.2766
 30
0.0
 11
365.82
 21
93.0465
 31
0.0
  0
LINE
  8
0
 62
     0
 10
365.82
 20
93.0465
 30
0.0
 11
364.994
 21
93.0465
 31
0.0
  0
LINE
  8
0
 62
     0
 10
364.994
 20
93.0465
 30
0.0
 11
364.994
 21
90.2462
 31
0.0
  0
LINE
  8
0
 62
     0
 10
364.994
 20
90.2462
 30
0.0
 11
365.82
 21
90.2462
 31
0.0
  0
LINE
  8
0
 62
     0
 10
365.82
 20
90.2462
 30
0.0
 11
365.82
 21
83.9763
 31
0.0
  0
LINE
  8
0
 62
     0
 10
365.82
 20
83.9763
 30
0.0
 11
367.545
 21
83.9763
 31
0.0
  0
LINE
  8
0
 62
     0
 10
367.545
 20
83.9763
 30
0.0
 11
367.545
 21
82.7761
 31
0.0
  0
LINE
  8
0
 62
     0
 10
367.545
 20
82.7761
 30
0.0
 11
370.844
 21
82.7761
 31
0.0
  0
LINE
  8
0
 62
     0
 10
370.844
 20
82.7761
 30
0.0
 11
370.844
 21
83.9763
 31
0.0
  0
LINE
  8
0
 62
     0
 10
370.844
 20
83.9763
 30
0.0
 11
372.569
 21
83.9763
 31
0.0
  0
LINE
  8
0
 62
     0
 10
372.569
 20
83.9763
 30
0.0
 11
372.569
 21
88.4467
 31
0.0
  0
LINE
  8
0
 62
     0
 10
372.569
 20
88.4467
 30
0.0
 11
374.096
 21
88.4467
 31
0.0
  0
LINE
  8
0
 62
     0
 10
374.096
 20
88.4467
 30
0.0
 11
374.096
 21
83.7463
 31
0.0
  0
LINE
  8
0
 62
     0
 10
374.096
 20
83.7463
 30
0.0
 11
388.094
 21
83.7463
 31
0.0
  0
LINE
  8
0
 62
     0
 10
388.094
 20
83.7463
 30
0.0
 11
388.094
 21
88.4467
 31
0.0
  0
LINE
  8
0
 62
     0
 10
388.094
 20
88.4467
 30
0.0
 11
389.618
 21
88.4467
 31
0.0
  0
LINE
  8
0
 62
     0
 10
389.618
 20
88.4467
 30
0.0
 11
389.618
 21
83.9763
 31
0.0
  0
LINE
  8
0
 62
     0
 10
389.618
 20
83.9763
 30
0.0
 11
391.343
 21
83.9763
 31
0.0
  0
LINE
  8
0
 62
     0
 10
391.343
 20
83.9763
 30
0.0
 11
391.343
 21
82.7761
 31
0.0
  0
LINE
  8
0
 62
     0
 10
391.343
 20
82.7761
 30
0.0
 11
394.645
 21
82.7761
 31
0.0
  0
LINE
  8
0
 62
     0
 10
394.645
 20
82.7761
 30
0.0
 11
394.645
 21
83.9763
 31
0.0
  0
LINE
  8
0
 62
     0
 10
394.645
 20
83.9763
 30
0.0
 11
396.371
 21
83.9763
 31
0.0
  0
LINE
  8
0
 62
     0
 10
396.371
 20
83.9763
 30
0.0
 11
396.371
 21
90.2462
 31
0.0
  0
LINE
  8
0
 62
     0
 10
396.371
 20
90.2462
 30
0.0
 11
397.196
 21
90.2462
 31
0.0
  0
LINE
  8
0
 62
     0
 10
397.196
 20
90.2462
 30
0.0
 11
397.196
 21
93.0465
 31
0.0
  0
LINE
  8
0
 62
     0
 10
397.196
 20
93.0465
 30
0.0
 11
396.371
 21
93.0465
 31
0.0
  0
LINE
  8
0
 62
     0
 10
396.371
 20
93.0465
 30
0.0
 11
396.371
 21
96.2766
 31
0.0
  0
LINE
  8
0
 62
     0
 10
396.371
 20
96.2766
 30
0.0
 11
389.618
 21
96.2766
 31
0.0
  0
LINE
  8
0
 62
     0
 10
389.618
 20
96.2766
 30
0.0
 11
389.618
 21
93.0465
 31
0.0
  0
LINE
  8
0
 62
     0
 10
389.618
 20
93.0465
 30
0.0
 11
388.094
 21
93.0465
 31
0.0
  0
LINE
  8
0
 62
     0
 10
388.094
 20
93.0465
 30
0.0
 11
388.094
 21
97.7456
 31
0.0
  0
LINE
  8
0
 62
     0
 10
388.094
 20
97.7456
 30
0.0
 11
374.096
 21
97.7456
 31
0.0
  0
LINE
  8
0
 62
     0
 10
2.61965
 20
97.7456
 30
0.0
 11
16.6192
 21
97.7456
 31
0.0
  0
LINE
  8
0
 62
     0
 10
16.6192
 20
97.7456
 30
0.0
 11
16.6192
 21
83.7463
 31
0.0
  0
LINE
  8
0
 62
     0
 10
16.6192
 20
83.7463
 30
0.0
 11
2.61965
 21
83.7463
 31
0.0
  0
LINE
  8
0
 62
     0
 10
2.61965
 20
83.7463
 30
0.0
 11
2.61965
 21
97.7456
 31
0.0
  0
LINE
  8
0
 62
     0
 10
21.6697
 20
97.7456
 30
0.0
 11
35.669
 21
97.7456
 31
0.0
  0
LINE
  8
0
 62
     0
 10
35.669
 20
97.7456
 30
0.0
 11
35.669
 21
83.7463
 31
0.0
  0
LINE
  8
0
 62
     0
 10
35.669
 20
83.7463
 30
0.0
 11
21.6697
 21
83.7463
 31
0.0
  0
LINE
  8
0
 62
     0
 10
21.6697
 20
83.7463
 30
0.0
 11
21.6697
 21
97.7456
 31
0.0
  0
LINE
  8
0
 62
     0
 10
40.7197
 20
97.7456
 30
0.0
 11
54.719
 21
97.7456
 31
0.0
  0
LINE
  8
0
 62
     0
 10
54.719
 20
97.7456
 30
0.0
 11
54.719
 21
83.7463
 31
0.0
  0
LINE
  8
0
 62
     0
 10
54.719
 20
83.7463
 30
0.0
 11
40.7197
 21
83.7463
 31
0.0
  0
LINE
  8
0
 62
     0
 10
40.7197
 20
83.7463
 30
0.0
 11
40.7197
 21
97.7456
 31
0.0
  0
LINE
  8
0
 62
     0
 10
59.7697
 20
97.7456
 30
0.0
 11
73.769
 21
97.7456
 31
0.0
  0
LINE
  8
0
 62
     0
 10
73.769
 20
97.7456
 30
0.0
 11
73.769
 21
83.7463
 31
0.0
  0
LINE
  8
0
 62
     0
 10
73.769
 20
83.7463
 30
0.0
 11
59.7697
 21
83.7463
 31
0.0
  0
LINE
  8
0
 62
     0
 10
59.7697
 20
83.7463
 30
0.0
 11
59.7697
 21
97.7456
 31
0.0
  0
LINE
  8
0
 62
     0
 10
116.918
 20
97.7456
 30
0.0
 11
130.919
 21
97.7456
 31
0.0
  0
LINE
  8
0
 62
     0
 10
130.919
 20
97.7456
 30
0.0
 11
130.919
 21
83.7463
 31
0.0
  0
LINE
  8
0
 62
     0
 10
130.919
 20
83.7463
 30
0.0
 11
116.918
 21
83.7463
 31
0.0
  0
LINE
  8
0
 62
     0
 10
116.918
 20
83.7463
 30
0.0
 11
116.918
 21
97.7456
 31
0.0
  0
LINE
  8
0
 62
     0
 10
135.97
 20
97.7456
 30
0.0
 11
149.969
 21
97.7456
 31
0.0
  0
LINE
  8
0
 62
     0
 10
149.969
 20
97.7456
 30
0.0
 11
149.969
 21
83.7463
 31
0.0
  0
LINE
  8
0
 62
     0
 10
149.969
 20
83.7463
 30
0.0
 11
135.97
 21
83.7463
 31
0.0
  0
LINE
  8
0
 62
     0
 10
135.97
 20
83.7463
 30
0.0
 11
135.97
 21
97.7456
 31
0.0
  0
LINE
  8
0
 62
     0
 10
155.02
 20
97.7456
 30
0.0
 11
169.019
 21
97.7456
 31
0.0
  0
LINE
  8
0
 62
     0
 10
169.019
 20
97.7456
 30
0.0
 11
169.019
 21
83.7463
 31
0.0
  0
LINE
  8
0
 62
     0
 10
169.019
 20
83.7463
 30
0.0
 11
155.02
 21
83.7463
 31
0.0
  0
LINE
  8
0
 62
     0
 10
155.02
 20
83.7463
 30
0.0
 11
155.02
 21
97.7456
 31
0.0
  0
LINE
  8
0
 62
     0
 10
174.07
 20
97.7456
 30
0.0
 11
188.069
 21
97.7456
 31
0.0
  0
LINE
  8
0
 62
     0
 10
188.069
 20
97.7456
 30
0.0
 11
188.069
 21
83.7463
 31
0.0
  0
LINE
  8
0
 62
     0
 10
188.069
 20
83.7463
 30
0.0
 11
174.07
 21
83.7463
 31
0.0
  0
LINE
  8
0
 62
     0
 10
174.07
 20
83.7463
 30
0.0
 11
174.07
 21
97.7456
 31
0.0
  0
LINE
  8
0
 62
     0
 10
193.12
 20
97.7456
 30
0.0
 11
207.119
 21
97.7456
 31
0.0
  0
LINE
  8
0
 62
     0
 10
207.119
 20
97.7456
 30
0.0
 11
207.119
 21
83.7463
 31
0.0
  0
LINE
  8
0
 62
     0
 10
207.119
 20
83.7463
 30
0.0
 11
193.12
 21
83.7463
 31
0.0
  0
LINE
  8
0
 62
     0
 10
193.12
 20
83.7463
 30
0.0
 11
193.12
 21
97.7456
 31
0.0
  0
LINE
  8
0
 62
     0
 10
212.17
 20
97.7456
 30
0.0
 11
226.169
 21
97.7456
 31
0.0
  0
LINE
  8
0
 62
     0
 10
226.169
 20
97.7456
 30
0.0
 11
226.169
 21
83.7463
 31
0.0
  0
LINE
  8
0
 62
     0
 10
226.169
 20
83.7463
 30
0.0
 11
212.17
 21
83.7463
 31
0.0
  0
LINE
  8
0
 62
     0
 10
212.17
 20
83.7463
 30
0.0
 11
212.17
 21
97.7456
 31
0.0
  0
LINE
  8
0
 62
     0
 10
231.22
 20
97.7456
 30
0.0
 11
245.219
 21
97.7456
 31
0.0
  0
LINE
  8
0
 62
     0
 10
245.219
 20
97.7456
 30
0.0
 11
245.219
 21
83.7463
 31
0.0
  0
LINE
  8
0
 62
     0
 10
245.219
 20
83.7463
 30
0.0
 11
231.22
 21
83.7463
 31
0.0
  0
LINE
  8
0
 62
     0
 10
231.22
 20
83.7463
 30
0.0
 11
231.22
 21
97.7456
 31
0.0
  0
LINE
  8
0
 62
     0
 10
250.27
 20
97.7456
 30
0.0
 11
264.269
 21
97.7456
 31
0.0
  0
LINE
  8
0
 62
     0
 10
264.269
 20
97.7456
 30
0.0
 11
264.269
 21
83.7463
 31
0.0
  0
LINE
  8
0
 62
     0
 10
264.269
 20
83.7463
 30
0.0
 11
250.27
 21
83.7463
 31
0.0
  0
LINE
  8
0
 62
     0
 10
250.27
 20
83.7463
 30
0.0
 11
250.27
 21
97.7456
 31
0.0
  0
LINE
  8
0
 62
     0
 10
269.32
 20
97.7456
 30
0.0
 11
283.319
 21
97.7456
 31
0.0
  0
LINE
  8
0
 62
     0
 10
283.319
 20
97.7456
 30
0.0
 11
283.319
 21
83.7463
 31
0.0
  0
LINE
  8
0
 62
     0
 10
283.319
 20
83.7463
 30
0.0
 11
269.32
 21
83.7463
 31
0.0
  0
LINE
  8
0
 62
     0
 10
269.32
 20
83.7463
 30
0.0
 11
269.32
 21
97.7456
 31
0.0
  0
LINE
  8
0
 62
     0
 10
288.37
 20
97.7456
 30
0.0
 11
302.369
 21
97.7456
 31
0.0
  0
LINE
  8
0
 62
     0
 10
302.369
 20
97.7456
 30
0.0
 11
302.369
 21
83.7463
 31
0.0
  0
LINE
  8
0
 62
     0
 10
302.369
 20
83.7463
 30
0.0
 11
288.37
 21
83.7463
 31
0.0
  0
LINE
  8
0
 62
     0
 10
288.37
 20
83.7463
 30
0.0
 11
288.37
 21
97.7456
 31
0.0
  0
LINE
  8
0
 62
     0
 10
307.42
 20
97.7456
 30
0.0
 11
321.419
 21
97.7456
 31
0.0
  0
LINE
  8
0
 62
     0
 10
321.419
 20
97.7456
 30
0.0
 11
321.419
 21
83.7463
 31
0.0
  0
LINE
  8
0
 62
     0
 10
321.419
 20
83.7463
 30
0.0
 11
307.42
 21
83.7463
 31
0.0
  0
LINE
  8
0
 62
     0
 10
307.42
 20
83.7463
 30
0.0
 11
307.42
 21
97.7456
 31
0.0
  0
LINE
  8
0
 62
     0
 10
326.47
 20
97.7456
 30
0.0
 11
340.469
 21
97.7456
 31
0.0
  0
LINE
  8
0
 62
     0
 10
340.469
 20
97.7456
 30
0.0
 11
340.469
 21
83.7463
 31
0.0
  0
LINE
  8
0
 62
     0
 10
340.469
 20
83.7463
 30
0.0
 11
326.47
 21
83.7463
 31
0.0
  0
LINE
  8
0
 62
     0
 10
326.47
 20
83.7463
 30
0.0
 11
326.47
 21
97.7456
 31
0.0
  0
LINE
  8
0
 62
     0
 10
345.52
 20
97.7456
 30
0.0
 11
359.519
 21
97.7456
 31
0.0
  0
LINE
  8
0
 62
     0
 10
359.519
 20
97.7456
 30
0.0
 11
359.519
 21
83.7463
 31
0.0
  0
LINE
  8
0
 62
     0
 10
359.519
 20
83.7463
 30
0.0
 11
345.52
 21
83.7463
 31
0.0
  0
LINE
  8
0
 62
     0
 10
345.52
 20
83.7463
 30
0.0
 11
345.52
 21
97.7456
 31
0.0
  0
LINE
  8
0
 62
     0
 10
412.196
 20
97.7456
 30
0.0
 11
426.194
 21
97.7456
 31
0.0
  0
LINE
  8
0
 62
     0
 10
426.194
 20
97.7456
 30
0.0
 11
426.194
 21
83.7463
 31
0.0
  0
LINE
  8
0
 62
     0
 10
426.194
 20
83.7463
 30
0.0
 11
412.196
 21
83.7463
 31
0.0
  0
LINE
  8
0
 62
     0
 10
412.196
 20
83.7463
 30
0.0
 11
412.196
 21
97.7456
 31
0.0
  0
LINE
  8
0
 62
     0
 10
2.61965
 20
121.558
 30
0.0
 11
16.6192
 21
121.558
 31
0.0
  0
LINE
  8
0
 62
     0
 10
16.6192
 20
121.558
 30
0.0
 11
16.6192
 21
107.559
 31
0.0
  0
LINE
  8
0
 62
     0
 10
16.6192
 20
107.559
 30
0.0
 11
2.61965
 21
107.559
 31
0.0
  0
LINE
  8
0
 62
     0
 10
2.61965
 20
107.559
 30
0.0
 11
2.61965
 21
121.558
 31
0.0
  0
LINE
  8
0
 62
     0
 10
21.6697
 20
121.558
 30
0.0
 11
35.669
 21
121.558
 31
0.0
  0
LINE
  8
0
 62
     0
 10
35.669
 20
121.558
 30
0.0
 11
35.669
 21
107.559
 31
0.0
  0
LINE
  8
0
 62
     0
 10
35.669
 20
107.559
 30
0.0
 11
21.6697
 21
107.559
 31
0.0
  0
LINE
  8
0
 62
     0
 10
21.6697
 20
107.559
 30
0.0
 11
21.6697
 21
121.558
 31
0.0
  0
LINE
  8
0
 62
     0
 10
40.7197
 20
121.558
 30
0.0
 11
54.719
 21
121.558
 31
0.0
  0
LINE
  8
0
 62
     0
 10
54.719
 20
121.558
 30
0.0
 11
54.719
 21
107.559
 31
0.0
  0
LINE
  8
0
 62
     0
 10
54.719
 20
107.559
 30
0.0
 11
40.7197
 21
107.559
 31
0.0
  0
LINE
  8
0
 62
     0
 10
40.7197
 20
107.559
 30
0.0
 11
40.7197
 21
121.558
 31
0.0
  0
LINE
  8
0
 62
     0
 10
59.7697
 20
121.558
 30
0.0
 11
73.769
 21
121.558
 31
0.0
  0
LINE
  8
0
 62
     0
 10
73.769
 20
121.558
 30
0.0
 11
73.769
 21
107.559
 31
0.0
  0
LINE
  8
0
 62
     0
 10
73.769
 20
107.559
 30
0.0
 11
59.7697
 21
107.559
 31
0.0
  0
LINE
  8
0
 62
     0
 10
59.7697
 20
107.559
 30
0.0
 11
59.7697
 21
121.558
 31
0.0
  0
LINE
  8
0
 62
     0
 10
116.918
 20
121.558
 30
0.0
 11
130.919
 21
121.558
 31
0.0
  0
LINE
  8
0
 62
     0
 10
130.919
 20
121.558
 30
0.0
 11
130.919
 21
107.559
 31
0.0
  0
LINE
  8
0
 62
     0
 10
130.919
 20
107.559
 30
0.0
 11
116.918
 21
107.559
 31
0.0
  0
LINE
  8
0
 62
     0
 10
116.918
 20
107.559
 30
0.0
 11
116.918
 21
121.558
 31
0.0
  0
LINE
  8
0
 62
     0
 10
140.732
 20
121.558
 30
0.0
 11
154.732
 21
121.558
 31
0.0
  0
LINE
  8
0
 62
     0
 10
154.732
 20
121.558
 30
0.0
 11
154.732
 21
107.559
 31
0.0
  0
LINE
  8
0
 62
     0
 10
154.732
 20
107.559
 30
0.0
 11
140.732
 21
107.559
 31
0.0
  0
LINE
  8
0
 62
     0
 10
140.732
 20
107.559
 30
0.0
 11
140.732
 21
121.558
 31
0.0
  0
LINE
  8
0
 62
     0
 10
159.782
 20
121.558
 30
0.0
 11
173.782
 21
121.558
 31
0.0
  0
LINE
  8
0
 62
     0
 10
173.782
 20
121.558
 30
0.0
 11
173.782
 21
107.559
 31
0.0
  0
LINE
  8
0
 62
     0
 10
173.782
 20
107.559
 30
0.0
 11
159.782
 21
107.559
 31
0.0
  0
LINE
  8
0
 62
     0
 10
159.782
 20
107.559
 30
0.0
 11
159.782
 21
121.558
 31
0.0
  0
LINE
  8
0
 62
     0
 10
178.832
 20
121.558
 30
0.0
 11
192.832
 21
121.558
 31
0.0
  0
LINE
  8
0
 62
     0
 10
192.832
 20
121.558
 30
0.0
 11
192.832
 21
107.559
 31
0.0
  0
LINE
  8
0
 62
     0
 10
192.832
 20
107.559
 30
0.0
 11
178.832
 21
107.559
 31
0.0
  0
LINE
  8
0
 62
     0
 10
178.832
 20
107.559
 30
0.0
 11
178.832
 21
121.558
 31
0.0
  0
LINE
  8
0
 62
     0
 10
197.882
 20
121.558
 30
0.0
 11
211.882
 21
121.558
 31
0.0
  0
LINE
  8
0
 62
     0
 10
211.882
 20
121.558
 30
0.0
 11
211.882
 21
107.559
 31
0.0
  0
LINE
  8
0
 62
     0
 10
211.882
 20
107.559
 30
0.0
 11
197.882
 21
107.559
 31
0.0
  0
LINE
  8
0
 62
     0
 10
197.882
 20
107.559
 30
0.0
 11
197.882
 21
121.558
 31
0.0
  0
LINE
  8
0
 62
     0
 10
221.695
 20
121.558
 30
0.0
 11
235.694
 21
121.558
 31
0.0
  0
LINE
  8
0
 62
     0
 10
235.694
 20
121.558
 30
0.0
 11
235.694
 21
107.559
 31
0.0
  0
LINE
  8
0
 62
     0
 10
235.694
 20
107.559
 30
0.0
 11
221.695
 21
107.559
 31
0.0
  0
LINE
  8
0
 62
     0
 10
221.695
 20
107.559
 30
0.0
 11
221.695
 21
121.558
 31
0.0
  0
LINE
  8
0
 62
     0
 10
240.745
 20
121.558
 30
0.0
 11
254.744
 21
121.558
 31
0.0
  0
LINE
  8
0
 62
     0
 10
254.744
 20
121.558
 30
0.0
 11
254.744
 21
107.559
 31
0.0
  0
LINE
  8
0
 62
     0
 10
254.744
 20
107.559
 30
0.0
 11
240.745
 21
107.559
 31
0.0
  0
LINE
  8
0
 62
     0
 10
240.745
 20
107.559
 30
0.0
 11
240.745
 21
121.558
 31
0.0
  0
LINE
  8
0
 62
     0
 10
259.795
 20
121.558
 30
0.0
 11
273.794
 21
121.558
 31
0.0
  0
LINE
  8
0
 62
     0
 10
273.794
 20
121.558
 30
0.0
 11
273.794
 21
107.559
 31
0.0
  0
LINE
  8
0
 62
     0
 10
273.794
 20
107.559
 30
0.0
 11
259.795
 21
107.559
 31
0.0
  0
LINE
  8
0
 62
     0
 10
259.795
 20
107.559
 30
0.0
 11
259.795
 21
121.558
 31
0.0
  0
LINE
  8
0
 62
     0
 10
278.845
 20
121.558
 30
0.0
 11
292.844
 21
121.558
 31
0.0
  0
LINE
  8
0
 62
     0
 10
292.844
 20
121.558
 30
0.0
 11
292.844
 21
107.559
 31
0.0
  0
LINE
  8
0
 62
     0
 10
292.844
 20
107.559
 30
0.0
 11
278.845
 21
107.559
 31
0.0
  0
LINE
  8
0
 62
     0
 10
278.845
 20
107.559
 30
0.0
 11
278.845
 21
121.558
 31
0.0
  0
LINE
  8
0
 62
     0
 10
302.657
 20
121.558
 30
0.0
 11
316.657
 21
121.558
 31
0.0
  0
LINE
  8
0
 62
     0
 10
316.657
 20
121.558
 30
0.0
 11
316.657
 21
107.559
 31
0.0
  0
LINE
  8
0
 62
     0
 10
316.657
 20
107.559
 30
0.0
 11
302.657
 21
107.559
 31
0.0
  0
LINE
  8
0
 62
     0
 10
302.657
 20
107.559
 30
0.0
 11
302.657
 21
121.558
 31
0.0
  0
LINE
  8
0
 62
     0
 10
321.707
 20
121.558
 30
0.0
 11
335.707
 21
121.558
 31
0.0
  0
LINE
  8
0
 62
     0
 10
335.707
 20
121.558
 30
0.0
 11
335.707
 21
107.559
 31
0.0
  0
LINE
  8
0
 62
     0
 10
335.707
 20
107.559
 30
0.0
 11
321.707
 21
107.559
 31
0.0
  0
LINE
  8
0
 62
     0
 10
321.707
 20
107.559
 30
0.0
 11
321.707
 21
121.558
 31
0.0
  0
LINE
  8
0
 62
     0
 10
340.757
 20
121.558
 30
0.0
 11
354.757
 21
121.558
 31
0.0
  0
LINE
  8
0
 62
     0
 10
354.757
 20
121.558
 30
0.0
 11
354.757
 21
107.559
 31
0.0
  0
LINE
  8
0
 62
     0
 10
354.757
 20
107.559
 30
0.0
 11
340.757
 21
107.559
 31
0.0
  0
LINE
  8
0
 62
     0
 10
340.757
 20
107.559
 30
0.0
 11
340.757
 21
121.558
 31
0.0
  0
LINE
  8
0
 62
     0
 10
359.809
 20
121.558
 30
0.0
 11
373.807
 21
121.558
 31
0.0
  0
LINE
  8
0
 62
     0
 10
373.807
 20
121.558
 30
0.0
 11
373.807
 21
107.559
 31
0.0
  0
LINE
  8
0
 62
     0
 10
373.807
 20
107.559
 30
0.0
 11
359.809
 21
107.559
 31
0.0
  0
LINE
  8
0
 62
     0
 10
359.809
 20
107.559
 30
0.0
 11
359.809
 21
121.558
 31
0.0
  0
LINE
  8
0
 62
     0
 10
383.621
 20
121.558
 30
0.0
 11
397.619
 21
121.558
 31
0.0
  0
LINE
  8
0
 62
     0
 10
397.619
 20
121.558
 30
0.0
 11
397.619
 21
107.559
 31
0.0
  0
LINE
  8
0
 62
     0
 10
397.619
 20
107.559
 30
0.0
 11
383.621
 21
107.559
 31
0.0
  0
LINE
  8
0
 62
     0
 10
383.621
 20
107.559
 30
0.0
 11
383.621
 21
121.558
 31
0.0
  0
LINE
  8
0
 62
     0
 10
412.196
 20
121.558
 30
0.0
 11
426.194
 21
121.558
 31
0.0
  0
LINE
  8
0
 62
     0
 10
426.194
 20
121.558
 30
0.0
 11
426.194
 21
107.559
 31
0.0
  0
LINE
  8
0
 62
     0
 10
426.194
 20
107.559
 30
0.0
 11
412.196
 21
107.559
 31
0.0
  0
LINE
  8
0
 62
     0
 10
412.196
 20
107.559
 30
0.0
 11
412.196
 21
121.558
 31
0.0
  0
ENDSEC
  0
EOF
