  0
SECTION
  2
HEADER
  9
$ACADVER
  1
AC1009
  9
$FILLMODE
 70
 0
  9
$SPLFRAME
 70
 1
  9
$EXTMIN
 10
0
 20
0
 30
0.0
  9
$EXTMAX
 10
1058.33
 20
1058.33
 30
0.0
  0
ENDSEC
  0
SECTION
  2
TABLES
  0
TABLE
  2
LAYER
 70
1
  0
LAYER
  2
0
 70
     0
 62
     7
  6
CONTINUOUS
  0
ENDTAB
  0
ENDSEC
  0
SECTION
  2
ENTITIES
  0
LINE
  8
0
 62
     0
 10
0.0950846
 20
124.083
 30
0.0
 11
457.295
 21
124.083
 31
0.0
  0
LINE
  8
0
 62
     0
 10
457.295
 20
124.083
 30
0.0
 11
457.295
 21
0.257693
 31
0.0
  0
LINE
  8
0
 62
     0
 10
457.295
 20
0.257693
 30
0.0
 11
0.0950846
 21
0.257693
 31
0.0
  0
LINE
  8
0
 62
     0
 10
0.0950846
 20
0.257693
 30
0.0
 11
0.0950846
 21
124.083
 31
0.0
  0
LINE
  8
0
 62
     0
 10
397.909
 20
16.7831
 30
0.0
 11
411.907
 21
16.7831
 31
0.0
  0
LINE
  8
0
 62
     0
 10
411.907
 20
16.7831
 30
0.0
 11
411.907
 21
2.78364
 31
0.0
  0
LINE
  8
0
 62
     0
 10
411.907
 20
2.78364
 30
0.0
 11
397.909
 21
2.78364
 31
0.0
  0
LINE
  8
0
 62
     0
 10
397.909
 20
2.78364
 30
0.0
 11
397.909
 21
16.7831
 31
0.0
  0
LINE
  8
0
 62
     0
 10
416.959
 20
16.7831
 30
0.0
 11
430.957
 21
16.7831
 31
0.0
  0
LINE
  8
0
 62
     0
 10
430.957
 20
16.7831
 30
0.0
 11
430.957
 21
2.78364
 31
0.0
  0
LINE
  8
0
 62
     0
 10
430.957
 20
2.78364
 30
0.0
 11
416.959
 21
2.78364
 31
0.0
  0
LINE
  8
0
 62
     0
 10
416.959
 20
2.78364
 30
0.0
 11
416.959
 21
16.7831
 31
0.0
  0
LINE
  8
0
 62
     0
 10
436.009
 20
16.7831
 30
0.0
 11
450.007
 21
16.7831
 31
0.0
  0
LINE
  8
0
 62
     0
 10
450.007
 20
16.7831
 30
0.0
 11
450.007
 21
2.78364
 31
0.0
  0
LINE
  8
0
 62
     0
 10
450.007
 20
2.78364
 30
0.0
 11
436.009
 21
2.78364
 31
0.0
  0
LINE
  8
0
 62
     0
 10
436.009
 20
2.78364
 30
0.0
 11
436.009
 21
16.7831
 31
0.0
  0
LINE
  8
0
 62
     0
 10
74.0572
 20
21.5456
 30
0.0
 11
74.0572
 21
16.8465
 31
0.0
  0
LINE
  8
0
 62
     0
 10
74.0572
 20
16.8465
 30
0.0
 11
72.5318
 21
16.8465
 31
0.0
  0
LINE
  8
0
 62
     0
 10
72.5318
 20
16.8465
 30
0.0
 11
72.5318
 21
20.0767
 31
0.0
  0
LINE
  8
0
 62
     0
 10
72.5318
 20
20.0767
 30
0.0
 11
65.7821
 21
20.0767
 31
0.0
  0
LINE
  8
0
 62
     0
 10
65.7821
 20
20.0767
 30
0.0
 11
65.7821
 21
16.8465
 31
0.0
  0
LINE
  8
0
 62
     0
 10
65.7821
 20
16.8465
 30
0.0
 11
64.9566
 21
16.8465
 31
0.0
  0
LINE
  8
0
 62
     0
 10
64.9566
 20
16.8465
 30
0.0
 11
64.9566
 21
14.0463
 31
0.0
  0
LINE
  8
0
 62
     0
 10
64.9566
 20
14.0463
 30
0.0
 11
65.7821
 21
14.0463
 31
0.0
  0
LINE
  8
0
 62
     0
 10
65.7821
 20
14.0463
 30
0.0
 11
65.7821
 21
7.77628
 31
0.0
  0
LINE
  8
0
 62
     0
 10
65.7821
 20
7.77628
 30
0.0
 11
67.5058
 21
7.77628
 31
0.0
  0
LINE
  8
0
 62
     0
 10
67.5058
 20
7.77628
 30
0.0
 11
67.5058
 21
6.57599
 31
0.0
  0
LINE
  8
0
 62
     0
 10
67.5058
 20
6.57599
 30
0.0
 11
70.8064
 21
6.57599
 31
0.0
  0
LINE
  8
0
 62
     0
 10
70.8064
 20
6.57599
 30
0.0
 11
70.8064
 21
7.77628
 31
0.0
  0
LINE
  8
0
 62
     0
 10
70.8064
 20
7.77628
 30
0.0
 11
72.5318
 21
7.77628
 31
0.0
  0
LINE
  8
0
 62
     0
 10
72.5318
 20
7.77628
 30
0.0
 11
72.5318
 21
12.2466
 31
0.0
  0
LINE
  8
0
 62
     0
 10
72.5318
 20
12.2466
 30
0.0
 11
74.0572
 21
12.2466
 31
0.0
  0
LINE
  8
0
 62
     0
 10
74.0572
 20
12.2466
 30
0.0
 11
74.0572
 21
7.54613
 31
0.0
  0
LINE
  8
0
 62
     0
 10
74.0572
 20
7.54613
 30
0.0
 11
88.0565
 21
7.54613
 31
0.0
  0
LINE
  8
0
 62
     0
 10
88.0565
 20
7.54613
 30
0.0
 11
88.0565
 21
12.2466
 31
0.0
  0
LINE
  8
0
 62
     0
 10
88.0565
 20
12.2466
 30
0.0
 11
89.5823
 21
12.2466
 31
0.0
  0
LINE
  8
0
 62
     0
 10
89.5823
 20
12.2466
 30
0.0
 11
89.5823
 21
7.77628
 31
0.0
  0
LINE
  8
0
 62
     0
 10
89.5823
 20
7.77628
 30
0.0
 11
91.3059
 21
7.77628
 31
0.0
  0
LINE
  8
0
 62
     0
 10
91.3059
 20
7.77628
 30
0.0
 11
91.3059
 21
6.57599
 31
0.0
  0
LINE
  8
0
 62
     0
 10
91.3059
 20
6.57599
 30
0.0
 11
94.6065
 21
6.57599
 31
0.0
  0
LINE
  8
0
 62
     0
 10
94.6065
 20
6.57599
 30
0.0
 11
94.6065
 21
7.77628
 31
0.0
  0
LINE
  8
0
 62
     0
 10
94.6065
 20
7.77628
 30
0.0
 11
96.3316
 21
7.77628
 31
0.0
  0
LINE
  8
0
 62
     0
 10
96.3316
 20
7.77628
 30
0.0
 11
96.3316
 21
14.0463
 31
0.0
  0
LINE
  8
0
 62
     0
 10
96.3316
 20
14.0463
 30
0.0
 11
97.1557
 21
14.0463
 31
0.0
  0
LINE
  8
0
 62
     0
 10
97.1557
 20
14.0463
 30
0.0
 11
97.1557
 21
16.8465
 31
0.0
  0
LINE
  8
0
 62
     0
 10
97.1557
 20
16.8465
 30
0.0
 11
96.3316
 21
16.8465
 31
0.0
  0
LINE
  8
0
 62
     0
 10
96.3316
 20
16.8465
 30
0.0
 11
96.3316
 21
20.0767
 31
0.0
  0
LINE
  8
0
 62
     0
 10
96.3316
 20
20.0767
 30
0.0
 11
89.5823
 21
20.0767
 31
0.0
  0
LINE
  8
0
 62
     0
 10
89.5823
 20
20.0767
 30
0.0
 11
89.5823
 21
16.8465
 31
0.0
  0
LINE
  8
0
 62
     0
 10
89.5823
 20
16.8465
 30
0.0
 11
88.0565
 21
16.8465
 31
0.0
  0
LINE
  8
0
 62
     0
 10
88.0565
 20
16.8465
 30
0.0
 11
88.0565
 21
21.5456
 31
0.0
  0
LINE
  8
0
 62
     0
 10
88.0565
 20
21.5456
 30
0.0
 11
74.0572
 21
21.5456
 31
0.0
  0
LINE
  8
0
 62
     0
 10
233.601
 20
21.5456
 30
0.0
 11
233.601
 21
16.8465
 31
0.0
  0
LINE
  8
0
 62
     0
 10
233.601
 20
16.8465
 30
0.0
 11
232.076
 21
16.8465
 31
0.0
  0
LINE
  8
0
 62
     0
 10
232.076
 20
16.8465
 30
0.0
 11
232.076
 21
20.0767
 31
0.0
  0
LINE
  8
0
 62
     0
 10
232.076
 20
20.0767
 30
0.0
 11
225.326
 21
20.0767
 31
0.0
  0
LINE
  8
0
 62
     0
 10
225.326
 20
20.0767
 30
0.0
 11
225.326
 21
16.8465
 31
0.0
  0
LINE
  8
0
 62
     0
 10
225.326
 20
16.8465
 30
0.0
 11
224.5
 21
16.8465
 31
0.0
  0
LINE
  8
0
 62
     0
 10
224.5
 20
16.8465
 30
0.0
 11
224.5
 21
14.0463
 31
0.0
  0
LINE
  8
0
 62
     0
 10
224.5
 20
14.0463
 30
0.0
 11
225.326
 21
14.0463
 31
0.0
  0
LINE
  8
0
 62
     0
 10
225.326
 20
14.0463
 30
0.0
 11
225.326
 21
7.77628
 31
0.0
  0
LINE
  8
0
 62
     0
 10
225.326
 20
7.77628
 30
0.0
 11
227.051
 21
7.77628
 31
0.0
  0
LINE
  8
0
 62
     0
 10
227.051
 20
7.77628
 30
0.0
 11
227.051
 21
6.57599
 31
0.0
  0
LINE
  8
0
 62
     0
 10
227.051
 20
6.57599
 30
0.0
 11
230.35
 21
6.57599
 31
0.0
  0
LINE
  8
0
 62
     0
 10
230.35
 20
6.57599
 30
0.0
 11
230.35
 21
7.77628
 31
0.0
  0
LINE
  8
0
 62
     0
 10
230.35
 20
7.77628
 30
0.0
 11
232.076
 21
7.77628
 31
0.0
  0
LINE
  8
0
 62
     0
 10
232.076
 20
7.77628
 30
0.0
 11
232.076
 21
12.2466
 31
0.0
  0
LINE
  8
0
 62
     0
 10
232.076
 20
12.2466
 30
0.0
 11
233.601
 21
12.2466
 31
0.0
  0
LINE
  8
0
 62
     0
 10
233.601
 20
12.2466
 30
0.0
 11
233.601
 21
7.54613
 31
0.0
  0
LINE
  8
0
 62
     0
 10
233.601
 20
7.54613
 30
0.0
 11
247.6
 21
7.54613
 31
0.0
  0
LINE
  8
0
 62
     0
 10
247.6
 20
7.54613
 30
0.0
 11
247.6
 21
12.2466
 31
0.0
  0
LINE
  8
0
 62
     0
 10
247.6
 20
12.2466
 30
0.0
 11
249.126
 21
12.2466
 31
0.0
  0
LINE
  8
0
 62
     0
 10
249.126
 20
12.2466
 30
0.0
 11
249.126
 21
7.77628
 31
0.0
  0
LINE
  8
0
 62
     0
 10
249.126
 20
7.77628
 30
0.0
 11
250.85
 21
7.77628
 31
0.0
  0
LINE
  8
0
 62
     0
 10
250.85
 20
7.77628
 30
0.0
 11
250.85
 21
6.57599
 31
0.0
  0
LINE
  8
0
 62
     0
 10
250.85
 20
6.57599
 30
0.0
 11
254.149
 21
6.57599
 31
0.0
  0
LINE
  8
0
 62
     0
 10
254.149
 20
6.57599
 30
0.0
 11
254.149
 21
7.77628
 31
0.0
  0
LINE
  8
0
 62
     0
 10
254.149
 20
7.77628
 30
0.0
 11
255.875
 21
7.77628
 31
0.0
  0
LINE
  8
0
 62
     0
 10
255.875
 20
7.77628
 30
0.0
 11
255.875
 21
14.0463
 31
0.0
  0
LINE
  8
0
 62
     0
 10
255.875
 20
14.0463
 30
0.0
 11
256.701
 21
14.0463
 31
0.0
  0
LINE
  8
0
 62
     0
 10
256.701
 20
14.0463
 30
0.0
 11
256.701
 21
16.8465
 31
0.0
  0
LINE
  8
0
 62
     0
 10
256.701
 20
16.8465
 30
0.0
 11
255.875
 21
16.8465
 31
0.0
  0
LINE
  8
0
 62
     0
 10
255.875
 20
16.8465
 30
0.0
 11
255.875
 21
20.0767
 31
0.0
  0
LINE
  8
0
 62
     0
 10
255.875
 20
20.0767
 30
0.0
 11
249.126
 21
20.0767
 31
0.0
  0
LINE
  8
0
 62
     0
 10
249.126
 20
20.0767
 30
0.0
 11
249.126
 21
16.8465
 31
0.0
  0
LINE
  8
0
 62
     0
 10
249.126
 20
16.8465
 30
0.0
 11
247.6
 21
16.8465
 31
0.0
  0
LINE
  8
0
 62
     0
 10
247.6
 20
16.8465
 30
0.0
 11
247.6
 21
21.5456
 31
0.0
  0
LINE
  8
0
 62
     0
 10
247.6
 20
21.5456
 30
0.0
 11
233.601
 21
21.5456
 31
0.0
  0
LINE
  8
0
 62
     0
 10
305.037
 20
21.5456
 30
0.0
 11
305.037
 21
16.8465
 31
0.0
  0
LINE
  8
0
 62
     0
 10
305.037
 20
16.8465
 30
0.0
 11
303.513
 21
16.8465
 31
0.0
  0
LINE
  8
0
 62
     0
 10
303.513
 20
16.8465
 30
0.0
 11
303.513
 21
20.0767
 31
0.0
  0
LINE
  8
0
 62
     0
 10
303.513
 20
20.0767
 30
0.0
 11
296.762
 21
20.0767
 31
0.0
  0
LINE
  8
0
 62
     0
 10
296.762
 20
20.0767
 30
0.0
 11
296.762
 21
16.8465
 31
0.0
  0
LINE
  8
0
 62
     0
 10
296.762
 20
16.8465
 30
0.0
 11
295.938
 21
16.8465
 31
0.0
  0
LINE
  8
0
 62
     0
 10
295.938
 20
16.8465
 30
0.0
 11
295.938
 21
14.0463
 31
0.0
  0
LINE
  8
0
 62
     0
 10
295.938
 20
14.0463
 30
0.0
 11
296.762
 21
14.0463
 31
0.0
  0
LINE
  8
0
 62
     0
 10
296.762
 20
14.0463
 30
0.0
 11
296.762
 21
7.77628
 31
0.0
  0
LINE
  8
0
 62
     0
 10
296.762
 20
7.77628
 30
0.0
 11
298.487
 21
7.77628
 31
0.0
  0
LINE
  8
0
 62
     0
 10
298.487
 20
7.77628
 30
0.0
 11
298.487
 21
6.57599
 31
0.0
  0
LINE
  8
0
 62
     0
 10
298.487
 20
6.57599
 30
0.0
 11
301.788
 21
6.57599
 31
0.0
  0
LINE
  8
0
 62
     0
 10
301.788
 20
6.57599
 30
0.0
 11
301.788
 21
7.77628
 31
0.0
  0
LINE
  8
0
 62
     0
 10
301.788
 20
7.77628
 30
0.0
 11
303.513
 21
7.77628
 31
0.0
  0
LINE
  8
0
 62
     0
 10
303.513
 20
7.77628
 30
0.0
 11
303.513
 21
12.2466
 31
0.0
  0
LINE
  8
0
 62
     0
 10
303.513
 20
12.2466
 30
0.0
 11
305.037
 21
12.2466
 31
0.0
  0
LINE
  8
0
 62
     0
 10
305.037
 20
12.2466
 30
0.0
 11
305.037
 21
7.54613
 31
0.0
  0
LINE
  8
0
 62
     0
 10
305.037
 20
7.54613
 30
0.0
 11
319.038
 21
7.54613
 31
0.0
  0
LINE
  8
0
 62
     0
 10
319.038
 20
7.54613
 30
0.0
 11
319.038
 21
12.2466
 31
0.0
  0
LINE
  8
0
 62
     0
 10
319.038
 20
12.2466
 30
0.0
 11
320.562
 21
12.2466
 31
0.0
  0
LINE
  8
0
 62
     0
 10
320.562
 20
12.2466
 30
0.0
 11
320.562
 21
7.77628
 31
0.0
  0
LINE
  8
0
 62
     0
 10
320.562
 20
7.77628
 30
0.0
 11
322.287
 21
7.77628
 31
0.0
  0
LINE
  8
0
 62
     0
 10
322.287
 20
7.77628
 30
0.0
 11
322.287
 21
6.57599
 31
0.0
  0
LINE
  8
0
 62
     0
 10
322.287
 20
6.57599
 30
0.0
 11
325.588
 21
6.57599
 31
0.0
  0
LINE
  8
0
 62
     0
 10
325.588
 20
6.57599
 30
0.0
 11
325.588
 21
7.77628
 31
0.0
  0
LINE
  8
0
 62
     0
 10
325.588
 20
7.77628
 30
0.0
 11
327.313
 21
7.77628
 31
0.0
  0
LINE
  8
0
 62
     0
 10
327.313
 20
7.77628
 30
0.0
 11
327.313
 21
14.0463
 31
0.0
  0
LINE
  8
0
 62
     0
 10
327.313
 20
14.0463
 30
0.0
 11
328.137
 21
14.0463
 31
0.0
  0
LINE
  8
0
 62
     0
 10
328.137
 20
14.0463
 30
0.0
 11
328.137
 21
16.8465
 31
0.0
  0
LINE
  8
0
 62
     0
 10
328.137
 20
16.8465
 30
0.0
 11
327.313
 21
16.8465
 31
0.0
  0
LINE
  8
0
 62
     0
 10
327.313
 20
16.8465
 30
0.0
 11
327.313
 21
20.0767
 31
0.0
  0
LINE
  8
0
 62
     0
 10
327.313
 20
20.0767
 30
0.0
 11
320.562
 21
20.0767
 31
0.0
  0
LINE
  8
0
 62
     0
 10
320.562
 20
20.0767
 30
0.0
 11
320.562
 21
16.8465
 31
0.0
  0
LINE
  8
0
 62
     0
 10
320.562
 20
16.8465
 30
0.0
 11
319.038
 21
16.8465
 31
0.0
  0
LINE
  8
0
 62
     0
 10
319.038
 20
16.8465
 30
0.0
 11
319.038
 21
21.5456
 31
0.0
  0
LINE
  8
0
 62
     0
 10
319.038
 20
21.5456
 30
0.0
 11
305.037
 21
21.5456
 31
0.0
  0
LINE
  8
0
 62
     0
 10
2.61965
 20
21.5456
 30
0.0
 11
16.6192
 21
21.5456
 31
0.0
  0
LINE
  8
0
 62
     0
 10
16.6192
 20
21.5456
 30
0.0
 11
16.6192
 21
7.54613
 31
0.0
  0
LINE
  8
0
 62
     0
 10
16.6192
 20
7.54613
 30
0.0
 11
2.61965
 21
7.54613
 31
0.0
  0
LINE
  8
0
 62
     0
 10
2.61965
 20
7.54613
 30
0.0
 11
2.61965
 21
21.5456
 31
0.0
  0
LINE
  8
0
 62
     0
 10
45.4822
 20
21.5456
 30
0.0
 11
59.4815
 21
21.5456
 31
0.0
  0
LINE
  8
0
 62
     0
 10
59.4815
 20
21.5456
 30
0.0
 11
59.4815
 21
7.54613
 31
0.0
  0
LINE
  8
0
 62
     0
 10
59.4815
 20
7.54613
 30
0.0
 11
45.4822
 21
7.54613
 31
0.0
  0
LINE
  8
0
 62
     0
 10
45.4822
 20
7.54613
 30
0.0
 11
45.4822
 21
21.5456
 31
0.0
  0
LINE
  8
0
 62
     0
 10
147.876
 20
21.5456
 30
0.0
 11
161.875
 21
21.5456
 31
0.0
  0
LINE
  8
0
 62
     0
 10
161.875
 20
21.5456
 30
0.0
 11
161.875
 21
7.54613
 31
0.0
  0
LINE
  8
0
 62
     0
 10
161.875
 20
7.54613
 30
0.0
 11
147.876
 21
7.54613
 31
0.0
  0
LINE
  8
0
 62
     0
 10
147.876
 20
7.54613
 30
0.0
 11
147.876
 21
21.5456
 31
0.0
  0
LINE
  8
0
 62
     0
 10
171.687
 20
21.5456
 30
0.0
 11
185.688
 21
21.5456
 31
0.0
  0
LINE
  8
0
 62
     0
 10
185.688
 20
21.5456
 30
0.0
 11
185.688
 21
7.54613
 31
0.0
  0
LINE
  8
0
 62
     0
 10
185.688
 20
7.54613
 30
0.0
 11
171.687
 21
7.54613
 31
0.0
  0
LINE
  8
0
 62
     0
 10
171.687
 20
7.54613
 30
0.0
 11
171.687
 21
21.5456
 31
0.0
  0
LINE
  8
0
 62
     0
 10
195.501
 20
21.5456
 30
0.0
 11
209.5
 21
21.5456
 31
0.0
  0
LINE
  8
0
 62
     0
 10
209.5
 20
21.5456
 30
0.0
 11
209.5
 21
7.54613
 31
0.0
  0
LINE
  8
0
 62
     0
 10
209.5
 20
7.54613
 30
0.0
 11
195.501
 21
7.54613
 31
0.0
  0
LINE
  8
0
 62
     0
 10
195.501
 20
7.54613
 30
0.0
 11
195.501
 21
21.5456
 31
0.0
  0
LINE
  8
0
 62
     0
 10
271.701
 20
21.5456
 30
0.0
 11
285.7
 21
21.5456
 31
0.0
  0
LINE
  8
0
 62
     0
 10
285.7
 20
21.5456
 30
0.0
 11
285.7
 21
7.54613
 31
0.0
  0
LINE
  8
0
 62
     0
 10
285.7
 20
7.54613
 30
0.0
 11
271.701
 21
7.54613
 31
0.0
  0
LINE
  8
0
 62
     0
 10
271.701
 20
7.54613
 30
0.0
 11
271.701
 21
21.5456
 31
0.0
  0
LINE
  8
0
 62
     0
 10
340.757
 20
21.5456
 30
0.0
 11
354.757
 21
21.5456
 31
0.0
  0
LINE
  8
0
 62
     0
 10
354.757
 20
21.5456
 30
0.0
 11
354.757
 21
7.54613
 31
0.0
  0
LINE
  8
0
 62
     0
 10
354.757
 20
7.54613
 30
0.0
 11
340.757
 21
7.54613
 31
0.0
  0
LINE
  8
0
 62
     0
 10
340.757
 20
7.54613
 30
0.0
 11
340.757
 21
21.5456
 31
0.0
  0
LINE
  8
0
 62
     0
 10
369.334
 20
21.5456
 30
0.0
 11
383.332
 21
21.5456
 31
0.0
  0
LINE
  8
0
 62
     0
 10
383.332
 20
21.5456
 30
0.0
 11
383.332
 21
7.54613
 31
0.0
  0
LINE
  8
0
 62
     0
 10
383.332
 20
7.54613
 30
0.0
 11
369.334
 21
7.54613
 31
0.0
  0
LINE
  8
0
 62
     0
 10
369.334
 20
7.54613
 30
0.0
 11
369.334
 21
21.5456
 31
0.0
  0
LINE
  8
0
 62
     0
 10
32.931
 20
40.1712
 30
0.0
 11
32.931
 21
39.3457
 31
0.0
  0
LINE
  8
0
 62
     0
 10
32.931
 20
39.3457
 30
0.0
 11
26.6609
 21
39.3457
 31
0.0
  0
LINE
  8
0
 62
     0
 10
26.6609
 20
39.3457
 30
0.0
 11
26.6609
 21
37.622
 31
0.0
  0
LINE
  8
0
 62
     0
 10
26.6609
 20
37.622
 30
0.0
 11
25.462
 21
37.622
 31
0.0
  0
LINE
  8
0
 62
     0
 10
25.462
 20
37.622
 30
0.0
 11
25.462
 21
34.3214
 31
0.0
  0
LINE
  8
0
 62
     0
 10
25.462
 20
34.3214
 30
0.0
 11
26.6609
 21
34.3214
 31
0.0
  0
LINE
  8
0
 62
     0
 10
26.6609
 20
34.3214
 30
0.0
 11
26.6609
 21
32.5961
 31
0.0
  0
LINE
  8
0
 62
     0
 10
26.6609
 20
32.5961
 30
0.0
 11
31.1313
 21
32.5961
 31
0.0
  0
LINE
  8
0
 62
     0
 10
31.1313
 20
32.5961
 30
0.0
 11
31.1313
 21
31.0706
 31
0.0
  0
LINE
  8
0
 62
     0
 10
31.1313
 20
31.0706
 30
0.0
 11
26.4322
 21
31.0706
 31
0.0
  0
LINE
  8
0
 62
     0
 10
26.4322
 20
31.0706
 30
0.0
 11
26.4322
 21
17.0711
 31
0.0
  0
LINE
  8
0
 62
     0
 10
26.4322
 20
17.0711
 30
0.0
 11
31.1313
 21
17.0711
 31
0.0
  0
LINE
  8
0
 62
     0
 10
31.1313
 20
17.0711
 30
0.0
 11
31.1313
 21
15.5456
 31
0.0
  0
LINE
  8
0
 62
     0
 10
31.1313
 20
15.5456
 30
0.0
 11
26.6609
 21
15.5456
 31
0.0
  0
LINE
  8
0
 62
     0
 10
26.6609
 20
15.5456
 30
0.0
 11
26.6609
 21
13.8217
 31
0.0
  0
LINE
  8
0
 62
     0
 10
26.6609
 20
13.8217
 30
0.0
 11
25.462
 21
13.8217
 31
0.0
  0
LINE
  8
0
 62
     0
 10
25.462
 20
13.8217
 30
0.0
 11
25.462
 21
10.5213
 31
0.0
  0
LINE
  8
0
 62
     0
 10
25.462
 20
10.5213
 30
0.0
 11
26.6609
 21
10.5213
 31
0.0
  0
LINE
  8
0
 62
     0
 10
26.6609
 20
10.5213
 30
0.0
 11
26.6609
 21
8.79602
 31
0.0
  0
LINE
  8
0
 62
     0
 10
26.6609
 20
8.79602
 30
0.0
 11
32.931
 21
8.79602
 31
0.0
  0
LINE
  8
0
 62
     0
 10
32.931
 20
8.79602
 30
0.0
 11
32.931
 21
7.97197
 31
0.0
  0
LINE
  8
0
 62
     0
 10
32.931
 20
7.97197
 30
0.0
 11
35.7311
 21
7.97197
 31
0.0
  0
LINE
  8
0
 62
     0
 10
35.7311
 20
7.97197
 30
0.0
 11
35.7311
 21
8.79602
 31
0.0
  0
LINE
  8
0
 62
     0
 10
35.7311
 20
8.79602
 30
0.0
 11
38.9611
 21
8.79602
 31
0.0
  0
LINE
  8
0
 62
     0
 10
38.9611
 20
8.79602
 30
0.0
 11
38.9611
 21
15.5456
 31
0.0
  0
LINE
  8
0
 62
     0
 10
38.9611
 20
15.5456
 30
0.0
 11
35.7311
 21
15.5456
 31
0.0
  0
LINE
  8
0
 62
     0
 10
35.7311
 20
15.5456
 30
0.0
 11
35.7311
 21
17.0711
 31
0.0
  0
LINE
  8
0
 62
     0
 10
35.7311
 20
17.0711
 30
0.0
 11
40.4315
 21
17.0711
 31
0.0
  0
LINE
  8
0
 62
     0
 10
40.4315
 20
17.0711
 30
0.0
 11
40.4315
 21
31.0706
 31
0.0
  0
LINE
  8
0
 62
     0
 10
40.4315
 20
31.0706
 30
0.0
 11
35.7311
 21
31.0706
 31
0.0
  0
LINE
  8
0
 62
     0
 10
35.7311
 20
31.0706
 30
0.0
 11
35.7311
 21
32.5961
 31
0.0
  0
LINE
  8
0
 62
     0
 10
35.7311
 20
32.5961
 30
0.0
 11
38.9611
 21
32.5961
 31
0.0
  0
LINE
  8
0
 62
     0
 10
38.9611
 20
32.5961
 30
0.0
 11
38.9611
 21
39.3457
 31
0.0
  0
LINE
  8
0
 62
     0
 10
38.9611
 20
39.3457
 30
0.0
 11
35.7311
 21
39.3457
 31
0.0
  0
LINE
  8
0
 62
     0
 10
35.7311
 20
39.3457
 30
0.0
 11
35.7311
 21
40.1712
 31
0.0
  0
LINE
  8
0
 62
     0
 10
35.7311
 20
40.1712
 30
0.0
 11
32.931
 21
40.1712
 31
0.0
  0
LINE
  8
0
 62
     0
 10
416.959
 20
35.833
 30
0.0
 11
430.957
 21
35.833
 31
0.0
  0
LINE
  8
0
 62
     0
 10
430.957
 20
35.833
 30
0.0
 11
430.957
 21
21.8336
 31
0.0
  0
LINE
  8
0
 62
     0
 10
430.957
 20
21.8336
 30
0.0
 11
416.959
 21
21.8336
 31
0.0
  0
LINE
  8
0
 62
     0
 10
416.959
 20
21.8336
 30
0.0
 11
416.959
 21
35.833
 31
0.0
  0
LINE
  8
0
 62
     0
 10
157.401
 20
40.5955
 30
0.0
 11
157.401
 21
35.8965
 31
0.0
  0
LINE
  8
0
 62
     0
 10
157.401
 20
35.8965
 30
0.0
 11
155.876
 21
35.8965
 31
0.0
  0
LINE
  8
0
 62
     0
 10
155.876
 20
35.8965
 30
0.0
 11
155.876
 21
39.1266
 31
0.0
  0
LINE
  8
0
 62
     0
 10
155.876
 20
39.1266
 30
0.0
 11
149.126
 21
39.1266
 31
0.0
  0
LINE
  8
0
 62
     0
 10
149.126
 20
39.1266
 30
0.0
 11
149.126
 21
35.8965
 31
0.0
  0
LINE
  8
0
 62
     0
 10
149.126
 20
35.8965
 30
0.0
 11
148.3
 21
35.8965
 31
0.0
  0
LINE
  8
0
 62
     0
 10
148.3
 20
35.8965
 30
0.0
 11
148.3
 21
33.0963
 31
0.0
  0
LINE
  8
0
 62
     0
 10
148.3
 20
33.0963
 30
0.0
 11
149.126
 21
33.0963
 31
0.0
  0
LINE
  8
0
 62
     0
 10
149.126
 20
33.0963
 30
0.0
 11
149.126
 21
26.8263
 31
0.0
  0
LINE
  8
0
 62
     0
 10
149.126
 20
26.8263
 30
0.0
 11
150.851
 21
26.8263
 31
0.0
  0
LINE
  8
0
 62
     0
 10
150.851
 20
26.8263
 30
0.0
 11
150.851
 21
25.626
 31
0.0
  0
LINE
  8
0
 62
     0
 10
150.851
 20
25.626
 30
0.0
 11
154.15
 21
25.626
 31
0.0
  0
LINE
  8
0
 62
     0
 10
154.15
 20
25.626
 30
0.0
 11
154.15
 21
26.8263
 31
0.0
  0
LINE
  8
0
 62
     0
 10
154.15
 20
26.8263
 30
0.0
 11
155.876
 21
26.8263
 31
0.0
  0
LINE
  8
0
 62
     0
 10
155.876
 20
26.8263
 30
0.0
 11
155.876
 21
31.2966
 31
0.0
  0
LINE
  8
0
 62
     0
 10
155.876
 20
31.2966
 30
0.0
 11
157.401
 21
31.2966
 31
0.0
  0
LINE
  8
0
 62
     0
 10
157.401
 20
31.2966
 30
0.0
 11
157.401
 21
26.5961
 31
0.0
  0
LINE
  8
0
 62
     0
 10
157.401
 20
26.5961
 30
0.0
 11
171.4
 21
26.5961
 31
0.0
  0
LINE
  8
0
 62
     0
 10
171.4
 20
26.5961
 30
0.0
 11
171.4
 21
31.2966
 31
0.0
  0
LINE
  8
0
 62
     0
 10
171.4
 20
31.2966
 30
0.0
 11
172.926
 21
31.2966
 31
0.0
  0
LINE
  8
0
 62
     0
 10
172.926
 20
31.2966
 30
0.0
 11
172.926
 21
26.8263
 31
0.0
  0
LINE
  8
0
 62
     0
 10
172.926
 20
26.8263
 30
0.0
 11
174.65
 21
26.8263
 31
0.0
  0
LINE
  8
0
 62
     0
 10
174.65
 20
26.8263
 30
0.0
 11
174.65
 21
25.626
 31
0.0
  0
LINE
  8
0
 62
     0
 10
174.65
 20
25.626
 30
0.0
 11
177.95
 21
25.626
 31
0.0
  0
LINE
  8
0
 62
     0
 10
177.95
 20
25.626
 30
0.0
 11
177.95
 21
26.8263
 31
0.0
  0
LINE
  8
0
 62
     0
 10
177.95
 20
26.8263
 30
0.0
 11
179.675
 21
26.8263
 31
0.0
  0
LINE
  8
0
 62
     0
 10
179.675
 20
26.8263
 30
0.0
 11
179.675
 21
33.0963
 31
0.0
  0
LINE
  8
0
 62
     0
 10
179.675
 20
33.0963
 30
0.0
 11
180.501
 21
33.0963
 31
0.0
  0
LINE
  8
0
 62
     0
 10
180.501
 20
33.0963
 30
0.0
 11
180.501
 21
35.8965
 31
0.0
  0
LINE
  8
0
 62
     0
 10
180.501
 20
35.8965
 30
0.0
 11
179.675
 21
35.8965
 31
0.0
  0
LINE
  8
0
 62
     0
 10
179.675
 20
35.8965
 30
0.0
 11
179.675
 21
39.1266
 31
0.0
  0
LINE
  8
0
 62
     0
 10
179.675
 20
39.1266
 30
0.0
 11
172.926
 21
39.1266
 31
0.0
  0
LINE
  8
0
 62
     0
 10
172.926
 20
39.1266
 30
0.0
 11
172.926
 21
35.8965
 31
0.0
  0
LINE
  8
0
 62
     0
 10
172.926
 20
35.8965
 30
0.0
 11
171.4
 21
35.8965
 31
0.0
  0
LINE
  8
0
 62
     0
 10
171.4
 20
35.8965
 30
0.0
 11
171.4
 21
40.5955
 31
0.0
  0
LINE
  8
0
 62
     0
 10
171.4
 20
40.5955
 30
0.0
 11
157.401
 21
40.5955
 31
0.0
  0
LINE
  8
0
 62
     0
 10
2.61965
 20
40.5955
 30
0.0
 11
16.6192
 21
40.5955
 31
0.0
  0
LINE
  8
0
 62
     0
 10
16.6192
 20
40.5955
 30
0.0
 11
16.6192
 21
26.5961
 31
0.0
  0
LINE
  8
0
 62
     0
 10
16.6192
 20
26.5961
 30
0.0
 11
2.61965
 21
26.5961
 31
0.0
  0
LINE
  8
0
 62
     0
 10
2.61965
 20
26.5961
 30
0.0
 11
2.61965
 21
40.5955
 31
0.0
  0
LINE
  8
0
 62
     0
 10
45.4822
 20
40.5955
 30
0.0
 11
59.4815
 21
40.5955
 31
0.0
  0
LINE
  8
0
 62
     0
 10
59.4815
 20
40.5955
 30
0.0
 11
59.4815
 21
26.5961
 31
0.0
  0
LINE
  8
0
 62
     0
 10
59.4815
 20
26.5961
 30
0.0
 11
45.4822
 21
26.5961
 31
0.0
  0
LINE
  8
0
 62
     0
 10
45.4822
 20
26.5961
 30
0.0
 11
45.4822
 21
40.5955
 31
0.0
  0
LINE
  8
0
 62
     0
 10
64.5322
 20
40.5955
 30
0.0
 11
78.5315
 21
40.5955
 31
0.0
  0
LINE
  8
0
 62
     0
 10
78.5315
 20
40.5955
 30
0.0
 11
78.5315
 21
26.5961
 31
0.0
  0
LINE
  8
0
 62
     0
 10
78.5315
 20
26.5961
 30
0.0
 11
64.5322
 21
26.5961
 31
0.0
  0
LINE
  8
0
 62
     0
 10
64.5322
 20
26.5961
 30
0.0
 11
64.5322
 21
40.5955
 31
0.0
  0
LINE
  8
0
 62
     0
 10
83.5822
 20
40.5955
 30
0.0
 11
97.5815
 21
40.5955
 31
0.0
  0
LINE
  8
0
 62
     0
 10
97.5815
 20
40.5955
 30
0.0
 11
97.5815
 21
26.5961
 31
0.0
  0
LINE
  8
0
 62
     0
 10
97.5815
 20
26.5961
 30
0.0
 11
83.5822
 21
26.5961
 31
0.0
  0
LINE
  8
0
 62
     0
 10
83.5822
 20
26.5961
 30
0.0
 11
83.5822
 21
40.5955
 31
0.0
  0
LINE
  8
0
 62
     0
 10
188.357
 20
40.5955
 30
0.0
 11
202.357
 21
40.5955
 31
0.0
  0
LINE
  8
0
 62
     0
 10
202.357
 20
40.5955
 30
0.0
 11
202.357
 21
26.5961
 31
0.0
  0
LINE
  8
0
 62
     0
 10
202.357
 20
26.5961
 30
0.0
 11
188.357
 21
26.5961
 31
0.0
  0
LINE
  8
0
 62
     0
 10
188.357
 20
26.5961
 30
0.0
 11
188.357
 21
40.5955
 31
0.0
  0
LINE
  8
0
 62
     0
 10
207.407
 20
40.5955
 30
0.0
 11
221.407
 21
40.5955
 31
0.0
  0
LINE
  8
0
 62
     0
 10
221.407
 20
40.5955
 30
0.0
 11
221.407
 21
26.5961
 31
0.0
  0
LINE
  8
0
 62
     0
 10
221.407
 20
26.5961
 30
0.0
 11
207.407
 21
26.5961
 31
0.0
  0
LINE
  8
0
 62
     0
 10
207.407
 20
26.5961
 30
0.0
 11
207.407
 21
40.5955
 31
0.0
  0
LINE
  8
0
 62
     0
 10
226.457
 20
40.5955
 30
0.0
 11
240.457
 21
40.5955
 31
0.0
  0
LINE
  8
0
 62
     0
 10
240.457
 20
40.5955
 30
0.0
 11
240.457
 21
26.5961
 31
0.0
  0
LINE
  8
0
 62
     0
 10
240.457
 20
26.5961
 30
0.0
 11
226.457
 21
26.5961
 31
0.0
  0
LINE
  8
0
 62
     0
 10
226.457
 20
26.5961
 30
0.0
 11
226.457
 21
40.5955
 31
0.0
  0
LINE
  8
0
 62
     0
 10
245.507
 20
40.5955
 30
0.0
 11
259.507
 21
40.5955
 31
0.0
  0
LINE
  8
0
 62
     0
 10
259.507
 20
40.5955
 30
0.0
 11
259.507
 21
26.5961
 31
0.0
  0
LINE
  8
0
 62
     0
 10
259.507
 20
26.5961
 30
0.0
 11
245.507
 21
26.5961
 31
0.0
  0
LINE
  8
0
 62
     0
 10
245.507
 20
26.5961
 30
0.0
 11
245.507
 21
40.5955
 31
0.0
  0
LINE
  8
0
 62
     0
 10
264.557
 20
40.5955
 30
0.0
 11
278.557
 21
40.5955
 31
0.0
  0
LINE
  8
0
 62
     0
 10
278.557
 20
40.5955
 30
0.0
 11
278.557
 21
26.5961
 31
0.0
  0
LINE
  8
0
 62
     0
 10
278.557
 20
26.5961
 30
0.0
 11
264.557
 21
26.5961
 31
0.0
  0
LINE
  8
0
 62
     0
 10
264.557
 20
26.5961
 30
0.0
 11
264.557
 21
40.5955
 31
0.0
  0
LINE
  8
0
 62
     0
 10
283.607
 20
40.5955
 30
0.0
 11
297.607
 21
40.5955
 31
0.0
  0
LINE
  8
0
 62
     0
 10
297.607
 20
40.5955
 30
0.0
 11
297.607
 21
26.5961
 31
0.0
  0
LINE
  8
0
 62
     0
 10
297.607
 20
26.5961
 30
0.0
 11
283.607
 21
26.5961
 31
0.0
  0
LINE
  8
0
 62
     0
 10
283.607
 20
26.5961
 30
0.0
 11
283.607
 21
40.5955
 31
0.0
  0
LINE
  8
0
 62
     0
 10
302.657
 20
40.5955
 30
0.0
 11
316.657
 21
40.5955
 31
0.0
  0
LINE
  8
0
 62
     0
 10
316.657
 20
40.5955
 30
0.0
 11
316.657
 21
26.5961
 31
0.0
  0
LINE
  8
0
 62
     0
 10
316.657
 20
26.5961
 30
0.0
 11
302.657
 21
26.5961
 31
0.0
  0
LINE
  8
0
 62
     0
 10
302.657
 20
26.5961
 30
0.0
 11
302.657
 21
40.5955
 31
0.0
  0
LINE
  8
0
 62
     0
 10
321.707
 20
40.5955
 30
0.0
 11
335.707
 21
40.5955
 31
0.0
  0
LINE
  8
0
 62
     0
 10
335.707
 20
40.5955
 30
0.0
 11
335.707
 21
26.5961
 31
0.0
  0
LINE
  8
0
 62
     0
 10
335.707
 20
26.5961
 30
0.0
 11
321.707
 21
26.5961
 31
0.0
  0
LINE
  8
0
 62
     0
 10
321.707
 20
26.5961
 30
0.0
 11
321.707
 21
40.5955
 31
0.0
  0
LINE
  8
0
 62
     0
 10
340.757
 20
40.5955
 30
0.0
 11
354.757
 21
40.5955
 31
0.0
  0
LINE
  8
0
 62
     0
 10
354.757
 20
40.5955
 30
0.0
 11
354.757
 21
26.5961
 31
0.0
  0
LINE
  8
0
 62
     0
 10
354.757
 20
26.5961
 30
0.0
 11
340.757
 21
26.5961
 31
0.0
  0
LINE
  8
0
 62
     0
 10
340.757
 20
26.5961
 30
0.0
 11
340.757
 21
40.5955
 31
0.0
  0
LINE
  8
0
 62
     0
 10
359.809
 20
40.5955
 30
0.0
 11
373.807
 21
40.5955
 31
0.0
  0
LINE
  8
0
 62
     0
 10
373.807
 20
40.5955
 30
0.0
 11
373.807
 21
26.5961
 31
0.0
  0
LINE
  8
0
 62
     0
 10
373.807
 20
26.5961
 30
0.0
 11
359.809
 21
26.5961
 31
0.0
  0
LINE
  8
0
 62
     0
 10
359.809
 20
26.5961
 30
0.0
 11
359.809
 21
40.5955
 31
0.0
  0
LINE
  8
0
 62
     0
 10
386.002
 20
40.5955
 30
0.0
 11
400.001
 21
40.5955
 31
0.0
  0
LINE
  8
0
 62
     0
 10
400.001
 20
40.5955
 30
0.0
 11
400.001
 21
26.5961
 31
0.0
  0
LINE
  8
0
 62
     0
 10
400.001
 20
26.5961
 30
0.0
 11
386.002
 21
26.5961
 31
0.0
  0
LINE
  8
0
 62
     0
 10
386.002
 20
26.5961
 30
0.0
 11
386.002
 21
40.5955
 31
0.0
  0
LINE
  8
0
 62
     0
 10
440.771
 20
40.5955
 30
0.0
 11
454.769
 21
40.5955
 31
0.0
  0
LINE
  8
0
 62
     0
 10
454.769
 20
40.5955
 30
0.0
 11
454.769
 21
26.5961
 31
0.0
  0
LINE
  8
0
 62
     0
 10
454.769
 20
26.5961
 30
0.0
 11
440.771
 21
26.5961
 31
0.0
  0
LINE
  8
0
 62
     0
 10
440.771
 20
26.5961
 30
0.0
 11
440.771
 21
40.5955
 31
0.0
  0
LINE
  8
0
 62
     0
 10
400.286
 20
59.6456
 30
0.0
 11
400.286
 21
54.9465
 31
0.0
  0
LINE
  8
0
 62
     0
 10
400.286
 20
54.9465
 30
0.0
 11
398.762
 21
54.9465
 31
0.0
  0
LINE
  8
0
 62
     0
 10
398.762
 20
54.9465
 30
0.0
 11
398.762
 21
58.1766
 31
0.0
  0
LINE
  8
0
 62
     0
 10
398.762
 20
58.1766
 30
0.0
 11
392.01
 21
58.1766
 31
0.0
  0
LINE
  8
0
 62
     0
 10
392.01
 20
58.1766
 30
0.0
 11
392.01
 21
54.9465
 31
0.0
  0
LINE
  8
0
 62
     0
 10
392.01
 20
54.9465
 30
0.0
 11
391.188
 21
54.9465
 31
0.0
  0
LINE
  8
0
 62
     0
 10
391.188
 20
54.9465
 30
0.0
 11
391.188
 21
52.1462
 31
0.0
  0
LINE
  8
0
 62
     0
 10
391.188
 20
52.1462
 30
0.0
 11
392.01
 21
52.1462
 31
0.0
  0
LINE
  8
0
 62
     0
 10
392.01
 20
52.1462
 30
0.0
 11
392.01
 21
45.8763
 31
0.0
  0
LINE
  8
0
 62
     0
 10
392.01
 20
45.8763
 30
0.0
 11
393.739
 21
45.8763
 31
0.0
  0
LINE
  8
0
 62
     0
 10
393.739
 20
45.8763
 30
0.0
 11
393.739
 21
44.6761
 31
0.0
  0
LINE
  8
0
 62
     0
 10
393.739
 20
44.6761
 30
0.0
 11
397.037
 21
44.6761
 31
0.0
  0
LINE
  8
0
 62
     0
 10
397.037
 20
44.6761
 30
0.0
 11
397.037
 21
45.8763
 31
0.0
  0
LINE
  8
0
 62
     0
 10
397.037
 20
45.8763
 30
0.0
 11
398.762
 21
45.8763
 31
0.0
  0
LINE
  8
0
 62
     0
 10
398.762
 20
45.8763
 30
0.0
 11
398.762
 21
50.3467
 31
0.0
  0
LINE
  8
0
 62
     0
 10
398.762
 20
50.3467
 30
0.0
 11
400.286
 21
50.3467
 31
0.0
  0
LINE
  8
0
 62
     0
 10
400.286
 20
50.3467
 30
0.0
 11
400.286
 21
45.6463
 31
0.0
  0
LINE
  8
0
 62
     0
 10
400.286
 20
45.6463
 30
0.0
 11
414.288
 21
45.6463
 31
0.0
  0
LINE
  8
0
 62
     0
 10
414.288
 20
45.6463
 30
0.0
 11
414.288
 21
50.3467
 31
0.0
  0
LINE
  8
0
 62
     0
 10
414.288
 20
50.3467
 30
0.0
 11
415.812
 21
50.3467
 31
0.0
  0
LINE
  8
0
 62
     0
 10
415.812
 20
50.3467
 30
0.0
 11
415.812
 21
45.8763
 31
0.0
  0
LINE
  8
0
 62
     0
 10
415.812
 20
45.8763
 30
0.0
 11
417.537
 21
45.8763
 31
0.0
  0
LINE
  8
0
 62
     0
 10
417.537
 20
45.8763
 30
0.0
 11
417.537
 21
44.6761
 31
0.0
  0
LINE
  8
0
 62
     0
 10
417.537
 20
44.6761
 30
0.0
 11
420.839
 21
44.6761
 31
0.0
  0
LINE
  8
0
 62
     0
 10
420.839
 20
44.6761
 30
0.0
 11
420.839
 21
45.8763
 31
0.0
  0
LINE
  8
0
 62
     0
 10
420.839
 20
45.8763
 30
0.0
 11
422.564
 21
45.8763
 31
0.0
  0
LINE
  8
0
 62
     0
 10
422.564
 20
45.8763
 30
0.0
 11
422.564
 21
52.1462
 31
0.0
  0
LINE
  8
0
 62
     0
 10
422.564
 20
52.1462
 30
0.0
 11
423.386
 21
52.1462
 31
0.0
  0
LINE
  8
0
 62
     0
 10
423.386
 20
52.1462
 30
0.0
 11
423.386
 21
54.9465
 31
0.0
  0
LINE
  8
0
 62
     0
 10
423.386
 20
54.9465
 30
0.0
 11
422.564
 21
54.9465
 31
0.0
  0
LINE
  8
0
 62
     0
 10
422.564
 20
54.9465
 30
0.0
 11
422.564
 21
58.1766
 31
0.0
  0
LINE
  8
0
 62
     0
 10
422.564
 20
58.1766
 30
0.0
 11
415.812
 21
58.1766
 31
0.0
  0
LINE
  8
0
 62
     0
 10
415.812
 20
58.1766
 30
0.0
 11
415.812
 21
54.9465
 31
0.0
  0
LINE
  8
0
 62
     0
 10
415.812
 20
54.9465
 30
0.0
 11
414.288
 21
54.9465
 31
0.0
  0
LINE
  8
0
 62
     0
 10
414.288
 20
54.9465
 30
0.0
 11
414.288
 21
59.6456
 31
0.0
  0
LINE
  8
0
 62
     0
 10
414.288
 20
59.6456
 30
0.0
 11
400.286
 21
59.6456
 31
0.0
  0
LINE
  8
0
 62
     0
 10
2.61965
 20
59.6456
 30
0.0
 11
16.6192
 21
59.6456
 31
0.0
  0
LINE
  8
0
 62
     0
 10
16.6192
 20
59.6456
 30
0.0
 11
16.6192
 21
45.6463
 31
0.0
  0
LINE
  8
0
 62
     0
 10
16.6192
 20
45.6463
 30
0.0
 11
2.61965
 21
45.6463
 31
0.0
  0
LINE
  8
0
 62
     0
 10
2.61965
 20
45.6463
 30
0.0
 11
2.61965
 21
59.6456
 31
0.0
  0
LINE
  8
0
 62
     0
 10
26.4322
 20
59.6456
 30
0.0
 11
40.4315
 21
59.6456
 31
0.0
  0
LINE
  8
0
 62
     0
 10
40.4315
 20
59.6456
 30
0.0
 11
40.4315
 21
45.6463
 31
0.0
  0
LINE
  8
0
 62
     0
 10
40.4315
 20
45.6463
 30
0.0
 11
26.4322
 21
45.6463
 31
0.0
  0
LINE
  8
0
 62
     0
 10
26.4322
 20
45.6463
 30
0.0
 11
26.4322
 21
59.6456
 31
0.0
  0
LINE
  8
0
 62
     0
 10
45.4822
 20
59.6456
 30
0.0
 11
59.4815
 21
59.6456
 31
0.0
  0
LINE
  8
0
 62
     0
 10
59.4815
 20
59.6456
 30
0.0
 11
59.4815
 21
45.6463
 31
0.0
  0
LINE
  8
0
 62
     0
 10
59.4815
 20
45.6463
 30
0.0
 11
45.4822
 21
45.6463
 31
0.0
  0
LINE
  8
0
 62
     0
 10
45.4822
 20
45.6463
 30
0.0
 11
45.4822
 21
59.6456
 31
0.0
  0
LINE
  8
0
 62
     0
 10
64.5322
 20
59.6456
 30
0.0
 11
78.5315
 21
59.6456
 31
0.0
  0
LINE
  8
0
 62
     0
 10
78.5315
 20
59.6456
 30
0.0
 11
78.5315
 21
45.6463
 31
0.0
  0
LINE
  8
0
 62
     0
 10
78.5315
 20
45.6463
 30
0.0
 11
64.5322
 21
45.6463
 31
0.0
  0
LINE
  8
0
 62
     0
 10
64.5322
 20
45.6463
 30
0.0
 11
64.5322
 21
59.6456
 31
0.0
  0
LINE
  8
0
 62
     0
 10
83.5822
 20
59.6456
 30
0.0
 11
97.5815
 21
59.6456
 31
0.0
  0
LINE
  8
0
 62
     0
 10
97.5815
 20
59.6456
 30
0.0
 11
97.5815
 21
45.6463
 31
0.0
  0
LINE
  8
0
 62
     0
 10
97.5815
 20
45.6463
 30
0.0
 11
83.5822
 21
45.6463
 31
0.0
  0
LINE
  8
0
 62
     0
 10
83.5822
 20
45.6463
 30
0.0
 11
83.5822
 21
59.6456
 31
0.0
  0
LINE
  8
0
 62
     0
 10
152.637
 20
59.6456
 30
0.0
 11
166.638
 21
59.6456
 31
0.0
  0
LINE
  8
0
 62
     0
 10
166.638
 20
59.6456
 30
0.0
 11
166.638
 21
45.6463
 31
0.0
  0
LINE
  8
0
 62
     0
 10
166.638
 20
45.6463
 30
0.0
 11
152.637
 21
45.6463
 31
0.0
  0
LINE
  8
0
 62
     0
 10
152.637
 20
45.6463
 30
0.0
 11
152.637
 21
59.6456
 31
0.0
  0
LINE
  8
0
 62
     0
 10
178.832
 20
59.6456
 30
0.0
 11
192.832
 21
59.6456
 31
0.0
  0
LINE
  8
0
 62
     0
 10
192.832
 20
59.6456
 30
0.0
 11
192.832
 21
45.6463
 31
0.0
  0
LINE
  8
0
 62
     0
 10
192.832
 20
45.6463
 30
0.0
 11
178.832
 21
45.6463
 31
0.0
  0
LINE
  8
0
 62
     0
 10
178.832
 20
45.6463
 30
0.0
 11
178.832
 21
59.6456
 31
0.0
  0
LINE
  8
0
 62
     0
 10
197.882
 20
59.6456
 30
0.0
 11
211.882
 21
59.6456
 31
0.0
  0
LINE
  8
0
 62
     0
 10
211.882
 20
59.6456
 30
0.0
 11
211.882
 21
45.6463
 31
0.0
  0
LINE
  8
0
 62
     0
 10
211.882
 20
45.6463
 30
0.0
 11
197.882
 21
45.6463
 31
0.0
  0
LINE
  8
0
 62
     0
 10
197.882
 20
45.6463
 30
0.0
 11
197.882
 21
59.6456
 31
0.0
  0
LINE
  8
0
 62
     0
 10
216.932
 20
59.6456
 30
0.0
 11
230.932
 21
59.6456
 31
0.0
  0
LINE
  8
0
 62
     0
 10
230.932
 20
59.6456
 30
0.0
 11
230.932
 21
45.6463
 31
0.0
  0
LINE
  8
0
 62
     0
 10
230.932
 20
45.6463
 30
0.0
 11
216.932
 21
45.6463
 31
0.0
  0
LINE
  8
0
 62
     0
 10
216.932
 20
45.6463
 30
0.0
 11
216.932
 21
59.6456
 31
0.0
  0
LINE
  8
0
 62
     0
 10
235.982
 20
59.6456
 30
0.0
 11
249.982
 21
59.6456
 31
0.0
  0
LINE
  8
0
 62
     0
 10
249.982
 20
59.6456
 30
0.0
 11
249.982
 21
45.6463
 31
0.0
  0
LINE
  8
0
 62
     0
 10
249.982
 20
45.6463
 30
0.0
 11
235.982
 21
45.6463
 31
0.0
  0
LINE
  8
0
 62
     0
 10
235.982
 20
45.6463
 30
0.0
 11
235.982
 21
59.6456
 31
0.0
  0
LINE
  8
0
 62
     0
 10
255.032
 20
59.6456
 30
0.0
 11
269.032
 21
59.6456
 31
0.0
  0
LINE
  8
0
 62
     0
 10
269.032
 20
59.6456
 30
0.0
 11
269.032
 21
45.6463
 31
0.0
  0
LINE
  8
0
 62
     0
 10
269.032
 20
45.6463
 30
0.0
 11
255.032
 21
45.6463
 31
0.0
  0
LINE
  8
0
 62
     0
 10
255.032
 20
45.6463
 30
0.0
 11
255.032
 21
59.6456
 31
0.0
  0
LINE
  8
0
 62
     0
 10
274.082
 20
59.6456
 30
0.0
 11
288.082
 21
59.6456
 31
0.0
  0
LINE
  8
0
 62
     0
 10
288.082
 20
59.6456
 30
0.0
 11
288.082
 21
45.6463
 31
0.0
  0
LINE
  8
0
 62
     0
 10
288.082
 20
45.6463
 30
0.0
 11
274.082
 21
45.6463
 31
0.0
  0
LINE
  8
0
 62
     0
 10
274.082
 20
45.6463
 30
0.0
 11
274.082
 21
59.6456
 31
0.0
  0
LINE
  8
0
 62
     0
 10
293.132
 20
59.6456
 30
0.0
 11
307.132
 21
59.6456
 31
0.0
  0
LINE
  8
0
 62
     0
 10
307.132
 20
59.6456
 30
0.0
 11
307.132
 21
45.6463
 31
0.0
  0
LINE
  8
0
 62
     0
 10
307.132
 20
45.6463
 30
0.0
 11
293.132
 21
45.6463
 31
0.0
  0
LINE
  8
0
 62
     0
 10
293.132
 20
45.6463
 30
0.0
 11
293.132
 21
59.6456
 31
0.0
  0
LINE
  8
0
 62
     0
 10
312.182
 20
59.6456
 30
0.0
 11
326.182
 21
59.6456
 31
0.0
  0
LINE
  8
0
 62
     0
 10
326.182
 20
59.6456
 30
0.0
 11
326.182
 21
45.6463
 31
0.0
  0
LINE
  8
0
 62
     0
 10
326.182
 20
45.6463
 30
0.0
 11
312.182
 21
45.6463
 31
0.0
  0
LINE
  8
0
 62
     0
 10
312.182
 20
45.6463
 30
0.0
 11
312.182
 21
59.6456
 31
0.0
  0
LINE
  8
0
 62
     0
 10
331.232
 20
59.6456
 30
0.0
 11
345.232
 21
59.6456
 31
0.0
  0
LINE
  8
0
 62
     0
 10
345.232
 20
59.6456
 30
0.0
 11
345.232
 21
45.6463
 31
0.0
  0
LINE
  8
0
 62
     0
 10
345.232
 20
45.6463
 30
0.0
 11
331.232
 21
45.6463
 31
0.0
  0
LINE
  8
0
 62
     0
 10
331.232
 20
45.6463
 30
0.0
 11
331.232
 21
59.6456
 31
0.0
  0
LINE
  8
0
 62
     0
 10
350.282
 20
59.6456
 30
0.0
 11
364.282
 21
59.6456
 31
0.0
  0
LINE
  8
0
 62
     0
 10
364.282
 20
59.6456
 30
0.0
 11
364.282
 21
45.6463
 31
0.0
  0
LINE
  8
0
 62
     0
 10
364.282
 20
45.6463
 30
0.0
 11
350.282
 21
45.6463
 31
0.0
  0
LINE
  8
0
 62
     0
 10
350.282
 20
45.6463
 30
0.0
 11
350.282
 21
59.6456
 31
0.0
  0
LINE
  8
0
 62
     0
 10
369.334
 20
59.6456
 30
0.0
 11
383.332
 21
59.6456
 31
0.0
  0
LINE
  8
0
 62
     0
 10
383.332
 20
59.6456
 30
0.0
 11
383.332
 21
45.6463
 31
0.0
  0
LINE
  8
0
 62
     0
 10
383.332
 20
45.6463
 30
0.0
 11
369.334
 21
45.6463
 31
0.0
  0
LINE
  8
0
 62
     0
 10
369.334
 20
45.6463
 30
0.0
 11
369.334
 21
59.6456
 31
0.0
  0
LINE
  8
0
 62
     0
 10
440.771
 20
59.6456
 30
0.0
 11
454.769
 21
59.6456
 31
0.0
  0
LINE
  8
0
 62
     0
 10
454.769
 20
59.6456
 30
0.0
 11
454.769
 21
45.6463
 31
0.0
  0
LINE
  8
0
 62
     0
 10
454.769
 20
45.6463
 30
0.0
 11
440.771
 21
45.6463
 31
0.0
  0
LINE
  8
0
 62
     0
 10
440.771
 20
45.6463
 30
0.0
 11
440.771
 21
59.6456
 31
0.0
  0
LINE
  8
0
 62
     0
 10
2.61965
 20
78.6956
 30
0.0
 11
16.6192
 21
78.6956
 31
0.0
  0
LINE
  8
0
 62
     0
 10
16.6192
 20
78.6956
 30
0.0
 11
16.6192
 21
64.6963
 31
0.0
  0
LINE
  8
0
 62
     0
 10
16.6192
 20
64.6963
 30
0.0
 11
2.61965
 21
64.6963
 31
0.0
  0
LINE
  8
0
 62
     0
 10
2.61965
 20
64.6963
 30
0.0
 11
2.61965
 21
78.6956
 31
0.0
  0
LINE
  8
0
 62
     0
 10
26.4322
 20
78.6956
 30
0.0
 11
40.4315
 21
78.6956
 31
0.0
  0
LINE
  8
0
 62
     0
 10
40.4315
 20
78.6956
 30
0.0
 11
40.4315
 21
64.6963
 31
0.0
  0
LINE
  8
0
 62
     0
 10
40.4315
 20
64.6963
 30
0.0
 11
26.4322
 21
64.6963
 31
0.0
  0
LINE
  8
0
 62
     0
 10
26.4322
 20
64.6963
 30
0.0
 11
26.4322
 21
78.6956
 31
0.0
  0
LINE
  8
0
 62
     0
 10
45.4822
 20
78.6956
 30
0.0
 11
59.4815
 21
78.6956
 31
0.0
  0
LINE
  8
0
 62
     0
 10
59.4815
 20
78.6956
 30
0.0
 11
59.4815
 21
64.6963
 31
0.0
  0
LINE
  8
0
 62
     0
 10
59.4815
 20
64.6963
 30
0.0
 11
45.4822
 21
64.6963
 31
0.0
  0
LINE
  8
0
 62
     0
 10
45.4822
 20
64.6963
 30
0.0
 11
45.4822
 21
78.6956
 31
0.0
  0
LINE
  8
0
 62
     0
 10
64.5322
 20
78.6956
 30
0.0
 11
78.5315
 21
78.6956
 31
0.0
  0
LINE
  8
0
 62
     0
 10
78.5315
 20
78.6956
 30
0.0
 11
78.5315
 21
64.6963
 31
0.0
  0
LINE
  8
0
 62
     0
 10
78.5315
 20
64.6963
 30
0.0
 11
64.5322
 21
64.6963
 31
0.0
  0
LINE
  8
0
 62
     0
 10
64.5322
 20
64.6963
 30
0.0
 11
64.5322
 21
78.6956
 31
0.0
  0
LINE
  8
0
 62
     0
 10
83.5822
 20
78.6956
 30
0.0
 11
97.5815
 21
78.6956
 31
0.0
  0
LINE
  8
0
 62
     0
 10
97.5815
 20
78.6956
 30
0.0
 11
97.5815
 21
64.6963
 31
0.0
  0
LINE
  8
0
 62
     0
 10
97.5815
 20
64.6963
 30
0.0
 11
83.5822
 21
64.6963
 31
0.0
  0
LINE
  8
0
 62
     0
 10
83.5822
 20
64.6963
 30
0.0
 11
83.5822
 21
78.6956
 31
0.0
  0
LINE
  8
0
 62
     0
 10
150.257
 20
78.6956
 30
0.0
 11
164.257
 21
78.6956
 31
0.0
  0
LINE
  8
0
 62
     0
 10
164.257
 20
78.6956
 30
0.0
 11
164.257
 21
64.6963
 31
0.0
  0
LINE
  8
0
 62
     0
 10
164.257
 20
64.6963
 30
0.0
 11
150.257
 21
64.6963
 31
0.0
  0
LINE
  8
0
 62
     0
 10
150.257
 20
64.6963
 30
0.0
 11
150.257
 21
78.6956
 31
0.0
  0
LINE
  8
0
 62
     0
 10
174.07
 20
78.6956
 30
0.0
 11
188.069
 21
78.6956
 31
0.0
  0
LINE
  8
0
 62
     0
 10
188.069
 20
78.6956
 30
0.0
 11
188.069
 21
64.6963
 31
0.0
  0
LINE
  8
0
 62
     0
 10
188.069
 20
64.6963
 30
0.0
 11
174.07
 21
64.6963
 31
0.0
  0
LINE
  8
0
 62
     0
 10
174.07
 20
64.6963
 30
0.0
 11
174.07
 21
78.6956
 31
0.0
  0
LINE
  8
0
 62
     0
 10
193.12
 20
78.6956
 30
0.0
 11
207.119
 21
78.6956
 31
0.0
  0
LINE
  8
0
 62
     0
 10
207.119
 20
78.6956
 30
0.0
 11
207.119
 21
64.6963
 31
0.0
  0
LINE
  8
0
 62
     0
 10
207.119
 20
64.6963
 30
0.0
 11
193.12
 21
64.6963
 31
0.0
  0
LINE
  8
0
 62
     0
 10
193.12
 20
64.6963
 30
0.0
 11
193.12
 21
78.6956
 31
0.0
  0
LINE
  8
0
 62
     0
 10
212.17
 20
78.6956
 30
0.0
 11
226.169
 21
78.6956
 31
0.0
  0
LINE
  8
0
 62
     0
 10
226.169
 20
78.6956
 30
0.0
 11
226.169
 21
64.6963
 31
0.0
  0
LINE
  8
0
 62
     0
 10
226.169
 20
64.6963
 30
0.0
 11
212.17
 21
64.6963
 31
0.0
  0
LINE
  8
0
 62
     0
 10
212.17
 20
64.6963
 30
0.0
 11
212.17
 21
78.6956
 31
0.0
  0
LINE
  8
0
 62
     0
 10
231.22
 20
78.6956
 30
0.0
 11
245.219
 21
78.6956
 31
0.0
  0
LINE
  8
0
 62
     0
 10
245.219
 20
78.6956
 30
0.0
 11
245.219
 21
64.6963
 31
0.0
  0
LINE
  8
0
 62
     0
 10
245.219
 20
64.6963
 30
0.0
 11
231.22
 21
64.6963
 31
0.0
  0
LINE
  8
0
 62
     0
 10
231.22
 20
64.6963
 30
0.0
 11
231.22
 21
78.6956
 31
0.0
  0
LINE
  8
0
 62
     0
 10
250.27
 20
78.6956
 30
0.0
 11
264.269
 21
78.6956
 31
0.0
  0
LINE
  8
0
 62
     0
 10
264.269
 20
78.6956
 30
0.0
 11
264.269
 21
64.6963
 31
0.0
  0
LINE
  8
0
 62
     0
 10
264.269
 20
64.6963
 30
0.0
 11
250.27
 21
64.6963
 31
0.0
  0
LINE
  8
0
 62
     0
 10
250.27
 20
64.6963
 30
0.0
 11
250.27
 21
78.6956
 31
0.0
  0
LINE
  8
0
 62
     0
 10
269.32
 20
78.6956
 30
0.0
 11
283.319
 21
78.6956
 31
0.0
  0
LINE
  8
0
 62
     0
 10
283.319
 20
78.6956
 30
0.0
 11
283.319
 21
64.6963
 31
0.0
  0
LINE
  8
0
 62
     0
 10
283.319
 20
64.6963
 30
0.0
 11
269.32
 21
64.6963
 31
0.0
  0
LINE
  8
0
 62
     0
 10
269.32
 20
64.6963
 30
0.0
 11
269.32
 21
78.6956
 31
0.0
  0
LINE
  8
0
 62
     0
 10
288.37
 20
78.6956
 30
0.0
 11
302.369
 21
78.6956
 31
0.0
  0
LINE
  8
0
 62
     0
 10
302.369
 20
78.6956
 30
0.0
 11
302.369
 21
64.6963
 31
0.0
  0
LINE
  8
0
 62
     0
 10
302.369
 20
64.6963
 30
0.0
 11
288.37
 21
64.6963
 31
0.0
  0
LINE
  8
0
 62
     0
 10
288.37
 20
64.6963
 30
0.0
 11
288.37
 21
78.6956
 31
0.0
  0
LINE
  8
0
 62
     0
 10
307.42
 20
78.6956
 30
0.0
 11
321.419
 21
78.6956
 31
0.0
  0
LINE
  8
0
 62
     0
 10
321.419
 20
78.6956
 30
0.0
 11
321.419
 21
64.6963
 31
0.0
  0
LINE
  8
0
 62
     0
 10
321.419
 20
64.6963
 30
0.0
 11
307.42
 21
64.6963
 31
0.0
  0
LINE
  8
0
 62
     0
 10
307.42
 20
64.6963
 30
0.0
 11
307.42
 21
78.6956
 31
0.0
  0
LINE
  8
0
 62
     0
 10
326.47
 20
78.6956
 30
0.0
 11
340.469
 21
78.6956
 31
0.0
  0
LINE
  8
0
 62
     0
 10
340.469
 20
78.6956
 30
0.0
 11
340.469
 21
64.6963
 31
0.0
  0
LINE
  8
0
 62
     0
 10
340.469
 20
64.6963
 30
0.0
 11
326.47
 21
64.6963
 31
0.0
  0
LINE
  8
0
 62
     0
 10
326.47
 20
64.6963
 30
0.0
 11
326.47
 21
78.6956
 31
0.0
  0
LINE
  8
0
 62
     0
 10
345.52
 20
78.6956
 30
0.0
 11
359.519
 21
78.6956
 31
0.0
  0
LINE
  8
0
 62
     0
 10
359.519
 20
78.6956
 30
0.0
 11
359.519
 21
64.6963
 31
0.0
  0
LINE
  8
0
 62
     0
 10
359.519
 20
64.6963
 30
0.0
 11
345.52
 21
64.6963
 31
0.0
  0
LINE
  8
0
 62
     0
 10
345.52
 20
64.6963
 30
0.0
 11
345.52
 21
78.6956
 31
0.0
  0
LINE
  8
0
 62
     0
 10
364.571
 20
78.6956
 30
0.0
 11
378.569
 21
78.6956
 31
0.0
  0
LINE
  8
0
 62
     0
 10
378.569
 20
78.6956
 30
0.0
 11
378.569
 21
64.6963
 31
0.0
  0
LINE
  8
0
 62
     0
 10
378.569
 20
64.6963
 30
0.0
 11
364.571
 21
64.6963
 31
0.0
  0
LINE
  8
0
 62
     0
 10
364.571
 20
64.6963
 30
0.0
 11
364.571
 21
78.6956
 31
0.0
  0
LINE
  8
0
 62
     0
 10
383.621
 20
78.6956
 30
0.0
 11
397.619
 21
78.6956
 31
0.0
  0
LINE
  8
0
 62
     0
 10
397.619
 20
78.6956
 30
0.0
 11
397.619
 21
64.6963
 31
0.0
  0
LINE
  8
0
 62
     0
 10
397.619
 20
64.6963
 30
0.0
 11
383.621
 21
64.6963
 31
0.0
  0
LINE
  8
0
 62
     0
 10
383.621
 20
64.6963
 30
0.0
 11
383.621
 21
78.6956
 31
0.0
  0
LINE
  8
0
 62
     0
 10
407.434
 20
78.6956
 30
0.0
 11
421.432
 21
78.6956
 31
0.0
  0
LINE
  8
0
 62
     0
 10
421.432
 20
78.6956
 30
0.0
 11
421.432
 21
64.6963
 31
0.0
  0
LINE
  8
0
 62
     0
 10
421.432
 20
64.6963
 30
0.0
 11
407.434
 21
64.6963
 31
0.0
  0
LINE
  8
0
 62
     0
 10
407.434
 20
64.6963
 30
0.0
 11
407.434
 21
78.6956
 31
0.0
  0
LINE
  8
0
 62
     0
 10
440.771
 20
78.6956
 30
0.0
 11
454.769
 21
78.6956
 31
0.0
  0
LINE
  8
0
 62
     0
 10
454.769
 20
78.6956
 30
0.0
 11
454.769
 21
64.6963
 31
0.0
  0
LINE
  8
0
 62
     0
 10
454.769
 20
64.6963
 30
0.0
 11
440.771
 21
64.6963
 31
0.0
  0
LINE
  8
0
 62
     0
 10
440.771
 20
64.6963
 30
0.0
 11
440.771
 21
78.6956
 31
0.0
  0
LINE
  8
0
 62
     0
 10
402.671
 20
97.7456
 30
0.0
 11
402.671
 21
93.0465
 31
0.0
  0
LINE
  8
0
 62
     0
 10
402.671
 20
93.0465
 30
0.0
 11
401.144
 21
93.0465
 31
0.0
  0
LINE
  8
0
 62
     0
 10
401.144
 20
93.0465
 30
0.0
 11
401.144
 21
96.2766
 31
0.0
  0
LINE
  8
0
 62
     0
 10
401.144
 20
96.2766
 30
0.0
 11
394.395
 21
96.2766
 31
0.0
  0
LINE
  8
0
 62
     0
 10
394.395
 20
96.2766
 30
0.0
 11
394.395
 21
93.0465
 31
0.0
  0
LINE
  8
0
 62
     0
 10
394.395
 20
93.0465
 30
0.0
 11
393.569
 21
93.0465
 31
0.0
  0
LINE
  8
0
 62
     0
 10
393.569
 20
93.0465
 30
0.0
 11
393.569
 21
90.2462
 31
0.0
  0
LINE
  8
0
 62
     0
 10
393.569
 20
90.2462
 30
0.0
 11
394.395
 21
90.2462
 31
0.0
  0
LINE
  8
0
 62
     0
 10
394.395
 20
90.2462
 30
0.0
 11
394.395
 21
83.9763
 31
0.0
  0
LINE
  8
0
 62
     0
 10
394.395
 20
83.9763
 30
0.0
 11
396.12
 21
83.9763
 31
0.0
  0
LINE
  8
0
 62
     0
 10
396.12
 20
83.9763
 30
0.0
 11
396.12
 21
82.7761
 31
0.0
  0
LINE
  8
0
 62
     0
 10
396.12
 20
82.7761
 30
0.0
 11
399.419
 21
82.7761
 31
0.0
  0
LINE
  8
0
 62
     0
 10
399.419
 20
82.7761
 30
0.0
 11
399.419
 21
83.9763
 31
0.0
  0
LINE
  8
0
 62
     0
 10
399.419
 20
83.9763
 30
0.0
 11
401.144
 21
83.9763
 31
0.0
  0
LINE
  8
0
 62
     0
 10
401.144
 20
83.9763
 30
0.0
 11
401.144
 21
88.4467
 31
0.0
  0
LINE
  8
0
 62
     0
 10
401.144
 20
88.4467
 30
0.0
 11
402.671
 21
88.4467
 31
0.0
  0
LINE
  8
0
 62
     0
 10
402.671
 20
88.4467
 30
0.0
 11
402.671
 21
83.7463
 31
0.0
  0
LINE
  8
0
 62
     0
 10
402.671
 20
83.7463
 30
0.0
 11
416.669
 21
83.7463
 31
0.0
  0
LINE
  8
0
 62
     0
 10
416.669
 20
83.7463
 30
0.0
 11
416.669
 21
88.4467
 31
0.0
  0
LINE
  8
0
 62
     0
 10
416.669
 20
88.4467
 30
0.0
 11
418.193
 21
88.4467
 31
0.0
  0
LINE
  8
0
 62
     0
 10
418.193
 20
88.4467
 30
0.0
 11
418.193
 21
83.9763
 31
0.0
  0
LINE
  8
0
 62
     0
 10
418.193
 20
83.9763
 30
0.0
 11
419.918
 21
83.9763
 31
0.0
  0
LINE
  8
0
 62
     0
 10
419.918
 20
83.9763
 30
0.0
 11
419.918
 21
82.7761
 31
0.0
  0
LINE
  8
0
 62
     0
 10
419.918
 20
82.7761
 30
0.0
 11
423.22
 21
82.7761
 31
0.0
  0
LINE
  8
0
 62
     0
 10
423.22
 20
82.7761
 30
0.0
 11
423.22
 21
83.9763
 31
0.0
  0
LINE
  8
0
 62
     0
 10
423.22
 20
83.9763
 30
0.0
 11
424.946
 21
83.9763
 31
0.0
  0
LINE
  8
0
 62
     0
 10
424.946
 20
83.9763
 30
0.0
 11
424.946
 21
90.2462
 31
0.0
  0
LINE
  8
0
 62
     0
 10
424.946
 20
90.2462
 30
0.0
 11
425.771
 21
90.2462
 31
0.0
  0
LINE
  8
0
 62
     0
 10
425.771
 20
90.2462
 30
0.0
 11
425.771
 21
93.0465
 31
0.0
  0
LINE
  8
0
 62
     0
 10
425.771
 20
93.0465
 30
0.0
 11
424.946
 21
93.0465
 31
0.0
  0
LINE
  8
0
 62
     0
 10
424.946
 20
93.0465
 30
0.0
 11
424.946
 21
96.2766
 31
0.0
  0
LINE
  8
0
 62
     0
 10
424.946
 20
96.2766
 30
0.0
 11
418.193
 21
96.2766
 31
0.0
  0
LINE
  8
0
 62
     0
 10
418.193
 20
96.2766
 30
0.0
 11
418.193
 21
93.0465
 31
0.0
  0
LINE
  8
0
 62
     0
 10
418.193
 20
93.0465
 30
0.0
 11
416.669
 21
93.0465
 31
0.0
  0
LINE
  8
0
 62
     0
 10
416.669
 20
93.0465
 30
0.0
 11
416.669
 21
97.7456
 31
0.0
  0
LINE
  8
0
 62
     0
 10
416.669
 20
97.7456
 30
0.0
 11
402.671
 21
97.7456
 31
0.0
  0
LINE
  8
0
 62
     0
 10
2.61965
 20
97.7456
 30
0.0
 11
16.6192
 21
97.7456
 31
0.0
  0
LINE
  8
0
 62
     0
 10
16.6192
 20
97.7456
 30
0.0
 11
16.6192
 21
83.7463
 31
0.0
  0
LINE
  8
0
 62
     0
 10
16.6192
 20
83.7463
 30
0.0
 11
2.61965
 21
83.7463
 31
0.0
  0
LINE
  8
0
 62
     0
 10
2.61965
 20
83.7463
 30
0.0
 11
2.61965
 21
97.7456
 31
0.0
  0
LINE
  8
0
 62
     0
 10
26.4322
 20
97.7456
 30
0.0
 11
40.4315
 21
97.7456
 31
0.0
  0
LINE
  8
0
 62
     0
 10
40.4315
 20
97.7456
 30
0.0
 11
40.4315
 21
83.7463
 31
0.0
  0
LINE
  8
0
 62
     0
 10
40.4315
 20
83.7463
 30
0.0
 11
26.4322
 21
83.7463
 31
0.0
  0
LINE
  8
0
 62
     0
 10
26.4322
 20
83.7463
 30
0.0
 11
26.4322
 21
97.7456
 31
0.0
  0
LINE
  8
0
 62
     0
 10
45.4822
 20
97.7456
 30
0.0
 11
59.4815
 21
97.7456
 31
0.0
  0
LINE
  8
0
 62
     0
 10
59.4815
 20
97.7456
 30
0.0
 11
59.4815
 21
83.7463
 31
0.0
  0
LINE
  8
0
 62
     0
 10
59.4815
 20
83.7463
 30
0.0
 11
45.4822
 21
83.7463
 31
0.0
  0
LINE
  8
0
 62
     0
 10
45.4822
 20
83.7463
 30
0.0
 11
45.4822
 21
97.7456
 31
0.0
  0
LINE
  8
0
 62
     0
 10
64.5322
 20
97.7456
 30
0.0
 11
78.5315
 21
97.7456
 31
0.0
  0
LINE
  8
0
 62
     0
 10
78.5315
 20
97.7456
 30
0.0
 11
78.5315
 21
83.7463
 31
0.0
  0
LINE
  8
0
 62
     0
 10
78.5315
 20
83.7463
 30
0.0
 11
64.5322
 21
83.7463
 31
0.0
  0
LINE
  8
0
 62
     0
 10
64.5322
 20
83.7463
 30
0.0
 11
64.5322
 21
97.7456
 31
0.0
  0
LINE
  8
0
 62
     0
 10
83.5822
 20
97.7456
 30
0.0
 11
97.5815
 21
97.7456
 31
0.0
  0
LINE
  8
0
 62
     0
 10
97.5815
 20
97.7456
 30
0.0
 11
97.5815
 21
83.7463
 31
0.0
  0
LINE
  8
0
 62
     0
 10
97.5815
 20
83.7463
 30
0.0
 11
83.5822
 21
83.7463
 31
0.0
  0
LINE
  8
0
 62
     0
 10
83.5822
 20
83.7463
 30
0.0
 11
83.5822
 21
97.7456
 31
0.0
  0
LINE
  8
0
 62
     0
 10
145.495
 20
97.7456
 30
0.0
 11
159.494
 21
97.7456
 31
0.0
  0
LINE
  8
0
 62
     0
 10
159.494
 20
97.7456
 30
0.0
 11
159.494
 21
83.7463
 31
0.0
  0
LINE
  8
0
 62
     0
 10
159.494
 20
83.7463
 30
0.0
 11
145.495
 21
83.7463
 31
0.0
  0
LINE
  8
0
 62
     0
 10
145.495
 20
83.7463
 30
0.0
 11
145.495
 21
97.7456
 31
0.0
  0
LINE
  8
0
 62
     0
 10
164.545
 20
97.7456
 30
0.0
 11
178.544
 21
97.7456
 31
0.0
  0
LINE
  8
0
 62
     0
 10
178.544
 20
97.7456
 30
0.0
 11
178.544
 21
83.7463
 31
0.0
  0
LINE
  8
0
 62
     0
 10
178.544
 20
83.7463
 30
0.0
 11
164.545
 21
83.7463
 31
0.0
  0
LINE
  8
0
 62
     0
 10
164.545
 20
83.7463
 30
0.0
 11
164.545
 21
97.7456
 31
0.0
  0
LINE
  8
0
 62
     0
 10
183.595
 20
97.7456
 30
0.0
 11
197.594
 21
97.7456
 31
0.0
  0
LINE
  8
0
 62
     0
 10
197.594
 20
97.7456
 30
0.0
 11
197.594
 21
83.7463
 31
0.0
  0
LINE
  8
0
 62
     0
 10
197.594
 20
83.7463
 30
0.0
 11
183.595
 21
83.7463
 31
0.0
  0
LINE
  8
0
 62
     0
 10
183.595
 20
83.7463
 30
0.0
 11
183.595
 21
97.7456
 31
0.0
  0
LINE
  8
0
 62
     0
 10
202.645
 20
97.7456
 30
0.0
 11
216.644
 21
97.7456
 31
0.0
  0
LINE
  8
0
 62
     0
 10
216.644
 20
97.7456
 30
0.0
 11
216.644
 21
83.7463
 31
0.0
  0
LINE
  8
0
 62
     0
 10
216.644
 20
83.7463
 30
0.0
 11
202.645
 21
83.7463
 31
0.0
  0
LINE
  8
0
 62
     0
 10
202.645
 20
83.7463
 30
0.0
 11
202.645
 21
97.7456
 31
0.0
  0
LINE
  8
0
 62
     0
 10
221.695
 20
97.7456
 30
0.0
 11
235.694
 21
97.7456
 31
0.0
  0
LINE
  8
0
 62
     0
 10
235.694
 20
97.7456
 30
0.0
 11
235.694
 21
83.7463
 31
0.0
  0
LINE
  8
0
 62
     0
 10
235.694
 20
83.7463
 30
0.0
 11
221.695
 21
83.7463
 31
0.0
  0
LINE
  8
0
 62
     0
 10
221.695
 20
83.7463
 30
0.0
 11
221.695
 21
97.7456
 31
0.0
  0
LINE
  8
0
 62
     0
 10
240.745
 20
97.7456
 30
0.0
 11
254.744
 21
97.7456
 31
0.0
  0
LINE
  8
0
 62
     0
 10
254.744
 20
97.7456
 30
0.0
 11
254.744
 21
83.7463
 31
0.0
  0
LINE
  8
0
 62
     0
 10
254.744
 20
83.7463
 30
0.0
 11
240.745
 21
83.7463
 31
0.0
  0
LINE
  8
0
 62
     0
 10
240.745
 20
83.7463
 30
0.0
 11
240.745
 21
97.7456
 31
0.0
  0
LINE
  8
0
 62
     0
 10
259.795
 20
97.7456
 30
0.0
 11
273.794
 21
97.7456
 31
0.0
  0
LINE
  8
0
 62
     0
 10
273.794
 20
97.7456
 30
0.0
 11
273.794
 21
83.7463
 31
0.0
  0
LINE
  8
0
 62
     0
 10
273.794
 20
83.7463
 30
0.0
 11
259.795
 21
83.7463
 31
0.0
  0
LINE
  8
0
 62
     0
 10
259.795
 20
83.7463
 30
0.0
 11
259.795
 21
97.7456
 31
0.0
  0
LINE
  8
0
 62
     0
 10
278.845
 20
97.7456
 30
0.0
 11
292.844
 21
97.7456
 31
0.0
  0
LINE
  8
0
 62
     0
 10
292.844
 20
97.7456
 30
0.0
 11
292.844
 21
83.7463
 31
0.0
  0
LINE
  8
0
 62
     0
 10
292.844
 20
83.7463
 30
0.0
 11
278.845
 21
83.7463
 31
0.0
  0
LINE
  8
0
 62
     0
 10
278.845
 20
83.7463
 30
0.0
 11
278.845
 21
97.7456
 31
0.0
  0
LINE
  8
0
 62
     0
 10
297.895
 20
97.7456
 30
0.0
 11
311.894
 21
97.7456
 31
0.0
  0
LINE
  8
0
 62
     0
 10
311.894
 20
97.7456
 30
0.0
 11
311.894
 21
83.7463
 31
0.0
  0
LINE
  8
0
 62
     0
 10
311.894
 20
83.7463
 30
0.0
 11
297.895
 21
83.7463
 31
0.0
  0
LINE
  8
0
 62
     0
 10
297.895
 20
83.7463
 30
0.0
 11
297.895
 21
97.7456
 31
0.0
  0
LINE
  8
0
 62
     0
 10
316.945
 20
97.7456
 30
0.0
 11
330.944
 21
97.7456
 31
0.0
  0
LINE
  8
0
 62
     0
 10
330.944
 20
97.7456
 30
0.0
 11
330.944
 21
83.7463
 31
0.0
  0
LINE
  8
0
 62
     0
 10
330.944
 20
83.7463
 30
0.0
 11
316.945
 21
83.7463
 31
0.0
  0
LINE
  8
0
 62
     0
 10
316.945
 20
83.7463
 30
0.0
 11
316.945
 21
97.7456
 31
0.0
  0
LINE
  8
0
 62
     0
 10
335.995
 20
97.7456
 30
0.0
 11
349.994
 21
97.7456
 31
0.0
  0
LINE
  8
0
 62
     0
 10
349.994
 20
97.7456
 30
0.0
 11
349.994
 21
83.7463
 31
0.0
  0
LINE
  8
0
 62
     0
 10
349.994
 20
83.7463
 30
0.0
 11
335.995
 21
83.7463
 31
0.0
  0
LINE
  8
0
 62
     0
 10
335.995
 20
83.7463
 30
0.0
 11
335.995
 21
97.7456
 31
0.0
  0
LINE
  8
0
 62
     0
 10
355.046
 20
97.7456
 30
0.0
 11
369.044
 21
97.7456
 31
0.0
  0
LINE
  8
0
 62
     0
 10
369.044
 20
97.7456
 30
0.0
 11
369.044
 21
83.7463
 31
0.0
  0
LINE
  8
0
 62
     0
 10
369.044
 20
83.7463
 30
0.0
 11
355.046
 21
83.7463
 31
0.0
  0
LINE
  8
0
 62
     0
 10
355.046
 20
83.7463
 30
0.0
 11
355.046
 21
97.7456
 31
0.0
  0
LINE
  8
0
 62
     0
 10
374.096
 20
97.7456
 30
0.0
 11
388.094
 21
97.7456
 31
0.0
  0
LINE
  8
0
 62
     0
 10
388.094
 20
97.7456
 30
0.0
 11
388.094
 21
83.7463
 31
0.0
  0
LINE
  8
0
 62
     0
 10
388.094
 20
83.7463
 30
0.0
 11
374.096
 21
83.7463
 31
0.0
  0
LINE
  8
0
 62
     0
 10
374.096
 20
83.7463
 30
0.0
 11
374.096
 21
97.7456
 31
0.0
  0
LINE
  8
0
 62
     0
 10
440.771
 20
97.7456
 30
0.0
 11
454.769
 21
97.7456
 31
0.0
  0
LINE
  8
0
 62
     0
 10
454.769
 20
97.7456
 30
0.0
 11
454.769
 21
83.7463
 31
0.0
  0
LINE
  8
0
 62
     0
 10
454.769
 20
83.7463
 30
0.0
 11
440.771
 21
83.7463
 31
0.0
  0
LINE
  8
0
 62
     0
 10
440.771
 20
83.7463
 30
0.0
 11
440.771
 21
97.7456
 31
0.0
  0
LINE
  8
0
 62
     0
 10
26.4322
 20
121.558
 30
0.0
 11
40.4315
 21
121.558
 31
0.0
  0
LINE
  8
0
 62
     0
 10
40.4315
 20
121.558
 30
0.0
 11
40.4315
 21
107.559
 31
0.0
  0
LINE
  8
0
 62
     0
 10
40.4315
 20
107.559
 30
0.0
 11
26.4322
 21
107.559
 31
0.0
  0
LINE
  8
0
 62
     0
 10
26.4322
 20
107.559
 30
0.0
 11
26.4322
 21
121.558
 31
0.0
  0
LINE
  8
0
 62
     0
 10
45.4822
 20
121.558
 30
0.0
 11
59.4815
 21
121.558
 31
0.0
  0
LINE
  8
0
 62
     0
 10
59.4815
 20
121.558
 30
0.0
 11
59.4815
 21
107.559
 31
0.0
  0
LINE
  8
0
 62
     0
 10
59.4815
 20
107.559
 30
0.0
 11
45.4822
 21
107.559
 31
0.0
  0
LINE
  8
0
 62
     0
 10
45.4822
 20
107.559
 30
0.0
 11
45.4822
 21
121.558
 31
0.0
  0
LINE
  8
0
 62
     0
 10
64.5322
 20
121.558
 30
0.0
 11
78.5315
 21
121.558
 31
0.0
  0
LINE
  8
0
 62
     0
 10
78.5315
 20
121.558
 30
0.0
 11
78.5315
 21
107.559
 31
0.0
  0
LINE
  8
0
 62
     0
 10
78.5315
 20
107.559
 30
0.0
 11
64.5322
 21
107.559
 31
0.0
  0
LINE
  8
0
 62
     0
 10
64.5322
 20
107.559
 30
0.0
 11
64.5322
 21
121.558
 31
0.0
  0
LINE
  8
0
 62
     0
 10
83.5822
 20
121.558
 30
0.0
 11
97.5815
 21
121.558
 31
0.0
  0
LINE
  8
0
 62
     0
 10
97.5815
 20
121.558
 30
0.0
 11
97.5815
 21
107.559
 31
0.0
  0
LINE
  8
0
 62
     0
 10
97.5815
 20
107.559
 30
0.0
 11
83.5822
 21
107.559
 31
0.0
  0
LINE
  8
0
 62
     0
 10
83.5822
 20
107.559
 30
0.0
 11
83.5822
 21
121.558
 31
0.0
  0
LINE
  8
0
 62
     0
 10
145.495
 20
121.558
 30
0.0
 11
159.494
 21
121.558
 31
0.0
  0
LINE
  8
0
 62
     0
 10
159.494
 20
121.558
 30
0.0
 11
159.494
 21
107.559
 31
0.0
  0
LINE
  8
0
 62
     0
 10
159.494
 20
107.559
 30
0.0
 11
145.495
 21
107.559
 31
0.0
  0
LINE
  8
0
 62
     0
 10
145.495
 20
107.559
 30
0.0
 11
145.495
 21
121.558
 31
0.0
  0
LINE
  8
0
 62
     0
 10
169.307
 20
121.558
 30
0.0
 11
183.307
 21
121.558
 31
0.0
  0
LINE
  8
0
 62
     0
 10
183.307
 20
121.558
 30
0.0
 11
183.307
 21
107.559
 31
0.0
  0
LINE
  8
0
 62
     0
 10
183.307
 20
107.559
 30
0.0
 11
169.307
 21
107.559
 31
0.0
  0
LINE
  8
0
 62
     0
 10
169.307
 20
107.559
 30
0.0
 11
169.307
 21
121.558
 31
0.0
  0
LINE
  8
0
 62
     0
 10
188.357
 20
121.558
 30
0.0
 11
202.357
 21
121.558
 31
0.0
  0
LINE
  8
0
 62
     0
 10
202.357
 20
121.558
 30
0.0
 11
202.357
 21
107.559
 31
0.0
  0
LINE
  8
0
 62
     0
 10
202.357
 20
107.559
 30
0.0
 11
188.357
 21
107.559
 31
0.0
  0
LINE
  8
0
 62
     0
 10
188.357
 20
107.559
 30
0.0
 11
188.357
 21
121.558
 31
0.0
  0
LINE
  8
0
 62
     0
 10
207.407
 20
121.558
 30
0.0
 11
221.407
 21
121.558
 31
0.0
  0
LINE
  8
0
 62
     0
 10
221.407
 20
121.558
 30
0.0
 11
221.407
 21
107.559
 31
0.0
  0
LINE
  8
0
 62
     0
 10
221.407
 20
107.559
 30
0.0
 11
207.407
 21
107.559
 31
0.0
  0
LINE
  8
0
 62
     0
 10
207.407
 20
107.559
 30
0.0
 11
207.407
 21
121.558
 31
0.0
  0
LINE
  8
0
 62
     0
 10
226.457
 20
121.558
 30
0.0
 11
240.457
 21
121.558
 31
0.0
  0
LINE
  8
0
 62
     0
 10
240.457
 20
121.558
 30
0.0
 11
240.457
 21
107.559
 31
0.0
  0
LINE
  8
0
 62
     0
 10
240.457
 20
107.559
 30
0.0
 11
226.457
 21
107.559
 31
0.0
  0
LINE
  8
0
 62
     0
 10
226.457
 20
107.559
 30
0.0
 11
226.457
 21
121.558
 31
0.0
  0
LINE
  8
0
 62
     0
 10
250.27
 20
121.558
 30
0.0
 11
264.269
 21
121.558
 31
0.0
  0
LINE
  8
0
 62
     0
 10
264.269
 20
121.558
 30
0.0
 11
264.269
 21
107.559
 31
0.0
  0
LINE
  8
0
 62
     0
 10
264.269
 20
107.559
 30
0.0
 11
250.27
 21
107.559
 31
0.0
  0
LINE
  8
0
 62
     0
 10
250.27
 20
107.559
 30
0.0
 11
250.27
 21
121.558
 31
0.0
  0
LINE
  8
0
 62
     0
 10
269.32
 20
121.558
 30
0.0
 11
283.319
 21
121.558
 31
0.0
  0
LINE
  8
0
 62
     0
 10
283.319
 20
121.558
 30
0.0
 11
283.319
 21
107.559
 31
0.0
  0
LINE
  8
0
 62
     0
 10
283.319
 20
107.559
 30
0.0
 11
269.32
 21
107.559
 31
0.0
  0
LINE
  8
0
 62
     0
 10
269.32
 20
107.559
 30
0.0
 11
269.32
 21
121.558
 31
0.0
  0
LINE
  8
0
 62
     0
 10
288.37
 20
121.558
 30
0.0
 11
302.369
 21
121.558
 31
0.0
  0
LINE
  8
0
 62
     0
 10
302.369
 20
121.558
 30
0.0
 11
302.369
 21
107.559
 31
0.0
  0
LINE
  8
0
 62
     0
 10
302.369
 20
107.559
 30
0.0
 11
288.37
 21
107.559
 31
0.0
  0
LINE
  8
0
 62
     0
 10
288.37
 20
107.559
 30
0.0
 11
288.37
 21
121.558
 31
0.0
  0
LINE
  8
0
 62
     0
 10
307.42
 20
121.558
 30
0.0
 11
321.419
 21
121.558
 31
0.0
  0
LINE
  8
0
 62
     0
 10
321.419
 20
121.558
 30
0.0
 11
321.419
 21
107.559
 31
0.0
  0
LINE
  8
0
 62
     0
 10
321.419
 20
107.559
 30
0.0
 11
307.42
 21
107.559
 31
0.0
  0
LINE
  8
0
 62
     0
 10
307.42
 20
107.559
 30
0.0
 11
307.42
 21
121.558
 31
0.0
  0
LINE
  8
0
 62
     0
 10
331.232
 20
121.558
 30
0.0
 11
345.232
 21
121.558
 31
0.0
  0
LINE
  8
0
 62
     0
 10
345.232
 20
121.558
 30
0.0
 11
345.232
 21
107.559
 31
0.0
  0
LINE
  8
0
 62
     0
 10
345.232
 20
107.559
 30
0.0
 11
331.232
 21
107.559
 31
0.0
  0
LINE
  8
0
 62
     0
 10
331.232
 20
107.559
 30
0.0
 11
331.232
 21
121.558
 31
0.0
  0
LINE
  8
0
 62
     0
 10
350.282
 20
121.558
 30
0.0
 11
364.282
 21
121.558
 31
0.0
  0
LINE
  8
0
 62
     0
 10
364.282
 20
121.558
 30
0.0
 11
364.282
 21
107.559
 31
0.0
  0
LINE
  8
0
 62
     0
 10
364.282
 20
107.559
 30
0.0
 11
350.282
 21
107.559
 31
0.0
  0
LINE
  8
0
 62
     0
 10
350.282
 20
107.559
 30
0.0
 11
350.282
 21
121.558
 31
0.0
  0
LINE
  8
0
 62
     0
 10
369.334
 20
121.558
 30
0.0
 11
383.332
 21
121.558
 31
0.0
  0
LINE
  8
0
 62
     0
 10
383.332
 20
121.558
 30
0.0
 11
383.332
 21
107.559
 31
0.0
  0
LINE
  8
0
 62
     0
 10
383.332
 20
107.559
 30
0.0
 11
369.334
 21
107.559
 31
0.0
  0
LINE
  8
0
 62
     0
 10
369.334
 20
107.559
 30
0.0
 11
369.334
 21
121.558
 31
0.0
  0
LINE
  8
0
 62
     0
 10
388.384
 20
121.558
 30
0.0
 11
402.382
 21
121.558
 31
0.0
  0
LINE
  8
0
 62
     0
 10
402.382
 20
121.558
 30
0.0
 11
402.382
 21
107.559
 31
0.0
  0
LINE
  8
0
 62
     0
 10
402.382
 20
107.559
 30
0.0
 11
388.384
 21
107.559
 31
0.0
  0
LINE
  8
0
 62
     0
 10
388.384
 20
107.559
 30
0.0
 11
388.384
 21
121.558
 31
0.0
  0
LINE
  8
0
 62
     0
 10
412.196
 20
121.558
 30
0.0
 11
426.194
 21
121.558
 31
0.0
  0
LINE
  8
0
 62
     0
 10
426.194
 20
121.558
 30
0.0
 11
426.194
 21
107.559
 31
0.0
  0
LINE
  8
0
 62
     0
 10
426.194
 20
107.559
 30
0.0
 11
412.196
 21
107.559
 31
0.0
  0
LINE
  8
0
 62
     0
 10
412.196
 20
107.559
 30
0.0
 11
412.196
 21
121.558
 31
0.0
  0
LINE
  8
0
 62
     0
 10
440.771
 20
121.558
 30
0.0
 11
454.769
 21
121.558
 31
0.0
  0
LINE
  8
0
 62
     0
 10
454.769
 20
121.558
 30
0.0
 11
454.769
 21
107.559
 31
0.0
  0
LINE
  8
0
 62
     0
 10
454.769
 20
107.559
 30
0.0
 11
440.771
 21
107.559
 31
0.0
  0
LINE
  8
0
 62
     0
 10
440.771
 20
107.559
 30
0.0
 11
440.771
 21
121.558
 31
0.0
  0
ENDSEC
  0
EOF
